<?xml version="1.0" encoding="UTF-8" standalone="no"?>
<!-- Created with Inkscape (http://www.inkscape.org/) -->

<svg
   xmlns:dc="http://purl.org/dc/elements/1.1/"
   xmlns:cc="http://creativecommons.org/ns#"
   xmlns:rdf="http://www.w3.org/1999/02/22-rdf-syntax-ns#"
   xmlns:svg="http://www.w3.org/2000/svg"
   xmlns="http://www.w3.org/2000/svg"
   xmlns:sodipodi="http://sodipodi.sourceforge.net/DTD/sodipodi-0.dtd"
   xmlns:inkscape="http://www.inkscape.org/namespaces/inkscape"
   version="1.1"
   id="svg2"
   xml:space="preserve"
   width="1044.6554"
   height="832.08929"
   viewBox="0 0 1044.6554 832.08929"
   sodipodi:docname="infografia7.svg"
   inkscape:version="0.92.4 (33fec40, 2019-01-16)"
   inkscape:export-filename="/home/ivanjoz/Documentos/Recolócate Entregables/01. Infografía/versión.pdf.png"
   inkscape:export-xdpi="180"
   inkscape:export-ydpi="180"><metadata
     id="metadata8"><rdf:RDF><cc:Work
         rdf:about=""><dc:format>image/svg+xml</dc:format><dc:type
           rdf:resource="http://purl.org/dc/dcmitype/StillImage" /><dc:title /></cc:Work></rdf:RDF></metadata><defs
     id="defs6"><clipPath
       clipPathUnits="userSpaceOnUse"
       id="clipPath24"><path
         d="M 0,708.66 H 708.66 V 0 H 0 Z"
         id="path22"
         inkscape:connector-curvature="0" /></clipPath><clipPath
       clipPathUnits="userSpaceOnUse"
       id="clipPath124"><path
         d="M 0,708.66 H 708.66 V 0 H 0 Z"
         id="path122"
         inkscape:connector-curvature="0" /></clipPath><clipPath
       clipPathUnits="userSpaceOnUse"
       id="clipPath152"><path
         d="M 0,708.66 H 708.66 V 0 H 0 Z"
         id="path150"
         inkscape:connector-curvature="0" /></clipPath><clipPath
       clipPathUnits="userSpaceOnUse"
       id="clipPath168"><path
         d="M 0,708.66 H 708.66 V 0 H 0 Z"
         id="path166"
         inkscape:connector-curvature="0" /></clipPath><clipPath
       clipPathUnits="userSpaceOnUse"
       id="clipPath184"><path
         d="M 0,708.66 H 708.66 V 0 H 0 Z"
         id="path182"
         inkscape:connector-curvature="0" /></clipPath><clipPath
       clipPathUnits="userSpaceOnUse"
       id="clipPath200"><path
         d="M 0,708.66 H 708.66 V 0 H 0 Z"
         id="path198"
         inkscape:connector-curvature="0" /></clipPath><clipPath
       clipPathUnits="userSpaceOnUse"
       id="clipPath264"><path
         d="M 0,708.66 H 708.66 V 0 H 0 Z"
         id="path262"
         inkscape:connector-curvature="0" /></clipPath><clipPath
       clipPathUnits="userSpaceOnUse"
       id="clipPath326"><path
         d="M 0,708.66 H 708.66 V 0 H 0 Z"
         id="path324"
         inkscape:connector-curvature="0" /></clipPath><clipPath
       clipPathUnits="userSpaceOnUse"
       id="clipPath348"><path
         d="M 0,708.66 H 708.66 V 0 H 0 Z"
         id="path346"
         inkscape:connector-curvature="0" /></clipPath><clipPath
       clipPathUnits="userSpaceOnUse"
       id="clipPath432"><path
         d="M 0,708.66 H 708.66 V 0 H 0 Z"
         id="path430"
         inkscape:connector-curvature="0" /></clipPath><clipPath
       clipPathUnits="userSpaceOnUse"
       id="clipPath452"><path
         d="M 0,708.66 H 708.66 V 0 H 0 Z"
         id="path450"
         inkscape:connector-curvature="0" /></clipPath><clipPath
       clipPathUnits="userSpaceOnUse"
       id="clipPath508"><path
         d="M 0,708.66 H 708.66 V 0 H 0 Z"
         id="path506"
         inkscape:connector-curvature="0" /></clipPath><clipPath
       clipPathUnits="userSpaceOnUse"
       id="clipPath530"><path
         d="M 0,708.66 H 708.66 V 0 H 0 Z"
         id="path528"
         inkscape:connector-curvature="0" /></clipPath><clipPath
       clipPathUnits="userSpaceOnUse"
       id="clipPath598"><path
         d="M 0,708.66 H 708.66 V 0 H 0 Z"
         id="path596"
         inkscape:connector-curvature="0" /></clipPath></defs><sodipodi:namedview
     pagecolor="#ffffff"
     bordercolor="#666666"
     borderopacity="1"
     objecttolerance="10"
     gridtolerance="10"
     guidetolerance="10"
     inkscape:pageopacity="0"
     inkscape:pageshadow="2"
     inkscape:window-width="1920"
     inkscape:window-height="1011"
     id="namedview4"
     showgrid="false"
     inkscape:zoom="0.70644822"
     inkscape:cx="461.13844"
     inkscape:cy="423.87145"
     inkscape:window-x="0"
     inkscape:window-y="0"
     inkscape:window-maximized="1"
     inkscape:current-layer="g10"
     fit-margin-top="0"
     fit-margin-left="0"
     fit-margin-right="0"
     fit-margin-bottom="0" /><g
     id="g10"
     inkscape:groupmode="layer"
     inkscape:label="versión"
     transform="matrix(1.3333333,0,0,-1.3333333,55.592143,832.08931)"><path
   d="M -41.694108,312.033 H 354.33 V 624.067 H -41.694108 Z"
   style="fill:#e9e9e9;fill-opacity:1;fill-rule:nonzero;stroke:none;stroke-width:1.05719924"
   id="path110"
   inkscape:connector-curvature="0" /><path
   d="M 354.33,312.033 H 741.79747 V 624.067 H 354.33 Z"
   style="fill:#d3d2d2;fill-opacity:1;fill-rule:nonzero;stroke:none;stroke-width:1.04571581"
   id="path112"
   inkscape:connector-curvature="0" /><path
   d="M -41.694108,0 H 354.33 V 312.033 H -41.694108 Z"
   style="fill:#bdbcbc;fill-opacity:1;fill-rule:nonzero;stroke:none;stroke-width:1.05719924"
   id="path114"
   inkscape:connector-curvature="0" /><path
   d="M 354.33,0 H 741.79747 V 312.033 H 354.33 Z"
   style="fill:#f2f2f2;fill-opacity:1;fill-rule:nonzero;stroke:none;stroke-width:1.04571581"
   id="path116"
   inkscape:connector-curvature="0" /><g
   id="g118"><g
     id="g120"
     clip-path="url(#clipPath124)"><g
       id="g126"
       transform="translate(314.1602,312.0331)"><path
         d="M 0,0 H 40.17 V 40.17 C 17.984,40.17 0,22.186 0,0"
         style="fill:#f4bd1e;fill-opacity:1;fill-rule:nonzero;stroke:none"
         id="path128"
         inkscape:connector-curvature="0" /></g><g
       id="g130"
       transform="translate(394.5,312.0331)"><path
         d="M 0,0 C 0,22.186 -17.984,40.17 -40.17,40.17 V 0 Z"
         style="fill:#f57925;fill-opacity:1;fill-rule:nonzero;stroke:none"
         id="path132"
         inkscape:connector-curvature="0" /></g><g
       id="g134"
       transform="translate(314.1602,312.0331)"><path
         d="M 0,0 C 0,-22.185 17.984,-40.17 40.17,-40.17 V 0 Z"
         style="fill:#f57925;fill-opacity:1;fill-rule:nonzero;stroke:none"
         id="path136"
         inkscape:connector-curvature="0" /></g><g
       id="g138"
       transform="translate(354.3301,271.8631)"><path
         d="M 0,0 C 22.186,0 40.17,17.985 40.17,40.17 H 0 Z"
         style="fill:#f4bd1e;fill-opacity:1;fill-rule:nonzero;stroke:none"
         id="path140"
         inkscape:connector-curvature="0" /></g></g></g><text
   transform="scale(1,-1)"
   style="font-variant:normal;font-weight:normal;font-stretch:normal;font-size:22px;font-family:NTF-Grand;-inkscape-font-specification:NTF-Grand-Regular;writing-mode:lr-tb;fill:#231f20;fill-opacity:1;fill-rule:nonzero;stroke:none"
   id="text144"
   x="335.20877"
   y="-320.27567"><tspan
     x="335.20877"
     y="-320.27567"
     id="tspan142"
     style="font-style:normal;font-variant:normal;font-weight:normal;font-stretch:normal;font-family:Arial;-inkscape-font-specification:Arial">1</tspan></text>


<text
   transform="scale(1,-1)"
   style="font-variant:normal;font-weight:normal;font-stretch:normal;font-size:22px;font-family:NTF-Grand;-inkscape-font-specification:NTF-Grand-Regular;writing-mode:lr-tb;fill:#231f20;fill-opacity:1;fill-rule:nonzero;stroke:none"
   id="text160"
   x="363.50943"
   y="-321.20462"><tspan
     x="363.50943"
     y="-321.20462"
     id="tspan158"
     style="font-style:normal;font-variant:normal;font-weight:normal;font-stretch:normal;font-family:Arial;-inkscape-font-specification:Arial">2</tspan></text>


<text
   transform="scale(1,-1)"
   style="font-variant:normal;font-weight:normal;font-stretch:normal;font-size:22px;font-family:NTF-Grand;-inkscape-font-specification:NTF-Grand-Regular;writing-mode:lr-tb;fill:#231f20;fill-opacity:1;fill-rule:nonzero;stroke:none"
   id="text176"
   x="336.10309"
   y="-289.07193"><tspan
     x="336.10309"
     y="-289.07193"
     id="tspan174"
     style="font-style:normal;font-variant:normal;font-weight:normal;font-stretch:normal;font-family:Arial;-inkscape-font-specification:Arial">3</tspan></text>


<text
   transform="scale(1,-1)"
   style="font-variant:normal;font-weight:normal;font-stretch:normal;font-size:22px;font-family:NTF-Grand;-inkscape-font-specification:NTF-Grand-Regular;writing-mode:lr-tb;fill:#231f20;fill-opacity:1;fill-rule:nonzero;stroke:none"
   id="text192"
   x="362.4288"
   y="-288.6738"><tspan
     x="362.4288"
     y="-288.6738"
     id="tspan190"
     style="font-style:normal;font-variant:normal;font-weight:normal;font-stretch:normal;font-family:Arial;-inkscape-font-specification:Arial">4</tspan></text>














<path
   d="M 5.241252,538.24865 H -9.6697481 v 3.44 H 5.241252 Z"
   style="fill:#231f20;fill-opacity:1;fill-rule:evenodd;stroke:none"
   id="path266"
   inkscape:connector-curvature="0" /><g
   id="g268"
   transform="translate(338.1377,533.7254)"><path
     d="m 0,0 c 0,-32.387 -26.255,-58.642 -58.642,-58.642 -32.387,0 -58.642,26.255 -58.642,58.642 0,32.387 26.255,58.642 58.642,58.642 C -26.255,58.642 0,32.387 0,0"
     style="fill:#ffffff;fill-opacity:1;fill-rule:evenodd;stroke:none"
     id="path270"
     inkscape:connector-curvature="0" /></g><g
   id="g272"
   transform="translate(326.8647,533.7254)"><path
     d="m 0,0 c 0,-26.161 -21.208,-47.369 -47.369,-47.369 -26.161,0 -47.369,21.208 -47.369,47.369 0,26.161 21.208,47.369 47.369,47.369 C -21.208,47.369 0,26.161 0,0"
     style="fill:#f4f4f4;fill-opacity:1;fill-rule:evenodd;stroke:none"
     id="path274"
     inkscape:connector-curvature="0" /></g>









<g
   id="g320"
   transform="translate(0,-1.876748)"><g
     id="g322"
     clip-path="url(#clipPath326)"><path
       d="m 389.117,561.624 h -14.91 v 3.44 h 14.91 z"
       style="fill:#231f20;fill-opacity:1;fill-rule:evenodd;stroke:none"
       id="path328"
       inkscape:connector-curvature="0" /></g></g>

<g
   id="g350"
   transform="translate(404.6836,379.6131)"><path
     d="M 0,0 2.001,-4.055 6.477,-4.706 3.238,-7.862 4.003,-12.319 0,-10.215 l -4.003,-2.104 0.765,4.457 -3.239,3.156 4.475,0.651 z"
     style="fill:#f57925;fill-opacity:1;fill-rule:evenodd;stroke:none"
     id="path352"
     inkscape:connector-curvature="0" /></g><g
   id="g354"
   transform="translate(512.50752,354.2962)"><path
     d="M 0,0 6.684,-6.683 0,-12.694 Z"
     style="fill:#f57925;fill-opacity:1;fill-rule:evenodd;stroke:none"
     id="path356"
     inkscape:connector-curvature="0" /></g><text
   style="font-variant:normal;font-weight:bold;font-stretch:normal;font-size:19px;font-family:Montserrat;-inkscape-font-specification:Montserrat-Bold;writing-mode:lr-tb;fill:#231f20;fill-opacity:1;fill-rule:nonzero;stroke:none"
   id="text366"
   transform="matrix(1,0,0,-1,373.2065,257.3672)"><tspan
     sodipodi:role="line"
     id="tspan364"
     style="font-style:normal;font-variant:normal;font-weight:bold;font-stretch:normal;font-family:Arial;-inkscape-font-specification:'Arial Bold'"
     x="0"
     y="16.810547" /></text>















<g
   id="g426"><g
     id="g428"
     clip-path="url(#clipPath432)"><path
       d="m 389.117,221.623 h -14.91 v 3.44 h 14.91 z"
       style="fill:#231f20;fill-opacity:1;fill-rule:evenodd;stroke:none"
       id="path434"
       inkscape:connector-curvature="0" /></g></g>

<g
   id="g454"
   transform="translate(380.6836,65.6131)"><path
     d="M 0,0 2.001,-4.056 6.477,-4.706 3.238,-7.862 4.003,-12.32 0,-10.216 l -4.003,-2.104 0.765,4.458 -3.239,3.156 4.475,0.65 z"
     style="fill:#f57925;fill-opacity:1;fill-rule:evenodd;stroke:none"
     id="path456"
     inkscape:connector-curvature="0" /></g><g
   id="g458"
   transform="translate(484.36628,40.2957)"><path
     d="M 0,0 6.684,-6.684 0,-12.694 Z"
     style="fill:#f57925;fill-opacity:1;fill-rule:evenodd;stroke:none"
     id="path460"
     inkscape:connector-curvature="0" /></g><g
   id="g462"
   transform="matrix(1.0809533,0,0,1.0809533,539.41485,17.590946)"><path
     d="m 0,0 h -26.664 c -3.501,0 -6.339,2.839 -6.339,6.34 v 26.664 c 0,3.501 2.838,6.339 6.339,6.339 H 0 c 3.501,0 6.339,-2.838 6.339,-6.339 V 6.34 C 6.339,2.839 3.501,0 0,0"
     style="fill:#ffffff;fill-opacity:1;fill-rule:evenodd;stroke:none"
     id="path464"
     inkscape:connector-curvature="0" /></g><g
   id="g466"
   transform="matrix(1.0809533,0,0,1.0809533,538.21142,25.647399)"><path
     d="m 0,0 c -0.2,-0.201 -0.467,-0.312 -0.751,-0.312 -0.283,0 -0.55,0.111 -0.75,0.312 l -4.715,4.714 c 0.538,0.462 1.04,0.964 1.502,1.501 L 0,1.501 C 0.201,1.301 0.312,1.034 0.312,0.75 0.312,0.467 0.201,0.2 0,0 m -8.475,6.973 c 0.55,0.45 1.052,0.952 1.501,1.502 L -5.467,6.968 C -5.925,6.428 -6.428,5.925 -6.969,5.467 Z m -1.114,0.481 v 0 c -1.639,-1.19 -3.576,-1.819 -5.602,-1.819 -5.27,0 -9.558,4.287 -9.558,9.556 0,5.27 4.288,9.557 9.558,9.557 5.269,0 9.556,-4.287 9.556,-9.557 0,-2.026 -0.63,-3.963 -1.82,-5.602 C -8.05,8.768 -8.769,8.05 -9.589,7.454 M 0.751,2.252 -6.336,9.339 c 1.154,1.739 1.763,3.753 1.763,5.852 0,5.856 -4.764,10.62 -10.618,10.62 -5.856,0 -10.62,-4.764 -10.62,-10.62 0,-5.854 4.764,-10.618 10.62,-10.618 2.099,0 4.113,0.608 5.852,1.763 L -7.38,4.377 c 0,-10e-4 0,-10e-4 0.001,-10e-4 l 5.127,-5.127 c 0.401,-0.401 0.935,-0.622 1.501,-0.622 0.567,0 1.101,0.221 1.502,0.622 0.401,0.4 0.622,0.934 0.622,1.501 0,0.567 -0.221,1.101 -0.622,1.502"
     style="fill:#231f20;fill-opacity:1;fill-rule:nonzero;stroke:none"
     id="path468"
     inkscape:connector-curvature="0" /></g><g
   id="g470"
   transform="matrix(1.0809533,0,0,1.0809533,521.79023,34.0343)"><path
     d="m 0,0 c -4.099,0 -7.434,3.334 -7.434,7.433 0,4.098 3.335,7.433 7.434,7.433 4.098,0 7.433,-3.335 7.433,-7.433 C 7.433,3.334 4.098,0 0,0 m 0,15.928 c -4.685,0 -8.495,-3.811 -8.495,-8.495 0,-4.684 3.81,-8.495 8.495,-8.495 4.684,0 8.494,3.811 8.494,8.495 0,4.684 -3.81,8.495 -8.494,8.495"
     style="fill:#231f20;fill-opacity:1;fill-rule:nonzero;stroke:none"
     id="path472"
     inkscape:connector-curvature="0" /></g><g
   id="g474"
   transform="matrix(1.0809533,0,0,1.0809533,528.22104,44.53241)"><path
     d="m 0,0 c -0.457,1.189 -1.253,2.207 -2.302,2.942 -1.074,0.752 -2.335,1.15 -3.647,1.15 -0.294,0 -0.531,-0.238 -0.531,-0.53 0,-0.294 0.237,-0.532 0.531,-0.532 2.181,0 4.175,-1.371 4.958,-3.411 0.081,-0.211 0.282,-0.341 0.496,-0.341 0.063,0 0.128,0.012 0.19,0.035 C -0.031,-0.581 0.105,-0.273 0,0"
     style="fill:#231f20;fill-opacity:1;fill-rule:nonzero;stroke:none"
     id="path476"
     inkscape:connector-curvature="0" /></g>





<g
   id="g502"
   transform="translate(-29.991583,-3.1849469)"><g
     id="g504"
     clip-path="url(#clipPath508)"><path
       d="M 34.118,245.624 H 19.207 v 3.44 h 14.911 z"
       style="fill:#231f20;fill-opacity:1;fill-rule:evenodd;stroke:none"
       id="path510"
       inkscape:connector-curvature="0" /></g></g>

<g
   id="g532"
   transform="translate(24.6836,118.6131)"><path
     d="m 0,0 2.001,-4.055 4.476,-0.65 -3.239,-3.157 0.765,-4.457 -4.003,2.104 -4.003,-2.104 0.764,4.457 -3.238,3.157 4.476,0.65 z"
     style="fill:#f57925;fill-opacity:1;fill-rule:evenodd;stroke:none"
     id="path534"
     inkscape:connector-curvature="0" /></g><g
   id="g536"
   transform="translate(124.98814,92.92035)"><path
     d="M 0,0 6.684,-6.683 0,-12.693 Z"
     style="fill:#f57925;fill-opacity:1;fill-rule:evenodd;stroke:none"
     id="path538"
     inkscape:connector-curvature="0" /></g><g
   id="g2332"
   transform="translate(9.0083902,-1.1260488)"><g
     transform="matrix(1.1908137,0,0,1.1908137,175.31362,67.2782)"
     id="g540"><path
       inkscape:connector-curvature="0"
       id="path542"
       style="fill:#ffffff;fill-opacity:1;fill-rule:evenodd;stroke:none"
       d="m 0,0 h -26.664 c -3.501,0 -6.339,2.838 -6.339,6.339 v 26.664 c 0,3.501 2.838,6.339 6.339,6.339 H 0 c 3.501,0 6.339,-2.838 6.339,-6.339 V 6.339 C 6.339,2.838 3.501,0 0,0" /></g><g
     transform="matrix(1.1908137,0,0,1.1908137,159.43769,103.54562)"
     id="g544"><path
       inkscape:connector-curvature="0"
       id="path546"
       style="fill:#231f20;fill-opacity:1;fill-rule:nonzero;stroke:none"
       d="m 0,0 c -1.093,0 -1.979,0.886 -1.979,1.979 0,1.093 0.886,1.98 1.979,1.98 1.093,0 1.979,-0.887 1.979,-1.98 C 1.979,0.886 1.093,0 0,0 m 0,4.948 c -1.64,0 -2.969,-1.329 -2.969,-2.969 0,-1.64 1.329,-2.969 2.969,-2.969 1.64,0.002 2.968,1.33 2.969,2.969 0,1.64 -1.329,2.969 -2.969,2.969" /></g><g
     transform="matrix(1.1908137,0,0,1.1908137,163.56303,95.294831)"
     id="g548"><path
       inkscape:connector-curvature="0"
       id="path550"
       style="fill:#231f20;fill-opacity:1;fill-rule:nonzero;stroke:none"
       d="m 0,0 c 0,-0.273 -0.222,-0.495 -0.495,-0.495 h -5.939 c -0.273,0 -0.494,0.222 -0.494,0.495 v 2.97 c 0,0.778 0.602,1.425 1.379,1.48 1.322,-0.614 2.847,-0.614 4.17,0 C -0.602,4.395 0,3.748 0,2.97 Z M -1.485,5.443 H -1.602 L -1.706,5.392 c -1.107,-0.551 -2.409,-0.551 -3.517,0 L -5.327,5.443 H -5.444 C -6.81,5.442 -7.917,4.335 -7.918,2.97 V 0 c 0,-0.82 0.665,-1.484 1.484,-1.484 h 5.939 C 0.325,-1.484 0.99,-0.82 0.99,0 V 2.97 C 0.988,4.335 -0.119,5.442 -1.485,5.443" /></g><g
     transform="matrix(1.1908137,0,0,1.1908137,171.81322,84.098443)"
     id="g552"><path
       inkscape:connector-curvature="0"
       id="path554"
       style="fill:#231f20;fill-opacity:1;fill-rule:nonzero;stroke:none"
       d="m 0,0 c -1.093,0 -1.979,0.886 -1.979,1.979 0,1.093 0.886,1.98 1.979,1.98 1.093,0 1.979,-0.887 1.979,-1.98 C 1.979,0.886 1.093,0 0,0 m 0,4.948 c -1.64,0 -2.969,-1.329 -2.969,-2.969 0,-1.64 1.329,-2.969 2.969,-2.969 1.64,0 2.969,1.329 2.969,2.969 C 2.968,3.618 1.639,4.946 0,4.948" /></g><g
     transform="matrix(1.1908137,0,0,1.1908137,175.93868,75.847653)"
     id="g556"><path
       inkscape:connector-curvature="0"
       id="path558"
       style="fill:#231f20;fill-opacity:1;fill-rule:nonzero;stroke:none"
       d="m 0,0 c 0,-0.273 -0.222,-0.495 -0.495,-0.495 h -5.939 c -0.273,0 -0.494,0.222 -0.494,0.495 v 2.969 c 0,0.779 0.602,1.426 1.379,1.481 1.322,-0.614 2.847,-0.614 4.17,0 C -0.602,4.395 0,3.748 0,2.969 Z M -1.485,5.443 H -1.602 L -1.706,5.395 c -1.107,-0.552 -2.409,-0.552 -3.517,0 L -5.327,5.443 H -5.444 C -6.81,5.442 -7.917,4.335 -7.918,2.969 V 0 c 0,-0.82 0.665,-1.484 1.484,-1.484 h 5.939 C 0.325,-1.484 0.99,-0.82 0.99,0 V 2.969 C 0.988,4.335 -0.119,5.442 -1.485,5.443" /></g><g
     transform="matrix(1.1908137,0,0,1.1908137,147.06204,84.098443)"
     id="g560"><path
       inkscape:connector-curvature="0"
       id="path562"
       style="fill:#231f20;fill-opacity:1;fill-rule:nonzero;stroke:none"
       d="m 0,0 c -1.093,0 -1.979,0.886 -1.979,1.979 0,1.093 0.886,1.98 1.979,1.98 1.093,0 1.979,-0.887 1.979,-1.98 C 1.979,0.886 1.093,0 0,0 m 0,4.948 c -1.64,0 -2.969,-1.329 -2.969,-2.969 0,-1.64 1.329,-2.969 2.969,-2.969 1.64,0 2.97,1.329 2.97,2.969 C 2.968,3.618 1.64,4.946 0,4.948" /></g><g
     transform="matrix(1.1908137,0,0,1.1908137,151.18738,75.847653)"
     id="g564"><path
       inkscape:connector-curvature="0"
       id="path566"
       style="fill:#231f20;fill-opacity:1;fill-rule:nonzero;stroke:none"
       d="m 0,0 c 0,-0.273 -0.222,-0.495 -0.495,-0.495 h -5.939 c -0.273,0 -0.494,0.222 -0.494,0.495 v 2.969 c 0,0.779 0.602,1.426 1.379,1.481 1.322,-0.614 2.847,-0.614 4.17,0 C -0.602,4.395 0,3.748 0,2.969 Z M -1.485,5.443 H -1.602 L -1.706,5.395 c -1.107,-0.552 -2.409,-0.552 -3.517,0 L -5.327,5.443 H -5.444 C -6.81,5.442 -7.917,4.335 -7.918,2.969 V 0 c 0,-0.82 0.665,-1.484 1.484,-1.484 h 5.939 C 0.325,-1.484 0.99,-0.82 0.99,0 V 2.969 C 0.988,4.335 -0.119,5.442 -1.485,5.443" /></g><g
     transform="matrix(1.1908137,0,0,1.1908137,165.2847,79.510715)"
     id="g568"><path
       inkscape:connector-curvature="0"
       id="path570"
       style="fill:#231f20;fill-opacity:1;fill-rule:nonzero;stroke:none"
       d="M 0,0 C 0,0 0,0.001 -0.001,0.001 -0.108,0.253 -0.398,0.37 -0.65,0.263 -2.885,-0.674 -5.367,-0.845 -7.708,-0.224 l 0.463,0.137 c 0.262,0.076 0.412,0.352 0.336,0.614 -0.077,0.262 -0.352,0.412 -0.614,0.336 L -9.503,0.282 C -9.51,0.282 -9.516,0.274 -9.523,0.271 -9.568,0.255 -9.612,0.23 -9.65,0.201 -9.667,0.191 -9.684,0.182 -9.7,0.17 -9.752,0.123 -9.793,0.065 -9.821,0.001 c -0.027,-0.064 -0.04,-0.134 -0.038,-0.204 0.012,-0.067 0.029,-0.133 0.05,-0.198 0.003,-0.007 0,-0.015 0.005,-0.022 l 0.99,-1.893 c 0.126,-0.243 0.426,-0.337 0.668,-0.21 0.243,0.126 0.336,0.425 0.21,0.668 l -0.403,0.77 c 2.661,-0.801 5.518,-0.644 8.076,0.44 C -0.011,-0.542 0.106,-0.252 0,0" /></g><g
     transform="matrix(1.1908137,0,0,1.1908137,175.17644,93.943495)"
     id="g572"><path
       inkscape:connector-curvature="0"
       id="path574"
       style="fill:#231f20;fill-opacity:1;fill-rule:nonzero;stroke:none"
       d="M 0,0 C -0.193,0.193 -0.506,0.193 -0.7,0 L -1.4,-0.7 C -1.81,3.635 -4.562,7.396 -8.569,9.099 -8.82,9.205 -9.111,9.089 -9.218,8.837 -9.325,8.586 -9.208,8.295 -8.957,8.188 -5.362,6.66 -2.863,3.321 -2.411,-0.559 L -2.969,0 c -0.197,0.189 -0.51,0.185 -0.7,-0.012 -0.185,-0.192 -0.185,-0.496 0,-0.688 l 1.485,-1.485 c 0.193,-0.193 0.506,-0.193 0.7,-10e-4 0,10e-4 0,10e-4 10e-4,10e-4 L 0.001,-0.7 C 0.194,-0.506 0.194,-0.193 0,0" /></g><g
     transform="matrix(1.1908137,0,0,1.1908137,154.70635,104.33525)"
     id="g576"><path
       inkscape:connector-curvature="0"
       id="path578"
       style="fill:#231f20;fill-opacity:1;fill-rule:nonzero;stroke:none"
       d="m 0,0 c -0.002,0.029 -0.006,0.058 -0.013,0.086 0,0.004 -0.006,0.007 -0.008,0.013 -10e-4,0.005 0,0.007 0,0.011 -0.013,0.025 -0.028,0.047 -0.046,0.069 -0.016,0.029 -0.035,0.056 -0.057,0.082 -0.029,0.025 -0.061,0.048 -0.096,0.065 -0.017,0.015 -0.036,0.028 -0.055,0.04 l -1.98,0.905 C -2.508,1.374 -2.797,1.254 -2.9,1.001 -2.999,0.762 -2.896,0.487 -2.666,0.371 l 1.025,-0.469 c -3.858,-2.065 -6.266,-6.087 -6.263,-10.464 0,-0.272 0.222,-0.494 0.495,-0.494 0.273,0 0.495,0.222 0.495,0.494 -0.003,3.854 2.035,7.421 5.356,9.375 l -0.358,-0.747 c -0.118,-0.246 -0.014,-0.541 0.231,-0.66 0.067,-0.032 0.14,-0.049 0.215,-0.049 0.19,0 0.363,0.11 0.445,0.281 l 0.99,2.065 c 0,0.005 0,0.01 0.004,0.015 0.012,0.034 0.022,0.069 0.027,0.105 0.008,0.027 0.014,0.054 0.018,0.081 C 0.013,-0.063 0.008,-0.031 0,0" /></g></g>

<g
   id="g600"
   transform="translate(-5.5733954,382.79805)"><path
     d="M 0,0 2.001,-4.055 6.477,-4.706 3.238,-7.862 4.003,-12.319 0,-10.215 l -4.003,-2.104 0.764,4.457 -3.238,3.156 4.476,0.651 z"
     style="fill:#f57925;fill-opacity:1;fill-rule:evenodd;stroke:none"
     id="path602"
     inkscape:connector-curvature="0" /></g><g
   id="g604"
   transform="translate(107.34671,355.42225)"><path
     d="M 0,0 6.684,-6.683 0,-12.694 Z"
     style="fill:#f57925;fill-opacity:1;fill-rule:evenodd;stroke:none"
     id="path606"
     inkscape:connector-curvature="0" /></g><g
   id="g1984"
   transform="matrix(1.1717323,0,0,1.1717323,-29.469557,-56.375974)"><g
     transform="translate(165.2627,328.2782)"
     id="g608"><path
       inkscape:connector-curvature="0"
       id="path610"
       style="fill:#ffffff;fill-opacity:1;fill-rule:evenodd;stroke:none"
       d="m 0,0 h -26.664 c -3.501,0 -6.339,2.838 -6.339,6.339 v 26.664 c 0,3.501 2.838,6.339 6.339,6.339 H 0 c 3.501,0 6.339,-2.838 6.339,-6.339 V 6.339 C 6.339,2.838 3.501,0 0,0" /></g><g
     transform="translate(161.9624,351.2293)"
     id="g612"><path
       inkscape:connector-curvature="0"
       id="path614"
       style="fill:#231f20;fill-opacity:1;fill-rule:nonzero;stroke:none"
       d="m 0,0 c -0.033,-1.687 -0.52,-3.333 -1.408,-4.761 -0.023,-0.037 -0.005,-0.008 -0.411,-0.81 -1.607,-3.189 -2.144,-7.362 -1.593,-10.888 h -9.813 v 4.519 c 0,0.304 -0.246,0.551 -0.55,0.551 h -3.307 c -0.304,0 -0.551,0.247 -0.551,0.551 v 4.408 c 0,0.305 -0.247,0.552 -0.551,0.552 h -2.403 c -0.295,0 -0.436,0.199 -0.484,0.285 -0.047,0.086 -0.139,0.313 0.018,0.562 l 2.313,3.643 c 0.07,0.109 0.098,0.239 0.082,0.366 -0.051,0.396 -0.077,0.801 -0.077,1.206 0,5.275 4.341,9.514 9.643,9.364 C -4.067,9.405 0.097,5.032 0,0 m -9.061,10.649 c -5.903,0.17 -10.776,-4.553 -10.776,-10.465 0,-0.383 0.021,-0.768 0.062,-1.147 l -2.208,-3.478 c -0.329,-0.517 -0.349,-1.146 -0.054,-1.683 0.295,-0.536 0.837,-0.856 1.45,-0.856 h 1.852 v -3.858 c 0,-0.911 0.741,-1.653 1.653,-1.653 h 2.755 v -4.519 c 0,-0.304 0.247,-0.552 0.552,-0.552 h 11.021 c 0.165,0 0.321,0.075 0.426,0.203 0.105,0.128 0.147,0.296 0.114,0.457 -0.704,3.522 -0.163,7.775 1.38,10.835 0.454,0.997 1.874,2.827 1.936,6.046 0.109,5.662 -4.502,10.509 -10.163,10.67" /></g><g
     transform="translate(157.5693,347.9051)"
     id="g616"><path
       inkscape:connector-curvature="0"
       id="path618"
       style="fill:#231f20;fill-opacity:1;fill-rule:nonzero;stroke:none"
       d="M 0,0 -1.076,0.621 C -1.298,0.75 -1.581,0.707 -1.755,0.52 c -0.608,-0.656 -1.383,-1.105 -2.24,-1.301 -0.25,-0.058 -0.428,-0.281 -0.428,-0.537 v -1.236 h -1.102 v 1.236 c 0,0.256 -0.178,0.479 -0.428,0.537 -0.857,0.196 -1.631,0.645 -2.239,1.301 -0.175,0.187 -0.457,0.23 -0.68,0.101 L -9.948,0 -10.499,0.954 -9.416,1.58 c 0.223,0.128 0.327,0.394 0.251,0.64 -0.148,0.479 -0.217,0.888 -0.217,1.288 0,0.399 0.069,0.808 0.217,1.288 0.076,0.246 -0.028,0.512 -0.251,0.64 l -1.083,0.626 0.551,0.954 1.076,-0.621 c 0.223,-0.129 0.505,-0.087 0.68,0.102 0.608,0.654 1.382,1.104 2.239,1.3 0.25,0.057 0.428,0.28 0.428,0.537 V 9.57 h 1.102 V 8.334 c 0,-0.257 0.178,-0.48 0.428,-0.537 0.857,-0.196 1.632,-0.646 2.24,-1.3 0.174,-0.189 0.456,-0.231 0.679,-0.102 L 0,7.016 0.551,6.062 -0.532,5.436 c -0.222,-0.128 -0.326,-0.394 -0.251,-0.64 0.149,-0.48 0.218,-0.889 0.218,-1.288 0,-0.4 -0.069,-0.809 -0.218,-1.288 -0.075,-0.246 0.029,-0.512 0.251,-0.64 L 0.551,0.954 Z M 1.58,1.633 0.388,2.321 c 0.1,0.417 0.149,0.808 0.149,1.187 0,0.379 -0.049,0.77 -0.149,1.186 L 1.58,5.383 C 1.843,5.535 1.934,5.872 1.781,6.135 L 0.679,8.044 C 0.606,8.171 0.486,8.263 0.344,8.301 0.203,8.339 0.053,8.319 -0.074,8.246 L -1.262,7.56 c -0.595,0.547 -1.295,0.954 -2.059,1.195 v 1.366 c 0,0.304 -0.246,0.551 -0.551,0.551 h -2.204 c -0.304,0 -0.551,-0.247 -0.551,-0.551 V 8.755 C -7.391,8.514 -8.09,8.107 -8.686,7.56 l -1.188,0.686 c -0.126,0.073 -0.277,0.093 -0.418,0.055 -0.141,-0.038 -0.262,-0.13 -0.335,-0.257 l -1.102,-1.909 c -0.152,-0.263 -0.062,-0.6 0.202,-0.752 l 1.192,-0.689 c -0.101,-0.416 -0.149,-0.807 -0.149,-1.186 0,-0.379 0.048,-0.77 0.149,-1.187 l -1.192,-0.688 c -0.264,-0.152 -0.354,-0.489 -0.202,-0.752 l 1.102,-1.909 c 0.152,-0.263 0.488,-0.355 0.753,-0.202 l 1.188,0.686 c 0.596,-0.548 1.295,-0.954 2.059,-1.195 v -1.365 c 0,-0.305 0.247,-0.552 0.551,-0.552 h 2.204 c 0.305,0 0.551,0.247 0.551,0.552 v 1.365 c 0.764,0.241 1.464,0.647 2.059,1.195 l 1.188,-0.686 c 0.264,-0.153 0.601,-0.061 0.753,0.202 l 1.102,1.909 c 0.153,0.263 0.062,0.6 -0.201,0.752" /></g><g
     transform="translate(152.5952,349.7596)"
     id="g620"><path
       inkscape:connector-curvature="0"
       id="path622"
       style="fill:#231f20;fill-opacity:1;fill-rule:nonzero;stroke:none"
       d="m 0,0 c -0.911,0 -1.653,0.742 -1.653,1.653 0,0.912 0.742,1.654 1.653,1.654 0.912,0 1.653,-0.742 1.653,-1.654 C 1.653,0.742 0.912,0 0,0 m 0,4.409 c -1.519,0 -2.755,-1.236 -2.755,-2.756 0,-1.519 1.236,-2.755 2.755,-2.755 1.52,0 2.755,1.236 2.755,2.755 0,1.52 -1.235,2.756 -2.755,2.756" /></g></g><g
   id="g2155"
   transform="matrix(1.2293736,0,0,1.2293736,-91.223042,-75.563765)"><g
     transform="translate(545.2627,328.2782)"
     id="g358"><path
       inkscape:connector-curvature="0"
       id="path360"
       style="fill:#ffffff;fill-opacity:1;fill-rule:evenodd;stroke:none"
       d="m 0,0 h -26.664 c -3.501,0 -6.339,2.838 -6.339,6.339 v 26.664 c 0,3.501 2.838,6.339 6.339,6.339 H 0 c 3.501,0 6.339,-2.838 6.339,-6.339 V 6.339 C 6.339,2.838 3.501,0 0,0" /></g><g
     transform="translate(537.1934,356.4271)"
     id="g624"><path
       inkscape:connector-curvature="0"
       id="path626"
       style="fill:#231f20;fill-opacity:1;fill-rule:nonzero;stroke:none"
       d="M 0,0 H 9.53 V -16.956 H -20.275 V 0 h 10.197 z M -10.078,1.186 H -21.461 V -18.142 H 10.717 V 1.186 H 0" /></g><g
     transform="translate(528.1748,343.6795)"
     id="g628"><path
       inkscape:connector-curvature="0"
       id="path630"
       style="fill:#231f20;fill-opacity:1;fill-rule:nonzero;stroke:none"
       d="m 0,0 c -0.298,0.764 -0.833,1.402 -1.511,1.832 1.064,0.677 1.771,1.865 1.771,3.217 0,2.101 -1.709,3.811 -3.811,3.811 -2.101,0 -3.811,-1.71 -3.811,-3.811 0,-1.352 0.707,-2.54 1.77,-3.217 C -6.27,1.402 -6.805,0.764 -7.103,0 c -1.1,0.995 -1.738,2.409 -1.738,3.921 0,2.917 2.373,5.29 5.29,5.29 2.916,0 5.289,-2.373 5.289,-5.29 C 1.738,2.409 1.101,0.995 0,0 m -3.551,2.424 c -1.448,0 -2.626,1.178 -2.626,2.625 0,1.448 1.178,2.626 2.626,2.626 1.447,0 2.625,-1.178 2.625,-2.626 0,-1.447 -1.178,-2.625 -2.625,-2.625 m -10e-4,7.973 c -3.57,0 -6.475,-2.905 -6.475,-6.476 0,-2.203 1.105,-4.235 2.956,-5.436 l 0.802,-0.52 0.11,0.95 c 0.151,1.324 1.272,2.322 2.607,2.322 1.336,0 2.457,-0.998 2.609,-2.322 l 0.109,-0.95 0.803,0.52 c 1.85,1.201 2.956,3.233 2.956,5.436 0,3.571 -2.905,6.476 -6.477,6.476" /></g><path
     inkscape:connector-curvature="0"
     id="path632"
     style="fill:#231f20;fill-opacity:1;fill-rule:nonzero;stroke:none"
     d="m 532.354,349.59 h 12.213 v -1.186 h -12.213 z" /><path
     inkscape:connector-curvature="0"
     id="path634"
     style="fill:#231f20;fill-opacity:1;fill-rule:nonzero;stroke:none"
     d="m 532.354,347.337 h 12.213 v -1.186 h -12.213 z" /></g><g
   id="g636"
   transform="translate(723.91637,536.7282)"><path
     d="m 0,0 c 0,-32.387 -26.255,-58.642 -58.642,-58.642 -32.387,0 -58.642,26.255 -58.642,58.642 0,32.387 26.255,58.642 58.642,58.642 C -26.255,58.642 0,32.387 0,0"
     style="fill:#ffffff;fill-opacity:1;fill-rule:evenodd;stroke:none"
     id="path638"
     inkscape:connector-curvature="0" /></g><g
   id="g640"
   transform="translate(713.31087,536.7282)"><path
     d="m 0,0 c 0,-26.53 -21.507,-48.036 -48.036,-48.036 -26.53,0 -48.036,21.506 -48.036,48.036 0,26.53 21.506,48.036 48.036,48.036 C -21.507,48.036 0,26.53 0,0"
     style="fill:#f4f4f4;fill-opacity:1;fill-rule:evenodd;stroke:none"
     id="path642"
     inkscape:connector-curvature="0" /></g><g
   id="g644"
   transform="translate(696.81867,540.2848)"><path
     d="m 0,0 c -2.635,-3.708 -6.929,-6.05 -11.808,-6.05 -4.879,0 -9.172,2.439 -11.807,6.05 l 0.975,3.123 6.734,3.22 c 0.097,0.585 0.78,1.366 0.878,1.366 -0.292,0.488 -0.585,0.976 -0.878,1.562 -0.391,0 -0.781,0.292 -0.976,0.78 -0.195,0.39 -0.195,0.878 0,1.171 -0.683,1.854 -1.171,4.782 1.171,6.831 l -1.171,-0.195 c 0,0 1.366,2.537 4.196,1.659 0,0 -0.293,0.487 -1.171,0.683 0,0 1.268,0.585 1.952,-0.293 0,0 0.39,0.39 0,0.683 0,0 2.146,-0.097 4.098,-1.854 2.537,-2.44 1.952,-5.562 1.074,-7.611 0.097,-0.293 0.097,-0.684 -0.098,-0.977 -0.195,-0.39 -0.487,-0.683 -0.78,-0.683 -0.196,-0.292 -0.684,-1.268 -0.977,-1.561 0,0 0.684,-0.878 0.879,-1.366 l 6.733,-3.22 z"
     style="fill:#231f20;fill-opacity:1;fill-rule:nonzero;stroke:none"
     id="path646"
     inkscape:connector-curvature="0" /></g><g
   id="g648"
   transform="translate(684.91347,534.2346)"><path
     d="m 0,0 c -8.002,0 -14.54,6.538 -14.54,14.54 0,8.002 6.538,14.54 14.54,14.54 8.002,0 14.54,-6.538 14.54,-14.54 C 14.54,6.538 8.1,0 0,0 m 22.249,8.978 6.148,1.463 v 8.198 l -6.148,1.463 c -0.585,2.245 -1.464,4.294 -2.537,6.246 l 3.318,5.367 -5.758,5.757 -5.367,-3.318 c -1.952,1.171 -4.001,2.05 -6.245,2.537 l -1.464,6.148 h -8.197 l -1.464,-6.148 c -2.244,-0.585 -4.294,-1.463 -6.245,-2.537 l -5.367,3.318 -5.758,-5.855 3.318,-5.367 c -1.17,-1.952 -2.049,-4.001 -2.537,-6.245 l -6.148,-1.464 v -8.197 l 6.148,-1.464 c 0.585,-2.244 1.464,-4.294 2.537,-6.245 l -3.318,-5.172 5.758,-5.758 5.367,3.318 c 1.951,-1.171 4.001,-2.049 6.245,-2.537 l 1.464,-6.148 h 8.197 l 1.464,6.148 c 2.244,0.585 4.293,1.464 6.245,2.537 l 5.367,-3.318 5.758,5.758 -3.318,5.367 c 1.073,1.854 1.952,4.001 2.537,6.148"
     style="fill:#f4bd1e;fill-opacity:1;fill-rule:nonzero;stroke:none"
     id="path650"
     inkscape:connector-curvature="0" /></g><g
   id="g652"
   transform="translate(634.65757,516.4743)"><path
     d="m 0,0 c -6.343,2.146 -9.759,8.88 -7.611,15.223 2.146,6.343 8.88,9.758 15.222,7.611 C 13.954,20.687 17.37,13.955 15.223,7.611 13.174,1.366 6.343,-2.049 0,0 m 19.81,1.269 5.171,-0.391 2.147,6.441 -4.391,2.732 c 0.098,1.854 0,3.708 -0.39,5.562 l 4.001,3.318 -3.123,6.05 -5.075,-1.17 c -1.171,1.366 -2.634,2.634 -4.196,3.61 L 14.345,32.593 8.002,34.74 5.27,30.349 c -1.855,0.097 -3.708,0 -5.563,-0.391 l -3.317,3.904 -6.051,-3.026 1.171,-5.074 c -1.366,-1.171 -2.635,-2.635 -3.611,-4.196 l -5.171,0.488 -2.147,-6.441 4.391,-2.732 c -0.098,-1.854 0,-3.708 0.39,-5.562 l -4.001,-3.318 3.026,-6.05 5.074,1.171 c 1.171,-1.367 2.635,-2.635 4.196,-3.611 l -0.39,-5.172 6.44,-2.147 2.732,4.392 c 1.855,-0.098 3.708,0 5.563,0.39 l 3.317,-4.001 6.051,3.025 -1.171,5.074 c 1.366,1.269 2.635,2.635 3.611,4.197"
     style="fill:#f57925;fill-opacity:1;fill-rule:nonzero;stroke:none"
     id="path654"
     inkscape:connector-curvature="0" /></g><g
   id="g656"
   transform="translate(669.78747,502.5197)"><path
     d="m 0,0 c -3.415,1.171 -5.27,4.782 -4.099,8.197 1.172,3.415 4.783,5.269 8.198,4.098 C 7.515,11.125 9.368,7.514 8.197,4.099 7.026,0.683 3.416,-1.171 0,0 m 10.637,0.683 2.83,-0.195 1.171,3.513 -2.342,1.464 c 0.098,0.975 0,2.049 -0.195,3.025 l 2.147,1.854 -1.659,3.22 -2.733,-0.586 C 9.173,13.759 8.49,14.442 7.612,14.93 L 7.807,17.76 4.294,18.931 2.83,16.589 c -0.976,0.098 -2.049,0 -3.024,-0.195 l -1.855,2.147 -3.221,-1.659 0.586,-2.733 c -0.78,-0.683 -1.463,-1.366 -1.952,-2.244 h -2.829 l -1.172,-3.513 2.343,-1.464 c -0.098,-0.975 0,-2.049 0.195,-3.025 l -2.147,-1.854 1.659,-3.22 2.733,0.586 c 0.682,-0.781 1.366,-1.464 2.244,-1.952 l -0.196,-2.83 3.514,-1.171 1.561,2.537 c 0.976,-0.098 2.049,0 3.025,0.195 l 1.854,-2.147 3.22,1.659 -0.585,2.732 c 0.683,0.586 1.366,1.367 1.854,2.245"
     style="fill:#f4bd1e;fill-opacity:1;fill-rule:nonzero;stroke:none"
     id="path658"
     inkscape:connector-curvature="0" /></g><g
   id="g660"
   transform="translate(627.89687,564.3205)"><path
     d="M 0,0 C 1.608,0 1.611,2.5 0,2.5 -1.608,2.5 -1.611,0 0,0"
     style="fill:#231f20;fill-opacity:1;fill-rule:nonzero;stroke:none"
     id="path662"
     inkscape:connector-curvature="0" /></g><g
   id="g664"
   transform="translate(647.78547,564.0143)"><path
     d="M 0,0 C 1.609,0 1.611,2.5 0,2.5 -1.608,2.5 -1.611,0 0,0"
     style="fill:#231f20;fill-opacity:1;fill-rule:nonzero;stroke:none"
     id="path666"
     inkscape:connector-curvature="0" /></g><g
   id="g668"
   transform="translate(649.01007,489.3532)"><path
     d="M 0,0 C 1.608,0 1.611,2.5 0,2.5 -1.608,2.5 -1.611,0 0,0"
     style="fill:#231f20;fill-opacity:1;fill-rule:nonzero;stroke:none"
     id="path670"
     inkscape:connector-curvature="0" /></g><g
   id="g672"
   transform="translate(703.78157,508.3244)"><path
     d="M 0,0 C 1.608,0 1.611,2.5 0,2.5 -1.608,2.5 -1.611,0 0,0"
     style="fill:#231f20;fill-opacity:1;fill-rule:nonzero;stroke:none"
     id="path674"
     inkscape:connector-curvature="0" /></g><g
   id="g676"
   transform="translate(637.44077,554.5529)"><path
     d="M 0,0 C 1.609,0 1.611,2.5 0,2.5 -1.608,2.5 -1.611,0 0,0"
     style="fill:#231f20;fill-opacity:1;fill-rule:nonzero;stroke:none"
     id="path678"
     inkscape:connector-curvature="0" /></g><g
   id="g680"
   transform="translate(643.94667,577.321)"><path
     d="M 0,0 C 1.608,0 1.611,2.5 0,2.5 -1.609,2.5 -1.611,0 0,0"
     style="fill:#231f20;fill-opacity:1;fill-rule:nonzero;stroke:none"
     id="path682"
     inkscape:connector-curvature="0" /></g><g
   id="g684"
   transform="translate(662.64877,574.8815)"><path
     d="M 0,0 C 1.608,0 1.611,2.5 0,2.5 -1.608,2.5 -1.611,0 0,0"
     style="fill:#231f20;fill-opacity:1;fill-rule:nonzero;stroke:none"
     id="path686"
     inkscape:connector-curvature="0" /></g><g
   id="g688"
   transform="translate(637.35387,498.7888)"><path
     d="M 0,0 C 1.608,0 1.611,2.5 0,2.5 -1.609,2.5 -1.611,0 0,0"
     style="fill:#231f20;fill-opacity:1;fill-rule:nonzero;stroke:none"
     id="path690"
     inkscape:connector-curvature="0" /></g><g
   id="g692"
   transform="translate(689.55207,495.0271)"><path
     d="M 0,0 C 1.608,0 1.611,2.5 0,2.5 -1.608,2.5 -1.611,0 0,0"
     style="fill:#231f20;fill-opacity:1;fill-rule:nonzero;stroke:none"
     id="path694"
     inkscape:connector-curvature="0" /></g><g
   id="g696"
   transform="translate(694.72497,518.5397)"><path
     d="M 0,0 C 1.608,0 1.611,2.5 0,2.5 -1.608,2.5 -1.611,0 0,0"
     style="fill:#231f20;fill-opacity:1;fill-rule:nonzero;stroke:none"
     id="path698"
     inkscape:connector-curvature="0" /></g><g
   id="g700"
   transform="translate(721.66427,226.98219)"><path
     d="m 0,0 c 0,-32.387 -26.255,-58.642 -58.642,-58.642 -32.387,0 -58.642,26.255 -58.642,58.642 0,32.388 26.255,58.643 58.642,58.643 C -26.255,58.643 0,32.388 0,0"
     style="fill:#ffffff;fill-opacity:1;fill-rule:evenodd;stroke:none"
     id="path702"
     inkscape:connector-curvature="0" /></g><g
   id="g704"
   transform="translate(711.05877,226.98219)"><path
     d="m 0,0 c 0,-26.529 -21.507,-48.035 -48.036,-48.035 -26.53,0 -48.036,21.506 -48.036,48.035 0,26.53 21.506,48.036 48.036,48.036 C -21.507,48.036 0,26.53 0,0"
     style="fill:#f4f4f4;fill-opacity:1;fill-rule:evenodd;stroke:none"
     id="path706"
     inkscape:connector-curvature="0" /></g><g
   id="g708"
   transform="translate(635.94547,204.26629)"><path
     d="m 0,0 -0.657,-0.657 c -3.397,-3.397 -10.167,-11.644 -10.167,-11.644 0,0 7.428,5.508 10.057,7.59 -2.082,-2.74 -8.194,-9.452 -8.194,-9.452 0,0 7.427,5.507 10.057,7.589 -2.082,-2.739 -8.195,-9.452 -8.195,-9.452 0,0 7.428,5.507 10.058,7.589 -2.082,-2.739 -8.195,-9.452 -8.195,-9.452 0,0 8.852,6.165 12.249,9.562 0.219,0.219 0.438,0.438 0.658,0.657 z"
     style="fill:#f4bd1e;fill-opacity:1;fill-rule:nonzero;stroke:none"
     id="path710"
     inkscape:connector-curvature="0" /></g><g
   id="g712"
   transform="translate(656.87427,192.87079)"><path
     d="M 0,0 -11.943,12.054 11.286,35.393 4.055,4.055 Z"
     style="fill:#231f20;fill-opacity:1;fill-rule:nonzero;stroke:none"
     id="path714"
     inkscape:connector-curvature="0" /></g><g
   id="g716"
   transform="translate(632.33027,217.41579)"><path
     d="M 0,0 12.053,-12.054 35.392,11.286 4.054,4.054 Z"
     style="fill:#231f20;fill-opacity:1;fill-rule:nonzero;stroke:none"
     id="path718"
     inkscape:connector-curvature="0" /></g><g
   id="g720"
   transform="translate(646.46507,197.69209)"><path
     d="m 0,0 c 11.177,7.451 25.641,19.614 36.269,30.242 18.189,18.19 18.189,33.53 18.189,33.53 0,0 -15.34,0 -33.529,-18.189 C 10.3,34.954 -1.863,20.49 -9.313,9.313 Z"
     style="fill:#f57925;fill-opacity:1;fill-rule:nonzero;stroke:none"
     id="path722"
     inkscape:connector-curvature="0" /></g><g
   id="g724"
   transform="translate(657.49627,220.05149)"><path
     d="m 0,0 2.015,-2.015 -13.869,-13.868 -2.015,2.015 z"
     style="fill:#231f20;fill-opacity:1;fill-rule:nonzero;stroke:none"
     id="path726"
     inkscape:connector-curvature="0" /></g><g
   id="g728"
   transform="translate(680.87127,247.21949)"><path
     d="m 0,0 c 3.207,0 5.808,-2.6 5.808,-5.808 0,-3.207 -2.601,-5.806 -5.808,-5.806 -3.208,0 -5.808,2.599 -5.808,5.806 C -5.808,-2.6 -3.208,0 0,0"
     style="fill:#ffffff;fill-opacity:1;fill-rule:nonzero;stroke:none"
     id="path730"
     inkscape:connector-curvature="0" /></g><g
   id="g732"
   transform="translate(646.75797,241.64329)"><path
     d="M 0,0 C 3.217,0 3.223,5 0,5 -3.218,5 -3.223,0 0,0"
     style="fill:#f4bd1e;fill-opacity:1;fill-rule:nonzero;stroke:none"
     id="path734"
     inkscape:connector-curvature="0" /></g><g
   id="g736"
   transform="translate(711.05877,227.52809)"><path
     d="M 0,0 C 3.217,0 3.222,5 0,5 -3.218,5 -3.223,0 0,0"
     style="fill:#f4bd1e;fill-opacity:1;fill-rule:nonzero;stroke:none"
     id="path738"
     inkscape:connector-curvature="0" /></g><g
   id="g740"
   transform="translate(680.87127,186.62279)"><path
     d="M 0,0 C 3.217,0 3.223,5 0,5 -3.218,5 -3.223,0 0,0"
     style="fill:#f4bd1e;fill-opacity:1;fill-rule:nonzero;stroke:none"
     id="path742"
     inkscape:connector-curvature="0" /></g><g
   id="g744"
   transform="translate(659.53337,270.73219)"><path
     d="M 0,0 C 3.218,0 3.223,5 0,5 -3.217,5 -3.222,0 0,0"
     style="fill:#f4bd1e;fill-opacity:1;fill-rule:nonzero;stroke:none"
     id="path746"
     inkscape:connector-curvature="0" /></g><g
   id="g748"
   transform="translate(618.06957,210.67359)"><path
     d="M 0,0 C 3.217,0 3.223,5 0,5 -3.218,5 -3.223,0 0,0"
     style="fill:#f4bd1e;fill-opacity:1;fill-rule:nonzero;stroke:none"
     id="path750"
     inkscape:connector-curvature="0" /></g><g
   id="g752"
   transform="translate(634.36837,259.97919)"><path
     d="M 0,0 C 1.609,0 1.611,2.5 0,2.5 -1.608,2.5 -1.611,0 0,0"
     style="fill:#231f20;fill-opacity:1;fill-rule:nonzero;stroke:none"
     id="path754"
     inkscape:connector-curvature="0" /></g><g
   id="g756"
   transform="translate(666.09787,257.68139)"><path
     d="M 0,0 C 1.608,0 1.611,2.5 0,2.5 -1.609,2.5 -1.611,0 0,0"
     style="fill:#231f20;fill-opacity:1;fill-rule:nonzero;stroke:none"
     id="path758"
     inkscape:connector-curvature="0" /></g><g
   id="g760"
   transform="translate(700.92307,203.28199)"><path
     d="M 0,0 C 1.608,0 1.611,2.5 0,2.5 -1.608,2.5 -1.611,0 0,0"
     style="fill:#231f20;fill-opacity:1;fill-rule:nonzero;stroke:none"
     id="path762"
     inkscape:connector-curvature="0" /></g><g
   id="g764"
   transform="translate(655.83517,180.46849)"><path
     d="M 0,0 C 1.608,0 1.611,2.5 0,2.5 -1.608,2.5 -1.611,0 0,0"
     style="fill:#231f20;fill-opacity:1;fill-rule:nonzero;stroke:none"
     id="path766"
     inkscape:connector-curvature="0" /></g><g
   id="g768"
   transform="translate(672.45037,207.34639)"><path
     d="M 0,0 C 1.608,0 1.611,2.5 0,2.5 -1.608,2.5 -1.611,0 0,0"
     style="fill:#231f20;fill-opacity:1;fill-rule:nonzero;stroke:none"
     id="path770"
     inkscape:connector-curvature="0" /></g><g
   id="g772"
   transform="translate(625.64477,227.19499)"><path
     d="M 0,0 C 1.608,0 1.611,2.5 0,2.5 -1.608,2.5 -1.611,0 0,0"
     style="fill:#231f20;fill-opacity:1;fill-rule:nonzero;stroke:none"
     id="path774"
     inkscape:connector-curvature="0" /></g><g
   id="g776"
   transform="translate(705.15837,241.83959)"><path
     d="M 0,0 C 1.608,0 1.611,2.5 0,2.5 -1.608,2.5 -1.611,0 0,0"
     style="fill:#231f20;fill-opacity:1;fill-rule:nonzero;stroke:none"
     id="path778"
     inkscape:connector-curvature="0" /></g><g
   id="g780"
   transform="translate(338.1582,217.7254)"><path
     d="m 0,0 c 0,-32.387 -26.255,-58.643 -58.642,-58.643 -32.387,0 -58.642,26.256 -58.642,58.643 0,32.387 26.255,58.642 58.642,58.642 C -26.255,58.642 0,32.387 0,0"
     style="fill:#ffffff;fill-opacity:1;fill-rule:evenodd;stroke:none"
     id="path782"
     inkscape:connector-curvature="0" /></g><g
   id="g784"
   transform="translate(326.7651,217.7254)"><path
     d="m 0,0 c 0,-26.095 -21.154,-47.249 -47.249,-47.249 -26.095,0 -47.249,21.154 -47.249,47.249 0,26.095 21.154,47.249 47.249,47.249 C -21.154,47.249 0,26.095 0,0"
     style="fill:#f4f4f4;fill-opacity:1;fill-rule:evenodd;stroke:none"
     id="path786"
     inkscape:connector-curvature="0" /></g><g
   id="g788"
   transform="translate(254.5762,212.0897)"><path
     d="m 0,0 c 1.661,0 2.536,-3.668 -0.959,-3.931 1.357,-0.184 0.997,-3.203 -0.842,-3.203 h -4.877 c -3.185,-0.941 -6.166,-1.13 -10.342,-0.041 l -0.001,10e-4 c -0.688,0.18 -1.411,0.394 -2.171,0.645 -0.112,0.038 -0.223,0.075 -0.337,0.114 h -1.694 V 5.824 h 1.694 c 0.723,0.176 1.359,0.336 1.942,0.488 0.535,0.141 1.024,0.275 1.485,0.411 v 0 c 0.046,0.013 0.092,0.026 0.138,0.04 2.21,0.656 3.824,1.351 7.164,2.926 2.429,0.567 6.174,0.485 8.656,-0.522 C 2.536,8.078 2.941,5.797 0.558,4.833 2.386,5.212 3.6,0.522 0,0"
     style="fill:#f9a85b;fill-opacity:1;fill-rule:nonzero;stroke:none"
     id="path790"
     inkscape:connector-curvature="0" /></g><g
   id="g792"
   transform="translate(248.4546,220.9002)"><path
     d="m 0,0 c 0,0 -7.518,-3.882 -10.56,-3.285 0,0 1.508,4.065 5.206,5.409 0.746,0.271 1.833,2.494 2.679,4.539 0.618,1.496 1.108,2.899 1.242,3.371 C -1.124,9.965 -0.846,9.886 -0.597,9.793 1.967,8.838 1.357,6.473 0,0"
     style="fill:#f9a85b;fill-opacity:1;fill-rule:nonzero;stroke:none"
     id="path794"
     inkscape:connector-curvature="0" /></g><g
   id="g796"
   transform="translate(248.0356,229.784)"><path
     d="m 0,0 c 0,-1.231 -0.92,-2.23 -2.054,-2.23 -0.069,0 -0.136,0.003 -0.202,0.009 0.618,1.496 1.108,2.899 1.242,3.371 C -0.705,1.081 -0.427,1.002 -0.178,0.909 -0.064,0.632 0,0.324 0,0"
     style="fill:#fabf8d;fill-opacity:1;fill-rule:nonzero;stroke:none"
     id="path798"
     inkscape:connector-curvature="0" /></g><g
   id="g800"
   transform="translate(237.5547,204.9159)"><path
     d="M 0,0 C -0.688,0.18 -1.41,0.394 -2.171,0.645 -3.114,2.452 -2.094,3.506 -2.094,3.506 -1.894,1.642 -0.057,0.05 0,0"
     style="fill:#ef903e;fill-opacity:1;fill-rule:nonzero;stroke:none"
     id="path802"
     inkscape:connector-curvature="0" /></g><g
   id="g804"
   transform="translate(237.5562,215.7899)"><path
     d="M 0,0 C 0,0 -0.705,1.164 -0.567,2.612 -0.032,2.753 0.457,2.887 0.918,3.022 0.874,2.988 -0.133,2.184 0,0"
     style="fill:#ef903e;fill-opacity:1;fill-rule:nonzero;stroke:none"
     id="path806"
     inkscape:connector-curvature="0" /></g><path
   d="m 234.832,204.172 h -9.502 v 14.92 h 9.502 z"
   style="fill:#f57925;fill-opacity:1;fill-rule:nonzero;stroke:none"
   id="path808"
   inkscape:connector-curvature="0" /><g
   id="g810"
   transform="translate(232.2676,216.2079)"><path
     d="m 0,0 c 0,-0.604 -0.49,-1.093 -1.094,-1.093 -0.603,0 -1.094,0.489 -1.094,1.093 0,0.604 0.491,1.094 1.094,1.094 C -0.49,1.094 0,0.604 0,0"
     style="fill:#231f20;fill-opacity:1;fill-rule:nonzero;stroke:none"
     id="path812"
     inkscape:connector-curvature="0" /></g><g
   id="g814"
   transform="translate(265.3447,236.6649)"><path
     d="m 0,0 c 1.148,-1.198 -0.896,-4.368 -3.502,-2.026 0.805,-1.108 -1.624,-2.937 -2.896,-1.609 l -3.374,3.523 c -2.882,1.648 -5.081,3.671 -7.184,7.439 v 0.001 c -0.347,0.622 -0.692,1.291 -1.036,2.015 -0.05,0.106 -0.1,0.213 -0.151,0.321 l -1.171,1.223 8.838,8.467 1.171,-1.223 c 0.627,-0.4 1.183,-0.748 1.697,-1.064 0.471,-0.289 0.906,-0.548 1.323,-0.789 0.042,-0.024 0.083,-0.048 0.124,-0.071 C -4.158,15.064 -2.54,14.38 0.908,13.058 2.998,11.695 5.53,8.936 6.519,6.445 7.586,3.758 6.22,1.887 3.875,2.94 5.414,1.883 2.868,-2.238 0,0"
     style="fill:#f9a85b;fill-opacity:1;fill-rule:nonzero;stroke:none"
     id="path816"
     inkscape:connector-curvature="0" /></g><g
   id="g818"
   transform="translate(267.4707,247.1805)"><path
     d="m 0,0 c 0,0 -8.003,2.743 -9.677,5.353 0,0 3.98,1.723 7.507,-0.017 C -1.457,4.984 0.899,5.737 2.962,6.541 4.47,7.129 5.822,7.746 6.255,7.977 6.419,7.705 6.554,7.45 6.659,7.206 7.745,4.693 5.613,3.498 0,0"
     style="fill:#f9a85b;fill-opacity:1;fill-rule:nonzero;stroke:none"
     id="path820"
     inkscape:connector-curvature="0" /></g><g
   id="g822"
   transform="translate(273.5967,253.6297)"><path
     d="m 0,0 c -0.889,-0.854 -2.247,-0.88 -3.032,-0.062 -0.047,0.05 -0.091,0.102 -0.132,0.154 1.508,0.588 2.86,1.205 3.293,1.435 C 0.293,1.256 0.428,1.001 0.533,0.757 0.412,0.482 0.234,0.224 0,0"
     style="fill:#fabf8d;fill-opacity:1;fill-rule:nonzero;stroke:none"
     id="path824"
     inkscape:connector-curvature="0" /></g><g
   id="g826"
   transform="translate(248.3892,243.993)"><path
     d="m 0,0 c -0.347,0.622 -0.692,1.291 -1.037,2.015 0.653,1.93 2.12,1.923 2.12,1.923 C -0.125,2.504 -0.004,0.076 0,0"
     style="fill:#ef903e;fill-opacity:1;fill-rule:nonzero;stroke:none"
     id="path828"
     inkscape:connector-curvature="0" /></g><g
   id="g830"
   transform="translate(256.2422,251.5155)"><path
     d="M 0,0 C 0,0 0.353,1.314 1.494,2.217 1.966,1.928 2.4,1.668 2.818,1.428 2.763,1.436 1.484,1.606 0,0"
     style="fill:#ef903e;fill-opacity:1;fill-rule:nonzero;stroke:none"
     id="path832"
     inkscape:connector-curvature="0" /></g><g
   id="g834"
   transform="translate(245.9673,245.4452)"><path
     d="M 0,0 -6.573,6.861 4.201,17.184 10.774,10.321 Z"
     style="fill:#f57925;fill-opacity:1;fill-rule:nonzero;stroke:none"
     id="path836"
     inkscape:connector-curvature="0" /></g><g
   id="g838"
   transform="translate(252.8848,255.6239)"><path
     d="M 0,0 C -0.436,-0.418 -1.128,-0.403 -1.546,0.033 -1.963,0.469 -1.949,1.161 -1.513,1.579 -1.077,1.996 -0.384,1.981 0.033,1.546 0.451,1.11 0.436,0.417 0,0"
     style="fill:#231f20;fill-opacity:1;fill-rule:nonzero;stroke:none"
     id="path840"
     inkscape:connector-curvature="0" /></g><g
   id="g842"
   transform="translate(304.4561,212.0897)"><path
     d="m 0,0 c -1.661,0 -2.536,-3.668 0.959,-3.931 -1.356,-0.184 -0.997,-3.203 0.842,-3.203 h 4.878 c 3.183,-0.941 6.166,-1.13 10.342,-0.041 v 10e-4 c 0.689,0.18 1.411,0.394 2.171,0.645 0.112,0.038 0.224,0.075 0.337,0.114 h 1.694 V 5.824 H 19.529 C 18.807,6 18.17,6.16 17.587,6.312 17.052,6.453 16.564,6.587 16.103,6.723 H 16.102 C 16.056,6.736 16.01,6.749 15.965,6.763 13.755,7.419 12.141,8.114 8.8,9.689 6.371,10.256 2.626,10.174 0.144,9.167 -2.536,8.078 -2.941,5.797 -0.558,4.833 -2.386,5.212 -3.601,0.522 0,0"
     style="fill:#f9a85b;fill-opacity:1;fill-rule:nonzero;stroke:none"
     id="path844"
     inkscape:connector-curvature="0" /></g><g
   id="g846"
   transform="translate(310.5781,220.9002)"><path
     d="m 0,0 c 0,0 7.517,-3.882 10.56,-3.285 0,0 -1.508,4.065 -5.206,5.409 C 4.608,2.395 3.521,4.618 2.675,6.663 2.056,8.159 1.566,9.562 1.433,10.034 1.124,9.965 0.846,9.886 0.597,9.793 -1.968,8.838 -1.357,6.473 0,0"
     style="fill:#f9a85b;fill-opacity:1;fill-rule:nonzero;stroke:none"
     id="path848"
     inkscape:connector-curvature="0" /></g><g
   id="g850"
   transform="translate(310.9971,229.784)"><path
     d="m 0,0 c 0,-1.231 0.92,-2.23 2.053,-2.23 0.069,0 0.136,0.003 0.203,0.009 C 1.637,-0.725 1.147,0.678 1.014,1.15 0.705,1.081 0.427,1.002 0.178,0.909 0.063,0.632 0,0.324 0,0"
     style="fill:#fabf8d;fill-opacity:1;fill-rule:nonzero;stroke:none"
     id="path852"
     inkscape:connector-curvature="0" /></g><g
   id="g854"
   transform="translate(321.4771,204.9159)"><path
     d="M 0,0 C 0.689,0.18 1.411,0.394 2.171,0.645 3.114,2.452 2.095,3.506 2.095,3.506 1.895,1.642 0.057,0.05 0,0"
     style="fill:#ef903e;fill-opacity:1;fill-rule:nonzero;stroke:none"
     id="path856"
     inkscape:connector-curvature="0" /></g><g
   id="g858"
   transform="translate(321.4766,215.7899)"><path
     d="M 0,0 C 0,0 0.705,1.164 0.566,2.612 0.031,2.753 -0.457,2.887 -0.918,3.022 -0.874,2.988 0.133,2.184 0,0"
     style="fill:#ef903e;fill-opacity:1;fill-rule:nonzero;stroke:none"
     id="path860"
     inkscape:connector-curvature="0" /></g><path
   d="m 324.201,204.172 h 9.502 v 14.92 h -9.502 z"
   style="fill:#f57925;fill-opacity:1;fill-rule:nonzero;stroke:none"
   id="path862"
   inkscape:connector-curvature="0" /><g
   id="g864"
   transform="translate(326.7651,216.2079)"><path
     d="m 0,0 c 0,-0.604 0.49,-1.093 1.094,-1.093 0.603,0 1.094,0.489 1.094,1.093 0,0.604 -0.491,1.094 -1.094,1.094 C 0.49,1.094 0,0.604 0,0"
     style="fill:#231f20;fill-opacity:1;fill-rule:nonzero;stroke:none"
     id="path866"
     inkscape:connector-curvature="0" /></g><g
   id="g868"
   transform="translate(293.688,236.6649)"><path
     d="M 0,0 C -1.148,-1.198 0.895,-4.368 3.502,-2.026 2.696,-3.134 5.126,-4.963 6.398,-3.635 l 3.374,3.523 c 2.882,1.648 5.081,3.671 7.183,7.439 v 0.001 c 0.347,0.622 0.692,1.291 1.037,2.015 0.05,0.106 0.1,0.213 0.151,0.321 l 1.171,1.223 -8.838,8.467 -1.171,-1.223 C 8.678,17.731 8.122,17.383 7.608,17.067 7.136,16.778 6.702,16.519 6.285,16.278 H 6.284 C 6.243,16.254 6.202,16.23 6.161,16.207 4.158,15.064 2.54,14.38 -0.909,13.058 -2.998,11.695 -5.53,8.936 -6.519,6.445 -7.587,3.758 -6.22,1.887 -3.875,2.94 -5.414,1.883 -2.868,-2.238 0,0"
     style="fill:#f9a85b;fill-opacity:1;fill-rule:nonzero;stroke:none"
     id="path870"
     inkscape:connector-curvature="0" /></g><g
   id="g872"
   transform="translate(291.561,247.1805)"><path
     d="m 0,0 c 0,0 8.003,2.743 9.677,5.353 0,0 -3.979,1.723 -7.507,-0.017 C 1.458,4.984 -0.899,5.737 -2.961,6.541 -4.469,7.129 -5.821,7.746 -6.254,7.977 -6.418,7.705 -6.554,7.45 -6.658,7.206 -7.744,4.693 -5.613,3.498 0,0"
     style="fill:#f9a85b;fill-opacity:1;fill-rule:nonzero;stroke:none"
     id="path874"
     inkscape:connector-curvature="0" /></g><g
   id="g876"
   transform="translate(285.4351,253.6297)"><path
     d="M 0,0 C 0.89,-0.854 2.248,-0.88 3.032,-0.062 3.08,-0.012 3.124,0.04 3.165,0.092 1.657,0.68 0.305,1.297 -0.128,1.527 -0.292,1.256 -0.428,1.001 -0.532,0.757 -0.412,0.482 -0.233,0.224 0,0"
     style="fill:#fabf8d;fill-opacity:1;fill-rule:nonzero;stroke:none"
     id="path878"
     inkscape:connector-curvature="0" /></g><g
   id="g880"
   transform="translate(310.6431,243.993)"><path
     d="M 0,0 C 0.347,0.622 0.692,1.291 1.037,2.015 0.384,3.945 -1.083,3.938 -1.083,3.938 0.125,2.504 0.004,0.076 0,0"
     style="fill:#ef903e;fill-opacity:1;fill-rule:nonzero;stroke:none"
     id="path882"
     inkscape:connector-curvature="0" /></g><g
   id="g884"
   transform="translate(302.7905,251.5155)"><path
     d="M 0,0 C 0,0 -0.354,1.314 -1.494,2.217 -1.966,1.928 -2.4,1.668 -2.818,1.428 -2.763,1.436 -1.484,1.606 0,0"
     style="fill:#ef903e;fill-opacity:1;fill-rule:nonzero;stroke:none"
     id="path886"
     inkscape:connector-curvature="0" /></g><g
   id="g888"
   transform="translate(313.0654,245.4452)"><path
     d="M 0,0 6.573,6.861 -4.201,17.184 -10.774,10.321 Z"
     style="fill:#f57925;fill-opacity:1;fill-rule:nonzero;stroke:none"
     id="path890"
     inkscape:connector-curvature="0" /></g><g
   id="g892"
   transform="translate(306.1475,255.6239)"><path
     d="M 0,0 C 0.436,-0.418 1.128,-0.403 1.546,0.033 1.964,0.469 1.949,1.161 1.513,1.579 1.077,1.996 0.385,1.981 -0.033,1.546 -0.451,1.11 -0.436,0.417 0,0"
     style="fill:#231f20;fill-opacity:1;fill-rule:nonzero;stroke:none"
     id="path894"
     inkscape:connector-curvature="0" /></g><g
   id="g896"
   transform="translate(285.4829,189.1727)"><path
     d="m 0,0 -4.414,-8.308 -4.944,1.842 5.915,6.899 1.432,8.837 c 0.232,1.332 1.032,1.836 1.79,1.948 0.468,0.071 0.92,-0.011 1.209,-0.139 L 0.711,7.973 Z"
     style="fill:#ef8538;fill-opacity:1;fill-rule:nonzero;stroke:none"
     id="path898"
     inkscape:connector-curvature="0" /></g><g
   id="g900"
   transform="translate(290.4858,199.0487)"><path
     d="m 0,0 -3.693,-10.492 -5.454,-8.42 -5.212,4.466 6.211,4.374 4.796,9.058 C -2.81,0.196 -1.933,0.501 -1.18,0.437 -0.693,0.397 -0.257,0.202 0,0"
     style="fill:#f49b4e;fill-opacity:1;fill-rule:nonzero;stroke:none"
     id="path902"
     inkscape:connector-curvature="0" /></g><g
   id="g904"
   transform="translate(290.4858,199.0487)"><path
     d="m 0,0 -0.977,-2.774 c -0.704,0.444 -0.998,1.343 -0.664,2.128 L -1.18,0.437 C -0.693,0.397 -0.257,0.202 0,0"
     style="fill:#fcd0aa;fill-opacity:1;fill-rule:nonzero;stroke:none"
     id="path906"
     inkscape:connector-curvature="0" /></g><g
   id="g908"
   transform="translate(286.1938,197.1454)"><path
     d="m 0,0 c -0.753,0.269 -1.238,1.037 -1.124,1.856 l 0.192,1.389 c 0.468,0.071 0.92,-0.011 1.209,-0.139 z"
     style="fill:#fcd0aa;fill-opacity:1;fill-rule:nonzero;stroke:none"
     id="path910"
     inkscape:connector-curvature="0" /></g><g
   id="g912"
   transform="translate(293.3047,193.7713)"><path
     d="m 0,0 -1.431,-1.578 -5.382,-5.935 -7.562,-5.147 -1.887,3.77 5.853,3.306 7.234,5.919 c 1.058,0.987 2.058,0.714 2.669,0.237 C -0.275,0.392 -0.101,0.182 0,0"
     style="fill:#f49b4e;fill-opacity:1;fill-rule:nonzero;stroke:none"
     id="path914"
     inkscape:connector-curvature="0" /></g><g
   id="g916"
   transform="translate(292.9019,198.162)"><path
     d="m 0,0 -1.211,-2.502 -3.635,-7.511 -6.361,-7.755 -22.244,-8.829 -4.001,7.909 8.483,4.168 c 0,0 1.375,5.652 5.649,7.916 l 2.343,6.357 1.285,3.482 c 0,0 0.69,0.096 1.341,-0.175 0.726,-0.3 1.402,-1.052 1.034,-2.89 -0.7,-3.495 -0.942,-4.566 -0.942,-4.566 0,0 -0.015,-2.635 -0.735,-5.794 l 3.108,-2.555 6.662,3.65 5.781,8.465 c 0.762,1.288 1.818,1.382 2.598,1.124 h 0.001 C -0.485,0.376 -0.186,0.184 0,0"
     style="fill:#f9ac60;fill-opacity:1;fill-rule:nonzero;stroke:none"
     id="path918"
     inkscape:connector-curvature="0" /></g><g
   id="g920"
   transform="translate(274.5513,201.2215)"><path
     d="m 0,0 -0.738,-2.163 c -0.275,-0.801 -1.079,-1.27 -1.888,-1.144 l 1.284,3.483 c 0,0 0.691,0.095 1.342,-0.176"
     style="fill:#fcd0aa;fill-opacity:1;fill-rule:nonzero;stroke:none"
     id="path922"
     inkscape:connector-curvature="0" /></g><g
   id="g924"
   transform="translate(292.9019,198.162)"><path
     d="m 0,0 -1.211,-2.502 c -0.496,0.545 -0.599,1.371 -0.204,2.036 l 0.57,0.96 h 0.001 C -0.485,0.376 -0.186,0.184 0,0"
     style="fill:#fcd0aa;fill-opacity:1;fill-rule:nonzero;stroke:none"
     id="path926"
     inkscape:connector-curvature="0" /></g><g
   id="g928"
   transform="translate(293.3047,193.7713)"><path
     d="m 0,0 -1.431,-1.578 c -0.217,0.673 -10e-4,1.437 0.588,1.89 l 0.337,0.26 C -0.275,0.392 -0.101,0.182 0,0"
     style="fill:#fcd0aa;fill-opacity:1;fill-rule:nonzero;stroke:none"
     id="path930"
     inkscape:connector-curvature="0" /></g><g
   id="g932"
   transform="translate(283.4961,203.1463)"><path
     d="M 0,0 V -1.894 H -7.96 V 0 c 0,0.076 0.061,0.137 0.136,0.137 h 7.687 C -0.061,0.137 0,0.076 0,0"
     style="fill:#dbdbdd;fill-opacity:1;fill-rule:nonzero;stroke:none"
     id="path934"
     inkscape:connector-curvature="0" /></g><path
   d="m 283.497,200.486 h -7.959 v 0.768 h 7.959 z"
   style="fill:#9da1a2;fill-opacity:1;fill-rule:nonzero;stroke:none"
   id="path936"
   inkscape:connector-curvature="0" /><path
   d="m 283.496,198.726 h -7.959 v 0.768 h 7.959 z"
   style="fill:#9da1a2;fill-opacity:1;fill-rule:nonzero;stroke:none"
   id="path938"
   inkscape:connector-curvature="0" /><path
   d="m 283.496,199.495 h -7.96 v 0.991 h 7.96 z"
   style="fill:#dbdbdd;fill-opacity:1;fill-rule:nonzero;stroke:none"
   id="path940"
   inkscape:connector-curvature="0" /><g
   id="g942"
   transform="translate(283.4961,198.7293)"><path
     d="m 0,0 v -0.731 c 0,-0.146 -0.126,-0.264 -0.283,-0.264 h -7.394 c -0.156,0 -0.283,0.118 -0.283,0.264 V 0 Z"
     style="fill:#dbdbdd;fill-opacity:1;fill-rule:nonzero;stroke:none"
     id="path944"
     inkscape:connector-curvature="0" /></g><g
   id="g946"
   transform="translate(282.9165,197.7342)"><path
     d="m 0,0 c -0.751,-1.484 -1.171,-2.961 -2.827,-2.961 h -1.147 c -1.652,0 -2.062,1.45 -2.827,2.961 z"
     style="fill:#231f20;fill-opacity:1;fill-rule:nonzero;stroke:none"
     id="path948"
     inkscape:connector-curvature="0" /></g><g
   id="g950"
   transform="translate(282.9165,197.7342)"><path
     d="M 0,0 -0.284,-0.562 H -6.517 L -6.801,0 Z"
     style="fill:#39353e;fill-opacity:1;fill-rule:nonzero;stroke:none"
     id="path952"
     inkscape:connector-curvature="0" /></g><g
   id="g954"
   transform="translate(279.5166,229.0848)"><path
     d="m 0,0 v -25.802 h -3.683 c -1.615,6.159 -7.559,8.086 -7.23,14.994 C -10.633,-4.96 -6.235,0 0,0"
     style="fill:#f4bd1e;fill-opacity:1;fill-rule:nonzero;stroke:none"
     id="path956"
     inkscape:connector-curvature="0" /></g><g
   id="g958"
   transform="translate(283.1987,203.2831)"><path
     d="m 0,0 h -3.682 v 25.802 c 6.234,0 10.635,-4.96 10.911,-10.808 C 7.556,8.152 1.598,6.098 0,0"
     style="fill:#f4bd1e;fill-opacity:1;fill-rule:nonzero;stroke:none"
     id="path960"
     inkscape:connector-curvature="0" /></g><g
   id="g962"
   transform="translate(268.5913,172.6561)"><path
     d="m 0,0 -8.048,-5.053 -7.933,12.636 8.047,5.053 z"
     style="fill:#f4bd1e;fill-opacity:1;fill-rule:nonzero;stroke:none"
     id="path964"
     inkscape:connector-curvature="0" /></g><g
   id="g966"
   transform="translate(260.019,181.4862)"><path
     d="m 0,0 c 0.321,-0.512 0.167,-1.187 -0.344,-1.508 -0.512,-0.321 -1.187,-0.167 -1.508,0.345 -0.321,0.512 -0.167,1.186 0.345,1.508 C -0.996,0.665 -0.321,0.512 0,0"
     style="fill:#231f20;fill-opacity:1;fill-rule:nonzero;stroke:none"
     id="path968"
     inkscape:connector-curvature="0" /></g><g
   id="g970"
   transform="translate(276.519,221.7704)"><path
     d="m 0,0 c 0,-0.906 -0.734,-1.641 -1.641,-1.641 -0.905,0 -1.64,0.735 -1.64,1.641 0,0.906 0.735,1.641 1.64,1.641 C -0.734,1.641 0,0.906 0,0"
     style="fill:#ffffff;fill-opacity:1;fill-rule:nonzero;stroke:none"
     id="path972"
     inkscape:connector-curvature="0" /></g><g
   id="g974"
   transform="translate(279.5376,231.6288)"><path
     d="M 0,0 V 8.514"
     style="fill:none;stroke:#231f20;stroke-width:1.5;stroke-linecap:butt;stroke-linejoin:miter;stroke-miterlimit:10;stroke-dasharray:none;stroke-opacity:1"
     id="path976"
     inkscape:connector-curvature="0" /></g><g
   id="g978"
   transform="translate(292.7886,223.3573)"><path
     d="M 0,0 5.778,3.557"
     style="fill:none;stroke:#231f20;stroke-width:1.5;stroke-linecap:butt;stroke-linejoin:miter;stroke-miterlimit:10;stroke-dasharray:none;stroke-opacity:1"
     id="path980"
     inkscape:connector-curvature="0" /></g><g
   id="g982"
   transform="translate(298.3384,209.2264)"><path
     d="M 0,0 -5.587,3.849"
     style="fill:none;stroke:#231f20;stroke-width:1.5;stroke-linecap:butt;stroke-linejoin:miter;stroke-miterlimit:10;stroke-dasharray:none;stroke-opacity:1"
     id="path984"
     inkscape:connector-curvature="0" /></g><g
   id="g986"
   transform="translate(266.3384,213.075)"><path
     d="M 0,0 -5.587,-3.849"
     style="fill:none;stroke:#231f20;stroke-width:1.5;stroke-linecap:butt;stroke-linejoin:miter;stroke-miterlimit:10;stroke-dasharray:none;stroke-opacity:1"
     id="path988"
     inkscape:connector-curvature="0" /></g><g
   id="g990"
   transform="translate(266.3437,223.3573)"><path
     d="M 0,0 -6.583,4.053"
     style="fill:none;stroke:#231f20;stroke-width:1.5;stroke-linecap:butt;stroke-linejoin:miter;stroke-miterlimit:10;stroke-dasharray:none;stroke-opacity:1"
     id="path992"
     inkscape:connector-curvature="0" /></g><g
   id="g994"
   transform="translate(244.2568,190.7137)"><path
     d="M 0,0 C 1.608,0 1.611,2.5 0,2.5 -1.609,2.5 -1.611,0 0,0"
     style="fill:#231f20;fill-opacity:1;fill-rule:nonzero;stroke:none"
     id="path996"
     inkscape:connector-curvature="0" /></g><g
   id="g998"
   transform="translate(308.0708,187.9588)"><path
     d="M 0,0 C 1.609,0 1.611,2.5 0,2.5 -1.608,2.5 -1.611,0 0,0"
     style="fill:#231f20;fill-opacity:1;fill-rule:nonzero;stroke:none"
     id="path1000"
     inkscape:connector-curvature="0" /></g><g
   id="g1002"
   transform="translate(234.6157,232.95)"><path
     d="M 0,0 C 1.609,0 1.611,2.5 0,2.5 -1.608,2.5 -1.611,0 0,0"
     style="fill:#231f20;fill-opacity:1;fill-rule:nonzero;stroke:none"
     id="path1004"
     inkscape:connector-curvature="0" /></g><g
   id="g1006"
   transform="translate(280.9844,261.4139)"><path
     d="M 0,0 C 1.608,0 1.611,2.5 0,2.5 -1.609,2.5 -1.611,0 0,0"
     style="fill:#231f20;fill-opacity:1;fill-rule:nonzero;stroke:none"
     id="path1008"
     inkscape:connector-curvature="0" /></g><g
   id="g1010"
   transform="translate(324.5981,226.9823)"><path
     d="M 0,0 C 1.609,0 1.611,2.5 0,2.5 -1.608,2.5 -1.611,0 0,0"
     style="fill:#231f20;fill-opacity:1;fill-rule:nonzero;stroke:none"
     id="path1012"
     inkscape:connector-curvature="0" /></g><g
   id="g1014"
   transform="translate(250.9453,572.4036)"><path
     d="m 0,0 c -0.017,-0.69 0.099,-1.921 0.854,-2.808 0.64,-0.739 1.691,-1.117 3.104,-1.117 v -2.332 c -2.135,0 -3.777,0.657 -4.877,1.938 -1.018,1.199 -1.331,2.66 -1.396,3.728 -4.779,-0.772 -5.535,-5.699 -5.649,-7.275 1.018,-0.903 4.335,-3.284 8.834,-1.051 l 1.035,-2.085 c -1.675,-0.838 -3.284,-1.166 -4.73,-1.166 -2.66,0 -4.844,1.084 -6.239,2.184 -2.415,-2.841 -3.564,-5.764 -3.433,-8.671 0.197,-4.138 2.94,-7.094 3.646,-7.783 1.166,-0.329 6.7,-1.495 10.657,4.598 l 1.954,-1.265 c -3.202,-4.926 -7.389,-5.928 -10.263,-5.928 -0.805,0 -1.494,0.082 -2.036,0.164 -0.312,-1.905 -0.033,-3.53 0.805,-4.828 1.526,-2.348 4.515,-3.087 5.189,-3.219 0.886,0.116 5.566,0.986 7.028,5.649 L 6.7,-31.956 c -1.429,-4.598 -5.206,-6.306 -7.455,-6.946 1.05,-1.577 2.216,-2.48 3.464,-2.677 1.938,-0.296 3.794,1.067 4.763,1.954 V 0.279 C 6.486,0.969 5.419,1.215 4.384,1.215 2.529,1.231 0.805,0.427 0,0"
     style="fill:#f57925;fill-opacity:1;fill-rule:nonzero;stroke:none"
     id="path1016"
     inkscape:connector-curvature="0" /></g><g
   id="g1018"
   transform="translate(268.5488,572.4036)"><path
     d="m 0,0 c 0.017,-0.69 -0.098,-1.921 -0.854,-2.808 -0.64,-0.739 -1.691,-1.117 -3.104,-1.117 v -2.332 c 2.135,0 3.778,0.657 4.878,1.938 1.018,1.199 1.33,2.66 1.395,3.728 C 7.094,-1.363 7.85,-6.29 7.965,-7.866 6.946,-8.769 3.629,-11.15 -0.87,-8.917 l -1.035,-2.085 c 1.676,-0.838 3.284,-1.166 4.73,-1.166 2.66,0 4.844,1.084 6.24,2.184 2.414,-2.841 3.563,-5.764 3.432,-8.671 -0.197,-4.138 -2.939,-7.094 -3.645,-7.783 -1.166,-0.329 -6.701,-1.495 -10.658,4.598 l -1.954,-1.265 c 3.202,-4.926 7.389,-5.928 10.263,-5.928 0.805,0 1.495,0.082 2.037,0.164 0.312,-1.905 0.032,-3.53 -0.805,-4.828 -1.527,-2.348 -4.516,-3.087 -5.19,-3.219 -0.886,0.116 -5.566,0.986 -7.028,5.649 L -6.7,-31.956 c 1.429,-4.598 5.206,-6.306 7.455,-6.946 -1.05,-1.577 -2.216,-2.48 -3.464,-2.677 -1.938,-0.296 -3.793,1.067 -4.763,1.954 V 0.279 c 0.986,0.69 2.053,0.936 3.088,0.936 C -2.529,1.231 -0.804,0.427 0,0"
     style="fill:#f57925;fill-opacity:1;fill-rule:nonzero;stroke:none"
     id="path1020"
     inkscape:connector-curvature="0" /></g><g
   id="g1022"
   transform="translate(317.9082,514.7552)"><path
     d="m 0,0 c -0.562,6.182 -4.937,10.667 -10.413,10.667 -3.648,0 -6.988,-1.963 -8.868,-5.11 -1.862,3.187 -5.066,5.11 -8.655,5.11 -5.475,0 -9.852,-4.484 -10.412,-10.667 -0.045,-0.272 -0.227,-1.709 0.327,-4.053 0.797,-3.38 2.64,-6.455 5.327,-8.889 l 13.404,-12.164 13.635,12.163 c 2.687,2.435 4.53,5.509 5.327,8.89 C 0.226,-1.71 0.044,-0.273 0,0"
     style="fill:#f57925;fill-opacity:1;fill-rule:nonzero;stroke:none"
     id="path1024"
     inkscape:connector-curvature="0" /></g><g
   id="g1026"
   transform="translate(258.2754,523.8035)"><path
     d="m 0,0 c -8.194,0 -14.837,-6.643 -14.837,-14.837 0,-8.194 6.643,-14.837 14.837,-14.837 2.378,0 4.625,0.56 6.617,1.554 l 7.543,-4.343 -4.618,6.265 c 3.238,2.721 5.295,6.801 5.295,11.361 C 14.837,-6.643 8.195,0 0,0"
     style="fill:#f4bd1e;fill-opacity:1;fill-rule:nonzero;stroke:none"
     id="path1028"
     inkscape:connector-curvature="0" /></g><g
   id="g1030"
   transform="translate(258.1123,498.4373)"><path
     d="m 0,0 v 0 c -0.555,0 -1.039,0.182 -1.454,0.541 -0.415,0.358 -0.621,0.862 -0.621,1.51 0,0.574 0.201,1.054 0.602,1.446 0.401,0.391 0.89,0.587 1.473,0.587 0.574,0 1.058,-0.196 1.45,-0.587 C 1.841,3.105 2.037,2.625 2.037,2.051 2.037,1.412 1.833,0.909 1.422,0.545 1.011,0.182 0.541,0 0,0 m -6.662,14.964 c 0,0.863 0.28,1.739 0.835,2.629 0.555,0.885 1.366,1.622 2.429,2.205 1.067,0.583 2.307,0.872 3.729,0.872 1.319,0 2.485,-0.242 3.496,-0.732 1.007,-0.484 1.786,-1.147 2.336,-1.986 0.55,-0.834 0.825,-1.747 0.825,-2.726 0,-0.775 -0.158,-1.455 -0.471,-2.038 C 6.205,12.605 5.832,12.102 5.399,11.683 4.969,11.258 4.196,10.545 3.077,9.543 2.765,9.263 2.518,9.016 2.331,8.801 2.144,8.587 2.005,8.391 1.916,8.214 1.823,8.037 1.753,7.86 1.702,7.683 1.655,7.505 1.576,7.193 1.479,6.746 1.306,5.799 0.765,5.329 -0.149,5.329 c -0.471,0 -0.872,0.153 -1.193,0.461 -0.327,0.313 -0.485,0.769 -0.485,1.379 0,0.766 0.117,1.427 0.354,1.987 0.238,0.559 0.55,1.049 0.942,1.473 0.392,0.424 0.923,0.927 1.585,1.51 0.582,0.508 1.007,0.895 1.263,1.152 0.262,0.261 0.48,0.55 0.657,0.867 0.177,0.317 0.266,0.667 0.266,1.039 0,0.727 -0.27,1.343 -0.811,1.842 -0.546,0.499 -1.24,0.75 -2.098,0.75 -1.002,0 -1.739,-0.251 -2.214,-0.759 -0.471,-0.505 -0.872,-1.25 -1.199,-2.234 -0.312,-1.026 -0.899,-1.538 -1.762,-1.538 -0.512,0 -0.941,0.177 -1.291,0.54 -0.349,0.359 -0.527,0.747 -0.527,1.166"
     style="fill:#231f20;fill-opacity:1;fill-rule:nonzero;stroke:none"
     id="path1032"
     inkscape:connector-curvature="0" /></g><g
   id="g1034"
   transform="translate(303.3325,569.4363)"><path
     d="m 0,0 c 8.195,0 14.837,-6.643 14.837,-14.836 0,-8.195 -6.642,-14.838 -14.837,-14.838 -2.378,0 -4.625,0.56 -6.617,1.555 l -7.543,-4.344 4.618,6.265 c -3.237,2.721 -5.295,6.801 -5.295,11.361 C -14.837,-6.643 -8.194,0 0,0"
     style="fill:#f4bd1e;fill-opacity:1;fill-rule:nonzero;stroke:none"
     id="path1036"
     inkscape:connector-curvature="0" /></g><g
   id="g1038"
   transform="translate(303.0791,543.7645)"><path
     d="m 0,0 v 0 c -0.58,0 -1.086,0.19 -1.514,0.565 -0.433,0.374 -0.648,0.9 -0.648,1.577 0,0.589 0.205,1.09 0.619,1.504 0.413,0.414 0.915,0.618 1.514,0.618 0.598,0 1.104,-0.204 1.528,-0.618 C 1.922,3.232 2.132,2.731 2.132,2.142 2.132,1.475 1.917,0.949 1.494,0.569 1.065,0.19 0.569,0 0,0 m -1.578,9.385 -0.457,6.825 c -0.083,1.329 -0.127,2.288 -0.127,2.867 0,0.789 0.205,1.402 0.619,1.844 0.413,0.444 0.954,0.663 1.626,0.663 0.817,0 1.362,-0.283 1.635,-0.847 0.278,-0.565 0.414,-1.383 0.414,-2.444 0,-0.628 -0.034,-1.266 -0.098,-1.913 L 1.421,9.355 C 1.353,8.519 1.211,7.876 0.993,7.428 0.778,6.985 0.418,6.761 -0.088,6.761 c -0.511,0 -0.866,0.215 -1.066,0.648 -0.195,0.433 -0.341,1.09 -0.424,1.976"
     style="fill:#231f20;fill-opacity:1;fill-rule:nonzero;stroke:none"
     id="path1040"
     inkscape:connector-curvature="0" /></g><g
   id="g1042"
   transform="translate(321.1992,530.1424)"><path
     d="M 0,0 C 1.608,0 1.611,2.5 0,2.5 -1.609,2.5 -1.611,0 0,0"
     style="fill:#231f20;fill-opacity:1;fill-rule:nonzero;stroke:none"
     id="path1044"
     inkscape:connector-curvature="0" /></g><g
   id="g1046"
   transform="translate(281.3247,572.346)"><path
     d="M 0,0 C 1.608,0 1.611,2.5 0,2.5 -1.609,2.5 -1.611,0 0,0"
     style="fill:#231f20;fill-opacity:1;fill-rule:nonzero;stroke:none"
     id="path1048"
     inkscape:connector-curvature="0" /></g><g
   id="g1050"
   transform="translate(229.6719,529.1458)"><path
     d="M 0,0 C 1.609,0 1.611,2.5 0,2.5 -1.608,2.5 -1.611,0 0,0"
     style="fill:#231f20;fill-opacity:1;fill-rule:nonzero;stroke:none"
     id="path1052"
     inkscape:connector-curvature="0" /></g><g
   id="g1054"
   transform="translate(279.3413,483.9662)"><path
     d="M 0,0 C 1.609,0 1.611,2.5 0,2.5 -1.608,2.5 -1.611,0 0,0"
     style="fill:#231f20;fill-opacity:1;fill-rule:nonzero;stroke:none"
     id="path1056"
     inkscape:connector-curvature="0" /></g><g
   id="g1058"
   transform="translate(280.3379,528.4813)"><path
     d="M 0,0 C 1.609,0 1.611,2.5 0,2.5 -1.608,2.5 -1.611,0 0,0"
     style="fill:#231f20;fill-opacity:1;fill-rule:nonzero;stroke:none"
     id="path1060"
     inkscape:connector-curvature="0" /></g><text
   xml:space="preserve"
   style="font-style:normal;font-weight:normal;font-size:13.47591972px;line-height:1.25;font-family:sans-serif;letter-spacing:0px;word-spacing:0px;fill:#000000;fill-opacity:1;stroke:none;stroke-width:0.336898"
   x="-11.718966"
   y="-205.7814"
   id="text1868"
   transform="scale(1,-1)"><tspan
     sodipodi:role="line"
     x="-11.718966"
     y="-205.7814"
     style="font-style:normal;font-variant:normal;font-weight:bold;font-stretch:normal;font-family:Arial;-inkscape-font-specification:'Arial Bold';stroke-width:0.336898"
     id="tspan1874">Personaliza <tspan
   style="font-style:normal;font-variant:normal;font-weight:normal;font-stretch:normal;font-family:Arial;-inkscape-font-specification:Arial"
   id="tspan2238">el soporte y</tspan></tspan><tspan
     sodipodi:role="line"
     x="-11.718966"
     y="-188.72104"
     style="font-style:normal;font-variant:normal;font-weight:bold;font-stretch:normal;font-family:Arial;-inkscape-font-specification:'Arial Bold';stroke-width:0.336898"
     id="tspan2232"><tspan
   style="font-style:normal;font-variant:normal;font-weight:normal;font-stretch:normal;font-family:Arial;-inkscape-font-specification:Arial"
   id="tspan2240">orientación de</tspan> EXPERTOS</tspan><tspan
     sodipodi:role="line"
     x="-11.718966"
     y="-171.66068"
     style="font-style:normal;font-variant:normal;font-weight:bold;font-stretch:normal;font-family:Arial;-inkscape-font-specification:'Arial Bold';stroke-width:0.336898"
     id="tspan2234"><tspan
   style="font-style:normal;font-variant:normal;font-weight:normal;font-stretch:normal;font-family:Arial;-inkscape-font-specification:Arial"
   id="tspan2236">durante el programa.</tspan> </tspan></text>

<text
   xml:space="preserve"
   style="font-style:normal;font-weight:normal;font-size:13.47591877px;line-height:1.25;font-family:sans-serif;letter-spacing:0px;word-spacing:0px;fill:#000000;fill-opacity:1;stroke:none;stroke-width:0.336898"
   x="-12.601615"
   y="-353.25217"
   id="text1868-8"
   transform="scale(1,-1)"><tspan
     sodipodi:role="line"
     x="-12.601615"
     y="-353.25217"
     style="font-style:normal;font-variant:normal;font-weight:bold;font-stretch:normal;font-family:Arial;-inkscape-font-specification:'Arial Bold';stroke-width:0.336898"
     id="tspan1942">Capacidad de</tspan><tspan
     sodipodi:role="line"
     x="-12.601615"
     y="-336.1918"
     style="font-style:normal;font-variant:normal;font-weight:bold;font-stretch:normal;font-family:Arial;-inkscape-font-specification:'Arial Bold';stroke-width:0.336898"
     id="tspan1974">empleabilidad</tspan></text>

<flowRoot
   xml:space="preserve"
   id="flowRoot1924"
   style="fill:black;fill-opacity:1;stroke:none;font-family:sans-serif;font-style:normal;font-weight:normal;font-size:40px;line-height:1.25;letter-spacing:0px;word-spacing:0px"><flowRegion
     id="flowRegion1926"><rect
       id="rect1928"
       width="190.17712"
       height="93.086693"
       x="-371.34586"
       y="95.403183" /></flowRegion><flowPara
     id="flowPara1930" /></flowRoot><text
   xml:space="preserve"
   style="font-style:normal;font-weight:normal;font-size:13.47591877px;line-height:1.25;font-family:sans-serif;letter-spacing:0px;word-spacing:0px;fill:#000000;fill-opacity:1;stroke:none;stroke-width:0.336898"
   x="-11.34548"
   y="-420.5994"
   id="text1868-8-3"
   transform="scale(1,-1)"><tspan
     sodipodi:role="line"
     x="-11.34548"
     y="-420.5994"
     style="font-style:normal;font-variant:normal;font-weight:normal;font-stretch:normal;font-family:Arial;-inkscape-font-specification:Arial;stroke-width:0.336898"
     id="tspan1874-4-0"><tspan
   style="font-style:normal;font-variant:normal;font-weight:bold;font-stretch:normal;font-family:Arial;-inkscape-font-specification:'Arial Bold';stroke-width:0.336898"
   id="tspan1876-9-3">Método: </tspan>Evaluación psicolaboral y</tspan><tspan
     sodipodi:role="line"
     x="-11.34548"
     y="-403.53903"
     style="font-style:normal;font-variant:normal;font-weight:normal;font-stretch:normal;font-family:Arial;-inkscape-font-specification:Arial;stroke-width:0.336898"
     id="tspan1942-0">potencial de competencias</tspan></text>

<text
   xml:space="preserve"
   style="font-style:normal;font-weight:normal;font-size:13.47591877px;line-height:1.25;font-family:sans-serif;letter-spacing:0px;word-spacing:0px;fill:#000000;fill-opacity:1;stroke:none;stroke-width:0.336898"
   x="180.7205"
   y="-352.65387"
   id="text1868-8-3-9"
   transform="scale(1,-1)"><tspan
     sodipodi:role="line"
     x="180.7205"
     y="-352.65387"
     style="font-style:normal;font-variant:normal;font-weight:normal;font-stretch:normal;font-family:Arial;-inkscape-font-specification:Arial;stroke-width:0.336898"
     id="tspan1874-4-0-2">Conocimiento</tspan><tspan
     sodipodi:role="line"
     x="180.7205"
     y="-335.59351"
     style="font-style:normal;font-variant:normal;font-weight:normal;font-stretch:normal;font-family:Arial;-inkscape-font-specification:Arial;stroke-width:0.336898"
     id="tspan1942-0-4">de uno mismo</tspan></text>

<text
   xml:space="preserve"
   style="font-style:normal;font-weight:normal;font-size:13.47591877px;line-height:1.25;font-family:sans-serif;letter-spacing:0px;word-spacing:0px;fill:#000000;fill-opacity:1;stroke:none;stroke-width:0.336898"
   x="373.65979"
   y="-521.48047"
   id="text1868-0"
   transform="scale(1,-1)"><tspan
     sodipodi:role="line"
     id="tspan1866-5"
     x="373.65979"
     y="-521.48047"
     style="font-style:normal;font-variant:normal;font-weight:normal;font-stretch:normal;font-family:Arial;-inkscape-font-specification:Arial;stroke-width:0.336898"><tspan
   style="font-style:normal;font-variant:normal;font-weight:bold;font-stretch:normal;font-family:Arial;-inkscape-font-specification:'Arial Bold';stroke-width:0.336898"
   id="tspan1876-9">Desarrolla recursos</tspan> (CV, linkedin),</tspan><tspan
     sodipodi:role="line"
     x="373.65979"
     y="-504.42007"
     style="font-style:normal;font-variant:normal;font-weight:bold;font-stretch:normal;font-family:Arial;-inkscape-font-specification:'Arial Bold';stroke-width:0.336898"
     id="tspan1874-2">fortalece habilidades <tspan
   style="font-style:normal;font-variant:normal;font-weight:normal;font-stretch:normal;font-family:Arial;-inkscape-font-specification:Arial"
   id="tspan2058">y cierra las</tspan></tspan><tspan
     sodipodi:role="line"
     x="373.65979"
     y="-487.35971"
     style="font-style:normal;font-variant:normal;font-weight:normal;font-stretch:normal;font-family:Arial;-inkscape-font-specification:Arial;stroke-width:0.336898"
     id="tspan2056">brechas</tspan></text>

<text
   xml:space="preserve"
   style="font-style:normal;font-weight:normal;font-size:13.47591877px;line-height:1.25;font-family:sans-serif;letter-spacing:0px;word-spacing:0px;fill:#000000;fill-opacity:1;stroke:none;stroke-width:0.336898"
   x="373.23032"
   y="-456.98853"
   id="text1868-8-3-2"
   transform="scale(1,-1)"><tspan
     sodipodi:role="line"
     x="373.23032"
     y="-456.98853"
     style="font-style:normal;font-variant:normal;font-weight:normal;font-stretch:normal;font-family:Arial;-inkscape-font-specification:Arial;stroke-width:0.336898"
     id="tspan2088"><tspan
   id="tspan2098"
   style="font-style:normal;font-variant:normal;font-weight:bold;font-stretch:normal;font-family:Arial;-inkscape-font-specification:'Arial Bold';stroke-width:0.336898">Método: </tspan>Entrena en el uso de metodologías,</tspan><tspan
     sodipodi:role="line"
     x="373.23032"
     y="-439.92816"
     style="font-style:normal;font-variant:normal;font-weight:normal;font-stretch:normal;font-family:Arial;-inkscape-font-specification:Arial;stroke-width:0.336898"
     id="tspan2090">estategias, herramientas y modelos de </tspan><tspan
     sodipodi:role="line"
     x="373.23032"
     y="-422.8678"
     style="font-style:normal;font-variant:normal;font-weight:bold;font-stretch:normal;font-family:Arial;-inkscape-font-specification:'Arial Bold';stroke-width:0.336898"
     id="tspan2092"><tspan
       id="tspan2107"
       style="font-style:normal;font-variant:normal;font-weight:normal;font-stretch:normal;font-family:Arial;-inkscape-font-specification:Arial;stroke-width:0.336898">clase mundial (Contamos </tspan><tspan
       style="font-style:normal;font-variant:normal;font-weight:normal;font-stretch:normal;font-family:Arial;-inkscape-font-specification:Arial"
       id="tspan2096">con un staff de</tspan></tspan><tspan
     sodipodi:role="line"
     x="373.23032"
     y="-405.80743"
     style="font-style:normal;font-variant:normal;font-weight:bold;font-stretch:normal;font-family:Arial;-inkscape-font-specification:'Arial Bold';stroke-width:0.336898"
     id="tspan2109"><tspan
   style="font-style:normal;font-variant:normal;font-weight:normal;font-stretch:normal;font-family:Arial;-inkscape-font-specification:Arial"
   id="tspan2111">expertos en diferentes epecialidades)</tspan>.</tspan></text>

<text
   xml:space="preserve"
   style="font-style:normal;font-weight:normal;font-size:13.47591877px;line-height:1.25;font-family:sans-serif;letter-spacing:0px;word-spacing:0px;fill:#000000;fill-opacity:1;stroke:none;stroke-width:0.336898"
   x="400.78516"
   y="-351.02628"
   id="text1868-8-5"
   transform="scale(1,-1)"><tspan
     sodipodi:role="line"
     x="400.78516"
     y="-351.02628"
     style="font-style:normal;font-variant:normal;font-weight:bold;font-stretch:normal;line-height:0;font-family:Arial;-inkscape-font-specification:'Arial Bold';stroke-width:0.336898"
     id="tspan1942-4">Capacidad de</tspan><tspan
     sodipodi:role="line"
     x="400.78516"
     y="-334.18137"
     style="font-style:normal;font-variant:normal;font-weight:bold;font-stretch:normal;line-height:0;font-family:Arial;-inkscape-font-specification:'Arial Bold';stroke-width:0.336898"
     id="tspan1974-8">empleabilidad</tspan></text>

<text
   xml:space="preserve"
   style="font-style:normal;font-weight:normal;font-size:13.47591877px;line-height:1.25;font-family:sans-serif;letter-spacing:0px;word-spacing:0px;fill:#000000;fill-opacity:1;stroke:none;stroke-width:0.336898"
   x="596.50104"
   y="-352.02817"
   id="text1868-8-3-9-1"
   transform="scale(1,-1)"><tspan
     sodipodi:role="line"
     x="596.50104"
     y="-352.02817"
     style="font-style:normal;font-variant:normal;font-weight:normal;font-stretch:normal;font-family:Arial;-inkscape-font-specification:Arial;stroke-width:0.336898"
     id="tspan1942-0-4-8">Marca personal</tspan><tspan
     sodipodi:role="line"
     x="596.50104"
     y="-334.9678"
     style="font-style:normal;font-variant:normal;font-weight:normal;font-stretch:normal;font-family:Arial;-inkscape-font-specification:Arial;stroke-width:0.336898"
     id="tspan2180">y profesional</tspan></text>

<text
   xml:space="preserve"
   style="font-style:normal;font-weight:normal;font-size:13.47591877px;line-height:1.25;font-family:sans-serif;letter-spacing:0px;word-spacing:0px;fill:#000000;fill-opacity:1;stroke:none;stroke-width:0.336898"
   x="-10.65126"
   y="-508.23328"
   id="text1868-1"
   transform="scale(1,-1)"><tspan
     sodipodi:role="line"
     id="tspan1866-0"
     x="-10.65126"
     y="-508.23328"
     style="font-style:normal;font-variant:normal;font-weight:normal;font-stretch:normal;font-family:Arial;-inkscape-font-specification:Arial;stroke-width:0.336898"><tspan
   style="font-style:normal;font-variant:normal;font-weight:bold;font-stretch:normal;font-family:Arial;-inkscape-font-specification:'Arial Bold';stroke-width:0.336898"
   id="tspan1876-3">Clarifica los objetivos</tspan> profesionales</tspan><tspan
     sodipodi:role="line"
     x="-10.65126"
     y="-491.17291"
     style="font-style:normal;font-variant:normal;font-weight:normal;font-stretch:normal;font-family:Arial;-inkscape-font-specification:Arial;stroke-width:0.336898"
     id="tspan1870-4">e <tspan
   style="font-style:normal;font-variant:normal;font-weight:bold;font-stretch:normal;font-family:Arial;-inkscape-font-specification:'Arial Bold';stroke-width:0.336898"
   id="tspan1878-0">identifica &quot;brechas&quot;. Evalúa</tspan> el</tspan><tspan
     sodipodi:role="line"
     x="-10.65126"
     y="-474.11255"
     style="font-style:normal;font-variant:normal;font-weight:normal;font-stretch:normal;font-family:Arial;-inkscape-font-specification:Arial;stroke-width:0.336898"
     id="tspan1872-3">perfil profesional y lo alínea al</tspan><tspan
     sodipodi:role="line"
     x="-10.65126"
     y="-457.05219"
     style="font-style:normal;font-variant:normal;font-weight:normal;font-stretch:normal;font-family:Arial;-inkscape-font-specification:Arial;stroke-width:0.336898"
     id="tspan1874-9">mercado laboral</tspan></text>

<text
   xml:space="preserve"
   style="font-style:normal;font-weight:normal;font-size:13.47591877px;line-height:1.25;font-family:sans-serif;letter-spacing:0px;word-spacing:0px;fill:#000000;fill-opacity:1;stroke:none;stroke-width:0.336898"
   x="19.429955"
   y="-88.281555"
   id="text1868-8-1"
   transform="scale(1,-1)"><tspan
     sodipodi:role="line"
     x="19.429955"
     y="-88.281555"
     style="font-style:normal;font-variant:normal;font-weight:bold;font-stretch:normal;font-family:Arial;-inkscape-font-specification:'Arial Bold';stroke-width:0.336898"
     id="tspan1942-9">Capacidad de</tspan><tspan
     sodipodi:role="line"
     x="19.429955"
     y="-71.221191"
     style="font-style:normal;font-variant:normal;font-weight:bold;font-stretch:normal;font-family:Arial;-inkscape-font-specification:'Arial Bold';stroke-width:0.336898"
     id="tspan1974-6">empleabilidad</tspan></text>

<text
   xml:space="preserve"
   style="font-style:normal;font-weight:normal;font-size:13.47591877px;line-height:1.25;font-family:sans-serif;letter-spacing:0px;word-spacing:0px;fill:#000000;fill-opacity:1;stroke:none;stroke-width:0.336898"
   x="204.99898"
   y="-92.286247"
   id="text1868-8-3-9-9"
   transform="scale(1,-1)"><tspan
     sodipodi:role="line"
     x="204.99898"
     y="-92.286247"
     style="font-style:normal;font-variant:normal;font-weight:normal;font-stretch:normal;font-family:Arial;-inkscape-font-specification:Arial;stroke-width:0.336898"
     id="tspan1942-0-4-3">Red de contactos</tspan><tspan
     sodipodi:role="line"
     x="204.99898"
     y="-75.225883"
     style="font-style:normal;font-variant:normal;font-weight:normal;font-stretch:normal;font-family:Arial;-inkscape-font-specification:Arial;stroke-width:0.336898"
     id="tspan2357">(Network)</tspan></text>

<text
   xml:space="preserve"
   style="font-style:normal;font-weight:normal;font-size:10.98597431px;line-height:1.25;font-family:sans-serif;letter-spacing:0px;word-spacing:0px;fill:#000000;fill-opacity:1;stroke:none;stroke-width:0.68662339"
   x="373.35172"
   y="-257.37103"
   id="text2397"
   transform="scale(1,-1)"><tspan
     sodipodi:role="line"
     x="373.35172"
     y="-257.37103"
     style="font-style:normal;font-variant:normal;font-weight:bold;font-stretch:normal;font-size:20.14095116px;line-height:20.76089668px;font-family:Arial;-inkscape-font-specification:'Arial Bold';stroke-width:0.68662339"
     id="tspan2399">Vinculación con el </tspan><tspan
     sodipodi:role="line"
     x="373.35172"
     y="-236.61014"
     style="font-style:normal;font-variant:normal;font-weight:bold;font-stretch:normal;font-size:20.14095116px;line-height:20.76089668px;font-family:Arial;-inkscape-font-specification:'Arial Bold';stroke-width:0.68662339"
     id="tspan2403">mercado laboral</tspan></text>

<text
   xml:space="preserve"
   style="font-style:normal;font-weight:normal;font-size:13.47591877px;line-height:1.25;font-family:sans-serif;letter-spacing:0px;word-spacing:0px;fill:#000000;fill-opacity:1;stroke:none;stroke-width:0.336898"
   x="372.88205"
   y="-200.65941"
   id="text1868-0-6"
   transform="scale(1,-1)"><tspan
     sodipodi:role="line"
     id="tspan1866-5-2"
     x="372.88205"
     y="-200.65941"
     style="font-style:normal;font-variant:normal;font-weight:normal;font-stretch:normal;font-family:Arial;-inkscape-font-specification:Arial;stroke-width:0.336898"><tspan
   style="font-style:normal;font-variant:normal;font-weight:bold;font-stretch:normal;font-family:Arial;-inkscape-font-specification:'Arial Bold'"
   id="tspan2463">Incrementa</tspan> tus <tspan
   style="font-style:normal;font-variant:normal;font-weight:bold;font-stretch:normal;font-family:Arial;-inkscape-font-specification:'Arial Bold'"
   id="tspan2465">oportunidades</tspan></tspan><tspan
     sodipodi:role="line"
     x="372.88205"
     y="-183.59904"
     style="font-style:normal;font-variant:normal;font-weight:normal;font-stretch:normal;font-family:Arial;-inkscape-font-specification:Arial;stroke-width:0.336898"
     id="tspan2056-9">laborales</tspan></text>

<text
   xml:space="preserve"
   style="font-style:normal;font-weight:normal;font-size:13.47591877px;line-height:1.25;font-family:sans-serif;letter-spacing:0px;word-spacing:0px;fill:#000000;fill-opacity:1;stroke:none;stroke-width:0.336898"
   x="371.37888"
   y="-156.4783"
   id="text1868-8-3-2-9"
   transform="scale(1,-1)"><tspan
     sodipodi:role="line"
     x="371.37888"
     y="-156.4783"
     style="font-style:normal;font-variant:normal;font-weight:bold;font-stretch:normal;font-family:Arial;-inkscape-font-specification:'Arial Bold';stroke-width:0.336898"
     id="tspan2109-9">Método:<tspan
   style="font-style:normal;font-variant:normal;font-weight:normal;font-stretch:normal;font-family:Arial;-inkscape-font-specification:Arial"
   id="tspan2529"> Uso de nuestras plataformas </tspan></tspan><tspan
     sodipodi:role="line"
     x="371.37888"
     y="-139.41794"
     style="font-style:normal;font-variant:normal;font-weight:bold;font-stretch:normal;font-family:Arial;-inkscape-font-specification:'Arial Bold';stroke-width:0.336898"
     id="tspan2531"><tspan
   style="font-style:normal;font-variant:normal;font-weight:normal;font-stretch:normal;font-family:Arial;-inkscape-font-specification:Arial"
   id="tspan2549">digitales: </tspan>Jobfinder <tspan
   style="font-style:normal;font-variant:normal;font-weight:normal;font-stretch:normal;font-family:Arial;-inkscape-font-specification:Arial"
   id="tspan2533">(produce la mayor &quot;bolsa de trabajo&quot;</tspan></tspan><tspan
     sodipodi:role="line"
     x="371.37888"
     y="-122.35757"
     style="font-style:normal;font-variant:normal;font-weight:bold;font-stretch:normal;font-family:Arial;-inkscape-font-specification:'Arial Bold';stroke-width:0.336898"
     id="tspan2535">disponible en el País) y Rank and Match <tspan
   style="font-style:normal;font-variant:normal;font-weight:normal;font-stretch:normal;font-family:Arial;-inkscape-font-specification:Arial"
   id="tspan2541">(te conecta</tspan></tspan><tspan
     sodipodi:role="line"
     x="371.37888"
     y="-105.29722"
     style="font-style:normal;font-variant:normal;font-weight:normal;font-stretch:normal;font-family:Arial;-inkscape-font-specification:Arial;stroke-width:0.336898"
     id="tspan2539">con empresas en la búsqueda del candidato mediante</tspan><tspan
     sodipodi:role="line"
     x="371.37888"
     y="-88.236855"
     style="font-style:normal;font-variant:normal;font-weight:normal;font-stretch:normal;font-family:Arial;-inkscape-font-specification:Arial;stroke-width:0.336898"
     id="tspan2545">un ranking de profesionales de nustra base)</tspan></text>

<text
   xml:space="preserve"
   style="font-style:normal;font-weight:normal;font-size:13.47591877px;line-height:1.25;font-family:sans-serif;letter-spacing:0px;word-spacing:0px;fill:#000000;fill-opacity:1;stroke:none;stroke-width:0.336898"
   x="375.13324"
   y="-38.926708"
   id="text1868-8-1-3"
   transform="scale(1,-1)"><tspan
     sodipodi:role="line"
     x="375.13324"
     y="-38.926708"
     style="font-style:normal;font-variant:normal;font-weight:bold;font-stretch:normal;font-family:Arial;-inkscape-font-specification:'Arial Bold';stroke-width:0.336898"
     id="tspan1942-9-5">Capacidad de</tspan><tspan
     sodipodi:role="line"
     x="375.13324"
     y="-21.866344"
     style="font-style:normal;font-variant:normal;font-weight:bold;font-stretch:normal;font-family:Arial;-inkscape-font-specification:'Arial Bold';stroke-width:0.336898"
     id="tspan1974-6-1">empleabilidad</tspan></text>

<text
   xml:space="preserve"
   style="font-style:normal;font-weight:normal;font-size:13.47591877px;line-height:1.25;font-family:sans-serif;letter-spacing:0px;word-spacing:0px;fill:#000000;fill-opacity:1;stroke:none;stroke-width:0.336898"
   x="555.43091"
   y="-31.66625"
   id="text1868-8-3-9-9-1"
   transform="scale(1,-1)"><tspan
     sodipodi:role="line"
     x="555.43091"
     y="-31.66625"
     style="font-style:normal;font-variant:normal;font-weight:normal;font-stretch:normal;font-family:Arial;-inkscape-font-specification:Arial;stroke-width:0.336898"
     id="tspan2357-6">Visibilidad</tspan></text>

<text
   xml:space="preserve"
   style="font-style:normal;font-weight:normal;font-size:10.98597431px;line-height:1.25;font-family:sans-serif;letter-spacing:0px;word-spacing:0px;fill:#000000;fill-opacity:1;stroke:none;stroke-width:0.68662339"
   x="-10.621688"
   y="-579.70386"
   id="text2397-7"
   transform="scale(1,-1)"><tspan
     sodipodi:role="line"
     x="-10.621688"
     y="-579.70386"
     style="font-style:normal;font-variant:normal;font-weight:bold;font-stretch:normal;font-size:22px;line-height:22.67716599px;font-family:Arial;-inkscape-font-specification:'Arial Bold';stroke-width:0.68662339"
     id="tspan2403-0">Diagnóstico</tspan><tspan
     sodipodi:role="line"
     x="-10.621688"
     y="-557.02667"
     style="font-style:normal;font-variant:normal;font-weight:bold;font-stretch:normal;font-size:22px;line-height:22.67716599px;font-family:Arial;-inkscape-font-specification:'Arial Bold';stroke-width:0.68662339"
     id="tspan2622">Personal</tspan></text>

<text
   xml:space="preserve"
   style="font-style:normal;font-weight:normal;font-size:10.98597431px;line-height:1.25;font-family:sans-serif;letter-spacing:0px;word-spacing:0px;fill:#000000;fill-opacity:1;stroke:none;stroke-width:0.68662339"
   x="-11.291893"
   y="-259.20654"
   id="text2397-7-6"
   transform="scale(1,-1)"><tspan
     sodipodi:role="line"
     x="-11.291893"
     y="-259.20654"
     style="font-style:normal;font-variant:normal;font-weight:bold;font-stretch:normal;font-size:22px;line-height:22.67716599px;font-family:Arial;-inkscape-font-specification:'Arial Bold';stroke-width:0.68662339"
     id="tspan2622-7">Acompañamiento</tspan></text>

<text
   xml:space="preserve"
   style="font-style:normal;font-weight:normal;font-size:10.98597431px;line-height:1.25;font-family:sans-serif;letter-spacing:0px;word-spacing:0px;fill:#000000;fill-opacity:1;stroke:none;stroke-width:0.68662339"
   x="372.77008"
   y="-578.20288"
   id="text2397-7-6-4"
   transform="scale(1,-1)"><tspan
     sodipodi:role="line"
     x="372.77008"
     y="-578.20288"
     style="font-style:normal;font-variant:normal;font-weight:bold;font-stretch:normal;font-size:22px;line-height:22.67716599px;font-family:Arial;-inkscape-font-specification:'Arial Bold';stroke-width:0.68662339"
     id="tspan2622-7-8">Preparación</tspan></text>

</g></svg>