<svg version="1.1" viewBox="0 0 1045 832.1" xmlns="http://www.w3.org/2000/svg"><defs><clipPath id="d"><path d="m0 708.7h708.7v-708.7h-708.7z"/></clipPath><clipPath id="c"><path d="m0 708.7h708.7v-708.7h-708.7z"/></clipPath><clipPath id="b"><path d="m0 708.7h708.7v-708.7h-708.7z"/></clipPath><clipPath id="a"><path d="m0 708.7h708.7v-708.7h-708.7z"/></clipPath></defs><g transform="matrix(1.333 0 0 -1.333 55.59 832.1)"><path d="m-41.69 312h396v312h-396z" fill="#e9e9e9"/><path d="m354.3 312h387.5v312h-387.5z" fill="#d3d2d2"/><path d="m-41.69 0h396v312h-396z" fill="#bdbcbc"/><path d="m354.3 0h387.5v312h-387.5z" fill="#f2f2f2"/><g clip-path="url(#d)"><g transform="translate(314.2 312)"><path d="m0 0h40.17v40.17c-22.19 0-40.17-17.98-40.17-40.17" fill="#f4bd1e"/></g><g transform="translate(394.5 312)"><path d="m0 0c0 22.19-17.98 40.17-40.17 40.17v-40.17z" fill="#f57925"/></g><g transform="translate(314.2 312)"><path d="m0 0c0-22.18 17.98-40.17 40.17-40.17v40.17z" fill="#f57925"/></g><g transform="translate(354.3 271.9)"><path d="m0 0c22.19 0 40.17 17.98 40.17 40.17h-40.17z" fill="#f4bd1e"/></g></g><g fill="#231f20"><g font-family="NTF-Grand" font-size="22px"><text transform="scale(1,-1)" x="335.20877" y="-320.27567"><tspan x="335.20877" y="-320.27567" font-family="Arial">1</tspan></text><text transform="scale(1,-1)" x="363.50943" y="-321.20462"><tspan x="363.50943" y="-321.20462" font-family="Arial">2</tspan></text><text transform="scale(1,-1)" x="336.10309" y="-289.07193"><tspan x="336.10309" y="-289.07193" font-family="Arial">3</tspan></text><text transform="scale(1,-1)" x="362.4288" y="-288.6738"><tspan x="362.4288" y="-288.6738" font-family="Arial">4</tspan></text></g><path d="m5.241 538.2h-14.91v3.44h14.91z" fill-rule="evenodd"/></g><g transform="translate(338.1 533.7)"><path d="m0 0c0-32.39-26.26-58.64-58.64-58.64s-58.64 26.26-58.64 58.64 26.26 58.64 58.64 58.64 58.64-26.26 58.64-58.64" fill="#fff" fill-rule="evenodd"/></g><g transform="translate(326.9 533.7)"><path d="m0 0c0-26.16-21.21-47.37-47.37-47.37s-47.37 21.21-47.37 47.37 21.21 47.37 47.37 47.37 47.37-21.21 47.37-47.37" fill="#f4f4f4" fill-rule="evenodd"/></g><g transform="translate(0 -1.877)"><g clip-path="url(#c)"><path d="m389.1 561.6h-14.91v3.44h14.91z" fill="#231f20" fill-rule="evenodd"/></g></g><g transform="translate(404.7 379.6)"><path d="m0 0 2.001-4.055 4.476-0.651-3.239-3.156 0.765-4.457-4.003 2.104-4.003-2.104 0.765 4.457-3.239 3.156 4.475 0.651z" fill="#f57925" fill-rule="evenodd"/></g><g transform="translate(512.5 354.3)"><path d="m0 0 6.684-6.683-6.684-6.011z" fill="#f57925" fill-rule="evenodd"/></g><text transform="matrix(1 0 0 -1 373.2 257.4)" fill="#231f20" font-family="Montserrat" font-size="19px" font-weight="bold"><tspan x="0" y="16.810547" font-family="Arial" font-weight="bold"/></text><g clip-path="url(#b)"><path d="m389.1 221.6h-14.91v3.44h14.91z" fill="#231f20" fill-rule="evenodd"/></g><g transform="translate(380.7 65.61)"><path d="m0 0 2.001-4.056 4.476-0.65-3.239-3.156 0.765-4.458-4.003 2.104-4.003-2.104 0.765 4.458-3.239 3.156 4.475 0.65z" fill="#f57925" fill-rule="evenodd"/></g><g transform="translate(484.4 40.3)"><path d="m0 0 6.684-6.684-6.684-6.01z" fill="#f57925" fill-rule="evenodd"/></g><g transform="matrix(1.081 0 0 1.081 539.4 17.59)"><path d="m0 0h-26.66c-3.501 0-6.339 2.839-6.339 6.34v26.66c0 3.501 2.838 6.339 6.339 6.339h26.66c3.501 0 6.339-2.838 6.339-6.339v-26.66c0-3.501-2.838-6.34-6.339-6.34" fill="#fff" fill-rule="evenodd"/></g><g transform="matrix(1.081 0 0 1.081 538.2 25.65)"><path d="m0 0c-0.2-0.201-0.467-0.312-0.751-0.312-0.283 0-0.55 0.111-0.75 0.312l-4.715 4.714c0.538 0.462 1.04 0.964 1.502 1.501l4.714-4.714c0.201-0.2 0.312-0.467 0.312-0.751 0-0.283-0.111-0.55-0.312-0.75m-8.475 6.973c0.55 0.45 1.052 0.952 1.501 1.502l1.507-1.507c-0.458-0.54-0.961-1.043-1.502-1.501zm-1.114 0.481c-1.639-1.19-3.576-1.819-5.602-1.819-5.27 0-9.558 4.287-9.558 9.556 0 5.27 4.288 9.557 9.558 9.557 5.269 0 9.556-4.287 9.556-9.557 0-2.026-0.63-3.963-1.82-5.602-0.595-0.821-1.314-1.539-2.134-2.135m10.34-5.202-7.087 7.087c1.154 1.739 1.763 3.753 1.763 5.852 0 5.856-4.764 10.62-10.62 10.62s-10.62-4.764-10.62-10.62c0-5.854 4.764-10.62 10.62-10.62 2.099 0 4.113 0.608 5.852 1.763l1.959-1.959c0-1e-3 0-1e-3 1e-3 -1e-3l5.127-5.127c0.401-0.401 0.935-0.622 1.501-0.622 0.567 0 1.101 0.221 1.502 0.622 0.401 0.4 0.622 0.934 0.622 1.501s-0.221 1.101-0.622 1.502" fill="#231f20"/></g><g transform="matrix(1.081 0 0 1.081 521.8 34.03)"><path d="m0 0c-4.099 0-7.434 3.334-7.434 7.433 0 4.098 3.335 7.433 7.434 7.433 4.098 0 7.433-3.335 7.433-7.433 0-4.099-3.335-7.433-7.433-7.433m0 15.93c-4.685 0-8.495-3.811-8.495-8.495s3.81-8.495 8.495-8.495c4.684 0 8.494 3.811 8.494 8.495s-3.81 8.495-8.494 8.495" fill="#231f20"/></g><g transform="matrix(1.081 0 0 1.081 528.2 44.53)"><path d="m0 0c-0.457 1.189-1.253 2.207-2.302 2.942-1.074 0.752-2.335 1.15-3.647 1.15-0.294 0-0.531-0.238-0.531-0.53 0-0.294 0.237-0.532 0.531-0.532 2.181 0 4.175-1.371 4.958-3.411 0.081-0.211 0.282-0.341 0.496-0.341 0.063 0 0.128 0.012 0.19 0.035 0.274 0.106 0.41 0.414 0.305 0.687" fill="#231f20"/></g><g transform="translate(-29.99 -3.185)"><g clip-path="url(#a)"><path d="m34.12 245.6h-14.91v3.44h14.91z" fill="#231f20" fill-rule="evenodd"/></g></g><g transform="translate(24.68 118.6)"><path d="m0 0 2.001-4.055 4.476-0.65-3.239-3.157 0.765-4.457-4.003 2.104-4.003-2.104 0.764 4.457-3.238 3.157 4.476 0.65z" fill="#f57925" fill-rule="evenodd"/></g><g transform="translate(125 92.92)"><path d="m0 0 6.684-6.683-6.684-6.01z" fill="#f57925" fill-rule="evenodd"/></g><g transform="translate(9.008 -1.126)"><g transform="matrix(1.191 0 0 1.191 175.3 67.28)"><path d="m0 0h-26.66c-3.501 0-6.339 2.838-6.339 6.339v26.66c0 3.501 2.838 6.339 6.339 6.339h26.66c3.501 0 6.339-2.838 6.339-6.339v-26.66c0-3.501-2.838-6.339-6.339-6.339" fill="#fff" fill-rule="evenodd"/></g><g transform="matrix(1.191 0 0 1.191 159.4 103.5)"><path d="m0 0c-1.093 0-1.979 0.886-1.979 1.979s0.886 1.98 1.979 1.98 1.979-0.887 1.979-1.98-0.886-1.979-1.979-1.979m0 4.948c-1.64 0-2.969-1.329-2.969-2.969s1.329-2.969 2.969-2.969c1.64 2e-3 2.968 1.33 2.969 2.969 0 1.64-1.329 2.969-2.969 2.969" fill="#231f20"/></g><g transform="matrix(1.191 0 0 1.191 163.6 95.29)"><path d="m0 0c0-0.273-0.222-0.495-0.495-0.495h-5.939c-0.273 0-0.494 0.222-0.494 0.495v2.97c0 0.778 0.602 1.425 1.379 1.48 1.322-0.614 2.847-0.614 4.17 0 0.777-0.055 1.379-0.702 1.379-1.48zm-1.485 5.443h-0.117l-0.104-0.051c-1.107-0.551-2.409-0.551-3.517 0l-0.104 0.051h-0.117c-1.366-1e-3 -2.473-1.108-2.474-2.473v-2.97c0-0.82 0.665-1.484 1.484-1.484h5.939c0.82 0 1.485 0.664 1.485 1.484v2.97c-2e-3 1.365-1.109 2.472-2.475 2.473" fill="#231f20"/></g><g transform="matrix(1.191 0 0 1.191 171.8 84.1)"><path d="m0 0c-1.093 0-1.979 0.886-1.979 1.979s0.886 1.98 1.979 1.98 1.979-0.887 1.979-1.98-0.886-1.979-1.979-1.979m0 4.948c-1.64 0-2.969-1.329-2.969-2.969s1.329-2.969 2.969-2.969 2.969 1.329 2.969 2.969c-1e-3 1.639-1.33 2.967-2.969 2.969" fill="#231f20"/></g><g transform="matrix(1.191 0 0 1.191 175.9 75.85)"><path d="m0 0c0-0.273-0.222-0.495-0.495-0.495h-5.939c-0.273 0-0.494 0.222-0.494 0.495v2.969c0 0.779 0.602 1.426 1.379 1.481 1.322-0.614 2.847-0.614 4.17 0 0.777-0.055 1.379-0.702 1.379-1.481zm-1.485 5.443h-0.117l-0.104-0.048c-1.107-0.552-2.409-0.552-3.517 0l-0.104 0.048h-0.117c-1.366-1e-3 -2.473-1.108-2.474-2.474v-2.969c0-0.82 0.665-1.484 1.484-1.484h5.939c0.82 0 1.485 0.664 1.485 1.484v2.969c-2e-3 1.366-1.109 2.473-2.475 2.474" fill="#231f20"/></g><g transform="matrix(1.191 0 0 1.191 147.1 84.1)"><path d="m0 0c-1.093 0-1.979 0.886-1.979 1.979s0.886 1.98 1.979 1.98 1.979-0.887 1.979-1.98-0.886-1.979-1.979-1.979m0 4.948c-1.64 0-2.969-1.329-2.969-2.969s1.329-2.969 2.969-2.969 2.97 1.329 2.97 2.969c-2e-3 1.639-1.33 2.967-2.97 2.969" fill="#231f20"/></g><g transform="matrix(1.191 0 0 1.191 151.2 75.85)"><path d="m0 0c0-0.273-0.222-0.495-0.495-0.495h-5.939c-0.273 0-0.494 0.222-0.494 0.495v2.969c0 0.779 0.602 1.426 1.379 1.481 1.322-0.614 2.847-0.614 4.17 0 0.777-0.055 1.379-0.702 1.379-1.481zm-1.485 5.443h-0.117l-0.104-0.048c-1.107-0.552-2.409-0.552-3.517 0l-0.104 0.048h-0.117c-1.366-1e-3 -2.473-1.108-2.474-2.474v-2.969c0-0.82 0.665-1.484 1.484-1.484h5.939c0.82 0 1.485 0.664 1.485 1.484v2.969c-2e-3 1.366-1.109 2.473-2.475 2.474" fill="#231f20"/></g><g transform="matrix(1.191 0 0 1.191 165.3 79.51)"><path d="m0 0s0 1e-3 -1e-3 1e-3c-0.107 0.252-0.397 0.369-0.649 0.262-2.235-0.937-4.717-1.108-7.058-0.487l0.463 0.137c0.262 0.076 0.412 0.352 0.336 0.614-0.077 0.262-0.352 0.412-0.614 0.336l-1.98-0.581c-7e-3 0-0.013-8e-3 -0.02-0.011-0.045-0.016-0.089-0.041-0.127-0.07-0.017-0.01-0.034-0.019-0.05-0.031-0.052-0.047-0.093-0.105-0.121-0.169-0.027-0.064-0.04-0.134-0.038-0.204 0.012-0.067 0.029-0.133 0.05-0.198 3e-3 -7e-3 0-0.015 5e-3 -0.022l0.99-1.893c0.126-0.243 0.426-0.337 0.668-0.21 0.243 0.126 0.336 0.425 0.21 0.668l-0.403 0.77c2.661-0.801 5.518-0.644 8.076 0.44 0.252 0.106 0.369 0.396 0.263 0.648" fill="#231f20"/></g><g transform="matrix(1.191 0 0 1.191 175.2 93.94)"><path d="m0 0c-0.193 0.193-0.506 0.193-0.7 0l-0.7-0.7c-0.41 4.335-3.162 8.096-7.169 9.799-0.251 0.106-0.542-0.01-0.649-0.262-0.107-0.251 0.01-0.542 0.261-0.649 3.595-1.528 6.094-4.867 6.546-8.747l-0.558 0.559c-0.197 0.189-0.51 0.185-0.7-0.012-0.185-0.192-0.185-0.496 0-0.688l1.485-1.485c0.193-0.193 0.506-0.193 0.7-1e-3 0 1e-3 0 1e-3 1e-3 1e-3l1.484 1.485c0.193 0.194 0.193 0.507-1e-3 0.7" fill="#231f20"/></g><g transform="matrix(1.191 0 0 1.191 154.7 104.3)"><path d="m0 0c-2e-3 0.029-6e-3 0.058-0.013 0.086 0 4e-3 -6e-3 7e-3 -8e-3 0.013-1e-3 5e-3 0 7e-3 0 0.011-0.013 0.025-0.028 0.047-0.046 0.069-0.016 0.029-0.035 0.056-0.057 0.082-0.029 0.025-0.061 0.048-0.096 0.065-0.017 0.015-0.036 0.028-0.055 0.04l-1.98 0.905c-0.253 0.103-0.542-0.017-0.645-0.27-0.099-0.239 4e-3 -0.514 0.234-0.63l1.025-0.469c-3.858-2.065-6.266-6.087-6.263-10.46 0-0.272 0.222-0.494 0.495-0.494s0.495 0.222 0.495 0.494c-3e-3 3.854 2.035 7.421 5.356 9.375l-0.358-0.747c-0.118-0.246-0.014-0.541 0.231-0.66 0.067-0.032 0.14-0.049 0.215-0.049 0.19 0 0.363 0.11 0.445 0.281l0.99 2.065c0 5e-3 0 0.01 4e-3 0.015 0.012 0.034 0.022 0.069 0.027 0.105 8e-3 0.027 0.014 0.054 0.018 0.081-1e-3 0.033-6e-3 0.065-0.014 0.096" fill="#231f20"/></g></g><g transform="translate(-5.573 382.8)"><path d="m0 0 2.001-4.055 4.476-0.651-3.239-3.156 0.765-4.457-4.003 2.104-4.003-2.104 0.764 4.457-3.238 3.156 4.476 0.651z" fill="#f57925" fill-rule="evenodd"/></g><g transform="translate(107.3 355.4)"><path d="m0 0 6.684-6.683-6.684-6.011z" fill="#f57925" fill-rule="evenodd"/></g><g transform="matrix(1.172 0 0 1.172 -29.47 -56.38)"><g transform="translate(165.3 328.3)"><path d="m0 0h-26.66c-3.501 0-6.339 2.838-6.339 6.339v26.66c0 3.501 2.838 6.339 6.339 6.339h26.66c3.501 0 6.339-2.838 6.339-6.339v-26.66c0-3.501-2.838-6.339-6.339-6.339" fill="#fff" fill-rule="evenodd"/></g><g transform="translate(162 351.2)"><path d="m0 0c-0.033-1.687-0.52-3.333-1.408-4.761-0.023-0.037-5e-3 -8e-3 -0.411-0.81-1.607-3.189-2.144-7.362-1.593-10.89h-9.813v4.519c0 0.304-0.246 0.551-0.55 0.551h-3.307c-0.304 0-0.551 0.247-0.551 0.551v4.408c0 0.305-0.247 0.552-0.551 0.552h-2.403c-0.295 0-0.436 0.199-0.484 0.285-0.047 0.086-0.139 0.313 0.018 0.562l2.313 3.643c0.07 0.109 0.098 0.239 0.082 0.366-0.051 0.396-0.077 0.801-0.077 1.206 0 5.275 4.341 9.514 9.643 9.364 5.025-0.143 9.189-4.516 9.092-9.548m-9.061 10.65c-5.903 0.17-10.78-4.553-10.78-10.46 0-0.383 0.021-0.768 0.062-1.147l-2.208-3.478c-0.329-0.517-0.349-1.146-0.054-1.683 0.295-0.536 0.837-0.856 1.45-0.856h1.852v-3.858c0-0.911 0.741-1.653 1.653-1.653h2.755v-4.519c0-0.304 0.247-0.552 0.552-0.552h11.02c0.165 0 0.321 0.075 0.426 0.203s0.147 0.296 0.114 0.457c-0.704 3.522-0.163 7.775 1.38 10.84 0.454 0.997 1.874 2.827 1.936 6.046 0.109 5.662-4.502 10.51-10.16 10.67" fill="#231f20"/></g><g transform="translate(157.6 347.9)"><path d="m0 0-1.076 0.621c-0.222 0.129-0.505 0.086-0.679-0.101-0.608-0.656-1.383-1.105-2.24-1.301-0.25-0.058-0.428-0.281-0.428-0.537v-1.236h-1.102v1.236c0 0.256-0.178 0.479-0.428 0.537-0.857 0.196-1.631 0.645-2.239 1.301-0.175 0.187-0.457 0.23-0.68 0.101l-1.076-0.621-0.551 0.954 1.083 0.626c0.223 0.128 0.327 0.394 0.251 0.64-0.148 0.479-0.217 0.888-0.217 1.288 0 0.399 0.069 0.808 0.217 1.288 0.076 0.246-0.028 0.512-0.251 0.64l-1.083 0.626 0.551 0.954 1.076-0.621c0.223-0.129 0.505-0.087 0.68 0.102 0.608 0.654 1.382 1.104 2.239 1.3 0.25 0.057 0.428 0.28 0.428 0.537v1.236h1.102v-1.236c0-0.257 0.178-0.48 0.428-0.537 0.857-0.196 1.632-0.646 2.24-1.3 0.174-0.189 0.456-0.231 0.679-0.102l1.076 0.621 0.551-0.954-1.083-0.626c-0.222-0.128-0.326-0.394-0.251-0.64 0.149-0.48 0.218-0.889 0.218-1.288 0-0.4-0.069-0.809-0.218-1.288-0.075-0.246 0.029-0.512 0.251-0.64l1.083-0.626zm1.58 1.633-1.192 0.688c0.1 0.417 0.149 0.808 0.149 1.187s-0.049 0.77-0.149 1.186l1.192 0.689c0.263 0.152 0.354 0.489 0.201 0.752l-1.102 1.909c-0.073 0.127-0.193 0.219-0.335 0.257-0.141 0.038-0.291 0.018-0.418-0.055l-1.188-0.686c-0.595 0.547-1.295 0.954-2.059 1.195v1.366c0 0.304-0.246 0.551-0.551 0.551h-2.204c-0.304 0-0.551-0.247-0.551-0.551v-1.366c-0.764-0.241-1.463-0.648-2.059-1.195l-1.188 0.686c-0.126 0.073-0.277 0.093-0.418 0.055s-0.262-0.13-0.335-0.257l-1.102-1.909c-0.152-0.263-0.062-0.6 0.202-0.752l1.192-0.689c-0.101-0.416-0.149-0.807-0.149-1.186s0.048-0.77 0.149-1.187l-1.192-0.688c-0.264-0.152-0.354-0.489-0.202-0.752l1.102-1.909c0.152-0.263 0.488-0.355 0.753-0.202l1.188 0.686c0.596-0.548 1.295-0.954 2.059-1.195v-1.365c0-0.305 0.247-0.552 0.551-0.552h2.204c0.305 0 0.551 0.247 0.551 0.552v1.365c0.764 0.241 1.464 0.647 2.059 1.195l1.188-0.686c0.264-0.153 0.601-0.061 0.753 0.202l1.102 1.909c0.153 0.263 0.062 0.6-0.201 0.752" fill="#231f20"/></g><g transform="translate(152.6 349.8)"><path d="m0 0c-0.911 0-1.653 0.742-1.653 1.653 0 0.912 0.742 1.654 1.653 1.654 0.912 0 1.653-0.742 1.653-1.654 0-0.911-0.741-1.653-1.653-1.653m0 4.409c-1.519 0-2.755-1.236-2.755-2.756 0-1.519 1.236-2.755 2.755-2.755 1.52 0 2.755 1.236 2.755 2.755 0 1.52-1.235 2.756-2.755 2.756" fill="#231f20"/></g></g><g transform="matrix(1.229 0 0 1.229 -91.22 -75.56)"><g transform="translate(545.3 328.3)"><path d="m0 0h-26.66c-3.501 0-6.339 2.838-6.339 6.339v26.66c0 3.501 2.838 6.339 6.339 6.339h26.66c3.501 0 6.339-2.838 6.339-6.339v-26.66c0-3.501-2.838-6.339-6.339-6.339" fill="#fff" fill-rule="evenodd"/></g><g transform="translate(537.2 356.4)"><path d="m0 0h9.53v-16.96h-29.8v16.96h10.2zm-10.08 1.186h-11.38v-19.33h32.18v19.33h-10.72" fill="#231f20"/></g><g transform="translate(528.2 343.7)"><path d="m0 0c-0.298 0.764-0.833 1.402-1.511 1.832 1.064 0.677 1.771 1.865 1.771 3.217 0 2.101-1.709 3.811-3.811 3.811-2.101 0-3.811-1.71-3.811-3.811 0-1.352 0.707-2.54 1.77-3.217-0.678-0.43-1.213-1.068-1.511-1.832-1.1 0.995-1.738 2.409-1.738 3.921 0 2.917 2.373 5.29 5.29 5.29 2.916 0 5.289-2.373 5.289-5.29 0-1.512-0.637-2.926-1.738-3.921m-3.551 2.424c-1.448 0-2.626 1.178-2.626 2.625 0 1.448 1.178 2.626 2.626 2.626 1.447 0 2.625-1.178 2.625-2.626 0-1.447-1.178-2.625-2.625-2.625m-1e-3 7.973c-3.57 0-6.475-2.905-6.475-6.476 0-2.203 1.105-4.235 2.956-5.436l0.802-0.52 0.11 0.95c0.151 1.324 1.272 2.322 2.607 2.322 1.336 0 2.457-0.998 2.609-2.322l0.109-0.95 0.803 0.52c1.85 1.201 2.956 3.233 2.956 5.436 0 3.571-2.905 6.476-6.477 6.476" fill="#231f20"/></g><path d="m532.4 349.6h12.21v-1.186h-12.21z" fill="#231f20"/><path d="m532.4 347.3h12.21v-1.186h-12.21z" fill="#231f20"/></g><g transform="translate(723.9 536.7)"><path d="m0 0c0-32.39-26.26-58.64-58.64-58.64s-58.64 26.26-58.64 58.64 26.26 58.64 58.64 58.64 58.64-26.26 58.64-58.64" fill="#fff" fill-rule="evenodd"/></g><g transform="translate(713.3 536.7)"><path d="m0 0c0-26.53-21.51-48.04-48.04-48.04s-48.04 21.51-48.04 48.04 21.51 48.04 48.04 48.04 48.04-21.51 48.04-48.04" fill="#f4f4f4" fill-rule="evenodd"/></g><g transform="translate(696.8 540.3)"><path d="m0 0c-2.635-3.708-6.929-6.05-11.81-6.05s-9.172 2.439-11.81 6.05l0.975 3.123 6.734 3.22c0.097 0.585 0.78 1.366 0.878 1.366-0.292 0.488-0.585 0.976-0.878 1.562-0.391 0-0.781 0.292-0.976 0.78-0.195 0.39-0.195 0.878 0 1.171-0.683 1.854-1.171 4.782 1.171 6.831l-1.171-0.195s1.366 2.537 4.196 1.659c0 0-0.293 0.487-1.171 0.683 0 0 1.268 0.585 1.952-0.293 0 0 0.39 0.39 0 0.683 0 0 2.146-0.097 4.098-1.854 2.537-2.44 1.952-5.562 1.074-7.611 0.097-0.293 0.097-0.684-0.098-0.977-0.195-0.39-0.487-0.683-0.78-0.683-0.196-0.292-0.684-1.268-0.977-1.561 0 0 0.684-0.878 0.879-1.366l6.733-3.22z" fill="#231f20"/></g><g transform="translate(684.9 534.2)"><path d="m0 0c-8.002 0-14.54 6.538-14.54 14.54s6.538 14.54 14.54 14.54 14.54-6.538 14.54-14.54-6.44-14.54-14.54-14.54m22.25 8.978 6.148 1.463v8.198l-6.148 1.463c-0.585 2.245-1.464 4.294-2.537 6.246l3.318 5.367-5.758 5.757-5.367-3.318c-1.952 1.171-4.001 2.05-6.245 2.537l-1.464 6.148h-8.197l-1.464-6.148c-2.244-0.585-4.294-1.463-6.245-2.537l-5.367 3.318-5.758-5.855 3.318-5.367c-1.17-1.952-2.049-4.001-2.537-6.245l-6.148-1.464v-8.197l6.148-1.464c0.585-2.244 1.464-4.294 2.537-6.245l-3.318-5.172 5.758-5.758 5.367 3.318c1.951-1.171 4.001-2.049 6.245-2.537l1.464-6.148h8.197l1.464 6.148c2.244 0.585 4.293 1.464 6.245 2.537l5.367-3.318 5.758 5.758-3.318 5.367c1.073 1.854 1.952 4.001 2.537 6.148" fill="#f4bd1e"/></g><g transform="translate(634.7 516.5)"><path d="m0 0c-6.343 2.146-9.759 8.88-7.611 15.22 2.146 6.343 8.88 9.758 15.22 7.611 6.343-2.147 9.759-8.879 7.612-15.22-2.049-6.245-8.88-9.66-15.22-7.611m19.81 1.269 5.171-0.391 2.147 6.441-4.391 2.732c0.098 1.854 0 3.708-0.39 5.562l4.001 3.318-3.123 6.05-5.075-1.17c-1.171 1.366-2.634 2.634-4.196 3.61l0.391 5.172-6.343 2.147-2.732-4.391c-1.855 0.097-3.708 0-5.563-0.391l-3.317 3.904-6.051-3.026 1.171-5.074c-1.366-1.171-2.635-2.635-3.611-4.196l-5.171 0.488-2.147-6.441 4.391-2.732c-0.098-1.854 0-3.708 0.39-5.562l-4.001-3.318 3.026-6.05 5.074 1.171c1.171-1.367 2.635-2.635 4.196-3.611l-0.39-5.172 6.44-2.147 2.732 4.392c1.855-0.098 3.708 0 5.563 0.39l3.317-4.001 6.051 3.025-1.171 5.074c1.366 1.269 2.635 2.635 3.611 4.197" fill="#f57925"/></g><g transform="translate(669.8 502.5)"><path d="m0 0c-3.415 1.171-5.27 4.782-4.099 8.197 1.172 3.415 4.783 5.269 8.198 4.098 3.416-1.17 5.269-4.781 4.098-8.196-1.171-3.416-4.781-5.27-8.197-4.099m10.64 0.683 2.83-0.195 1.171 3.513-2.342 1.464c0.098 0.975 0 2.049-0.195 3.025l2.147 1.854-1.659 3.22-2.733-0.586c-0.683 0.781-1.366 1.464-2.244 1.952l0.195 2.83-3.513 1.171-1.464-2.342c-0.976 0.098-2.049 0-3.024-0.195l-1.855 2.147-3.221-1.659 0.586-2.733c-0.78-0.683-1.463-1.366-1.952-2.244h-2.829l-1.172-3.513 2.343-1.464c-0.098-0.975 0-2.049 0.195-3.025l-2.147-1.854 1.659-3.22 2.733 0.586c0.682-0.781 1.366-1.464 2.244-1.952l-0.196-2.83 3.514-1.171 1.561 2.537c0.976-0.098 2.049 0 3.025 0.195l1.854-2.147 3.22 1.659-0.585 2.732c0.683 0.586 1.366 1.367 1.854 2.245" fill="#f4bd1e"/></g><g transform="translate(627.9 564.3)"><path d="m0 0c1.608 0 1.611 2.5 0 2.5-1.608 0-1.611-2.5 0-2.5" fill="#231f20"/></g><g transform="translate(647.8 564)"><path d="m0 0c1.609 0 1.611 2.5 0 2.5-1.608 0-1.611-2.5 0-2.5" fill="#231f20"/></g><g transform="translate(649 489.4)"><path d="m0 0c1.608 0 1.611 2.5 0 2.5-1.608 0-1.611-2.5 0-2.5" fill="#231f20"/></g><g transform="translate(703.8 508.3)"><path d="m0 0c1.608 0 1.611 2.5 0 2.5-1.608 0-1.611-2.5 0-2.5" fill="#231f20"/></g><g transform="translate(637.4 554.6)"><path d="m0 0c1.609 0 1.611 2.5 0 2.5-1.608 0-1.611-2.5 0-2.5" fill="#231f20"/></g><g transform="translate(643.9 577.3)"><path d="m0 0c1.608 0 1.611 2.5 0 2.5-1.609 0-1.611-2.5 0-2.5" fill="#231f20"/></g><g transform="translate(662.6 574.9)"><path d="m0 0c1.608 0 1.611 2.5 0 2.5-1.608 0-1.611-2.5 0-2.5" fill="#231f20"/></g><g transform="translate(637.4 498.8)"><path d="m0 0c1.608 0 1.611 2.5 0 2.5-1.609 0-1.611-2.5 0-2.5" fill="#231f20"/></g><g transform="translate(689.6 495)"><path d="m0 0c1.608 0 1.611 2.5 0 2.5-1.608 0-1.611-2.5 0-2.5" fill="#231f20"/></g><g transform="translate(694.7 518.5)"><path d="m0 0c1.608 0 1.611 2.5 0 2.5-1.608 0-1.611-2.5 0-2.5" fill="#231f20"/></g><g transform="translate(721.7 227)"><path d="m0 0c0-32.39-26.26-58.64-58.64-58.64s-58.64 26.26-58.64 58.64c0 32.39 26.26 58.64 58.64 58.64s58.64-26.26 58.64-58.64" fill="#fff" fill-rule="evenodd"/></g><g transform="translate(711.1 227)"><path d="m0 0c0-26.53-21.51-48.04-48.04-48.04s-48.04 21.51-48.04 48.04 21.51 48.04 48.04 48.04 48.04-21.51 48.04-48.04" fill="#f4f4f4" fill-rule="evenodd"/></g><g transform="translate(635.9 204.3)"><path d="m0 0-0.657-0.657c-3.397-3.397-10.17-11.64-10.17-11.64s7.428 5.508 10.06 7.59c-2.082-2.74-8.194-9.452-8.194-9.452s7.427 5.507 10.06 7.589c-2.082-2.739-8.195-9.452-8.195-9.452s7.428 5.507 10.06 7.589c-2.082-2.739-8.195-9.452-8.195-9.452s8.852 6.165 12.25 9.562c0.219 0.219 0.438 0.438 0.658 0.657z" fill="#f4bd1e"/></g><g transform="translate(656.9 192.9)"><path d="m0 0-11.94 12.05 23.23 23.34-7.231-31.34z" fill="#231f20"/></g><g transform="translate(632.3 217.4)"><path d="m0 0 12.05-12.05 23.34 23.34-31.34-7.232z" fill="#231f20"/></g><g transform="translate(646.5 197.7)"><path d="m0 0c11.18 7.451 25.64 19.61 36.27 30.24 18.19 18.19 18.19 33.53 18.19 33.53s-15.34 0-33.53-18.19c-10.63-10.63-22.79-25.09-30.24-36.27z" fill="#f57925"/></g><g transform="translate(657.5 220.1)"><path d="m0 0 2.015-2.015-13.87-13.87-2.015 2.015z" fill="#231f20"/></g><g transform="translate(680.9 247.2)"><path d="m0 0c3.207 0 5.808-2.6 5.808-5.808 0-3.207-2.601-5.806-5.808-5.806-3.208 0-5.808 2.599-5.808 5.806 0 3.208 2.6 5.808 5.808 5.808" fill="#fff"/></g><g transform="translate(646.8 241.6)"><path d="m0 0c3.217 0 3.223 5 0 5-3.218 0-3.223-5 0-5" fill="#f4bd1e"/></g><g transform="translate(711.1 227.5)"><path d="m0 0c3.217 0 3.222 5 0 5-3.218 0-3.223-5 0-5" fill="#f4bd1e"/></g><g transform="translate(680.9 186.6)"><path d="m0 0c3.217 0 3.223 5 0 5-3.218 0-3.223-5 0-5" fill="#f4bd1e"/></g><g transform="translate(659.5 270.7)"><path d="m0 0c3.218 0 3.223 5 0 5-3.217 0-3.222-5 0-5" fill="#f4bd1e"/></g><g transform="translate(618.1 210.7)"><path d="m0 0c3.217 0 3.223 5 0 5-3.218 0-3.223-5 0-5" fill="#f4bd1e"/></g><g transform="translate(634.4 260)"><path d="m0 0c1.609 0 1.611 2.5 0 2.5-1.608 0-1.611-2.5 0-2.5" fill="#231f20"/></g><g transform="translate(666.1 257.7)"><path d="m0 0c1.608 0 1.611 2.5 0 2.5-1.609 0-1.611-2.5 0-2.5" fill="#231f20"/></g><g transform="translate(700.9 203.3)"><path d="m0 0c1.608 0 1.611 2.5 0 2.5-1.608 0-1.611-2.5 0-2.5" fill="#231f20"/></g><g transform="translate(655.8 180.5)"><path d="m0 0c1.608 0 1.611 2.5 0 2.5-1.608 0-1.611-2.5 0-2.5" fill="#231f20"/></g><g transform="translate(672.5 207.3)"><path d="m0 0c1.608 0 1.611 2.5 0 2.5-1.608 0-1.611-2.5 0-2.5" fill="#231f20"/></g><g transform="translate(625.6 227.2)"><path d="m0 0c1.608 0 1.611 2.5 0 2.5-1.608 0-1.611-2.5 0-2.5" fill="#231f20"/></g><g transform="translate(705.2 241.8)"><path d="m0 0c1.608 0 1.611 2.5 0 2.5-1.608 0-1.611-2.5 0-2.5" fill="#231f20"/></g><g transform="translate(338.2 217.7)"><path d="m0 0c0-32.39-26.26-58.64-58.64-58.64s-58.64 26.26-58.64 58.64 26.26 58.64 58.64 58.64 58.64-26.26 58.64-58.64" fill="#fff" fill-rule="evenodd"/></g><g transform="translate(326.8 217.7)"><path d="m0 0c0-26.1-21.15-47.25-47.25-47.25s-47.25 21.15-47.25 47.25 21.15 47.25 47.25 47.25 47.25-21.15 47.25-47.25" fill="#f4f4f4" fill-rule="evenodd"/></g><g transform="translate(254.6 212.1)"><path d="m0 0c1.661 0 2.536-3.668-0.959-3.931 1.357-0.184 0.997-3.203-0.842-3.203h-4.877c-3.185-0.941-6.166-1.13-10.34-0.041l-1e-3 1e-3c-0.688 0.18-1.411 0.394-2.171 0.645-0.112 0.038-0.223 0.075-0.337 0.114h-1.694v12.24h1.694c0.723 0.176 1.359 0.336 1.942 0.488 0.535 0.141 1.024 0.275 1.485 0.411 0.046 0.013 0.092 0.026 0.138 0.04 2.21 0.656 3.824 1.351 7.164 2.926 2.429 0.567 6.174 0.485 8.656-0.522 2.68-1.089 3.085-3.37 0.702-4.334 1.828 0.379 3.042-4.311-0.558-4.833" fill="#f9a85b"/></g><g transform="translate(248.5 220.9)"><path d="m0 0s-7.518-3.882-10.56-3.285c0 0 1.508 4.065 5.206 5.409 0.746 0.271 1.833 2.494 2.679 4.539 0.618 1.496 1.108 2.899 1.242 3.371 0.309-0.069 0.587-0.148 0.836-0.241 2.564-0.955 1.954-3.32 0.597-9.793" fill="#f9a85b"/></g><g transform="translate(248 229.8)"><path d="m0 0c0-1.231-0.92-2.23-2.054-2.23-0.069 0-0.136 3e-3 -0.202 9e-3 0.618 1.496 1.108 2.899 1.242 3.371 0.309-0.069 0.587-0.148 0.836-0.241 0.114-0.277 0.178-0.585 0.178-0.909" fill="#fabf8d"/></g><g transform="translate(237.6 204.9)"><path d="m0 0c-0.688 0.18-1.41 0.394-2.171 0.645-0.943 1.807 0.077 2.861 0.077 2.861 0.2-1.864 2.037-3.456 2.094-3.506" fill="#ef903e"/></g><g transform="translate(237.6 215.8)"><path d="m0 0s-0.705 1.164-0.567 2.612c0.535 0.141 1.024 0.275 1.485 0.41-0.044-0.034-1.051-0.838-0.918-3.022" fill="#ef903e"/></g><path d="m234.8 204.2h-9.502v14.92h9.502z" fill="#f57925"/><g transform="translate(232.3 216.2)"><path d="m0 0c0-0.604-0.49-1.093-1.094-1.093-0.603 0-1.094 0.489-1.094 1.093s0.491 1.094 1.094 1.094c0.604 0 1.094-0.49 1.094-1.094" fill="#231f20"/></g><g transform="translate(265.3 236.7)"><path d="m0 0c1.148-1.198-0.896-4.368-3.502-2.026 0.805-1.108-1.624-2.937-2.896-1.609l-3.374 3.523c-2.882 1.648-5.081 3.671-7.184 7.439v1e-3c-0.347 0.622-0.692 1.291-1.036 2.015-0.05 0.106-0.1 0.213-0.151 0.321l-1.171 1.223 8.838 8.467 1.171-1.223c0.627-0.4 1.183-0.748 1.697-1.064 0.471-0.289 0.906-0.548 1.323-0.789 0.042-0.024 0.083-0.048 0.124-0.071 2.003-1.143 3.621-1.827 7.069-3.149 2.09-1.363 4.622-4.122 5.611-6.613 1.067-2.687-0.299-4.558-2.644-3.505 1.539-1.057-1.007-5.178-3.875-2.94" fill="#f9a85b"/></g><g transform="translate(267.5 247.2)"><path d="m0 0s-8.003 2.743-9.677 5.353c0 0 3.98 1.723 7.507-0.017 0.713-0.352 3.069 0.401 5.132 1.205 1.508 0.588 2.86 1.205 3.293 1.436 0.164-0.272 0.299-0.527 0.404-0.771 1.086-2.513-1.046-3.708-6.659-7.206" fill="#f9a85b"/></g><g transform="translate(273.6 253.6)"><path d="m0 0c-0.889-0.854-2.247-0.88-3.032-0.062-0.047 0.05-0.091 0.102-0.132 0.154 1.508 0.588 2.86 1.205 3.293 1.435 0.164-0.271 0.299-0.526 0.404-0.77-0.121-0.275-0.299-0.533-0.533-0.757" fill="#fabf8d"/></g><g transform="translate(248.4 244)"><path d="m0 0c-0.347 0.622-0.692 1.291-1.037 2.015 0.653 1.93 2.12 1.923 2.12 1.923-1.208-1.434-1.087-3.862-1.083-3.938" fill="#ef903e"/></g><g transform="translate(256.2 251.5)"><path d="M 0,0 C 0,0 0.353,1.314 1.494,2.217 1.966,1.928 2.4,1.668 2.818,1.428 2.763,1.436 1.484,1.606 0,0" fill="#ef903e"/></g><g transform="translate(246 245.4)"><path d="m0 0-6.573 6.861 10.77 10.32 6.573-6.863z" fill="#f57925"/></g><g transform="translate(252.9 255.6)"><path d="m0 0c-0.436-0.418-1.128-0.403-1.546 0.033-0.417 0.436-0.403 1.128 0.033 1.546 0.436 0.417 1.129 0.402 1.546-0.033 0.418-0.436 0.403-1.129-0.033-1.546" fill="#231f20"/></g><g transform="translate(304.5 212.1)"><path d="m0 0c-1.661 0-2.536-3.668 0.959-3.931-1.356-0.184-0.997-3.203 0.842-3.203h4.878c3.183-0.941 6.166-1.13 10.34-0.041v1e-3c0.689 0.18 1.411 0.394 2.171 0.645 0.112 0.038 0.224 0.075 0.337 0.114h1.694v12.24h-1.694c-0.722 0.176-1.359 0.336-1.942 0.488-0.535 0.141-1.023 0.275-1.484 0.411h-1e-3c-0.046 0.013-0.092 0.026-0.137 0.04-2.21 0.656-3.824 1.351-7.165 2.926-2.429 0.567-6.174 0.485-8.656-0.522-2.68-1.089-3.085-3.37-0.702-4.334-1.828 0.379-3.043-4.311 0.558-4.833" fill="#f9a85b"/></g><g transform="translate(310.6 220.9)"><path d="m0 0s7.517-3.882 10.56-3.285c0 0-1.508 4.065-5.206 5.409-0.746 0.271-1.833 2.494-2.679 4.539-0.619 1.496-1.109 2.899-1.242 3.371-0.309-0.069-0.587-0.148-0.836-0.241-2.565-0.955-1.954-3.32-0.597-9.793" fill="#f9a85b"/></g><g transform="translate(311 229.8)"><path d="m 0,0 c 0,-1.231 0.92,-2.23 2.053,-2.23 0.069,0 0.136,0.003 0.203,0.009 C 1.637,-0.725 1.147,0.678 1.014,1.15 0.705,1.081 0.427,1.002 0.178,0.909 0.063,0.632 0,0.324 0,0" fill="#fabf8d"/></g><g transform="translate(321.5 204.9)"><path d="M 0,0 C 0.689,0.18 1.411,0.394 2.171,0.645 3.114,2.452 2.095,3.506 2.095,3.506 1.895,1.642 0.057,0.05 0,0" fill="#ef903e"/></g><g transform="translate(321.5 215.8)"><path d="m0 0s0.705 1.164 0.566 2.612c-0.535 0.141-1.023 0.275-1.484 0.41 0.044-0.034 1.051-0.838 0.918-3.022" fill="#ef903e"/></g><path d="m324.2 204.2h9.502v14.92h-9.502z" fill="#f57925"/><g transform="translate(326.8 216.2)"><path d="m0 0c0-0.604 0.49-1.093 1.094-1.093 0.603 0 1.094 0.489 1.094 1.093s-0.491 1.094-1.094 1.094c-0.604 0-1.094-0.49-1.094-1.094" fill="#231f20"/></g><g transform="translate(293.7 236.7)"><path d="m0 0c-1.148-1.198 0.895-4.368 3.502-2.026-0.806-1.108 1.624-2.937 2.896-1.609l3.374 3.523c2.882 1.648 5.081 3.671 7.183 7.439v1e-3c0.347 0.622 0.692 1.291 1.037 2.015 0.05 0.106 0.1 0.213 0.151 0.321l1.171 1.223-8.838 8.467-1.171-1.223c-0.627-0.4-1.183-0.748-1.697-1.064-0.472-0.289-0.906-0.548-1.323-0.789h-1e-3c-0.041-0.024-0.082-0.048-0.123-0.071-2.003-1.143-3.621-1.827-7.07-3.149-2.089-1.363-4.621-4.122-5.61-6.613-1.068-2.687 0.299-4.558 2.644-3.505-1.539-1.057 1.007-5.178 3.875-2.94" fill="#f9a85b"/></g><g transform="translate(291.6 247.2)"><path d="m0 0s8.003 2.743 9.677 5.353c0 0-3.979 1.723-7.507-0.017-0.712-0.352-3.069 0.401-5.131 1.205-1.508 0.588-2.86 1.205-3.293 1.436-0.164-0.272-0.3-0.527-0.404-0.771-1.086-2.513 1.045-3.708 6.658-7.206" fill="#f9a85b"/></g><g transform="translate(285.4 253.6)"><path d="m0 0c0.89-0.854 2.248-0.88 3.032-0.062 0.048 0.05 0.092 0.102 0.133 0.154-1.508 0.588-2.86 1.205-3.293 1.435-0.164-0.271-0.3-0.526-0.404-0.77 0.12-0.275 0.299-0.533 0.532-0.757" fill="#fabf8d"/></g><g transform="translate(310.6 244)"><path d="m0 0c0.347 0.622 0.692 1.291 1.037 2.015-0.653 1.93-2.12 1.923-2.12 1.923 1.208-1.434 1.087-3.862 1.083-3.938" fill="#ef903e"/></g><g transform="translate(302.8 251.5)"><path d="m0 0s-0.354 1.314-1.494 2.217c-0.472-0.289-0.906-0.549-1.324-0.789 0.055 8e-3 1.334 0.178 2.818-1.428" fill="#ef903e"/></g><g transform="translate(313.1 245.4)"><path d="m0 0 6.573 6.861-10.77 10.32-6.573-6.863z" fill="#f57925"/></g><g transform="translate(306.1 255.6)"><path d="m0 0c0.436-0.418 1.128-0.403 1.546 0.033s0.403 1.128-0.033 1.546c-0.436 0.417-1.128 0.402-1.546-0.033-0.418-0.436-0.403-1.129 0.033-1.546" fill="#231f20"/></g><g transform="translate(285.5 189.2)"><path d="m0 0-4.414-8.308-4.944 1.842 5.915 6.899 1.432 8.837c0.232 1.332 1.032 1.836 1.79 1.948 0.468 0.071 0.92-0.011 1.209-0.139l-0.277-3.106z" fill="#ef8538"/></g><g transform="translate(290.5 199)"><path d="m0 0-3.693-10.49-5.454-8.42-5.212 4.466 6.211 4.374 4.796 9.058c0.542 1.21 1.419 1.515 2.172 1.451 0.487-0.04 0.923-0.235 1.18-0.437" fill="#f49b4e"/><path d="m0 0-0.977-2.774c-0.704 0.444-0.998 1.343-0.664 2.128l0.461 1.083c0.487-0.04 0.923-0.235 1.18-0.437" fill="#fcd0aa"/></g><g transform="translate(286.2 197.1)"><path d="m0 0c-0.753 0.269-1.238 1.037-1.124 1.856l0.192 1.389c0.468 0.071 0.92-0.011 1.209-0.139z" fill="#fcd0aa"/></g><g transform="translate(293.3 193.8)"><path d="m0 0-6.813-7.513-7.562-5.147-1.887 3.77 5.853 3.306 7.234 5.919c1.058 0.987 2.058 0.714 2.669 0.237 0.231-0.18 0.405-0.39 0.506-0.572" fill="#f49b4e"/></g><g transform="translate(292.9 198.2)"><path d="m0 0-1.211-2.502-3.635-7.511-6.361-7.755-22.24-8.829-4.001 7.909 8.483 4.168s1.375 5.652 5.649 7.916l2.343 6.357 1.285 3.482s0.69 0.096 1.341-0.175c0.726-0.3 1.402-1.052 1.034-2.89-0.7-3.495-0.942-4.566-0.942-4.566s-0.015-2.635-0.735-5.794l3.108-2.555 6.662 3.65 5.781 8.465c0.762 1.288 1.818 1.382 2.598 1.124h1e-3c0.359-0.118 0.658-0.31 0.844-0.494" fill="#f9ac60"/></g><g transform="translate(274.6 201.2)"><path d="m0 0-0.738-2.163c-0.275-0.801-1.079-1.27-1.888-1.144l1.284 3.483s0.691 0.095 1.342-0.176" fill="#fcd0aa"/></g><g transform="translate(292.9 198.2)"><path d="m0 0-1.211-2.502c-0.496 0.545-0.599 1.371-0.204 2.036l0.57 0.96h1e-3c0.359-0.118 0.658-0.31 0.844-0.494" fill="#fcd0aa"/></g><g transform="translate(293.3 193.8)"><path d="m0 0-1.431-1.578c-0.217 0.673-1e-3 1.437 0.588 1.89l0.337 0.26c0.231-0.18 0.405-0.39 0.506-0.572" fill="#fcd0aa"/></g><g transform="translate(283.5 203.1)"><path d="m0 0v-1.894h-7.96v1.894c0 0.076 0.061 0.137 0.136 0.137h7.687c0.076 0 0.137-0.061 0.137-0.137" fill="#dbdbdd"/></g><path d="m283.5 200.5h-7.959v0.768h7.959z" fill="#9da1a2"/><path d="m283.5 198.7h-7.959v0.768h7.959z" fill="#9da1a2"/><path d="m283.5 199.5h-7.96v0.991h7.96z" fill="#dbdbdd"/><g transform="translate(283.5 198.7)"><path d="m0 0v-0.731c0-0.146-0.126-0.264-0.283-0.264h-7.394c-0.156 0-0.283 0.118-0.283 0.264v0.731z" fill="#dbdbdd"/></g><g transform="translate(282.9 197.7)"><path d="m0 0c-0.751-1.484-1.171-2.961-2.827-2.961h-1.147c-1.652 0-2.062 1.45-2.827 2.961z" fill="#231f20"/><path d="m0 0-0.284-0.562h-6.233l-0.284 0.562z" fill="#39353e"/></g><g transform="translate(279.5 229.1)"><path d="m0 0v-25.8h-3.683c-1.615 6.159-7.559 8.086-7.23 14.99 0.28 5.848 4.678 10.81 10.91 10.81" fill="#f4bd1e"/></g><g transform="translate(283.2 203.3)"><path d="m0 0h-3.682v25.8c6.234 0 10.64-4.96 10.91-10.81 0.327-6.842-5.631-8.896-7.229-14.99" fill="#f4bd1e"/></g><g transform="translate(268.6 172.7)"><path d="m0 0-8.048-5.053-7.933 12.64 8.047 5.053z" fill="#f4bd1e"/></g><g transform="translate(260 181.5)"><path d="m0 0c0.321-0.512 0.167-1.187-0.344-1.508-0.512-0.321-1.187-0.167-1.508 0.345s-0.167 1.186 0.345 1.508c0.511 0.32 1.186 0.167 1.507-0.345" fill="#231f20"/></g><g transform="translate(276.5 221.8)"><path d="m0 0c0-0.906-0.734-1.641-1.641-1.641-0.905 0-1.64 0.735-1.64 1.641s0.735 1.641 1.64 1.641c0.907 0 1.641-0.735 1.641-1.641" fill="#fff"/></g><g transform="translate(279.5 231.6)"><path d="m0 0v8.514" fill="none" stroke="#231f20" stroke-miterlimit="10" stroke-width="1.5"/></g><g transform="translate(292.8 223.4)"><path d="m0 0 5.778 3.557" fill="none" stroke="#231f20" stroke-miterlimit="10" stroke-width="1.5"/></g><g transform="translate(298.3 209.2)"><path d="m0 0-5.587 3.849" fill="none" stroke="#231f20" stroke-miterlimit="10" stroke-width="1.5"/></g><g transform="translate(266.3 213.1)"><path d="m0 0-5.587-3.849" fill="none" stroke="#231f20" stroke-miterlimit="10" stroke-width="1.5"/></g><g transform="translate(266.3 223.4)"><path d="m0 0-6.583 4.053" fill="none" stroke="#231f20" stroke-miterlimit="10" stroke-width="1.5"/></g><g transform="translate(244.3 190.7)"><path d="m0 0c1.608 0 1.611 2.5 0 2.5-1.609 0-1.611-2.5 0-2.5" fill="#231f20"/></g><g transform="translate(308.1 188)"><path d="m0 0c1.609 0 1.611 2.5 0 2.5-1.608 0-1.611-2.5 0-2.5" fill="#231f20"/></g><g transform="translate(234.6 233)"><path d="m0 0c1.609 0 1.611 2.5 0 2.5-1.608 0-1.611-2.5 0-2.5" fill="#231f20"/></g><g transform="translate(281 261.4)"><path d="m0 0c1.608 0 1.611 2.5 0 2.5-1.609 0-1.611-2.5 0-2.5" fill="#231f20"/></g><g transform="translate(324.6 227)"><path d="m0 0c1.609 0 1.611 2.5 0 2.5-1.608 0-1.611-2.5 0-2.5" fill="#231f20"/></g><g transform="translate(250.9 572.4)"><path d="m0 0c-0.017-0.69 0.099-1.921 0.854-2.808 0.64-0.739 1.691-1.117 3.104-1.117v-2.332c-2.135 0-3.777 0.657-4.877 1.938-1.018 1.199-1.331 2.66-1.396 3.728-4.779-0.772-5.535-5.699-5.649-7.275 1.018-0.903 4.335-3.284 8.834-1.051l1.035-2.085c-1.675-0.838-3.284-1.166-4.73-1.166-2.66 0-4.844 1.084-6.239 2.184-2.415-2.841-3.564-5.764-3.433-8.671 0.197-4.138 2.94-7.094 3.646-7.783 1.166-0.329 6.7-1.495 10.66 4.598l1.954-1.265c-3.202-4.926-7.389-5.928-10.26-5.928-0.805 0-1.494 0.082-2.036 0.164-0.312-1.905-0.033-3.53 0.805-4.828 1.526-2.348 4.515-3.087 5.189-3.219 0.886 0.116 5.566 0.986 7.028 5.649l2.217-0.689c-1.429-4.598-5.206-6.306-7.455-6.946 1.05-1.577 2.216-2.48 3.464-2.677 1.938-0.296 3.794 1.067 4.763 1.954v39.9c-0.986 0.69-2.053 0.936-3.088 0.936-1.855 0.016-3.579-0.788-4.384-1.215" fill="#f57925"/></g><g transform="translate(268.5 572.4)"><path d="m0 0c0.017-0.69-0.098-1.921-0.854-2.808-0.64-0.739-1.691-1.117-3.104-1.117v-2.332c2.135 0 3.778 0.657 4.878 1.938 1.018 1.199 1.33 2.66 1.395 3.728 4.779-0.772 5.535-5.699 5.65-7.275-1.019-0.903-4.336-3.284-8.835-1.051l-1.035-2.085c1.676-0.838 3.284-1.166 4.73-1.166 2.66 0 4.844 1.084 6.24 2.184 2.414-2.841 3.563-5.764 3.432-8.671-0.197-4.138-2.939-7.094-3.645-7.783-1.166-0.329-6.701-1.495-10.66 4.598l-1.954-1.265c3.202-4.926 7.389-5.928 10.26-5.928 0.805 0 1.495 0.082 2.037 0.164 0.312-1.905 0.032-3.53-0.805-4.828-1.527-2.348-4.516-3.087-5.19-3.219-0.886 0.116-5.566 0.986-7.028 5.649l-2.217-0.689c1.429-4.598 5.206-6.306 7.455-6.946-1.05-1.577-2.216-2.48-3.464-2.677-1.938-0.296-3.793 1.067-4.763 1.954v39.9c0.986 0.69 2.053 0.936 3.088 0.936 1.855 0.016 3.58-0.788 4.384-1.215" fill="#f57925"/></g><g transform="translate(317.9 514.8)"><path d="m0 0c-0.562 6.182-4.937 10.67-10.41 10.67-3.648 0-6.988-1.963-8.868-5.11-1.862 3.187-5.066 5.11-8.655 5.11-5.475 0-9.852-4.484-10.41-10.67-0.045-0.272-0.227-1.709 0.327-4.053 0.797-3.38 2.64-6.455 5.327-8.889l13.4-12.16 13.64 12.16c2.687 2.435 4.53 5.509 5.327 8.89 0.554 2.343 0.372 3.78 0.328 4.053" fill="#f57925"/></g><g transform="translate(258.3 523.8)"><path d="m0 0c-8.194 0-14.84-6.643-14.84-14.84s6.643-14.84 14.84-14.84c2.378 0 4.625 0.56 6.617 1.554l7.543-4.343-4.618 6.265c3.238 2.721 5.295 6.801 5.295 11.36 0 8.194-6.642 14.84-14.84 14.84" fill="#f4bd1e"/></g><g transform="translate(258.1 498.4)"><path d="m0 0c-0.555 0-1.039 0.182-1.454 0.541-0.415 0.358-0.621 0.862-0.621 1.51 0 0.574 0.201 1.054 0.602 1.446 0.401 0.391 0.89 0.587 1.473 0.587 0.574 0 1.058-0.196 1.45-0.587 0.391-0.392 0.587-0.872 0.587-1.446 0-0.639-0.204-1.142-0.615-1.506-0.411-0.363-0.881-0.545-1.422-0.545m-6.662 14.96c0 0.863 0.28 1.739 0.835 2.629 0.555 0.885 1.366 1.622 2.429 2.205 1.067 0.583 2.307 0.872 3.729 0.872 1.319 0 2.485-0.242 3.496-0.732 1.007-0.484 1.786-1.147 2.336-1.986 0.55-0.834 0.825-1.747 0.825-2.726 0-0.775-0.158-1.455-0.471-2.038-0.312-0.583-0.685-1.086-1.118-1.505-0.43-0.425-1.203-1.138-2.322-2.14-0.312-0.28-0.559-0.527-0.746-0.742-0.187-0.214-0.326-0.41-0.415-0.587-0.093-0.177-0.163-0.354-0.214-0.531-0.047-0.178-0.126-0.49-0.223-0.937-0.173-0.947-0.714-1.417-1.628-1.417-0.471 0-0.872 0.153-1.193 0.461-0.327 0.313-0.485 0.769-0.485 1.379 0 0.766 0.117 1.427 0.354 1.987 0.238 0.559 0.55 1.049 0.942 1.473s0.923 0.927 1.585 1.51c0.582 0.508 1.007 0.895 1.263 1.152 0.262 0.261 0.48 0.55 0.657 0.867s0.266 0.667 0.266 1.039c0 0.727-0.27 1.343-0.811 1.842-0.546 0.499-1.24 0.75-2.098 0.75-1.002 0-1.739-0.251-2.214-0.759-0.471-0.505-0.872-1.25-1.199-2.234-0.312-1.026-0.899-1.538-1.762-1.538-0.512 0-0.941 0.177-1.291 0.54-0.349 0.359-0.527 0.747-0.527 1.166" fill="#231f20"/></g><g transform="translate(303.3 569.4)"><path d="m0 0c8.195 0 14.84-6.643 14.84-14.84 0-8.195-6.642-14.84-14.84-14.84-2.378 0-4.625 0.56-6.617 1.555l-7.543-4.344 4.618 6.265c-3.237 2.721-5.295 6.801-5.295 11.36 0 8.194 6.643 14.84 14.84 14.84" fill="#f4bd1e"/></g><g transform="translate(303.1 543.8)"><path d="m0 0c-0.58 0-1.086 0.19-1.514 0.565-0.433 0.374-0.648 0.9-0.648 1.577 0 0.589 0.205 1.09 0.619 1.504 0.413 0.414 0.915 0.618 1.514 0.618 0.598 0 1.104-0.204 1.528-0.618 0.423-0.414 0.633-0.915 0.633-1.504 0-0.667-0.215-1.193-0.638-1.573-0.429-0.379-0.925-0.569-1.494-0.569m-1.578 9.385-0.457 6.825c-0.083 1.329-0.127 2.288-0.127 2.867 0 0.789 0.205 1.402 0.619 1.844 0.413 0.444 0.954 0.663 1.626 0.663 0.817 0 1.362-0.283 1.635-0.847 0.278-0.565 0.414-1.383 0.414-2.444 0-0.628-0.034-1.266-0.098-1.913l-0.613-7.025c-0.068-0.836-0.21-1.479-0.428-1.927-0.215-0.443-0.575-0.667-1.081-0.667-0.511 0-0.866 0.215-1.066 0.648-0.195 0.433-0.341 1.09-0.424 1.976" fill="#231f20"/></g><g transform="translate(321.2 530.1)"><path d="m0 0c1.608 0 1.611 2.5 0 2.5-1.609 0-1.611-2.5 0-2.5" fill="#231f20"/></g><g transform="translate(281.3 572.3)"><path d="m0 0c1.608 0 1.611 2.5 0 2.5-1.609 0-1.611-2.5 0-2.5" fill="#231f20"/></g><g transform="translate(229.7 529.1)"><path d="m0 0c1.609 0 1.611 2.5 0 2.5-1.608 0-1.611-2.5 0-2.5" fill="#231f20"/></g><g transform="translate(279.3 484)"><path d="m0 0c1.609 0 1.611 2.5 0 2.5-1.608 0-1.611-2.5 0-2.5" fill="#231f20"/></g><g transform="translate(280.3 528.5)"><path d="m0 0c1.609 0 1.611 2.5 0 2.5-1.608 0-1.611-2.5 0-2.5" fill="#231f20"/></g><g letter-spacing="0px" word-spacing="0px"><text transform="scale(1,-1)" x="-11.718966" y="-205.7814" fill="#000000" font-family="Arial" font-size="13.48px" font-weight="bold" stroke-width=".3369" style="line-height:1.25" xml:space="preserve"><tspan x="-11.718966" y="-205.7814">Personaliza <tspan font-family="Arial" font-weight="normal">el soporte y</tspan></tspan><tspan x="-11.718966" y="-188.72104"><tspan font-family="Arial" font-weight="normal">orientacion de</tspan> EXPERTOS</tspan><tspan x="-11.718966" y="-171.66068"><tspan font-family="Arial" font-weight="normal">durante el programa.</tspan> </tspan></text><text transform="scale(1,-1)" x="-12.601615" y="-353.25217" fill="#000000" font-family="Arial" font-size="13.48px" font-weight="bold" stroke-width=".3369" style="line-height:1.25" xml:space="preserve"><tspan x="-12.601615" y="-353.25217">Capacidad de</tspan><tspan x="-12.601615" y="-336.1918">empleabilidad</tspan></text><flowRoot fill="black" font-family="sans-serif" font-size="40px" style="line-height:1.25" xml:space="preserve"><flowRegion><rect x="-371.3" y="95.4" width="190.2" height="93.09"/></flowRegion><flowPara/></flowRoot><g font-family="Arial" font-size="13.48px" stroke-width=".3369"><text transform="scale(1,-1)" x="-11.34548" y="-420.5994" style="line-height:1.25" xml:space="preserve"><tspan x="-11.34548" y="-420.5994">Metodo: Evaluacion psicolaboral y</tspan><tspan x="-11.34548" y="-403.53903">potencial de competencias</tspan></text><text transform="scale(1,-1)" x="180.7205" y="-352.65387" style="line-height:1.25" xml:space="preserve"><tspan x="180.7205" y="-352.65387">Conocimiento</tspan><tspan x="180.7205" y="-335.59351">de uno mismo</tspan></text><text transform="scale(1,-1)" x="373.65979" y="-521.48047" style="line-height:1.25" xml:space="preserve"><tspan x="373.65979" y="-521.48047"><tspan font-family="Arial" font-weight="bold" stroke-width=".3369">Desarrolla recursos</tspan> (CV, linkedin),</tspan><tspan x="373.65979" y="-504.42007" font-weight="bold">fortalece habilidades <tspan font-family="Arial" font-weight="normal">y cierra las</tspan></tspan><tspan x="373.65979" y="-487.35971">brechas</tspan></text><text transform="scale(1,-1)" x="373.23032" y="-456.98853" style="line-height:1.25" xml:space="preserve"><tspan x="373.23032" y="-456.98853"><tspan font-family="Arial" font-weight="bold" stroke-width=".3369">Metodo: </tspan>Entrena en el uso de metodologías,</tspan><tspan x="373.23032" y="-439.92816">estategias, herramientas y modelos de </tspan><tspan x="373.23032" y="-422.8678"><tspan stroke-width=".3369">clase mundial (Contamos </tspan><tspan>con un staff de</tspan></tspan><tspan x="373.23032" y="-405.80743" font-weight="bold"><tspan font-family="Arial" font-weight="normal">expertos en diferentes epecialidades)</tspan>.</tspan></text><text transform="scale(1,-1)" x="400.78516" y="-351.02628" font-weight="bold" style="line-height:1.25" xml:space="preserve"><tspan x="400.78516" y="-351.02628" style="line-height:0">Capacidad de</tspan><tspan x="400.78516" y="-334.18137" style="line-height:0">empleabilidad</tspan></text><text transform="scale(1,-1)" x="596.50104" y="-352.02817" style="line-height:1.25" xml:space="preserve"><tspan x="596.50104" y="-352.02817">Marca personal</tspan><tspan x="596.50104" y="-334.9678">y profesional</tspan></text><text transform="scale(1,-1)" x="-10.65126" y="-508.23328" style="line-height:1.25" xml:space="preserve"><tspan x="-10.65126" y="-508.23328"><tspan font-family="Arial" font-weight="bold" stroke-width=".3369">Clarifica los objetivos</tspan> profesionales</tspan><tspan x="-10.65126" y="-491.17291">e <tspan font-family="Arial" font-weight="bold" stroke-width=".3369">identifica "brechas". Evalua</tspan> el</tspan><tspan x="-10.65126" y="-474.11255">perfil profesional y lo alínea al</tspan><tspan x="-10.65126" y="-457.05219">mercado laboral</tspan></text><text transform="scale(1,-1)" x="19.429955" y="-88.281555" font-weight="bold" style="line-height:1.25" xml:space="preserve"><tspan x="19.429955" y="-88.281555">Capacidad de</tspan><tspan x="19.429955" y="-71.221191">empleabilidad</tspan></text><text transform="scale(1,-1)" x="204.99898" y="-92.286247" style="line-height:1.25" xml:space="preserve"><tspan x="204.99898" y="-92.286247">Red de contactos</tspan><tspan x="204.99898" y="-75.225883">(Network)</tspan></text></g><text transform="scale(1,-1)" x="373.35172" y="-257.37103" font-family="Arial" font-size="20.14px" font-weight="bold" stroke-width=".6866" style="line-height:1.25" xml:space="preserve"><tspan x="373.35172" y="-257.37103" style="line-height:20.7609px">Vinculacion con el </tspan><tspan x="373.35172" y="-236.61014" style="line-height:20.7609px">mercado laboral</tspan></text><g font-size="13.48px" stroke-width=".3369"><g font-family="Arial"><text transform="scale(1,-1)" x="372.88205" y="-200.65941" style="line-height:1.25" xml:space="preserve"><tspan x="372.88205" y="-200.65941"><tspan font-family="Arial" font-weight="bold">Incrementa</tspan> tus <tspan font-family="Arial" font-weight="bold">oportunidades</tspan></tspan><tspan x="372.88205" y="-183.59904">laborales</tspan></text><text transform="scale(1,-1)" x="371.37888" y="-156.4783" style="line-height:1.25" xml:space="preserve"><tspan x="371.37888" y="-156.4783" font-weight="bold">Método:<tspan font-family="Arial" font-weight="normal"> Uso de nuestras plataformas </tspan></tspan><tspan x="371.37888" y="-139.41794"><tspan font-family="Arial">digitales: </tspan>Jobfinder <tspan font-family="Arial">(produce la mayor "bolsa de trabajo"</tspan></tspan><tspan x="371.37888" y="-122.35757" font-weight="bold">disponible en el País) y Rank and Match <tspan font-family="Arial" font-weight="normal">(te conecta</tspan></tspan><tspan x="371.37888" y="-105.29722">con empresas en la búsqueda del candidato mediante</tspan><tspan x="371.37888" y="-88.236855">un ranking de profesionales de nustra base)</tspan></text><text transform="scale(1,-1)" x="375.13324" y="-38.926708" font-weight="bold" style="line-height:1.25" xml:space="preserve"><tspan x="375.13324" y="-38.926708">Capacidad de</tspan><tspan x="375.13324" y="-21.866344">empleabilidad</tspan></text></g><text transform="scale(1,-1)" x="555.43091" y="-31.66625" font-family="sans-serif" style="line-height:1.25" xml:space="preserve"><tspan x="555.43091" y="-31.66625" font-family="Arial" stroke-width=".3369">Visibilidad</tspan></text></g><g stroke-width=".6866"><text transform="scale(1,-1)" x="-10.621688" y="-579.70386" font-family="Arial" font-size="22px" font-weight="bold" style="line-height:1.25" xml:space="preserve"><tspan x="-10.621688" y="-579.70386" style="line-height:22.67716599px">Diagnóstico</tspan><tspan x="-10.621688" y="-557.02667" style="line-height:22.67716599px">Personal</tspan></text><text transform="scale(1,-1)" x="-11.291893" y="-259.20654" font-family="sans-serif" font-size="10.99px" style="line-height:1.25" xml:space="preserve"><tspan x="-11.291893" y="-259.20654" font-family="Arial" font-size="22px" font-weight="bold" stroke-width=".6866" style="line-height:22.67716599px">Acompañamiento</tspan></text><text transform="scale(1,-1)" x="372.77008" y="-578.20288" font-family="sans-serif" font-size="10.99px" style="line-height:1.25" xml:space="preserve"><tspan x="372.77008" y="-578.20288" font-family="Arial" font-size="22px" font-weight="bold" stroke-width=".6866" style="line-height:22.67716599px">Preparación</tspan></text></g></g></g></svg>
