<?xml version="1.0" encoding="UTF-8" standalone="no"?>
<svg
   xmlns:dc="http://purl.org/dc/elements/1.1/"
   xmlns:cc="http://creativecommons.org/ns#"
   xmlns:rdf="http://www.w3.org/1999/02/22-rdf-syntax-ns#"
   xmlns:svg="http://www.w3.org/2000/svg"
   xmlns="http://www.w3.org/2000/svg"
   xmlns:sodipodi="http://sodipodi.sourceforge.net/DTD/sodipodi-0.dtd"
   xmlns:inkscape="http://www.inkscape.org/namespaces/inkscape"
   width="500.4"
   height="1574"
   version="1.1"
   viewBox="0 0 500.4 1574"
   xml:space="preserve"
   id="svg825"
   sodipodi:docname="infografia9v.svg"
   inkscape:version="0.92.4 (5da689c313, 2019-01-14)"><metadata
     id="metadata829"><rdf:RDF><cc:Work
         rdf:about=""><dc:format>image/svg+xml</dc:format><dc:type
           rdf:resource="http://purl.org/dc/dcmitype/StillImage" /><dc:title></dc:title></cc:Work></rdf:RDF></metadata><sodipodi:namedview
     pagecolor="#ffffff"
     bordercolor="#666666"
     borderopacity="1"
     objecttolerance="10"
     gridtolerance="10"
     guidetolerance="10"
     inkscape:pageopacity="0"
     inkscape:pageshadow="2"
     inkscape:window-width="1920"
     inkscape:window-height="1005"
     id="namedview827"
     showgrid="false"
     inkscape:zoom="0.42408437"
     inkscape:cx="191.3372"
     inkscape:cy="716.76361"
     inkscape:window-x="0"
     inkscape:window-y="0"
     inkscape:window-maximized="1"
     inkscape:current-layer="g2721" /><defs
     id="defs11"><clipPath
   id="clipPath326"><path
     d="m0 708.7h708.7v-708.7h-708.7z"
     id="path2" /></clipPath><clipPath
   id="clipPath432"><path
     d="m0 708.7h708.7v-708.7h-708.7z"
     id="path5" /></clipPath><clipPath
   id="clipPath508"><path
     d="m0 708.7h708.7v-708.7h-708.7z"
     id="path8" /></clipPath>



























































































<clipPath
   id="clipPath432-3"><path
     inkscape:connector-curvature="0"
     d="M 0,708.7 H 708.7 V 0 H 0 Z"
     id="path5-6" /></clipPath>







</defs><path
     d="m 0.03723,416.204 h 500.2749 V 0.308 H 0.03723 Z"
     id="path13"
     inkscape:connector-curvature="0"
     style="fill:#e9e9e9;stroke-width:1.33299994" /><path
     d="m 0.01057,832.09254 h 500.43146 v -415.896 H 0.01057 Z"
     id="path15"
     inkscape:connector-curvature="0"
     style="fill:#d0d0d0;fill-opacity:1;stroke-width:1.3335638" /><g
     id="g25"
     transform="matrix(1.333,0,0,-1.333,446.7122,416.204)"><path
       style="fill:#f4bd1e"
       inkscape:connector-curvature="0"
       id="path23"
       d="M 0,0 H 40.17 V 40.17 C 17.98,40.17 0,22.19 0,0" /></g><g
     id="g29"
     transform="matrix(-1.333,0,0,-1.333,446.86244,832.04043)"><path
       style="fill:#f57925"
       inkscape:connector-curvature="0"
       id="path27"
       d="M 0,0 C 0,22.19 -17.98,40.17 -40.17,40.17 V 0 Z" /></g><text
     style="font-size:29.32600021px;font-family:NTF-Grand;fill:#231f20;stroke-width:1.33299994"
     id="text33"
     font-size="22px"
     y="405.52646"
     x="473.69553"><tspan
       style="font-family:Arial;stroke-width:1.33299994"
       id="tspan31"
       y="405.52646"
       x="473.69553">1</tspan></text>
<text
     style="font-size:29.32600021px;font-family:NTF-Grand;fill:#231f20;stroke-width:1.33299994"
     id="text37"
     font-size="22px"
     y="820.52234"
     x="469.00696"><tspan
       style="font-family:Arial;stroke-width:1.33299994"
       id="tspan35"
       y="820.52234"
       x="469.00696">2</tspan></text>
<path
     style="fill:#231f20;fill-rule:evenodd;stroke-width:1.33299994"
     inkscape:connector-curvature="0"
     id="path59"
     d="m 46.600253,114.6794 h -19.87503 v -4.58552 h 19.87503 z" /><g
     id="g63"
     transform="matrix(1.333,0,0,-1.333,485.3692,112.1467)"><path
       style="fill:#ffffff;fill-rule:evenodd"
       inkscape:connector-curvature="0"
       id="path61"
       d="m 0,0 c 0,-32.39 -26.26,-58.64 -58.64,-58.64 -32.38,0 -58.64,26.26 -58.64,58.64 0,32.38 26.26,58.64 58.64,58.64 C -26.26,58.64 0,32.38 0,0" /></g><g
     id="g67"
     transform="matrix(1.333,0,0,-1.333,470.3063,112.1467)"><path
       style="fill:#f4f4f4;fill-rule:evenodd"
       inkscape:connector-curvature="0"
       id="path65"
       d="m 0,0 c 0,-26.16 -21.21,-47.37 -47.37,-47.37 -26.16,0 -47.37,21.21 -47.37,47.37 0,26.16 21.21,47.37 47.37,47.37 C -21.21,47.37 0,26.16 0,0" /></g><g
     id="g73"
     transform="matrix(1.333,0,0,-1.333,-478.2565,1250.5287)"><g
       id="g71"
       clip-path="url(#clipPath326)"><path
         style="fill:#231f20;fill-rule:evenodd"
         inkscape:connector-curvature="0"
         id="path69"
         d="m 389.1,561.6 h -14.91 v 3.44 h 14.91 z" /></g></g><g
     id="g77"
     transform="matrix(1.333,0,0,-1.333,61.132452,736.00403)"><path
       style="fill:#f57925;fill-rule:evenodd"
       inkscape:connector-curvature="0"
       id="path75"
       d="M 0,0 2.001,-4.055 6.477,-4.706 3.238,-7.862 4.003,-12.319 0,-10.215 l -4.003,-2.104 0.765,4.457 -3.239,3.156 4.475,0.651 z" /></g><g
     id="g81"
     transform="matrix(1.333,0,0,-1.333,204.9045,769.75559)"><path
       style="fill:#f57925;fill-rule:evenodd"
       inkscape:connector-curvature="0"
       id="path79"
       d="M 0,0 6.684,-6.683 0,-12.694 Z" /></g><text
     style="font-weight:bold;font-size:25.32699966px;font-family:Montserrat;fill:#231f20;stroke-width:1.33299994"
     id="text85"
     font-weight="bold"
     font-size="19px"
     x="553.08557"
     y="488.98581"><tspan
       style="font-weight:bold;font-family:Arial;stroke-width:1.33299994"
       id="tspan83"
       font-weight="bold"
       y="511.39426"
       x="553.08557" /></text>
<g
     id="g175"
     transform="matrix(1.333,0,0,-1.333,67.363978,318.66129)"><path
       style="fill:#f57925;fill-rule:evenodd"
       inkscape:connector-curvature="0"
       id="path173"
       d="M 0,0 2.001,-4.055 6.477,-4.706 3.238,-7.862 4.003,-12.319 0,-10.215 l -4.003,-2.104 0.764,4.457 -3.238,3.156 4.476,0.651 z" /></g><g
     id="g179"
     transform="matrix(1.333,0,0,-1.333,198.71155,354.3518)"><path
       style="fill:#f57925;fill-rule:evenodd"
       inkscape:connector-curvature="0"
       id="path177"
       d="M 0,0 6.684,-6.683 0,-12.694 Z" /></g><g
     id="g197"
     transform="matrix(1.562276,0,0,-1.562276,16.33049,903.25454)"><g
       id="g183"
       transform="translate(165.3,328.3)"><path
         style="fill:#ffffff;fill-rule:evenodd"
         inkscape:connector-curvature="0"
         id="path181"
         d="m 0,0 h -26.66 c -3.501,0 -6.339,2.838 -6.339,6.339 v 26.66 c 0,3.501 2.838,6.339 6.339,6.339 H 0 c 3.501,0 6.339,-2.838 6.339,-6.339 V 6.339 C 6.339,2.838 3.501,0 0,0" /></g><g
       id="g187"
       transform="translate(162,351.2)"><path
         style="fill:#231f20"
         inkscape:connector-curvature="0"
         id="path185"
         d="m 0,0 c -0.033,-1.687 -0.52,-3.333 -1.408,-4.761 -0.023,-0.037 -0.005,-0.008 -0.411,-0.81 -1.607,-3.189 -2.144,-7.362 -1.593,-10.89 h -9.813 v 4.519 c 0,0.304 -0.246,0.551 -0.55,0.551 h -3.307 c -0.304,0 -0.551,0.247 -0.551,0.551 v 4.408 c 0,0.305 -0.247,0.552 -0.551,0.552 h -2.403 c -0.295,0 -0.436,0.199 -0.484,0.285 -0.047,0.086 -0.139,0.313 0.018,0.562 l 2.313,3.643 c 0.07,0.109 0.098,0.239 0.082,0.366 -0.051,0.396 -0.077,0.801 -0.077,1.206 0,5.275 4.341,9.514 9.643,9.364 C -4.067,9.403 0.097,5.03 0,-0.002 m -9.061,10.65 c -5.903,0.17 -10.78,-4.553 -10.78,-10.46 0,-0.383 0.021,-0.768 0.062,-1.147 l -2.208,-3.478 c -0.329,-0.517 -0.349,-1.146 -0.054,-1.683 0.295,-0.536 0.837,-0.856 1.45,-0.856 h 1.852 v -3.858 c 0,-0.911 0.741,-1.653 1.653,-1.653 h 2.755 v -4.519 c 0,-0.304 0.247,-0.552 0.552,-0.552 h 11.02 c 0.165,0 0.321,0.075 0.426,0.203 0.105,0.128 0.147,0.296 0.114,0.457 -0.704,3.522 -0.163,7.775 1.38,10.84 0.454,0.997 1.874,2.827 1.936,6.046 0.109,5.662 -4.502,10.51 -10.16,10.67" /></g><g
       id="g191"
       transform="translate(157.6,347.9)"><path
         style="fill:#231f20"
         inkscape:connector-curvature="0"
         id="path189"
         d="M 0,0 -1.076,0.621 C -1.298,0.75 -1.581,0.707 -1.755,0.52 c -0.608,-0.656 -1.383,-1.105 -2.24,-1.301 -0.25,-0.058 -0.428,-0.281 -0.428,-0.537 v -1.236 h -1.102 v 1.236 c 0,0.256 -0.178,0.479 -0.428,0.537 -0.857,0.196 -1.631,0.645 -2.239,1.301 -0.175,0.187 -0.457,0.23 -0.68,0.101 L -9.948,0 -10.499,0.954 -9.416,1.58 c 0.223,0.128 0.327,0.394 0.251,0.64 -0.148,0.479 -0.217,0.888 -0.217,1.288 0,0.399 0.069,0.808 0.217,1.288 0.076,0.246 -0.028,0.512 -0.251,0.64 l -1.083,0.626 0.551,0.954 1.076,-0.621 c 0.223,-0.129 0.505,-0.087 0.68,0.102 0.608,0.654 1.382,1.104 2.239,1.3 0.25,0.057 0.428,0.28 0.428,0.537 V 9.57 h 1.102 V 8.334 c 0,-0.257 0.178,-0.48 0.428,-0.537 0.857,-0.196 1.632,-0.646 2.24,-1.3 0.174,-0.189 0.456,-0.231 0.679,-0.102 L 0,7.016 0.551,6.062 -0.532,5.436 c -0.222,-0.128 -0.326,-0.394 -0.251,-0.64 0.149,-0.48 0.218,-0.889 0.218,-1.288 0,-0.4 -0.069,-0.809 -0.218,-1.288 -0.075,-0.246 0.029,-0.512 0.251,-0.64 L 0.551,0.954 Z M 1.58,1.633 0.388,2.321 c 0.1,0.417 0.149,0.808 0.149,1.187 0,0.379 -0.049,0.77 -0.149,1.186 L 1.58,5.383 C 1.843,5.535 1.934,5.872 1.781,6.135 L 0.679,8.044 C 0.606,8.171 0.486,8.263 0.344,8.301 0.203,8.339 0.053,8.319 -0.074,8.246 L -1.262,7.56 c -0.595,0.547 -1.295,0.954 -2.059,1.195 v 1.366 c 0,0.304 -0.246,0.551 -0.551,0.551 h -2.204 c -0.304,0 -0.551,-0.247 -0.551,-0.551 V 8.755 C -7.391,8.514 -8.09,8.107 -8.686,7.56 l -1.188,0.686 c -0.126,0.073 -0.277,0.093 -0.418,0.055 -0.141,-0.038 -0.262,-0.13 -0.335,-0.257 l -1.102,-1.909 c -0.152,-0.263 -0.062,-0.6 0.202,-0.752 l 1.192,-0.689 c -0.101,-0.416 -0.149,-0.807 -0.149,-1.186 0,-0.379 0.048,-0.77 0.149,-1.187 l -1.192,-0.688 c -0.264,-0.152 -0.354,-0.489 -0.202,-0.752 l 1.102,-1.909 c 0.152,-0.263 0.488,-0.355 0.753,-0.202 l 1.188,0.686 c 0.596,-0.548 1.295,-0.954 2.059,-1.195 v -1.365 c 0,-0.305 0.247,-0.552 0.551,-0.552 h 2.204 c 0.305,0 0.551,0.247 0.551,0.552 v 1.365 c 0.764,0.241 1.464,0.647 2.059,1.195 l 1.188,-0.686 c 0.264,-0.153 0.601,-0.061 0.753,0.202 l 1.102,1.909 c 0.153,0.263 0.062,0.6 -0.201,0.752" /></g><g
       id="g195"
       transform="translate(152.6,349.8)"><path
         style="fill:#231f20"
         inkscape:connector-curvature="0"
         id="path193"
         d="m 0,0 c -0.911,0 -1.653,0.742 -1.653,1.653 0,0.912 0.742,1.654 1.653,1.654 0.912,0 1.653,-0.742 1.653,-1.654 C 1.653,0.742 0.912,0 0,0 m 0,4.409 c -1.519,0 -2.755,-1.236 -2.755,-2.756 0,-1.519 1.236,-2.755 2.755,-2.755 1.52,0 2.755,1.236 2.755,2.755 0,1.52 -1.235,2.756 -2.755,2.756" /></g></g><g
     id="g215"
     transform="matrix(1.638257,0,0,-1.638257,-599.9609,1342.7723)"><g
       id="g201"
       transform="translate(545.3,328.3)"><path
         style="fill:#ffffff;fill-rule:evenodd"
         inkscape:connector-curvature="0"
         id="path199"
         d="m 0,0 h -26.66 c -3.501,0 -6.339,2.838 -6.339,6.339 v 26.66 c 0,3.501 2.838,6.339 6.339,6.339 H 0 c 3.501,0 6.339,-2.838 6.339,-6.339 V 6.339 C 6.339,2.838 3.501,0 0,0" /></g><g
       id="g205"
       transform="translate(537.2,356.4)"><path
         style="fill:#231f20"
         inkscape:connector-curvature="0"
         id="path203"
         d="m 0,0 h 9.53 v -16.96 h -29.8 V 0 h 10.2 z m -10.08,1.186 h -11.38 v -19.33 H 10.72 V 1.186 H 0" /></g><g
       id="g209"
       transform="translate(528.2,343.7)"><path
         style="fill:#231f20"
         inkscape:connector-curvature="0"
         id="path207"
         d="m 0,0 c -0.298,0.764 -0.833,1.402 -1.511,1.832 1.064,0.677 1.771,1.865 1.771,3.217 0,2.101 -1.709,3.811 -3.811,3.811 -2.101,0 -3.811,-1.71 -3.811,-3.811 0,-1.352 0.707,-2.54 1.77,-3.217 C -6.27,1.402 -6.805,0.764 -7.103,0 c -1.1,0.995 -1.738,2.409 -1.738,3.921 0,2.917 2.373,5.29 5.29,5.29 2.916,0 5.289,-2.373 5.289,-5.29 C 1.738,2.409 1.101,0.995 0,0 m -3.551,2.424 c -1.448,0 -2.626,1.178 -2.626,2.625 0,1.448 1.178,2.626 2.626,2.626 1.447,0 2.625,-1.178 2.625,-2.626 0,-1.447 -1.178,-2.625 -2.625,-2.625 m -10e-4,7.973 c -3.57,0 -6.475,-2.905 -6.475,-6.476 0,-2.203 1.105,-4.235 2.956,-5.436 l 0.802,-0.52 0.11,0.95 c 0.151,1.324 1.272,2.322 2.607,2.322 1.336,0 2.457,-0.998 2.609,-2.322 l 0.109,-0.95 0.803,0.52 c 1.85,1.201 2.956,3.233 2.956,5.436 0,3.571 -2.905,6.476 -6.477,6.476" /></g><path
       style="fill:#231f20"
       inkscape:connector-curvature="0"
       id="path211"
       d="m 532.4,349.6 h 12.21 v -1.186 H 532.4 Z" /><path
       style="fill:#231f20"
       inkscape:connector-curvature="0"
       id="path213"
       d="m 532.4,347.3 h 12.21 v -1.186 H 532.4 Z" /></g><g
     id="g219"
     transform="matrix(1.333,0,0,-1.333,485.6358,530.5754)"><path
       style="fill:#ffffff;fill-rule:evenodd"
       inkscape:connector-curvature="0"
       id="path217"
       d="m 0,0 c 0,-32.39 -26.26,-58.64 -58.64,-58.64 -32.38,0 -58.64,26.26 -58.64,58.64 0,32.38 26.26,58.64 58.64,58.64 C -26.26,58.64 0,32.38 0,0" /></g><g
     id="g223"
     transform="matrix(1.333,0,0,-1.333,471.506,530.5754)"><path
       style="fill:#f4f4f4;fill-rule:evenodd"
       inkscape:connector-curvature="0"
       id="path221"
       d="m 0,0 c 0,-26.53 -21.51,-48.04 -48.04,-48.04 -26.53,0 -48.04,21.51 -48.04,48.04 0,26.53 21.51,48.04 48.04,48.04 C -21.51,48.04 0,26.53 0,0" /></g><g
     id="g227"
     transform="matrix(1.333,0,0,-1.333,449.5115,525.7766)"><path
       style="fill:#231f20"
       inkscape:connector-curvature="0"
       id="path225"
       d="m 0,0 c -2.635,-3.708 -6.929,-6.05 -11.81,-6.05 -4.881,0 -9.172,2.439 -11.81,6.05 l 0.975,3.123 6.734,3.22 c 0.097,0.585 0.78,1.366 0.878,1.366 -0.292,0.488 -0.585,0.976 -0.878,1.562 -0.391,0 -0.781,0.292 -0.976,0.78 -0.195,0.39 -0.195,0.878 0,1.171 -0.683,1.854 -1.171,4.782 1.171,6.831 l -1.171,-0.195 c 0,0 1.366,2.537 4.196,1.659 0,0 -0.293,0.487 -1.171,0.683 0,0 1.268,0.585 1.952,-0.293 0,0 0.39,0.39 0,0.683 0,0 2.146,-0.097 4.098,-1.854 2.537,-2.44 1.952,-5.562 1.074,-7.611 0.097,-0.293 0.097,-0.684 -0.098,-0.977 C -7.031,9.758 -7.323,9.465 -7.616,9.465 -7.812,9.173 -8.3,8.197 -8.593,7.904 c 0,0 0.684,-0.878 0.879,-1.366 l 6.733,-3.22 z" /></g><g
     id="g231"
     transform="matrix(1.333,0,0,-1.333,433.6488,533.9079)"><path
       style="fill:#f4bd1e"
       inkscape:connector-curvature="0"
       id="path229"
       d="m 0,0 c -8.002,0 -14.54,6.538 -14.54,14.54 0,8.002 6.538,14.54 14.54,14.54 8.002,0 14.54,-6.538 14.54,-14.54 C 14.54,6.538 8.1,0 0,0 m 22.25,8.978 6.148,1.463 v 8.198 l -6.148,1.463 c -0.585,2.245 -1.464,4.294 -2.537,6.246 l 3.318,5.367 -5.758,5.757 -5.367,-3.318 c -1.952,1.171 -4.001,2.05 -6.245,2.537 L 4.197,42.839 H -4 l -1.464,-6.148 c -2.244,-0.585 -4.294,-1.463 -6.245,-2.537 l -5.367,3.318 -5.758,-5.855 3.318,-5.367 c -1.17,-1.952 -2.049,-4.001 -2.537,-6.245 l -6.148,-1.464 v -8.197 l 6.148,-1.464 c 0.585,-2.244 1.464,-4.294 2.537,-6.245 l -3.318,-5.172 5.758,-5.758 5.367,3.318 c 1.951,-1.171 4.001,-2.049 6.245,-2.537 L -4,-13.662 h 8.197 l 1.464,6.148 c 2.244,0.585 4.293,1.464 6.245,2.537 l 5.367,-3.318 5.758,5.758 -3.318,5.367 c 1.073,1.854 1.952,4.001 2.537,6.148" /></g><g
     id="g235"
     transform="matrix(1.333,0,0,-1.333,366.7322,557.6353)"><path
       style="fill:#f57925"
       inkscape:connector-curvature="0"
       id="path233"
       d="m 0,0 c -6.343,2.146 -9.759,8.88 -7.611,15.22 2.146,6.343 8.88,9.758 15.22,7.611 6.343,-2.147 9.759,-8.879 7.612,-15.22 C 13.172,1.366 6.341,-2.049 0.001,0 m 19.81,1.269 5.171,-0.391 2.147,6.441 -4.391,2.732 c 0.098,1.854 0,3.708 -0.39,5.562 l 4.001,3.318 -3.123,6.05 -5.075,-1.17 c -1.171,1.366 -2.634,2.634 -4.196,3.61 l 0.391,5.172 -6.343,2.147 -2.732,-4.391 c -1.855,0.097 -3.708,0 -5.563,-0.391 l -3.317,3.904 -6.051,-3.026 1.171,-5.074 c -1.366,-1.171 -2.635,-2.635 -3.611,-4.196 l -5.171,0.488 -2.147,-6.441 4.391,-2.732 c -0.098,-1.854 0,-3.708 0.39,-5.562 l -4.001,-3.318 3.026,-6.05 5.074,1.171 c 1.171,-1.367 2.635,-2.635 4.196,-3.611 l -0.39,-5.172 6.44,-2.147 2.732,4.392 c 1.855,-0.098 3.708,0 5.563,0.39 l 3.317,-4.001 6.051,3.025 -1.171,5.074 c 1.366,1.269 2.635,2.635 3.611,4.197" /></g><g
     id="g239"
     transform="matrix(1.333,0,0,-1.333,413.5205,576.164)"><path
       style="fill:#f4bd1e"
       inkscape:connector-curvature="0"
       id="path237"
       d="m 0,0 c -3.415,1.171 -5.27,4.782 -4.099,8.197 1.172,3.415 4.783,5.269 8.198,4.098 C 7.515,11.125 9.368,7.514 8.197,4.099 7.026,0.683 3.416,-1.171 0,0 m 10.64,0.683 2.83,-0.195 1.171,3.513 -2.342,1.464 c 0.098,0.975 0,2.049 -0.195,3.025 l 2.147,1.854 -1.659,3.22 -2.733,-0.586 C 9.176,13.759 8.493,14.442 7.615,14.93 L 7.81,17.76 4.297,18.931 2.833,16.589 c -0.976,0.098 -2.049,0 -3.024,-0.195 l -1.855,2.147 -3.221,-1.659 0.586,-2.733 c -0.78,-0.683 -1.463,-1.366 -1.952,-2.244 h -2.829 l -1.172,-3.513 2.343,-1.464 c -0.098,-0.975 0,-2.049 0.195,-3.025 l -2.147,-1.854 1.659,-3.22 2.733,0.586 c 0.682,-0.781 1.366,-1.464 2.244,-1.952 l -0.196,-2.83 3.514,-1.171 1.561,2.537 c 0.976,-0.098 2.049,0 3.025,0.195 l 1.854,-2.147 3.22,1.659 -0.585,2.732 c 0.683,0.586 1.366,1.367 1.854,2.245" /></g><g
     id="g243"
     transform="matrix(1.333,0,0,-1.333,351.6693,493.7846)"><path
       style="fill:#231f20"
       inkscape:connector-curvature="0"
       id="path241"
       d="M 0,0 C 1.608,0 1.611,2.5 0,2.5 -1.608,2.5 -1.611,0 0,0" /></g><g
     id="g247"
     transform="matrix(1.333,0,0,-1.333,384.1945,494.1845)"><path
       style="fill:#231f20"
       inkscape:connector-curvature="0"
       id="path245"
       d="M 0,0 C 1.609,0 1.611,2.5 0,2.5 -1.608,2.5 -1.611,0 0,0" /></g><g
     id="g251"
     transform="matrix(1.333,0,0,-1.333,385.7941,593.7596)"><path
       style="fill:#231f20"
       inkscape:connector-curvature="0"
       id="path249"
       d="M 0,0 C 1.608,0 1.611,2.5 0,2.5 -1.608,2.5 -1.611,0 0,0" /></g><g
     id="g255"
     transform="matrix(1.333,0,0,-1.333,458.8425,568.4326)"><path
       style="fill:#231f20"
       inkscape:connector-curvature="0"
       id="path253"
       d="M 0,0 C 1.608,0 1.611,2.5 0,2.5 -1.608,2.5 -1.611,0 0,0" /></g><g
     id="g259"
     transform="matrix(1.333,0,0,-1.333,364.3328,506.848)"><path
       style="fill:#231f20"
       inkscape:connector-curvature="0"
       id="path257"
       d="M 0,0 C 1.609,0 1.611,2.5 0,2.5 -1.608,2.5 -1.611,0 0,0" /></g><g
     id="g263"
     transform="matrix(1.333,0,0,-1.333,373.1306,476.4556)"><path
       style="fill:#231f20"
       inkscape:connector-curvature="0"
       id="path261"
       d="M 0,0 C 1.608,0 1.611,2.5 0,2.5 -1.609,2.5 -1.611,0 0,0" /></g><g
     id="g267"
     transform="matrix(1.333,0,0,-1.333,404.0562,479.6548)"><path
       style="fill:#231f20"
       inkscape:connector-curvature="0"
       id="path265"
       d="M 0,0 C 1.608,0 1.611,2.5 0,2.5 -1.608,2.5 -1.611,0 0,0" /></g><g
     id="g271"
     transform="matrix(1.333,0,0,-1.333,364.3328,581.0961)"><path
       style="fill:#231f20"
       inkscape:connector-curvature="0"
       id="path269"
       d="M 0,0 C 1.608,0 1.611,2.5 0,2.5 -1.609,2.5 -1.611,0 0,0" /></g><g
     id="g275"
     transform="matrix(1.333,0,0,-1.333,439.9139,586.1615)"><path
       style="fill:#231f20"
       inkscape:connector-curvature="0"
       id="path273"
       d="M 0,0 C 1.608,0 1.611,2.5 0,2.5 -1.608,2.5 -1.611,0 0,0" /></g><g
     id="g279"
     transform="matrix(1.333,0,0,-1.333,446.7122,554.836)"><path
       style="fill:#231f20"
       inkscape:connector-curvature="0"
       id="path277"
       d="M 0,0 C 1.608,0 1.611,2.5 0,2.5 -1.608,2.5 -1.611,0 0,0" /></g><g
     id="g599"
     transform="matrix(1.333,0,0,-1.333,369.1316,60.5596)"><path
       style="fill:#f57925"
       inkscape:connector-curvature="0"
       id="path597"
       d="m 0,0 c -0.017,-0.69 0.099,-1.921 0.854,-2.808 0.64,-0.739 1.691,-1.117 3.104,-1.117 v -2.332 c -2.135,0 -3.777,0.657 -4.877,1.938 -1.018,1.199 -1.331,2.66 -1.396,3.728 -4.779,-0.772 -5.535,-5.699 -5.649,-7.275 1.018,-0.903 4.335,-3.284 8.834,-1.051 l 1.035,-2.085 c -1.675,-0.838 -3.284,-1.166 -4.73,-1.166 -2.66,0 -4.844,1.084 -6.239,2.184 -2.415,-2.841 -3.564,-5.764 -3.433,-8.671 0.197,-4.138 2.94,-7.094 3.646,-7.783 1.166,-0.329 6.7,-1.495 10.66,4.598 l 1.954,-1.265 c -3.202,-4.926 -7.389,-5.928 -10.26,-5.928 -0.805,0 -1.494,0.082 -2.036,0.164 -0.312,-1.905 -0.033,-3.53 0.805,-4.828 1.526,-2.348 4.515,-3.087 5.189,-3.219 0.886,0.116 5.566,0.986 7.028,5.649 l 2.217,-0.689 c -1.429,-4.598 -5.206,-6.306 -7.455,-6.946 1.05,-1.577 2.216,-2.48 3.464,-2.677 1.938,-0.296 3.794,1.067 4.763,1.954 v 39.9 C 6.492,0.965 5.425,1.211 4.39,1.211 2.535,1.227 0.811,0.423 0.006,-0.004" /></g><g
     id="g603"
     transform="matrix(1.333,0,0,-1.333,392.5924,60.5596)"><path
       style="fill:#f57925"
       inkscape:connector-curvature="0"
       id="path601"
       d="m 0,0 c 0.017,-0.69 -0.098,-1.921 -0.854,-2.808 -0.64,-0.739 -1.691,-1.117 -3.104,-1.117 v -2.332 c 2.135,0 3.778,0.657 4.878,1.938 1.018,1.199 1.33,2.66 1.395,3.728 C 7.094,-1.363 7.85,-6.29 7.965,-7.866 6.946,-8.769 3.629,-11.15 -0.87,-8.917 l -1.035,-2.085 c 1.676,-0.838 3.284,-1.166 4.73,-1.166 2.66,0 4.844,1.084 6.24,2.184 2.414,-2.841 3.563,-5.764 3.432,-8.671 -0.197,-4.138 -2.939,-7.094 -3.645,-7.783 -1.166,-0.329 -6.701,-1.495 -10.66,4.598 l -1.954,-1.265 c 3.202,-4.926 7.389,-5.928 10.26,-5.928 0.805,0 1.495,0.082 2.037,0.164 0.312,-1.905 0.032,-3.53 -0.805,-4.828 -1.527,-2.348 -4.516,-3.087 -5.19,-3.219 -0.886,0.116 -5.566,0.986 -7.028,5.649 l -2.217,-0.689 c 1.429,-4.598 5.206,-6.306 7.455,-6.946 -1.05,-1.577 -2.216,-2.48 -3.464,-2.677 -1.938,-0.296 -3.793,1.067 -4.763,1.954 v 39.9 c 0.986,0.69 2.053,0.936 3.088,0.936 1.855,0.016 3.58,-0.788 4.384,-1.215" /></g><g
     id="g607"
     transform="matrix(1.333,0,0,-1.333,458.4426,137.4737)"><path
       style="fill:#f57925"
       inkscape:connector-curvature="0"
       id="path605"
       d="m 0,0 c -0.562,6.182 -4.937,10.67 -10.41,10.67 -3.648,0 -6.988,-1.963 -8.868,-5.11 -1.862,3.187 -5.066,5.11 -8.655,5.11 -5.475,0 -9.852,-4.484 -10.41,-10.67 -0.045,-0.272 -0.227,-1.709 0.327,-4.053 0.797,-3.38 2.64,-6.455 5.327,-8.889 l 13.4,-12.16 13.64,12.16 c 2.687,2.435 4.53,5.509 5.327,8.89 0.554,2.343 0.372,3.78 0.328,4.053" /></g><g
     id="g611"
     transform="matrix(1.333,0,0,-1.333,378.9958,125.3434)"><path
       style="fill:#f4bd1e"
       inkscape:connector-curvature="0"
       id="path609"
       d="m 0,0 c -8.194,0 -14.84,-6.643 -14.84,-14.84 0,-8.197 6.643,-14.84 14.84,-14.84 2.378,0 4.625,0.56 6.617,1.554 l 7.543,-4.343 -4.618,6.265 c 3.238,2.721 5.295,6.801 5.295,11.36 0,8.194 -6.642,14.84 -14.84,14.84" /></g><g
     id="g615"
     transform="matrix(1.333,0,0,-1.333,378.7292,159.2016)"><path
       style="fill:#231f20"
       inkscape:connector-curvature="0"
       id="path613"
       d="m 0,0 c -0.555,0 -1.039,0.182 -1.454,0.541 -0.415,0.358 -0.621,0.862 -0.621,1.51 0,0.574 0.201,1.054 0.602,1.446 0.401,0.391 0.89,0.587 1.473,0.587 0.574,0 1.058,-0.196 1.45,-0.587 C 1.841,3.105 2.037,2.625 2.037,2.051 2.037,1.412 1.833,0.909 1.422,0.545 1.011,0.182 0.541,0 0,0 m -6.662,14.96 c 0,0.863 0.28,1.739 0.835,2.629 0.555,0.885 1.366,1.622 2.429,2.205 1.067,0.583 2.307,0.872 3.729,0.872 1.319,0 2.485,-0.242 3.496,-0.732 1.007,-0.484 1.786,-1.147 2.336,-1.986 0.55,-0.834 0.825,-1.747 0.825,-2.726 0,-0.775 -0.158,-1.455 -0.471,-2.038 C 6.205,12.601 5.832,12.098 5.399,11.679 4.969,11.254 4.196,10.541 3.077,9.539 2.765,9.259 2.518,9.012 2.331,8.797 2.144,8.583 2.005,8.387 1.916,8.21 1.823,8.033 1.753,7.856 1.702,7.679 1.655,7.501 1.576,7.189 1.479,6.742 1.306,5.795 0.765,5.325 -0.149,5.325 c -0.471,0 -0.872,0.153 -1.193,0.461 -0.327,0.313 -0.485,0.769 -0.485,1.379 0,0.766 0.117,1.427 0.354,1.987 0.238,0.559 0.55,1.049 0.942,1.473 0.392,0.424 0.923,0.927 1.585,1.51 0.582,0.508 1.007,0.895 1.263,1.152 0.262,0.261 0.48,0.55 0.657,0.867 0.177,0.317 0.266,0.667 0.266,1.039 0,0.727 -0.27,1.343 -0.811,1.842 -0.546,0.499 -1.24,0.75 -2.098,0.75 -1.002,0 -1.739,-0.251 -2.214,-0.759 -0.471,-0.505 -0.872,-1.25 -1.199,-2.234 -0.312,-1.026 -0.899,-1.538 -1.762,-1.538 -0.512,0 -0.941,0.177 -1.291,0.54 -0.349,0.359 -0.527,0.747 -0.527,1.166" /></g><g
     id="g619"
     transform="matrix(1.333,0,0,-1.333,438.9808,64.5586)"><path
       style="fill:#f4bd1e"
       inkscape:connector-curvature="0"
       id="path617"
       d="m 0,0 c 8.195,0 14.84,-6.643 14.84,-14.84 0,-8.195 -6.642,-14.84 -14.84,-14.84 -2.378,0 -4.625,0.56 -6.617,1.555 l -7.543,-4.344 4.618,6.265 c -3.237,2.721 -5.295,6.801 -5.295,11.36 0,8.194 6.643,14.84 14.84,14.84" /></g><g
     id="g623"
     transform="matrix(1.333,0,0,-1.333,438.7142,98.8167)"><path
       style="fill:#231f20"
       inkscape:connector-curvature="0"
       id="path621"
       d="m 0,0 c -0.58,0 -1.086,0.19 -1.514,0.565 -0.433,0.374 -0.648,0.9 -0.648,1.577 0,0.589 0.205,1.09 0.619,1.504 0.413,0.414 0.915,0.618 1.514,0.618 0.598,0 1.104,-0.204 1.528,-0.618 C 1.922,3.232 2.132,2.731 2.132,2.142 2.132,1.475 1.917,0.949 1.494,0.569 1.065,0.19 0.569,0 0,0 m -1.578,9.385 -0.457,6.825 c -0.083,1.329 -0.127,2.288 -0.127,2.867 0,0.789 0.205,1.402 0.619,1.844 0.413,0.444 0.954,0.663 1.626,0.663 0.817,0 1.362,-0.283 1.635,-0.847 0.278,-0.565 0.414,-1.383 0.414,-2.444 0,-0.628 -0.034,-1.266 -0.098,-1.913 L 1.421,9.355 C 1.353,8.519 1.211,7.876 0.993,7.428 0.778,6.985 0.418,6.761 -0.088,6.761 c -0.511,0 -0.866,0.215 -1.066,0.648 -0.195,0.433 -0.341,1.09 -0.424,1.976" /></g><g
     id="g627"
     transform="matrix(1.333,0,0,-1.333,462.8415,116.9455)"><path
       style="fill:#231f20"
       inkscape:connector-curvature="0"
       id="path625"
       d="M 0,0 C 1.608,0 1.611,2.5 0,2.5 -1.609,2.5 -1.611,0 0,0" /></g><g
     id="g631"
     transform="matrix(1.333,0,0,-1.333,409.6548,60.6929)"><path
       style="fill:#231f20"
       inkscape:connector-curvature="0"
       id="path629"
       d="M 0,0 C 1.608,0 1.611,2.5 0,2.5 -1.609,2.5 -1.611,0 0,0" /></g><g
     id="g635"
     transform="matrix(1.333,0,0,-1.333,340.872,118.2785)"><path
       style="fill:#231f20"
       inkscape:connector-curvature="0"
       id="path633"
       d="M 0,0 C 1.609,0 1.611,2.5 0,2.5 -1.608,2.5 -1.611,0 0,0" /></g><g
     id="g639"
     transform="matrix(1.333,0,0,-1.333,406.9888,178.5301)"><path
       style="fill:#231f20"
       inkscape:connector-curvature="0"
       id="path637"
       d="M 0,0 C 1.609,0 1.611,2.5 0,2.5 -1.608,2.5 -1.611,0 0,0" /></g><g
     id="g643"
     transform="matrix(1.333,0,0,-1.333,408.3218,119.0783)"><path
       style="fill:#231f20"
       inkscape:connector-curvature="0"
       id="path641"
       d="M 0,0 C 1.609,0 1.611,2.5 0,2.5 -1.608,2.5 -1.611,0 0,0" /></g><text
     x="57.990833"
     y="358.04855"
     font-size="13.48px"
     font-weight="bold"
     style="font-weight:bold;font-size:17.96883965px;line-height:1.25;font-family:Arial;letter-spacing:0px;word-spacing:0px;fill:#000000;stroke-width:0.44908771"
     xml:space="preserve"
     id="text663"><tspan
       x="57.990833"
       y="358.04855"
       id="tspan659"
       style="stroke-width:0.44908771">Capacidad de</tspan><tspan
       x="57.990833"
       y="380.79001"
       id="tspan661"
       style="stroke-width:0.44908771">empleabilidad</tspan></text>
<flowRoot
     font-size="40px"
     style="font-size:40px;line-height:1.25;font-family:sans-serif;letter-spacing:0px;word-spacing:0px;fill:#000000"
     xml:space="preserve"
     id="flowRoot671"
     transform="matrix(1.333,0,0,-1.333,55.61,832.1)"><flowRegion
       id="flowRegion667"><rect
         x="-371.29999"
         y="95.400002"
         width="190.2"
         height="93.089996"
         id="rect665" /></flowRegion><flowPara
       id="flowPara669" /></flowRoot><text
     id="text679"
     xml:space="preserve"
     style="font-size:17.96883965px;line-height:1.25;font-family:Arial;letter-spacing:0px;word-spacing:0px;fill:#000000;stroke-width:0.44908771"
     y="271.44101"
     x="24.490475"><tspan
       id="tspan675"
       y="271.44101"
       x="24.490475"
       style="stroke-width:0.44908771"><tspan
   style="font-weight:bold;font-family:Arial;stroke-width:0.44908771"
   id="tspan673"
   font-weight="bold">Método: </tspan>Evaluación psicolaboral y</tspan><tspan
       id="tspan677"
       y="294.18246"
       x="24.490475"
       style="stroke-width:0.44908771">potencial de competencias</tspan></text>
<text
     id="text685"
     xml:space="preserve"
     style="font-size:17.96883965px;line-height:1.25;font-family:Arial;letter-spacing:0px;word-spacing:0px;fill:#000000;stroke-width:0.44908771"
     y="358.01239"
     x="312.51044"><tspan
       id="tspan681"
       y="358.01239"
       x="312.51044"
       style="stroke-width:0.44908771">Conocimiento</tspan><tspan
       id="tspan683"
       y="380.75385"
       x="312.51044"
       style="stroke-width:0.44908771">de uno mismo</tspan></text>
<text
     id="text697"
     xml:space="preserve"
     style="font-size:17.96883965px;line-height:1.25;font-family:Arial;letter-spacing:0px;word-spacing:0px;fill:#000000;stroke-width:0.44908771"
     y="552.89905"
     x="19.779541"><tspan
       id="tspan689"
       y="552.89905"
       x="19.779541"
       style="stroke-width:0.44908771"><tspan
   style="font-weight:bold;font-family:Arial;stroke-width:0.44908771"
   id="tspan687"
   font-weight="bold">Desarrolla recursos</tspan> (CV, linkedin),</tspan><tspan
       style="font-weight:bold;stroke-width:0.44908771"
       id="tspan693"
       font-weight="bold"
       y="575.6405"
       x="19.779541">fortalece habilidades <tspan
   style="font-weight:normal;font-family:Arial;stroke-width:0.44908771"
   id="tspan691"
   font-weight="normal">y cierra las</tspan></tspan><tspan
       id="tspan695"
       y="598.38202"
       x="19.779541"
       style="stroke-width:0.44908771">brechas</tspan></text>
<text
     id="text715"
     xml:space="preserve"
     style="font-size:17.96883965px;line-height:1.25;font-family:Arial;letter-spacing:0px;word-spacing:0px;fill:#000000;stroke-width:0.44908771"
     y="638.86682"
     x="19.207052"><tspan
       id="tspan701"
       y="638.86682"
       x="19.207052"
       style="stroke-width:0.44908771"><tspan
   style="font-weight:bold;font-family:Arial;stroke-width:0.44908771"
   id="tspan699"
   font-weight="bold">Método: </tspan>Entrena en el uso de metodologías,</tspan><tspan
       id="tspan703"
       y="661.60828"
       x="19.207052"
       style="stroke-width:0.44908771">estategias, herramientas y modelos de </tspan><tspan
       id="tspan709"
       y="684.34973"
       x="19.207052"
       style="stroke-width:0.44908771"><tspan
         style="stroke-width:0.44908771"
         id="tspan705">clase mundial (Contamos </tspan><tspan
         id="tspan707"
         style="stroke-width:0.44908771">con un staff de</tspan></tspan><tspan
       style="font-weight:bold;stroke-width:0.44908771"
       id="tspan713"
       font-weight="bold"
       y="707.09119"
       x="19.207052"><tspan
   style="font-weight:normal;font-family:Arial;stroke-width:0.44908771"
   id="tspan711"
   font-weight="normal">expertos en diferentes epecialidades)</tspan>.</tspan></text>
<text
     id="text721"
     xml:space="preserve"
     style="font-weight:bold;font-size:17.96883965px;line-height:1.25;font-family:Arial;letter-spacing:0px;word-spacing:0px;fill:#000000;stroke-width:0.44908771"
     font-weight="bold"
     y="774.11597"
     x="55.936153"><tspan
       id="tspan717"
       style="line-height:0;stroke-width:0.44908771"
       y="774.11597"
       x="55.936153">Capacidad de</tspan><tspan
       id="tspan719"
       style="line-height:0;stroke-width:0.44908771"
       y="796.57025"
       x="55.936153">empleabilidad</tspan></text>
<text
     id="text727"
     xml:space="preserve"
     style="font-size:17.96883965px;line-height:1.25;font-family:Arial;letter-spacing:0px;word-spacing:0px;fill:#000000;stroke-width:0.44908771"
     y="772.78046"
     x="316.82544"><tspan
       id="tspan723"
       y="772.78046"
       x="316.82544"
       style="stroke-width:0.44908771">Marca personal</tspan><tspan
       id="tspan725"
       y="795.52191"
       x="316.82544"
       style="stroke-width:0.44908771">y profesional</tspan></text>
<text
     id="text741"
     xml:space="preserve"
     style="font-size:17.96883965px;line-height:1.25;font-family:Arial;letter-spacing:0px;word-spacing:0px;fill:#000000;stroke-width:0.44908771"
     y="154.62505"
     x="25.415871"><tspan
       id="tspan731"
       y="154.62505"
       x="25.415871"
       style="stroke-width:0.44908771"><tspan
   style="font-weight:bold;font-family:Arial;stroke-width:0.44908771"
   id="tspan729"
   font-weight="bold">Clarifica los objetivos</tspan> profesionales</tspan><tspan
       id="tspan735"
       y="177.3665"
       x="25.415871"
       style="stroke-width:0.44908771">e <tspan
   style="font-weight:bold;font-family:Arial;stroke-width:0.44908771"
   id="tspan733"
   font-weight="bold">identifica &quot;brechas&quot;. Evalúa</tspan> el</tspan><tspan
       id="tspan737"
       y="200.10797"
       x="25.415871"
       style="stroke-width:0.44908771">perfil profesional y lo alínea al</tspan><tspan
       id="tspan739"
       y="222.84944"
       x="25.415871"
       style="stroke-width:0.44908771">mercado laboral</tspan></text>
<path
     d="m 0.01057,1247.4153 h 500.5463 V 832.09254 H 0.01057 Z"
     id="path19"
     inkscape:connector-curvature="0"
     style="fill:#f2f2f2;stroke-width:1.33333087" /><g
     id="g57"
     transform="matrix(1.333,0,0,-1.333,519.52546,870.48294)"><g
   id="g51"
   transform="rotate(180,-7.115,-121.3)"><path
     style="fill:#f4bd1e"
     inkscape:connector-curvature="0"
     id="path49"
     d="M 0,0 C 22.19,0 40.17,17.98 40.17,40.17 H 0 Z" /></g><text
   style="font-size:22px;font-family:NTF-Grand;fill:#231f20"
   id="text55"
   font-size="22px"
   y="273.82516"
   x="-36.746555"
   transform="scale(1,-1)"><tspan
     style="font-family:Arial"
     id="tspan53"
     y="273.82516"
     x="-36.746555">3</tspan></text>

</g><g
     id="g91"
     transform="matrix(1.333,0,0,-1.333,-475.21726,1235.8582)"><g
       id="g89"
       clip-path="url(#clipPath432)"><path
         style="fill:#231f20;fill-rule:evenodd"
         inkscape:connector-curvature="0"
         id="path87"
         d="m 389.1,221.6 h -14.91 v 3.44 h 14.91 z" /></g></g><g
     id="g95"
     transform="matrix(1.333,0,0,-1.333,70.24334,1145.3475)"><path
       style="fill:#f57925;fill-rule:evenodd"
       inkscape:connector-curvature="0"
       id="path93"
       d="M 0,0 2.001,-4.056 6.477,-4.706 3.238,-7.862 4.003,-12.32 0,-10.216 l -4.003,-2.104 0.765,4.458 -3.239,3.156 4.475,0.65 z" /></g><g
     id="g99"
     transform="matrix(1.333,0,0,-1.333,208.47544,1179.0724)"><path
       style="fill:#f57925;fill-rule:evenodd"
       inkscape:connector-curvature="0"
       id="path97"
       d="M 0,0 6.684,-6.684 0,-12.694 Z" /></g><g
     id="g103"
     transform="matrix(1.440973,0,0,-1.440973,281.79044,1209.3315)"><path
       style="fill:#ffffff;fill-rule:evenodd"
       inkscape:connector-curvature="0"
       id="path101"
       d="m 0,0 h -26.66 c -3.501,0 -6.339,2.839 -6.339,6.34 V 33 c 0,3.501 2.838,6.339 6.339,6.339 H 0 c 3.501,0 6.339,-2.838 6.339,-6.339 V 6.34 C 6.339,2.839 3.501,0 0,0" /></g><g
     id="g107"
     transform="matrix(1.440973,0,0,-1.440973,280.19084,1198.6675)"><path
       style="fill:#231f20"
       inkscape:connector-curvature="0"
       id="path105"
       d="m 0,0 c -0.2,-0.201 -0.467,-0.312 -0.751,-0.312 -0.283,0 -0.55,0.111 -0.75,0.312 l -4.715,4.714 c 0.538,0.462 1.04,0.964 1.502,1.501 L 0,1.501 C 0.201,1.301 0.312,1.034 0.312,0.75 0.312,0.467 0.201,0.2 0,0 m -8.475,6.973 c 0.55,0.45 1.052,0.952 1.501,1.502 L -5.467,6.968 C -5.925,6.428 -6.428,5.925 -6.969,5.467 Z m -1.114,0.481 c -1.639,-1.19 -3.576,-1.819 -5.602,-1.819 -5.27,0 -9.558,4.287 -9.558,9.556 0,5.27 4.288,9.557 9.558,9.557 5.269,0 9.556,-4.287 9.556,-9.557 0,-2.026 -0.63,-3.963 -1.82,-5.602 C -8.05,8.768 -8.769,8.05 -9.589,7.454 M 0.751,2.252 -6.336,9.339 c 1.154,1.739 1.763,3.753 1.763,5.852 0,5.856 -4.764,10.62 -10.62,10.62 -5.856,0 -10.62,-4.764 -10.62,-10.62 0,-5.854 4.764,-10.62 10.62,-10.62 2.099,0 4.113,0.608 5.852,1.763 l 1.959,-1.959 c 0,-0.001 0,-0.001 10e-4,-0.001 l 5.127,-5.127 c 0.401,-0.401 0.935,-0.622 1.501,-0.622 0.567,0 1.101,0.221 1.502,0.622 0.401,0.4 0.622,0.934 0.622,1.501 0,0.567 -0.221,1.101 -0.622,1.502" /></g><g
     id="g111"
     transform="matrix(1.440973,0,0,-1.440973,258.32964,1187.4703)"><path
       style="fill:#231f20"
       inkscape:connector-curvature="0"
       id="path109"
       d="m 0,0 c -4.099,0 -7.434,3.334 -7.434,7.433 0,4.098 3.335,7.433 7.434,7.433 4.098,0 7.433,-3.335 7.433,-7.433 C 7.433,3.334 4.098,0 0,0 m 0,15.93 c -4.685,0 -8.495,-3.811 -8.495,-8.495 0,-4.684 3.81,-8.495 8.495,-8.495 4.684,0 8.494,3.811 8.494,8.495 0,4.684 -3.81,8.495 -8.494,8.495" /></g><g
     id="g115"
     transform="matrix(1.440973,0,0,-1.440973,266.86084,1173.4738)"><path
       style="fill:#231f20"
       inkscape:connector-curvature="0"
       id="path113"
       d="m 0,0 c -0.457,1.189 -1.253,2.207 -2.302,2.942 -1.074,0.752 -2.335,1.15 -3.647,1.15 -0.294,0 -0.531,-0.238 -0.531,-0.53 0,-0.294 0.237,-0.532 0.531,-0.532 2.181,0 4.175,-1.371 4.958,-3.411 0.081,-0.211 0.282,-0.341 0.496,-0.341 0.063,0 0.128,0.012 0.19,0.035 C -0.031,-0.581 0.105,-0.273 0,0" /></g><g
     id="g283"
     transform="matrix(1.333,0,0,-1.333,486.67554,933.26724)"><path
       style="fill:#ffffff;fill-rule:evenodd"
       inkscape:connector-curvature="0"
       id="path281"
       d="m 0,0 c 0,-32.39 -26.26,-58.64 -58.64,-58.64 -32.38,0 -58.64,26.26 -58.64,58.64 0,32.39 26.26,58.64 58.64,58.64 C -26.26,58.64 0,32.38 0,0" /></g><g
     id="g287"
     transform="matrix(1.333,0,0,-1.333,472.54574,933.26724)"><path
       style="fill:#f4f4f4;fill-rule:evenodd"
       inkscape:connector-curvature="0"
       id="path285"
       d="m 0,0 c 0,-26.53 -21.51,-48.04 -48.04,-48.04 -26.53,0 -48.04,21.51 -48.04,48.04 0,26.53 21.51,48.04 48.04,48.04 C -21.51,48.04 0,26.53 0,0" /></g><g
     id="g291"
     transform="matrix(1.333,0,0,-1.333,372.43744,963.52634)"><path
       style="fill:#f4bd1e"
       inkscape:connector-curvature="0"
       id="path289"
       d="m 0,0 -0.657,-0.657 c -3.397,-3.397 -10.17,-11.64 -10.17,-11.64 0,0 7.428,5.508 10.06,7.59 -2.082,-2.74 -8.194,-9.452 -8.194,-9.452 0,0 7.427,5.507 10.06,7.589 -2.082,-2.739 -8.195,-9.452 -8.195,-9.452 0,0 7.428,5.507 10.06,7.589 -2.082,-2.739 -8.195,-9.452 -8.195,-9.452 0,0 8.852,6.165 12.25,9.562 0.219,0.219 0.438,0.438 0.658,0.657 z" /></g><g
     id="g295"
     transform="matrix(1.333,0,0,-1.333,400.43044,978.72254)"><path
       style="fill:#231f20"
       inkscape:connector-curvature="0"
       id="path293"
       d="M 0,0 -11.94,12.05 11.29,35.39 4.059,4.05 Z" /></g><g
     id="g299"
     transform="matrix(1.333,0,0,-1.333,367.63864,945.93074)"><path
       style="fill:#231f20"
       inkscape:connector-curvature="0"
       id="path297"
       d="M 0,0 12.05,-12.05 35.39,11.29 4.05,4.058 Z" /></g><g
     id="g303"
     transform="matrix(1.333,0,0,-1.333,386.43394,972.32414)"><path
       style="fill:#f57925"
       inkscape:connector-curvature="0"
       id="path301"
       d="m 0,0 c 11.18,7.451 25.64,19.61 36.27,30.24 18.19,18.19 18.19,33.53 18.19,33.53 0,0 -15.34,0 -33.53,-18.19 C 10.3,34.95 -1.86,20.49 -9.31,9.31 Z" /></g><g
     id="g307"
     transform="matrix(1.333,0,0,-1.333,401.23024,942.46494)"><path
       style="fill:#231f20"
       inkscape:connector-curvature="0"
       id="path305"
       d="m 0,0 2.015,-2.015 -13.87,-13.87 -2.015,2.015 z" /></g><g
     id="g311"
     transform="matrix(1.333,0,0,-1.333,432.42244,906.20734)"><path
       style="fill:#ffffff"
       inkscape:connector-curvature="0"
       id="path309"
       d="m 0,0 c 3.207,0 5.808,-2.6 5.808,-5.808 0,-3.207 -2.601,-5.806 -5.808,-5.806 -3.208,0 -5.808,2.599 -5.808,5.806 C -5.808,-2.6 -3.208,0 0,0" /></g><g
     id="g315"
     transform="matrix(1.333,0,0,-1.333,386.83384,913.67214)"><path
       style="fill:#f4bd1e"
       inkscape:connector-curvature="0"
       id="path313"
       d="M 0,0 C 3.217,0 3.223,5 0,5 -3.218,5 -3.223,0 0,0" /></g><g
     id="g319"
     transform="matrix(1.333,0,0,-1.333,472.54574,932.46744)"><path
       style="fill:#f4bd1e"
       inkscape:connector-curvature="0"
       id="path317"
       d="M 0,0 C 3.217,0 3.222,5 0,5 -3.218,5 -3.223,0 0,0" /></g><g
     id="g323"
     transform="matrix(1.333,0,0,-1.333,432.42244,986.98714)"><path
       style="fill:#f4bd1e"
       inkscape:connector-curvature="0"
       id="path321"
       d="M 0,0 C 3.217,0 3.223,5 0,5 -3.218,5 -3.223,0 0,0" /></g><g
     id="g331"
     transform="matrix(1.333,0,0,-1.333,348.57674,954.99514)"><path
       style="fill:#f4bd1e"
       inkscape:connector-curvature="0"
       id="path329"
       d="M 0,0 C 3.217,0 3.223,5 0,5 -3.218,5 -3.223,0 0,0" /></g><g
     id="g335"
     transform="matrix(1.333,0,0,-1.333,370.30464,889.27824)"><path
       style="fill:#231f20"
       inkscape:connector-curvature="0"
       id="path333"
       d="M 0,0 C 1.609,0 1.611,2.5 0,2.5 -1.608,2.5 -1.611,0 0,0" /></g><g
     id="g339"
     transform="matrix(1.333,0,0,-1.333,412.69404,892.34414)"><path
       style="fill:#231f20"
       inkscape:connector-curvature="0"
       id="path337"
       d="M 0,0 C 1.608,0 1.611,2.5 0,2.5 -1.609,2.5 -1.611,0 0,0" /></g><g
     id="g343"
     transform="matrix(1.333,0,0,-1.333,459.08244,964.85934)"><path
       style="fill:#231f20"
       inkscape:connector-curvature="0"
       id="path341"
       d="M 0,0 C 1.608,0 1.611,2.5 0,2.5 -1.608,2.5 -1.611,0 0,0" /></g><g
     id="g347"
     transform="matrix(1.333,0,0,-1.333,398.96414,995.25174)"><path
       style="fill:#231f20"
       inkscape:connector-curvature="0"
       id="path345"
       d="M 0,0 C 1.608,0 1.611,2.5 0,2.5 -1.608,2.5 -1.611,0 0,0" /></g><g
     id="g351"
     transform="matrix(1.333,0,0,-1.333,421.09194,959.39404)"><path
       style="fill:#231f20"
       inkscape:connector-curvature="0"
       id="path349"
       d="M 0,0 C 1.608,0 1.611,2.5 0,2.5 -1.608,2.5 -1.611,0 0,0" /></g><g
     id="g355"
     transform="matrix(1.333,0,0,-1.333,358.70754,933.00064)"><path
       style="fill:#231f20"
       inkscape:connector-curvature="0"
       id="path353"
       d="M 0,0 C 1.608,0 1.611,2.5 0,2.5 -1.608,2.5 -1.611,0 0,0" /></g><g
     id="g359"
     transform="matrix(1.333,0,0,-1.333,464.68104,913.40554)"><path
       style="fill:#231f20"
       inkscape:connector-curvature="0"
       id="path357"
       d="M 0,0 C 1.608,0 1.611,2.5 0,2.5 -1.608,2.5 -1.611,0 0,0" /></g><text
     x="22.433369"
     y="892.71985"
     font-size="20.14px"
     font-weight="bold"
     style="font-weight:bold;font-size:26.84661865px;line-height:1.25;font-family:Arial;letter-spacing:0px;word-spacing:0px;fill:#000000;stroke-width:0.91523784"
     xml:space="preserve"
     id="text761"><tspan
       x="22.433369"
       y="892.71985"
       style="line-height:27.67427444px;stroke-width:0.91523784"
       id="tspan757">Vinculación con el </tspan><tspan
       x="22.433369"
       y="920.39417"
       style="line-height:27.67427444px;stroke-width:0.91523784"
       id="tspan759">mercado laboral</tspan></text>
<text
     id="text771"
     xml:space="preserve"
     style="font-size:17.96883965px;line-height:1.25;font-family:Arial;letter-spacing:0px;word-spacing:0px;fill:#000000;stroke-width:0.44908771"
     y="968.31641"
     x="21.807306"><tspan
       id="tspan767"
       y="968.31641"
       x="21.807306"
       style="stroke-width:0.44908771"><tspan
   style="font-weight:bold;font-family:Arial;stroke-width:0.44908771"
   id="tspan763"
   font-weight="bold">Incrementa</tspan> tus <tspan
   style="font-weight:bold;font-family:Arial;stroke-width:0.44908771"
   id="tspan765"
   font-weight="bold">oportunidades</tspan></tspan><tspan
       id="tspan769"
       y="991.05786"
       x="21.807306"
       style="stroke-width:0.44908771">laborales</tspan></text>
<text
     id="text791"
     xml:space="preserve"
     style="font-size:17.96883965px;line-height:1.25;font-family:Arial;letter-spacing:0px;word-spacing:0px;fill:#000000;stroke-width:0.44908771"
     y="1027.2098"
     x="19.803576"><tspan
       style="font-weight:bold;stroke-width:0.44908771"
       id="tspan775"
       font-weight="bold"
       y="1027.2098"
       x="19.803576">Método:<tspan
   style="font-weight:normal;font-family:Arial;stroke-width:0.44908771"
   id="tspan773"
   font-weight="normal"> Uso de nuestras plataformas </tspan></tspan><tspan
       id="tspan781"
       y="1049.9513"
       x="19.803576"
       style="stroke-width:0.44908771"><tspan
   style="font-family:Arial;stroke-width:0.44908771"
   id="tspan777">digitales: </tspan>Jobfinder <tspan
   style="font-family:Arial;stroke-width:0.44908771"
   id="tspan779">(produce la mayor &quot;bolsa de trabajo&quot;</tspan></tspan><tspan
       style="font-weight:bold;stroke-width:0.44908771"
       id="tspan785"
       font-weight="bold"
       y="1072.6927"
       x="19.803576">disponible en el País) y Rank and Match <tspan
   style="font-weight:normal;font-family:Arial;stroke-width:0.44908771"
   id="tspan783"
   font-weight="normal">(te conecta</tspan></tspan><tspan
       id="tspan787"
       y="1095.4342"
       x="19.803576"
       style="stroke-width:0.44908771">con empresas en la búsqueda del candidato mediante</tspan><tspan
       id="tspan789"
       y="1118.1757"
       x="19.803576"
       style="stroke-width:0.44908771">un ranking de profesionales de nustra base)</tspan></text>
<text
     id="text797"
     xml:space="preserve"
     style="font-weight:bold;font-size:17.96883965px;line-height:1.25;font-family:Arial;letter-spacing:0px;word-spacing:0px;fill:#000000;stroke-width:0.44908771"
     font-weight="bold"
     y="1180.9041"
     x="62.842285"><tspan
       id="tspan793"
       y="1180.9041"
       x="62.842285"
       style="stroke-width:0.44908771">Capacidad de</tspan><tspan
       id="tspan795"
       y="1203.6455"
       x="62.842285"
       style="stroke-width:0.44908771">empleabilidad</tspan></text>
<text
     id="text801"
     xml:space="preserve"
     style="font-size:17.96883965px;line-height:1.25;font-family:sans-serif;letter-spacing:0px;word-spacing:0px;fill:#000000;stroke-width:0.44908771"
     y="1190.5823"
     x="303.17908"><tspan
       style="font-family:Arial;stroke-width:0.44908771"
       id="tspan799"
       y="1190.5823"
       x="303.17908">Visibilidad</tspan></text>
<text
     id="text809"
     xml:space="preserve"
     style="font-weight:bold;font-size:29.32600021px;line-height:1.25;font-family:Arial;letter-spacing:0px;word-spacing:0px;fill:#000000;stroke-width:0.91523784"
     font-weight="bold"
     font-size="22px"
     y="59.354759"
     x="25.455288"><tspan
       id="tspan805"
       style="line-height:30.22866249px;stroke-width:0.91523784"
       y="59.354759"
       x="25.455288">Diagnóstico</tspan><tspan
       id="tspan807"
       style="line-height:30.22866249px;stroke-width:0.91523784"
       y="89.583443"
       x="25.455288">Personal</tspan></text>
<g
     id="g2721"
     transform="translate(0,415.4146)"><path
       style="fill:#dddddd;stroke-width:1.33650279"
       inkscape:connector-curvature="0"
       id="path17"
       d="M 0.03723,1158.5028 H 500.55687 V 832.00075 H 0.03723 Z" /><g
       transform="matrix(1.333,0,0,-1.333,27.310411,1104.7829)"
       id="g47"><g
   transform="matrix(1,0,0,-1,314.8536,-40.3)"
   id="g41"><path
     d="M 0,0 C 0,-22.18 17.98,-40.17 40.17,-40.17 V 0 Z"
     id="path39"
     inkscape:connector-curvature="0"
     style="fill:#f57925" /></g><text
   transform="scale(1,-1)"
   x="334.22308"
   y="31.855679"
   font-size="22px"
   id="text45"
   style="font-size:22px;font-family:NTF-Grand;fill:#231f20"><tspan
     x="334.22308"
     y="31.855679"
     id="tspan43"
     style="font-family:Arial">4</tspan></text>

</g><g
       transform="matrix(1.333,0,0,-1.333,4.31616,1241.8642)"
       id="g121"><g
         clip-path="url(#clipPath508)"
         id="g119"><path
           d="M 34.12,245.6 H 19.21 v 3.44 h 14.91 z"
           id="path117"
           inkscape:connector-curvature="0"
           style="fill:#231f20;fill-rule:evenodd" /></g></g><g
       transform="matrix(1.333,0,0,-1.333,71.51119,1048.046)"
       id="g125"><path
         d="m 0,0 2.001,-4.055 4.476,-0.65 -3.239,-3.157 0.765,-4.457 -4.003,2.104 -4.003,-2.104 0.764,4.457 -3.238,3.157 4.476,0.65 z"
         id="path123"
         inkscape:connector-curvature="0"
         style="fill:#f57925;fill-rule:evenodd" /></g><g
       transform="matrix(1.333,0,0,-1.333,205.1711,1082.3041)"
       id="g129"><path
         d="M 0,0 6.684,-6.683 0,-12.693 Z"
         id="path127"
         inkscape:connector-curvature="0"
         style="fill:#f57925;fill-rule:evenodd" /></g><g
       transform="matrix(1.333,0,0,-1.333,50.610683,1207.7394)"
       id="g171"><g
         transform="matrix(1.191,0,0,1.191,175.3,67.28)"
         id="g133"><path
           d="m 0,0 h -26.66 c -3.501,0 -6.339,2.838 -6.339,6.339 v 26.66 c 0,3.501 2.838,6.339 6.339,6.339 H 0 c 3.501,0 6.339,-2.838 6.339,-6.339 V 6.339 C 6.339,2.838 3.501,0 0,0"
           id="path131"
           inkscape:connector-curvature="0"
           style="fill:#ffffff;fill-rule:evenodd" /></g><g
         transform="matrix(1.191,0,0,1.191,159.4,103.5)"
         id="g137"><path
           d="m 0,0 c -1.093,0 -1.979,0.886 -1.979,1.979 0,1.093 0.886,1.98 1.979,1.98 1.093,0 1.979,-0.887 1.979,-1.98 C 1.979,0.886 1.093,0 0,0 m 0,4.948 c -1.64,0 -2.969,-1.329 -2.969,-2.969 0,-1.64 1.329,-2.969 2.969,-2.969 1.64,0.002 2.968,1.33 2.969,2.969 0,1.64 -1.329,2.969 -2.969,2.969"
           id="path135"
           inkscape:connector-curvature="0"
           style="fill:#231f20" /></g><g
         transform="matrix(1.191,0,0,1.191,163.6,95.29)"
         id="g141"><path
           d="m 0,0 c 0,-0.273 -0.222,-0.495 -0.495,-0.495 h -5.939 c -0.273,0 -0.494,0.222 -0.494,0.495 v 2.97 c 0,0.778 0.602,1.425 1.379,1.48 1.322,-0.614 2.847,-0.614 4.17,0 C -0.602,4.395 0,3.748 0,2.97 Z M -1.485,5.443 H -1.602 L -1.706,5.392 c -1.107,-0.551 -2.409,-0.551 -3.517,0 L -5.327,5.443 H -5.444 C -6.81,5.442 -7.917,4.335 -7.918,2.97 V 0 c 0,-0.82 0.665,-1.484 1.484,-1.484 h 5.939 C 0.325,-1.484 0.99,-0.82 0.99,0 V 2.97 C 0.988,4.335 -0.119,5.442 -1.485,5.443"
           id="path139"
           inkscape:connector-curvature="0"
           style="fill:#231f20" /></g><g
         transform="matrix(1.191,0,0,1.191,171.8,84.1)"
         id="g145"><path
           d="m 0,0 c -1.093,0 -1.979,0.886 -1.979,1.979 0,1.093 0.886,1.98 1.979,1.98 1.093,0 1.979,-0.887 1.979,-1.98 C 1.979,0.886 1.093,0 0,0 m 0,4.948 c -1.64,0 -2.969,-1.329 -2.969,-2.969 0,-1.64 1.329,-2.969 2.969,-2.969 1.64,0 2.969,1.329 2.969,2.969 C 2.968,3.618 1.639,4.946 0,4.948"
           id="path143"
           inkscape:connector-curvature="0"
           style="fill:#231f20" /></g><g
         transform="matrix(1.191,0,0,1.191,175.9,75.85)"
         id="g149"><path
           d="m 0,0 c 0,-0.273 -0.222,-0.495 -0.495,-0.495 h -5.939 c -0.273,0 -0.494,0.222 -0.494,0.495 v 2.969 c 0,0.779 0.602,1.426 1.379,1.481 1.322,-0.614 2.847,-0.614 4.17,0 C -0.602,4.395 0,3.748 0,2.969 Z M -1.485,5.443 H -1.602 L -1.706,5.395 c -1.107,-0.552 -2.409,-0.552 -3.517,0 L -5.327,5.443 H -5.444 C -6.81,5.442 -7.917,4.335 -7.918,2.969 V 0 c 0,-0.82 0.665,-1.484 1.484,-1.484 h 5.939 C 0.325,-1.484 0.99,-0.82 0.99,0 V 2.969 C 0.988,4.335 -0.119,5.442 -1.485,5.443"
           id="path147"
           inkscape:connector-curvature="0"
           style="fill:#231f20" /></g><g
         transform="matrix(1.191,0,0,1.191,147.1,84.1)"
         id="g153"><path
           d="m 0,0 c -1.093,0 -1.979,0.886 -1.979,1.979 0,1.093 0.886,1.98 1.979,1.98 1.093,0 1.979,-0.887 1.979,-1.98 C 1.979,0.886 1.093,0 0,0 m 0,4.948 c -1.64,0 -2.969,-1.329 -2.969,-2.969 0,-1.64 1.329,-2.969 2.969,-2.969 1.64,0 2.97,1.329 2.97,2.969 C 2.968,3.618 1.64,4.946 0,4.948"
           id="path151"
           inkscape:connector-curvature="0"
           style="fill:#231f20" /></g><g
         transform="matrix(1.191,0,0,1.191,151.2,75.85)"
         id="g157"><path
           d="m 0,0 c 0,-0.273 -0.222,-0.495 -0.495,-0.495 h -5.939 c -0.273,0 -0.494,0.222 -0.494,0.495 v 2.969 c 0,0.779 0.602,1.426 1.379,1.481 1.322,-0.614 2.847,-0.614 4.17,0 C -0.602,4.395 0,3.748 0,2.969 Z M -1.485,5.443 H -1.602 L -1.706,5.395 c -1.107,-0.552 -2.409,-0.552 -3.517,0 L -5.327,5.443 H -5.444 C -6.81,5.442 -7.917,4.335 -7.918,2.969 V 0 c 0,-0.82 0.665,-1.484 1.484,-1.484 h 5.939 C 0.325,-1.484 0.99,-0.82 0.99,0 V 2.969 C 0.988,4.335 -0.119,5.442 -1.485,5.443"
           id="path155"
           inkscape:connector-curvature="0"
           style="fill:#231f20" /></g><g
         transform="matrix(1.191,0,0,1.191,165.3,79.51)"
         id="g161"><path
           d="M 0,0 C 0,0 0,0.001 -0.001,0.001 -0.108,0.253 -0.398,0.37 -0.65,0.263 -2.885,-0.674 -5.367,-0.845 -7.708,-0.224 l 0.463,0.137 c 0.262,0.076 0.412,0.352 0.336,0.614 -0.077,0.262 -0.352,0.412 -0.614,0.336 L -9.503,0.282 C -9.51,0.282 -9.516,0.274 -9.523,0.271 -9.568,0.255 -9.612,0.23 -9.65,0.201 -9.667,0.191 -9.684,0.182 -9.7,0.17 -9.752,0.123 -9.793,0.065 -9.821,0.001 c -0.027,-0.064 -0.04,-0.134 -0.038,-0.204 0.012,-0.067 0.029,-0.133 0.05,-0.198 0.003,-0.007 0,-0.015 0.005,-0.022 l 0.99,-1.893 c 0.126,-0.243 0.426,-0.337 0.668,-0.21 0.243,0.126 0.336,0.425 0.21,0.668 l -0.403,0.77 c 2.661,-0.801 5.518,-0.644 8.076,0.44 C -0.011,-0.542 0.106,-0.252 0,0"
           id="path159"
           inkscape:connector-curvature="0"
           style="fill:#231f20" /></g><g
         transform="matrix(1.191,0,0,1.191,175.2,93.94)"
         id="g165"><path
           d="M 0,0 C -0.193,0.193 -0.506,0.193 -0.7,0 L -1.4,-0.7 C -1.81,3.635 -4.562,7.396 -8.569,9.099 -8.82,9.205 -9.111,9.089 -9.218,8.837 -9.325,8.586 -9.208,8.295 -8.957,8.188 -5.362,6.66 -2.863,3.321 -2.411,-0.559 L -2.969,0 c -0.197,0.189 -0.51,0.185 -0.7,-0.012 -0.185,-0.192 -0.185,-0.496 0,-0.688 l 1.485,-1.485 c 0.193,-0.193 0.506,-0.193 0.7,-10e-4 0,10e-4 0,10e-4 10e-4,10e-4 L 0.001,-0.7 C 0.194,-0.506 0.194,-0.193 0,0"
           id="path163"
           inkscape:connector-curvature="0"
           style="fill:#231f20" /></g><g
         transform="matrix(1.191,0,0,1.191,154.7,104.3)"
         id="g169"><path
           d="m 0,0 c -0.002,0.029 -0.006,0.058 -0.013,0.086 0,0.004 -0.006,0.007 -0.008,0.013 -10e-4,0.005 0,0.007 0,0.011 -0.013,0.025 -0.028,0.047 -0.046,0.069 -0.016,0.029 -0.035,0.056 -0.057,0.082 -0.029,0.025 -0.061,0.048 -0.096,0.065 -0.017,0.015 -0.036,0.028 -0.055,0.04 l -1.98,0.905 C -2.508,1.374 -2.797,1.254 -2.9,1.001 -2.999,0.762 -2.896,0.487 -2.666,0.371 l 1.025,-0.469 c -3.858,-2.065 -6.266,-6.087 -6.263,-10.46 0,-0.272 0.222,-0.494 0.495,-0.494 0.273,0 0.495,0.222 0.495,0.494 -0.003,3.854 2.035,7.421 5.356,9.375 L -1.916,-1.93 c -0.118,-0.246 -0.014,-0.541 0.231,-0.66 0.067,-0.032 0.14,-0.049 0.215,-0.049 0.19,0 0.363,0.11 0.445,0.281 l 0.99,2.065 c 0,0.005 0,0.01 0.004,0.015 0.012,0.034 0.022,0.069 0.027,0.105 0.008,0.027 0.014,0.054 0.018,0.081 C 0.013,-0.059 0.008,-0.027 0,0.004"
           id="path167"
           inkscape:connector-curvature="0"
           style="fill:#231f20" /></g></g><g
       transform="matrix(1.333,0,0,-1.333,464.5744,947.4045)"
       id="g363"><path
         d="m 0,0 c 0,-32.39 -26.26,-58.64 -58.64,-58.64 -32.38,0 -58.64,26.26 -58.64,58.64 0,32.38 26.26,58.64 58.64,58.64 C -26.26,58.64 0,32.38 0,0"
         id="path361"
         inkscape:connector-curvature="0"
         style="fill:#ffffff;fill-rule:evenodd" /></g><g
       transform="matrix(1.333,0,0,-1.333,449.3782,947.4045)"
       id="g367"><path
         d="m 0,0 c 0,-26.1 -21.15,-47.25 -47.25,-47.25 -26.1,0 -47.25,21.15 -47.25,47.25 0,26.1 21.15,47.25 47.25,47.25 C -21.15,47.25 0,26.1 0,0"
         id="path365"
         inkscape:connector-curvature="0"
         style="fill:#f4f4f4;fill-rule:evenodd" /></g><g
       transform="matrix(1.333,0,0,-1.333,353.2689,954.92262)"
       id="g371"><path
         d="m 0,0 c 1.661,0 2.536,-3.668 -0.959,-3.931 1.357,-0.184 0.997,-3.203 -0.842,-3.203 h -4.877 c -3.185,-0.941 -6.166,-1.13 -10.34,-0.041 l -10e-4,10e-4 c -0.688,0.18 -1.411,0.394 -2.171,0.645 -0.112,0.038 -0.223,0.075 -0.337,0.114 h -1.694 v 12.24 h 1.694 c 0.723,0.176 1.359,0.336 1.942,0.488 0.535,0.141 1.024,0.275 1.485,0.411 0.046,0.013 0.092,0.026 0.138,0.04 2.21,0.656 3.824,1.351 7.164,2.926 2.429,0.567 6.174,0.485 8.656,-0.522 C 2.538,8.079 2.943,5.798 0.56,4.834 2.388,5.213 3.602,0.523 0.002,0.001"
         id="path369"
         inkscape:connector-curvature="0"
         style="fill:#f9a85b" /></g><g
       transform="matrix(1.333,0,0,-1.333,345.0043,943.17889)"
       id="g375"><path
         d="m 0,0 c 0,0 -7.518,-3.882 -10.56,-3.285 0,0 1.508,4.065 5.206,5.409 0.746,0.271 1.833,2.494 2.679,4.539 0.618,1.496 1.108,2.899 1.242,3.371 C -1.124,9.965 -0.846,9.886 -0.597,9.793 1.967,8.838 1.357,6.473 0,0"
         id="path373"
         inkscape:connector-curvature="0"
         style="fill:#f9a85b" /></g><g
       transform="matrix(1.333,0,0,-1.333,344.4711,931.32852)"
       id="g379"><path
         d="m 0,0 c 0,-1.231 -0.92,-2.23 -2.054,-2.23 -0.069,0 -0.136,0.003 -0.202,0.009 0.618,1.496 1.108,2.899 1.242,3.371 C -0.705,1.081 -0.427,1.002 -0.178,0.909 -0.064,0.632 0,0.324 0,0"
         id="path377"
         inkscape:connector-curvature="0"
         style="fill:#fabf8d" /></g><g
       transform="matrix(1.333,0,0,-1.333,330.4746,964.48023)"
       id="g383"><path
         d="M 0,0 C -0.688,0.18 -1.41,0.394 -2.171,0.645 -3.114,2.452 -2.094,3.506 -2.094,3.506 -1.894,1.642 -0.057,0.05 0,0"
         id="path381"
         inkscape:connector-curvature="0"
         style="fill:#ef903e" /></g><g
       transform="matrix(1.333,0,0,-1.333,330.4746,949.99052)"
       id="g387"><path
         d="M 0,0 C 0,0 -0.705,1.164 -0.567,2.612 -0.032,2.753 0.457,2.887 0.918,3.022 0.874,2.988 -0.133,2.184 0,0"
         id="path385"
         inkscape:connector-curvature="0"
         style="fill:#ef903e" /></g><path
       d="M 326.8755,965.5333 H 314.20933 V 945.64494 H 326.8755 Z"
       id="path389"
       inkscape:connector-curvature="0"
       style="fill:#f57925;stroke-width:1.33299994" /><g
       transform="matrix(1.333,0,0,-1.333,323.4097,949.43066)"
       id="g393"><path
         d="m 0,0 c 0,-0.604 -0.49,-1.093 -1.094,-1.093 -0.603,0 -1.094,0.489 -1.094,1.093 0,0.604 0.491,1.094 1.094,1.094 C -0.49,1.094 0,0.604 0,0"
         id="path391"
         inkscape:connector-curvature="0"
         style="fill:#231f20" /></g><g
       transform="matrix(1.333,0,0,-1.333,367.532,922.15748)"
       id="g397"><path
         d="m 0,0 c 1.148,-1.198 -0.896,-4.368 -3.502,-2.026 0.805,-1.108 -1.624,-2.937 -2.896,-1.609 l -3.374,3.523 c -2.882,1.648 -5.081,3.671 -7.184,7.439 v 0.001 c -0.347,0.622 -0.692,1.291 -1.036,2.015 -0.05,0.106 -0.1,0.213 -0.151,0.321 l -1.171,1.223 8.838,8.467 1.171,-1.223 c 0.627,-0.4 1.183,-0.748 1.697,-1.064 0.471,-0.289 0.906,-0.548 1.323,-0.789 0.042,-0.024 0.083,-0.048 0.124,-0.071 C -4.158,15.064 -2.54,14.38 0.908,13.058 2.998,11.695 5.53,8.936 6.519,6.445 7.586,3.758 6.22,1.887 3.875,2.94 5.414,1.883 2.868,-2.238 0,0"
         id="path395"
         inkscape:connector-curvature="0"
         style="fill:#f9a85b" /></g><g
       transform="matrix(1.333,0,0,-1.333,370.4646,908.14765)"
       id="g401"><path
         d="m 0,0 c 0,0 -8.003,2.743 -9.677,5.353 0,0 3.98,1.723 7.507,-0.017 C -1.457,4.984 0.899,5.737 2.962,6.541 4.47,7.129 5.822,7.746 6.255,7.977 6.419,7.705 6.554,7.45 6.659,7.206 7.745,4.693 5.613,3.498 0,0"
         id="path399"
         inkscape:connector-curvature="0"
         style="fill:#f9a85b" /></g><g
       transform="matrix(1.333,0,0,-1.333,378.5959,899.5498)"
       id="g405"><path
         d="m 0,0 c -0.889,-0.854 -2.247,-0.88 -3.032,-0.062 -0.047,0.05 -0.091,0.102 -0.132,0.154 1.508,0.588 2.86,1.205 3.293,1.435 C 0.293,1.256 0.428,1.001 0.533,0.757 0.412,0.482 0.234,0.224 0,0"
         id="path403"
         inkscape:connector-curvature="0"
         style="fill:#fabf8d" /></g><g
       transform="matrix(1.333,0,0,-1.333,345.0043,912.39992)"
       id="g409"><path
         d="m 0,0 c -0.347,0.622 -0.692,1.291 -1.037,2.015 0.653,1.93 2.12,1.923 2.12,1.923 C -0.125,2.504 -0.004,0.076 0,0"
         id="path407"
         inkscape:connector-curvature="0"
         style="fill:#ef903e" /></g><g
       transform="matrix(1.333,0,0,-1.333,355.4017,902.36243)"
       id="g413"><path
         d="M 0,0 C 0,0 0.353,1.314 1.494,2.217 1.966,1.928 2.4,1.668 2.818,1.428 2.763,1.436 1.484,1.606 0,0"
         id="path411"
         inkscape:connector-curvature="0"
         style="fill:#ef903e" /></g><g
       transform="matrix(1.333,0,0,-1.333,341.6718,910.45374)"
       id="g417"><path
         d="m 0,0 -6.573,6.861 10.77,10.32 6.573,-6.863 z"
         id="path415"
         inkscape:connector-curvature="0"
         style="fill:#f57925" /></g><g
       transform="matrix(1.333,0,0,-1.333,351.0028,896.8838)"
       id="g421"><path
         d="M 0,0 C -0.436,-0.418 -1.128,-0.403 -1.546,0.033 -1.963,0.469 -1.949,1.161 -1.513,1.579 -1.077,1.996 -0.384,1.981 0.033,1.546 0.451,1.11 0.436,0.417 0,0"
         id="path419"
         inkscape:connector-curvature="0"
         style="fill:#231f20" /></g><g
       transform="matrix(1.333,0,0,-1.333,419.6523,954.92262)"
       id="g425"><path
         d="m 0,0 c -1.661,0 -2.536,-3.668 0.959,-3.931 -1.356,-0.184 -0.997,-3.203 0.842,-3.203 h 4.878 c 3.183,-0.941 6.166,-1.13 10.34,-0.041 v 10e-4 c 0.689,0.18 1.411,0.394 2.171,0.645 0.112,0.038 0.224,0.075 0.337,0.114 h 1.694 V 5.825 H 19.527 C 18.805,6.001 18.168,6.161 17.585,6.313 17.05,6.454 16.562,6.588 16.101,6.724 H 16.1 C 16.054,6.737 16.008,6.75 15.963,6.764 13.753,7.42 12.139,8.115 8.798,9.69 6.369,10.257 2.624,10.175 0.142,9.168 -2.538,8.079 -2.943,5.798 -0.56,4.834 -2.388,5.213 -3.603,0.523 -0.002,0.001"
         id="path423"
         inkscape:connector-curvature="0"
         style="fill:#f9a85b" /></g><g
       transform="matrix(1.333,0,0,-1.333,427.9169,943.17889)"
       id="g429"><path
         d="m 0,0 c 0,0 7.517,-3.882 10.56,-3.285 0,0 -1.508,4.065 -5.206,5.409 C 4.608,2.395 3.521,4.618 2.675,6.663 2.056,8.159 1.566,9.562 1.433,10.034 1.124,9.965 0.846,9.886 0.597,9.793 -1.968,8.838 -1.357,6.473 0,0"
         id="path427"
         inkscape:connector-curvature="0"
         style="fill:#f9a85b" /></g><g
       transform="matrix(1.333,0,0,-1.333,428.4501,931.32852)"
       id="g433"><path
         d="m 0,0 c 0,-1.231 0.92,-2.23 2.053,-2.23 0.069,0 0.136,0.003 0.203,0.009 C 1.637,-0.725 1.147,0.678 1.014,1.15 0.705,1.081 0.427,1.002 0.178,0.909 0.063,0.632 0,0.324 0,0"
         id="path431"
         inkscape:connector-curvature="0"
         style="fill:#fabf8d" /></g><g
       transform="matrix(1.333,0,0,-1.333,442.4466,964.48023)"
       id="g437"><path
         d="M 0,0 C 0.689,0.18 1.411,0.394 2.171,0.645 3.114,2.452 2.095,3.506 2.095,3.506 1.895,1.642 0.057,0.05 0,0"
         id="path435"
         inkscape:connector-curvature="0"
         style="fill:#ef903e" /></g><g
       transform="matrix(1.333,0,0,-1.333,442.4466,949.99052)"
       id="g441"><path
         d="M 0,0 C 0,0 0.705,1.164 0.566,2.612 0.031,2.753 -0.457,2.887 -0.918,3.022 -0.874,2.988 0.133,2.184 0,0"
         id="path439"
         inkscape:connector-curvature="0"
         style="fill:#ef903e" /></g><path
       d="m 446.0457,965.5333 h 12.66617 V 945.64494 H 446.0457 Z"
       id="path443"
       inkscape:connector-curvature="0"
       style="fill:#f57925;stroke-width:1.33299994" /><g
       transform="matrix(1.333,0,0,-1.333,449.3782,949.43066)"
       id="g447"><path
         d="m 0,0 c 0,-0.604 0.49,-1.093 1.094,-1.093 0.603,0 1.094,0.489 1.094,1.093 0,0.604 -0.491,1.094 -1.094,1.094 C 0.49,1.094 0,0.604 0,0"
         id="path445"
         inkscape:connector-curvature="0"
         style="fill:#231f20" /></g><g
       transform="matrix(1.333,0,0,-1.333,405.3892,922.15748)"
       id="g451"><path
         d="M 0,0 C -1.148,-1.198 0.895,-4.368 3.502,-2.026 2.696,-3.134 5.126,-4.963 6.398,-3.635 l 3.374,3.523 c 2.882,1.648 5.081,3.671 7.183,7.439 v 0.001 c 0.347,0.622 0.692,1.291 1.037,2.015 0.05,0.106 0.1,0.213 0.151,0.321 l 1.171,1.223 -8.838,8.467 -1.171,-1.223 C 8.678,17.731 8.122,17.383 7.608,17.067 7.136,16.778 6.702,16.519 6.285,16.278 H 6.284 C 6.243,16.254 6.202,16.23 6.161,16.207 4.158,15.064 2.54,14.38 -0.909,13.058 -2.998,11.695 -5.53,8.936 -6.519,6.445 -7.587,3.758 -6.22,1.887 -3.875,2.94 -5.414,1.883 -2.868,-2.238 0,0"
         id="path449"
         inkscape:connector-curvature="0"
         style="fill:#f9a85b" /></g><g
       transform="matrix(1.333,0,0,-1.333,402.4566,908.14765)"
       id="g455"><path
         d="m 0,0 c 0,0 8.003,2.743 9.677,5.353 0,0 -3.979,1.723 -7.507,-0.017 C 1.458,4.984 -0.899,5.737 -2.961,6.541 -4.469,7.129 -5.821,7.746 -6.254,7.977 -6.418,7.705 -6.554,7.45 -6.658,7.206 -7.744,4.693 -5.613,3.498 0,0"
         id="path453"
         inkscape:connector-curvature="0"
         style="fill:#f9a85b" /></g><g
       transform="matrix(1.333,0,0,-1.333,394.3253,899.5498)"
       id="g459"><path
         d="M 0,0 C 0.89,-0.854 2.248,-0.88 3.032,-0.062 3.08,-0.012 3.124,0.04 3.165,0.092 1.657,0.68 0.305,1.297 -0.128,1.527 -0.292,1.256 -0.428,1.001 -0.532,0.757 -0.412,0.482 -0.233,0.224 0,0"
         id="path457"
         inkscape:connector-curvature="0"
         style="fill:#fabf8d" /></g><g
       transform="matrix(1.333,0,0,-1.333,427.9169,912.39992)"
       id="g463"><path
         d="M 0,0 C 0.347,0.622 0.692,1.291 1.037,2.015 0.384,3.945 -1.083,3.938 -1.083,3.938 0.125,2.504 0.004,0.076 0,0"
         id="path461"
         inkscape:connector-curvature="0"
         style="fill:#ef903e" /></g><g
       transform="matrix(1.333,0,0,-1.333,417.5195,902.36243)"
       id="g467"><path
         d="M 0,0 C 0,0 -0.354,1.314 -1.494,2.217 -1.966,1.928 -2.4,1.668 -2.818,1.428 -2.763,1.436 -1.484,1.606 0,0"
         id="path465"
         inkscape:connector-curvature="0"
         style="fill:#ef903e" /></g><g
       transform="matrix(1.333,0,0,-1.333,431.1161,910.45374)"
       id="g471"><path
         d="m 0,0 6.573,6.861 -10.77,10.32 -6.573,-6.863 z"
         id="path469"
         inkscape:connector-curvature="0"
         style="fill:#f57925" /></g><g
       transform="matrix(1.333,0,0,-1.333,421.9184,896.8838)"
       id="g475"><path
         d="M 0,0 C 0.436,-0.418 1.128,-0.403 1.546,0.033 1.964,0.469 1.949,1.161 1.513,1.579 1.077,1.996 0.385,1.981 -0.033,1.546 -0.451,1.11 -0.436,0.417 0,0"
         id="path473"
         inkscape:connector-curvature="0"
         style="fill:#231f20" /></g><g
       transform="matrix(1.333,0,0,-1.333,394.4586,985.5283)"
       id="g479"><path
         d="m 0,0 -4.414,-8.308 -4.944,1.842 5.915,6.899 1.432,8.837 c 0.232,1.332 1.032,1.836 1.79,1.948 0.468,0.071 0.92,-0.011 1.209,-0.139 L 0.711,7.973 Z"
         id="path477"
         inkscape:connector-curvature="0"
         style="fill:#ef8538" /></g><g
       transform="matrix(1.333,0,0,-1.333,401.1236,972.3316)"
       id="g483"><path
         d="m 0,0 -3.693,-10.49 -5.454,-8.42 -5.212,4.466 6.211,4.374 4.796,9.058 C -2.81,0.198 -1.933,0.503 -1.18,0.439 -0.693,0.399 -0.257,0.204 0,0.002"
         id="path481"
         inkscape:connector-curvature="0"
         style="fill:#f49b4e" /></g><g
       transform="matrix(1.333,0,0,-1.333,401.1236,972.3316)"
       id="g487"><path
         d="m 0,0 -0.977,-2.774 c -0.704,0.444 -0.998,1.343 -0.664,2.128 L -1.18,0.437 C -0.693,0.397 -0.257,0.202 0,0"
         id="path485"
         inkscape:connector-curvature="0"
         style="fill:#fcd0aa" /></g><g
       transform="matrix(1.333,0,0,-1.333,395.3917,974.8643)"
       id="g491"><path
         d="m 0,0 c -0.753,0.269 -1.238,1.037 -1.124,1.856 l 0.192,1.389 c 0.468,0.071 0.92,-0.011 1.209,-0.139 z"
         id="path489"
         inkscape:connector-curvature="0"
         style="fill:#fcd0aa" /></g><g
       transform="matrix(1.333,0,0,-1.333,404.856,979.3965)"
       id="g495"><path
         d="m 0,0 -6.813,-7.513 -7.562,-5.147 -1.887,3.77 5.853,3.306 7.234,5.919 c 1.058,0.987 2.058,0.714 2.669,0.237 C -0.275,0.392 -0.101,0.182 0,0"
         id="path493"
         inkscape:connector-curvature="0"
         style="fill:#f49b4e" /></g><g
       transform="matrix(1.333,0,0,-1.333,404.3228,973.5313)"
       id="g499"><path
         d="m 0,0 -1.211,-2.502 -3.635,-7.511 -6.361,-7.755 -22.24,-8.829 -4.001,7.909 8.483,4.168 c 0,0 1.375,5.652 5.649,7.916 l 2.343,6.357 1.285,3.482 c 0,0 0.69,0.096 1.341,-0.175 0.726,-0.3 1.402,-1.052 1.034,-2.89 -0.7,-3.495 -0.942,-4.566 -0.942,-4.566 0,0 -0.015,-2.635 -0.735,-5.794 l 3.108,-2.555 6.662,3.65 5.781,8.465 c 0.762,1.288 1.818,1.382 2.598,1.124 H -0.84 C -0.481,0.376 -0.182,0.184 0.004,0"
         id="path497"
         inkscape:connector-curvature="0"
         style="fill:#f9ac60" /></g><g
       transform="matrix(1.333,0,0,-1.333,379.7956,969.399)"
       id="g503"><path
         d="m 0,0 -0.738,-2.163 c -0.275,-0.801 -1.079,-1.27 -1.888,-1.144 l 1.284,3.483 c 0,0 0.691,0.095 1.342,-0.176"
         id="path501"
         inkscape:connector-curvature="0"
         style="fill:#fcd0aa" /></g><g
       transform="matrix(1.333,0,0,-1.333,404.3228,973.5313)"
       id="g507"><path
         d="m 0,0 -1.211,-2.502 c -0.496,0.545 -0.599,1.371 -0.204,2.036 l 0.57,0.96 h 0.001 C -0.485,0.376 -0.186,0.184 0,0"
         id="path505"
         inkscape:connector-curvature="0"
         style="fill:#fcd0aa" /></g><g
       transform="matrix(1.333,0,0,-1.333,404.856,979.3965)"
       id="g511"><path
         d="m 0,0 -1.431,-1.578 c -0.217,0.673 -10e-4,1.437 0.588,1.89 l 0.337,0.26 C -0.275,0.392 -0.101,0.182 0,0"
         id="path509"
         inkscape:connector-curvature="0"
         style="fill:#fcd0aa" /></g><g
       transform="matrix(1.333,0,0,-1.333,391.7926,966.8663)"
       id="g515"><path
         d="M 0,0 V -1.894 H -7.96 V 0 c 0,0.076 0.061,0.137 0.136,0.137 h 7.687 C -0.061,0.137 0,0.076 0,0"
         id="path513"
         inkscape:connector-curvature="0"
         style="fill:#dbdbdd" /></g><g
       transform="matrix(1.333,0,0,-1.333,55.61,832.1)"
       id="g523"><path
         d="m 252.2,-103.7 h -7.959 v 0.768 h 7.959 z"
         id="path517"
         inkscape:connector-curvature="0"
         style="fill:#9da1a2" /><path
         d="m 252.2,-105.5 h -7.959 v 0.768 h 7.959 z"
         id="path519"
         inkscape:connector-curvature="0"
         style="fill:#9da1a2" /><path
         d="m 252.2,-104.7 h -7.96 v 0.991 h 7.96 z"
         id="path521"
         inkscape:connector-curvature="0"
         style="fill:#dbdbdd" /></g><g
       transform="matrix(1.333,0,0,-1.333,391.7926,972.7315)"
       id="g527"><path
         d="m 0,0 v -0.731 c 0,-0.146 -0.126,-0.264 -0.283,-0.264 h -7.394 c -0.156,0 -0.283,0.118 -0.283,0.264 V 0 Z"
         id="path525"
         inkscape:connector-curvature="0"
         style="fill:#dbdbdd" /></g><g
       transform="matrix(1.333,0,0,-1.333,390.9928,974.0645)"
       id="g531"><path
         d="m 0,0 c -0.751,-1.484 -1.171,-2.961 -2.827,-2.961 h -1.147 c -1.652,0 -2.062,1.45 -2.827,2.961 z"
         id="path529"
         inkscape:connector-curvature="0"
         style="fill:#231f20" /></g><g
       transform="matrix(1.333,0,0,-1.333,390.9928,974.0645)"
       id="g535"><path
         d="M 0,0 -0.284,-0.562 H -6.517 L -6.801,0 Z"
         id="path533"
         inkscape:connector-curvature="0"
         style="fill:#39353e" /></g><g
       transform="matrix(1.333,0,0,-1.333,386.4606,932.26162)"
       id="g539"><path
         d="m 0,0 v -25.8 h -3.683 c -1.615,6.159 -7.559,8.086 -7.23,14.99 0.28,5.848 4.678,10.81 10.91,10.81"
         id="path537"
         inkscape:connector-curvature="0"
         style="fill:#f4bd1e" /></g><g
       transform="matrix(1.333,0,0,-1.333,391.3927,966.5997)"
       id="g543"><path
         d="M 0,0 H -3.682 V 25.8 C 2.552,25.8 6.958,20.84 7.228,14.99 7.555,8.148 1.597,6.094 -0.001,0"
         id="path541"
         inkscape:connector-curvature="0"
         style="fill:#f4bd1e" /></g><g
       transform="matrix(1.333,0,0,-1.333,371.9309,1007.5228)"
       id="g547"><path
         d="m 0,0 -8.048,-5.053 -7.933,12.64 8.047,5.053 z"
         id="path545"
         inkscape:connector-curvature="0"
         style="fill:#f4bd1e" /></g><g
       transform="matrix(1.333,0,0,-1.333,360.4671,995.6591)"
       id="g551"><path
         d="m 0,0 c 0.321,-0.512 0.167,-1.187 -0.344,-1.508 -0.512,-0.321 -1.187,-0.167 -1.508,0.345 -0.321,0.512 -0.167,1.186 0.345,1.508 C -0.996,0.665 -0.321,0.512 0,0"
         id="path549"
         inkscape:connector-curvature="0"
         style="fill:#231f20" /></g><g
       transform="matrix(1.333,0,0,-1.333,382.4616,942.01918)"
       id="g555"><path
         d="m 0,0 c 0,-0.906 -0.734,-1.641 -1.641,-1.641 -0.905,0 -1.64,0.735 -1.64,1.641 0,0.906 0.735,1.641 1.64,1.641 C -0.734,1.641 0,0.906 0,0"
         id="path553"
         inkscape:connector-curvature="0"
         style="fill:#ffffff" /></g><g
       transform="matrix(1.333,0,0,-1.333,386.4606,928.8758)"
       id="g559"><path
         d="M 0,0 V 8.514"
         stroke-miterlimit="10"
         id="path557"
         inkscape:connector-curvature="0"
         style="fill:none;stroke:#231f20;stroke-width:1.5;stroke-miterlimit:10" /></g><path
       style="fill:none;stroke:#231f20;stroke-width:1.99950004;stroke-miterlimit:10"
       inkscape:connector-curvature="0"
       id="path561"
       stroke-miterlimit="10"
       d="m 404.1895,939.89971 7.70207,-4.74148" /><g
       transform="matrix(1.333,0,0,-1.333,411.521,958.735)"
       id="g567"><path
         d="M 0,0 -5.587,3.849"
         stroke-miterlimit="10"
         id="path565"
         inkscape:connector-curvature="0"
         style="fill:none;stroke:#231f20;stroke-width:1.5;stroke-miterlimit:10" /></g><g
       transform="matrix(1.333,0,0,-1.333,368.865,953.60295)"
       id="g571"><path
         d="M 0,0 -5.587,-3.849"
         stroke-miterlimit="10"
         id="path569"
         inkscape:connector-curvature="0"
         style="fill:none;stroke:#231f20;stroke-width:1.5;stroke-miterlimit:10" /></g><g
       transform="matrix(1.333,0,0,-1.333,368.865,939.89971)"
       id="g575"><path
         d="M 0,0 -6.583,4.053"
         stroke-miterlimit="10"
         id="path573"
         inkscape:connector-curvature="0"
         style="fill:none;stroke:#231f20;stroke-width:1.5;stroke-miterlimit:10" /></g><g
       transform="matrix(1.333,0,0,-1.333,339.4057,983.3955)"
       id="g579"><path
         d="M 0,0 C 1.608,0 1.611,2.5 0,2.5 -1.609,2.5 -1.611,0 0,0"
         id="path577"
         inkscape:connector-curvature="0"
         style="fill:#231f20" /></g><g
       transform="matrix(1.333,0,0,-1.333,424.5844,987.1279)"
       id="g583"><path
         d="M 0,0 C 1.609,0 1.611,2.5 0,2.5 -1.608,2.5 -1.611,0 0,0"
         id="path581"
         inkscape:connector-curvature="0"
         style="fill:#231f20" /></g><g
       transform="matrix(1.333,0,0,-1.333,326.6089,927.11624)"
       id="g587"><path
         d="M 0,0 C 1.609,0 1.611,2.5 0,2.5 -1.608,2.5 -1.611,0 0,0"
         id="path585"
         inkscape:connector-curvature="0"
         style="fill:#231f20" /></g><g
       transform="matrix(1.333,0,0,-1.333,388.4601,889.16573)"
       id="g591"><path
         d="M 0,0 C 1.608,0 1.611,2.5 0,2.5 -1.609,2.5 -1.611,0 0,0"
         id="path589"
         inkscape:connector-curvature="0"
         style="fill:#231f20" /></g><g
       transform="matrix(1.333,0,0,-1.333,446.5789,935.07425)"
       id="g595"><path
         d="M 0,0 C 1.609,0 1.611,2.5 0,2.5 -1.608,2.5 -1.611,0 0,0"
         id="path593"
         inkscape:connector-curvature="0"
         style="fill:#231f20" /></g><text
       id="text657"
       xml:space="preserve"
       style="font-weight:bold;font-size:17.96883965px;line-height:1.25;font-family:Arial;letter-spacing:0px;word-spacing:0px;fill:#000000;stroke-width:0.44908771"
       font-weight="bold"
       font-size="13.48px"
       y="963.33032"
       x="28.667196"><tspan
         style="stroke-width:0.44908771"
         id="tspan647"
         y="963.33032"
         x="28.667196">Personaliza <tspan
   style="font-weight:normal;font-family:Arial;stroke-width:0.44908771"
   id="tspan645"
   font-weight="normal">el soporte y</tspan></tspan><tspan
         style="stroke-width:0.44908771"
         id="tspan651"
         y="986.07184"
         x="28.667196"><tspan
   style="font-weight:normal;font-family:Arial;stroke-width:0.44908771"
   id="tspan649"
   font-weight="normal">orientación de</tspan> EXPERTOS</tspan><tspan
         style="stroke-width:0.44908771"
         id="tspan655"
         y="1008.8133"
         x="28.667196"><tspan
   style="font-weight:normal;font-family:Arial;stroke-width:0.44908771"
   id="tspan653"
   font-weight="normal">durante el programa.</tspan> </tspan></text>
<text
       x="64.502625"
       y="1088.5428"
       font-weight="bold"
       style="font-weight:bold;font-size:17.96883965px;line-height:1.25;font-family:Arial;letter-spacing:0px;word-spacing:0px;fill:#000000;stroke-width:0.44908771"
       xml:space="preserve"
       id="text747"><tspan
         style="stroke-width:0.44908771"
         x="64.502625"
         y="1088.5428"
         id="tspan743">Capacidad de</tspan><tspan
         style="stroke-width:0.44908771"
         x="64.502625"
         y="1111.2843"
         id="tspan745">empleabilidad</tspan></text>
<text
       x="311.86615"
       y="1083.2046"
       style="font-size:17.96883965px;line-height:1.25;font-family:Arial;letter-spacing:0px;word-spacing:0px;fill:#000000;stroke-width:0.44908771"
       xml:space="preserve"
       id="text753"><tspan
         style="stroke-width:0.44908771"
         x="311.86615"
         y="1083.2046"
         id="tspan749">Red de contactos</tspan><tspan
         style="stroke-width:0.44908771"
         x="311.86615"
         y="1105.946"
         id="tspan751">(Network)</tspan></text>
<text
       x="29.236481"
       y="892.11462"
       font-size="10.99px"
       style="font-size:14.64966965px;line-height:1.25;font-family:sans-serif;letter-spacing:0px;word-spacing:0px;fill:#000000;stroke-width:0.91523784"
       xml:space="preserve"
       id="text813"><tspan
         x="29.236481"
         y="892.11462"
         font-size="22px"
         font-weight="bold"
         style="font-weight:bold;font-size:29.32600021px;line-height:30.22866249px;font-family:Arial;stroke-width:0.91523784"
         id="tspan811">Acompañamiento</tspan></text>
</g><text
     id="text817"
     xml:space="preserve"
     style="font-size:14.64966965px;line-height:1.25;font-family:sans-serif;letter-spacing:0px;word-spacing:0px;fill:#000000;stroke-width:0.91523784"
     font-size="10.99px"
     y="477.28809"
     x="18.593557"><tspan
       id="tspan815"
       style="font-weight:bold;font-size:29.32600021px;line-height:30.22866249px;font-family:Arial;stroke-width:0.91523784"
       font-weight="bold"
       font-size="22px"
       y="477.28809"
       x="18.593557">Preparación</tspan></text>
</svg>