<?xml version="1.0" encoding="UTF-8"?>
<!-- Created with Inkscape (http://www.inkscape.org/) -->
<svg width="970.8" height="678.3" version="1.1" viewBox="0 0 970.8 678.3" xmlns="http://www.w3.org/2000/svg" xmlns:cc="http://creativecommons.org/ns#" xmlns:dc="http://purl.org/dc/elements/1.1/" xmlns:rdf="http://www.w3.org/1999/02/22-rdf-syntax-ns#">
 <metadata>
  <rdf:RDF>
   <cc:Work rdf:about="">
    <dc:format>image/svg+xml</dc:format>
    <dc:type rdf:resource="http://purl.org/dc/dcmitype/StillImage"/>
    <dc:title/>
   </cc:Work>
  </rdf:RDF>
 </metadata>
 <path d="m17.68 675.7c-5.793-2.63-12.34-8.228-12.34-10.55 0-1.296 3.805-4.487 56.67-47.51 15.4-12.53 49.3-40.13 75.33-61.32 26.03-21.19 69.83-56.84 97.33-79.22 27.5-22.38 58.33-47.49 68.51-55.81 10.18-8.32 19.91-16.04 21.61-17.16 3.016-1.976 3.979-1.316 35.49 24.32 44.64 36.32 49.93 39.21 71.72 39.21 21.46 0 28.34-3.669 68.54-36.53 37.59-30.73 36.18-29.74 39.1-27.25 1.298 1.109 15.26 12.5 31.03 25.31 15.77 12.81 46.67 37.98 68.67 55.92 84.09 68.58 129 105.2 156.7 127.7 53.87 43.85 62.67 51.16 62.67 52.07 0 1.962-8.924 9.409-13.62 11.37-4.442 1.853-47.38 2.065-413.3 2.038-400.3-0.0287-408.5-0.0801-414-2.598zm-16.82-40.96c-1.356-1.356-1.011-496.2 0.3461-497 0.6593-0.4075 11.01 7.233 23 16.98 33.33 27.09 77.13 62.74 97.13 79.05 9.9 8.073 47.7 38.86 84 68.43 95.64 77.88 101.5 82.83 101 84.56-0.5553 1.742-11.41 10.78-77.66 64.65-24.93 20.27-54.93 44.71-66.67 54.29-63.38 51.77-157.5 128.3-158.8 129-0.8144 0.4826-1.864 0.4937-2.333 0.0248zm839.6-16.25c-11.63-9.434-44.64-36.28-73.34-59.65-28.71-23.38-87.63-71.3-130.9-106.5-47.37-38.5-78.62-64.8-78.45-66 0.1547-1.1 10.77-10.59 23.6-21.08 30.1-24.64 175.3-142.9 179-145.8 2.759-2.155 2.713-2.258-5.013-11-6.824-7.724-8.088-8.619-10.12-7.158-1.276 0.9186-16.32 13.1-33.43 27.06-17.11 13.96-63.51 51.79-103.1 84.05s-89.55 73.04-111 90.61c-45.22 37.05-51.53 40.98-65.59 40.85-14.88-0.14-18.31-2.352-74.08-47.77-27.87-22.69-74.97-61.06-104.7-85.25-29.7-24.19-90-73.31-134-109.2-109.8-89.42-114-92.9-114-94.03 0-2.047 7.524-8.493 12.67-10.85 5.13-2.353 18.66-2.448 354.4-2.476 278.1-0.0233 349.1-0.3681 349.5-1.696 23.69 57.19 82.8 120.4 142.1 160.6v190.4c0 109.6-0.5028 190.7-1.185 191.2-0.6518 0.4028-10.7-6.987-22.33-16.42z" fill="#2aaae2" stroke-width="1.333"/>
 <path d="m834.9 7.241e-8c-40.59 0.0013-81.19 17.8-108 53.41-63.64 84.46-13.89 202.1 92.02 217.6 8.499 1.241 28.71 0.6644 38.83-1.107 100.9-17.67 146.9-134.6 85.19-216.5-26.83-35.6-67.42-53.41-108-53.4zm2.244 67.19h12.13v114.8h24.47v14.64h-69.64v-14.64h28.03v-90.76c-1.534 1.394-3.418 2.857-5.648 4.391-2.091 1.394-4.46 2.789-7.109 4.184-2.51 1.394-5.159 2.718-7.947 3.973-2.788 1.255-5.507 2.3-8.156 3.137l-5.438-12.96c7.11-2.788 14.01-6.274 20.71-10.46 6.692-4.322 12.9-9.76 18.61-16.31z" fill="#fa0304" stroke-width="1.333"/>
</svg>
