<svg width="333.9mm" height="126mm" version="1.1" viewBox="0 0 333.9 126" xmlns="http://www.w3.org/2000/svg">
 <g transform="translate(56.47 -69.12)">
  <path d="m-56.47 69.12v126h333.9v-126zm171.7 45.67h3.287l-4.504 4.703h-2.111zm-13.78 1.396h2.132v23.08h-2.132zm63.27 0.2191h2.132v6.208h3.386v1.85h-3.386v14.8h-2.132v-14.8h-2.916v-1.85h2.916zm-138.5 0.5648h5.993c1.318 0 2.379 0.0981 3.178 0.2982 4.968 1.223 6.319 7.331 3.924 11.36h-3.372c3.197-1.847 2.891-8.15-1.028-9.212-0.623-0.1669-1.719-0.2506-3.297-0.2506h-3.234v9.018h-2.164zm25.82 5.235c2.849 0 5.124 1.079 6.826 3.225 0.864 1.092 1.44 2.333 1.696 3.813l-1.608 1.819h-38.31l1.863-1.819h21.13c0.2658-1.414 0.8601-2.714 1.792-3.892 1.645-2.096 3.855-3.146 6.62-3.146zm21.15 0c1.108 0 2.175 0.168 3.204 0.5018 1.024 0.3348 1.896 0.7729 2.613 1.312 0.7207 0.539 1.327 1.222 1.828 2.054l-1.698 1.055c-1.475-1.943-3.486-2.916-6.035-2.916-2.038 0-3.732 0.6547-5.08 1.955-1.342 1.301-2.017 2.878-2.017 4.739 0 1.212 0.3086 2.351 0.9302 3.417 0.6174 1.065 1.469 1.896 2.551 2.488 1.076 0.5898 2.289 0.8832 3.631 0.8832 2.457 0 4.463-0.973 6.02-2.916l1.698 1.118c-0.799 1.196-1.87 2.122-3.213 2.785-1.348 0.6586-2.88 0.988-4.599 0.988-2.644 0-4.834-0.8355-6.573-2.503-1.74-1.673-2.608-3.7-2.608-6.094 0-1.604 0.4074-3.098 1.222-4.479 0.8117-1.378 1.93-2.456 3.351-3.229 1.427-0.7733 3.015-1.16 4.776-1.16zm17.8 0c2.566 0 4.698 0.9262 6.386 2.781 1.537 1.687 2.304 3.689 2.304 5.999 0 2.32-0.8101 4.348-2.435 6.083-1.619 1.735-3.71 2.602-6.255 2.602-2.56 0-4.656-0.8669-6.276-2.602-1.625-1.735-2.436-3.763-2.436-6.083 0-2.3 0.7686-4.295 2.305-5.984 1.688-1.866 3.825-2.796 6.406-2.796zm23.1 0c2.566 0 4.698 0.9262 6.386 2.781 1.536 1.687 2.304 3.689 2.304 5.999 0 2.32-0.8106 4.348-2.436 6.083-1.619 1.735-3.71 2.602-6.255 2.602-2.56 0-4.656-0.8669-6.276-2.602-1.625-1.735-2.434-3.763-2.434-6.083 0-2.3 0.767-4.295 2.304-5.984 1.688-1.866 3.825-2.796 6.406-2.796zm19.32 0c1.108 0 2.173 0.168 3.202 0.5018 1.024 0.3348 1.898 0.7729 2.613 1.312 0.7207 0.539 1.327 1.222 1.829 2.054l-1.698 1.055c-1.473-1.943-3.485-2.916-6.035-2.916-2.038 0-3.73 0.6547-5.08 1.955-1.342 1.301-2.016 2.878-2.016 4.739 0 1.212 0.3075 2.351 0.9302 3.417 0.616 1.065 1.468 1.896 2.549 2.488 1.076 0.5898 2.289 0.8832 3.633 0.8832 2.456 0 4.462-0.973 6.019-2.916l1.698 1.118c-0.7994 1.196-1.87 2.122-3.214 2.785-1.348 0.6586-2.879 0.988-4.599 0.988-2.644 0-4.833-0.8355-6.573-2.503-1.74-1.673-2.607-3.7-2.607-6.094 0-1.604 0.4081-3.098 1.223-4.479 0.8103-1.378 1.928-2.456 3.35-3.229 1.426-0.7733 3.015-1.16 4.776-1.16zm17.74 0c1.363 0 2.596 0.2878 3.704 0.8625 1.102 0.5747 2.074 1.442 2.91 2.608v-3.062h2.132v16.65h-2.132v-2.865c-0.8985 1.093-1.902 1.913-3.021 2.456-1.112 0.5443-2.336 0.816-3.657 0.816-2.351 0-4.363-0.8518-6.03-2.555-1.668-1.708-2.499-3.778-2.499-6.223 0-2.39 0.8422-4.437 2.525-6.137 1.677-1.698 3.7-2.549 6.067-2.549zm28.26 0c2.849 0 5.126 1.076 6.825 3.225 1.207 1.516 1.823 3.407 1.844 5.68h-15.05c0.043 1.928 0.6641 3.506 1.86 4.734 1.202 1.235 2.686 1.851 4.447 1.851 0.8516 0 1.683-0.1457 2.488-0.4392 0.8047-0.2921 1.49-0.6797 2.053-1.165 0.5652-0.4865 1.177-1.265 1.83-2.347l1.808 0.9508c-0.5955 1.155-1.28 2.091-2.059 2.801-0.7786 0.7045-1.653 1.248-2.624 1.619-0.9768 0.3708-2.073 0.5545-3.303 0.5545-2.727 0-4.853-0.8878-6.39-2.665-1.537-1.776-2.306-3.783-2.306-6.019 0-2.105 0.653-3.988 1.955-5.633 1.645-2.096 3.856-3.146 6.62-3.146zm-127.3 2.038c-1.647 0-3.058 0.5219-4.239 1.574-0.8639 0.7648-1.509 1.905-1.953 3.426h12.47c-0.2867-1.136-0.7026-2.04-1.25-2.722-0.5528-0.6833-1.28-1.233-2.183-1.651-0.9038-0.4173-1.855-0.6268-2.848-0.6268zm127.4 0c-1.647 0-3.058 0.5219-4.238 1.574-0.8668 0.7676-1.515 1.913-1.959 3.443h12.48c-0.2882-1.144-0.7056-2.054-1.254-2.738-0.5539-0.6833-1.282-1.233-2.184-1.651-0.9038-0.4173-1.855-0.6268-2.848-0.6268zm-28.13 0.0315c-1.192 0-2.295 0.2924-3.298 0.878-1.009 0.5803-1.808 1.4-2.403 2.456-0.5951 1.056-0.894 2.173-0.894 3.354 0 1.166 0.2989 2.284 0.8997 3.35s1.405 1.896 2.418 2.488c1.014 0.5966 2.102 0.894 3.262 0.894 1.164 0 2.278-0.2933 3.323-0.8832 1.051-0.5913 1.854-1.385 2.419-2.394 0.5652-1.003 0.8459-2.138 0.8459-3.396 0-1.918-0.6322-3.524-1.901-4.814-1.265-1.291-2.822-1.933-4.672-1.933zm-60.34 0.0305c-1.782 0-3.307 0.6529-4.587 1.966-1.28 1.311-1.919 2.9-1.919 4.76 0 1.196 0.2925 2.315 0.8728 3.354 0.5856 1.035 1.375 1.834 2.367 2.399 0.9881 0.5634 2.079 0.8459 3.266 0.8459 1.186 0 2.278-0.2826 3.266-0.8459 0.9938-0.5652 1.782-1.364 2.367-2.399 0.5803-1.039 0.8723-2.158 0.8723-3.354 0-1.86-0.6422-3.449-1.928-4.76-1.28-1.313-2.805-1.966-4.577-1.966zm23.1 0c-1.782 0-3.307 0.6529-4.587 1.966-1.28 1.311-1.918 2.9-1.918 4.76 0 1.196 0.2934 2.315 0.8723 3.354 0.5856 1.035 1.375 1.834 2.367 2.399 0.9881 0.5634 2.079 0.8459 3.266 0.8459 1.186 0 2.279-0.2826 3.266-0.8459 0.9934-0.5652 1.782-1.364 2.368-2.399 0.58-1.039 0.8718-2.158 0.8718-3.354 0-1.86-0.6417-3.449-1.928-4.76-1.28-1.313-2.806-1.966-4.578-1.966zm-81.32 7.316h2.482l0.2429 0.3586 4.964 7.283h-2.601zm-6.546 0.0165h2.164v7.625h-2.164zm17.27 0.0109h2.211c0.157 1.811 0.7618 3.108 1.822 4.195 1.202 1.233 2.686 1.851 4.447 1.851 0.8516 0 1.683-0.1457 2.487-0.4392 0.8047-0.2921 1.49-0.6797 2.054-1.165 0.5652-0.4865 1.175-1.265 1.83-2.347l1.807 0.9508c-0.5955 1.155-1.279 2.091-2.059 2.801-0.7786 0.7045-1.651 1.248-2.623 1.619-0.9768 0.3708-2.075 0.5545-3.303 0.5545-2.727 0-4.855-0.8878-6.39-2.665-1.384-1.598-2.143-3.383-2.282-5.355z" fill="#fff" fill-opacity=".7529" opacity=".993"/>
  <path d="m66.26 144.7h0.689v4.637c0 0.7137-0.05503 1.209-0.1651 1.488-0.1118 0.2769-0.2949 0.5013-0.5556 0.6668-0.2575 0.1669-0.5719 0.2494-0.9384 0.2494-0.2783 0-0.5524-0.0536-0.8213-0.1612-0.2702-0.1062-0.5704-0.2935-0.8971-0.5648l0.3637-0.5458c0.3598 0.2508 0.6586 0.4272 0.8957 0.5292 0.1573 0.0688 0.3101 0.102 0.4604 0.102 0.1958 0 0.375-0.0593 0.5348-0.1764 0.1626-0.1185 0.2755-0.2755 0.339-0.4727 0.06315-0.1958 0.0949-0.5747 0.0949-1.138zm5.629-0.1722c1.04 0 1.91 0.3486 2.61 1.042 0.6999 0.6932 1.051 1.549 1.051 2.562 0 1.007-0.3485 1.86-1.047 2.56-0.6999 0.6999-1.552 1.05-2.558 1.05-1.018 0-1.877-0.3486-2.577-1.046-0.7003-0.6971-1.052-1.541-1.052-2.53 0-0.6604 0.1598-1.272 0.4784-1.836 0.3196-0.562 0.7549-1.004 1.306-1.324 0.5496-0.3182 1.147-0.478 1.787-0.478zm0.03034 0.6696c-0.5069 0-0.9881 0.1337-1.444 0.3983-0.4547 0.2646-0.8103 0.6202-1.066 1.068-0.2565 0.4491-0.3831 0.9479-0.3831 1.501 0 0.8142 0.2826 1.503 0.8474 2.064 0.5666 0.5637 1.248 0.8449 2.046 0.8449 0.5348 0 1.027-0.1309 1.48-0.3888 0.4547-0.2575 0.8089-0.6117 1.063-1.06 0.2536-0.4491 0.3803-0.9451 0.3803-1.495 0-0.5443-0.1266-1.038-0.3803-1.477-0.2536-0.441-0.6131-0.7923-1.074-1.057-0.4614-0.2646-0.9507-0.3983-1.469-0.3983zm5.03-0.4974h1.353c0.5457 0 0.9645 0.0649 1.257 0.193 0.2935 0.1295 0.5253 0.3295 0.6932 0.5969 0.1711 0.267 0.2565 0.5648 0.2565 0.8901 0 0.3059-0.07585 0.5828-0.2247 0.8336-0.1475 0.2508-0.3665 0.4533-0.6533 0.6092 0.357 0.1214 0.6315 0.2632 0.823 0.4272 0.1926 0.1626 0.3415 0.3595 0.4477 0.5923 0.1076 0.2318 0.1612 0.484 0.1612 0.7553 0 0.5514-0.2011 1.018-0.6036 1.4-0.4036 0.3817-0.944 0.5733-1.623 0.5733h-1.887zm0.6696 0.6713v2.199h0.3944c0.478 0 0.8308-0.0441 1.056-0.1323 0.2244-0.0896 0.4022-0.23 0.533-0.4202 0.1323-0.1916 0.1986-0.4053 0.1986-0.6382 0-0.3143-0.1104-0.5623-0.3309-0.7415-0.2215-0.1789-0.5719-0.267-1.054-0.267zm0 2.888v2.641h0.853c0.5016 0 0.871-0.0497 1.105-0.1464 0.2342-0.0991 0.4216-0.2533 0.5652-0.4628 0.1404-0.2081 0.2134-0.4343 0.2134-0.6766 0-0.3073-0.1005-0.5747-0.3002-0.8019-0.2-0.2275-0.4741-0.3831-0.8227-0.4688-0.2342-0.055-0.6424-0.084-1.225-0.084zm12.66 0.7743 0.4741 0.5002c-0.303 0.2579-0.5884 0.484-0.8558 0.6809 0.1806 0.1722 0.4219 0.4064 0.725 0.7042 0.2342 0.2385 0.4396 0.4547 0.616 0.6519h-0.9592l-0.9123-0.9345c-0.5719 0.4576-1.036 0.7567-1.395 0.8957-0.3567 0.1408-0.7359 0.2096-1.133 0.2096-0.5292 0-0.9536-0.1503-1.273-0.4547-0.321-0.3016-0.4808-0.6794-0.4808-1.133 0-0.3418 0.1072-0.6833 0.3224-1.027 0.2148-0.3432 0.653-0.7772 1.316-1.302-0.3708-0.4547-0.6075-0.7923-0.7151-1.009-0.1048-0.2163-0.157-0.4244-0.157-0.6212 0-0.3432 0.1323-0.6272 0.3955-0.8516 0.3044-0.2635 0.6833-0.3944 1.137-0.3944 0.2868 0 0.5472 0.0565 0.7828 0.1725 0.2357 0.1157 0.4163 0.2699 0.5401 0.4657 0.1242 0.1944 0.1863 0.4011 0.1863 0.6202 0 0.2286-0.08008 0.4752-0.2413 0.7345-0.1626 0.2618-0.4837 0.5937-0.9606 0.9991l1.043 1.093 0.6809 0.6904c0.3637-0.2755 0.6519-0.5041 0.864-0.6904zm-3.012-1.607c0.3323-0.2579 0.5846-0.5112 0.7511-0.762 0.1185-0.1764 0.1778-0.3351 0.1778-0.4727 0-0.1573-0.07726-0.2949-0.2314-0.4106-0.1531-0.1146-0.357-0.1725-0.6121-0.1725-0.2424 0-0.441 0.0593-0.5937 0.1764-0.1517 0.1199-0.2275 0.2607-0.2275 0.4219 0 0.1238 0.03034 0.2424 0.09243 0.35 0.1531 0.2646 0.3665 0.5553 0.6435 0.8696zm-0.09102 0.9162c-0.58 0.4399-0.9603 0.787-1.141 1.047-0.1806 0.2579-0.2702 0.4988-0.2702 0.7193 0 0.2593 0.1104 0.4907 0.3323 0.6918 0.2219 0.1986 0.4932 0.2992 0.8132 0.2992 0.2438 0 0.4808-0.0512 0.7165-0.1517 0.3679-0.1598 0.7867-0.4272 1.261-0.8047l-1.084-1.108c-0.1863-0.1983-0.3955-0.4272-0.6272-0.6932zm14.19-2.376-0.5429 0.4163c-0.2978-0.3888-0.6558-0.6837-1.076-0.8848-0.4173-0.2011-0.8763-0.302-1.379-0.302-0.5472 0-1.053 0.1337-1.52 0.3958-0.4685 0.2646-0.828 0.6174-1.084 1.061-0.2575 0.4438-0.3859 0.944-0.3859 1.497 0 0.8389 0.2868 1.539 0.8601 2.099 0.5747 0.5609 1.3 0.8417 2.175 0.8417 0.9606 0 1.765-0.3761 2.412-1.129l0.5429 0.412c-0.3432 0.4343-0.7705 0.7733-1.283 1.01-0.5112 0.2381-1.083 0.3567-1.716 0.3567-1.202 0-2.151-0.3997-2.844-1.2-0.5817-0.6738-0.8738-1.491-0.8738-2.446 0-1.004 0.3528-1.852 1.057-2.537 0.707-0.6876 1.59-1.031 2.653-1.031 0.6406 0 1.22 0.1266 1.736 0.3789 0.5168 0.2522 0.9402 0.6064 1.271 1.061zm4.191-1.268 3.205 6.871h-0.7387l-1.074-2.258h-2.976l-1.067 2.258h-0.7662l3.244-6.871zm-0.0868 1.441-1.181 2.501h2.359zm4.389-1.441h1.371c0.7648 0 1.283 0.0332 1.553 0.0938 0.4106 0.0938 0.7415 0.2921 0.9966 0.5994 0.2575 0.3073 0.3842 0.6851 0.3842 1.133 0 0.3736-0.0868 0.7013-0.2646 0.9839-0.175 0.284-0.4272 0.4974-0.7549 0.6435-0.3267 0.145-0.78 0.218-1.357 0.2219l2.474 3.196h-0.8435l-2.474-3.196h-0.3955v3.196h-0.689zm0.689 0.6713v2.333l1.187 0.01c0.46 0 0.8004-0.0427 1.021-0.1295 0.2191-0.0882 0.3916-0.2272 0.5154-0.4177 0.1228-0.1926 0.1859-0.405 0.1859-0.6435 0-0.23-0.0631-0.441-0.1887-0.6283-0.1238-0.1887-0.2879-0.3224-0.4932-0.4039-0.2011-0.0811-0.5401-0.1196-1.011-0.1196zm5.091-0.6713h3.932v0.6713h-3.243v2.152h3.215v0.6685h-3.215v2.708h3.215v0.671h-3.904zm5.129 0h3.933v0.6713h-3.244v2.152h3.215v0.6685h-3.215v2.708h3.215v0.671h-3.904zm5.159 0h1.371c0.7634 0 1.282 0.0332 1.553 0.0938 0.4106 0.0938 0.7415 0.2921 0.9962 0.5994 0.2579 0.3073 0.3845 0.6851 0.3845 1.133 0 0.3736-0.0868 0.7013-0.2646 0.9839-0.175 0.284-0.4272 0.4974-0.755 0.6435-0.3267 0.145-0.78 0.218-1.357 0.2219l2.474 3.196h-0.8449l-2.472-3.196h-0.3955v3.196h-0.689zm0.689 0.6713v2.333l1.187 0.01c0.46 0 0.8005-0.0427 1.02-0.1295 0.2205-0.0882 0.3926-0.2272 0.5168-0.4177 0.1228-0.1926 0.1845-0.405 0.1845-0.6435 0-0.23-0.0617-0.441-0.1873-0.6283-0.1238-0.1887-0.2879-0.3224-0.4932-0.4039-0.2014-0.0811-0.5401-0.1196-1.013-0.1196zm14.13 0.5965-0.5429 0.4163c-0.2978-0.3888-0.6572-0.6837-1.076-0.8848-0.4173-0.2011-0.8763-0.302-1.379-0.302-0.5472 0-1.054 0.1337-1.522 0.3958-0.4671 0.2646-0.8266 0.6174-1.084 1.061-0.2561 0.4438-0.3859 0.944-0.3859 1.497 0 0.8389 0.2882 1.539 0.8615 2.099 0.5747 0.5609 1.298 0.8417 2.173 0.8417 0.962 0 1.765-0.3761 2.413-1.129l0.5429 0.412c-0.3432 0.4343-0.7705 0.7733-1.283 1.01-0.5112 0.2381-1.084 0.3567-1.716 0.3567-1.202 0-2.151-0.3997-2.844-1.2-0.5828-0.6738-0.8749-1.491-0.8749-2.446 0-1.004 0.3528-1.852 1.058-2.537 0.7056-0.6876 1.589-1.031 2.651-1.031 0.6406 0 1.22 0.1266 1.736 0.3789 0.5168 0.2522 0.9412 0.6064 1.272 1.061zm4.652-1.44c1.041 0 1.91 0.3486 2.61 1.042 0.6999 0.6932 1.051 1.549 1.051 2.562 0 1.007-0.3485 1.86-1.047 2.56-0.7003 0.6999-1.552 1.05-2.558 1.05-1.018 0-1.877-0.3486-2.577-1.046-0.6999-0.6971-1.052-1.541-1.052-2.53 0-0.6604 0.1602-1.272 0.4784-1.836 0.3196-0.562 0.7553-1.004 1.306-1.324 0.55-0.3182 1.147-0.478 1.787-0.478zm0.0303 0.6696c-0.5069 0-0.9878 0.1337-1.444 0.3983-0.4547 0.2646-0.8103 0.6202-1.067 1.068-0.2561 0.4491-0.3831 0.9479-0.3831 1.501 0 0.8142 0.2826 1.503 0.8491 2.064 0.5648 0.5637 1.248 0.8449 2.045 0.8449 0.5348 0 1.027-0.1309 1.48-0.3888 0.4547-0.2575 0.8089-0.6117 1.062-1.06 0.2536-0.4491 0.3806-0.9451 0.3806-1.495 0-0.5443-0.127-1.038-0.3806-1.477-0.2533-0.441-0.6131-0.7923-1.074-1.057-0.46-0.2646-0.9507-0.3983-1.469-0.3983zm7.823-0.4974 3.205 6.871h-0.7387l-1.072-2.258h-2.978l-1.067 2.258h-0.7648l3.243-6.871zm-0.0854 1.441-1.183 2.501h2.359zm10.75-0.1736-0.5419 0.4163c-0.2974-0.3888-0.6572-0.6837-1.076-0.8848-0.4177-0.2011-0.8781-0.302-1.379-0.302-0.5472 0-1.054 0.1337-1.522 0.3958-0.4671 0.2646-0.8283 0.6174-1.084 1.061-0.2565 0.4438-0.3859 0.944-0.3859 1.497 0 0.8389 0.2868 1.539 0.8611 2.099 0.5747 0.5609 1.298 0.8417 2.173 0.8417 0.9617 0 1.765-0.3761 2.413-1.129l0.5419 0.412c-0.3418 0.4343-0.7691 0.7733-1.282 1.01-0.5112 0.2381-1.084 0.3567-1.716 0.3567-1.203 0-2.151-0.3997-2.846-1.2-0.5814-0.6738-0.8735-1.491-0.8735-2.446 0-1.004 0.3528-1.852 1.058-2.537 0.7056-0.6876 1.589-1.031 2.651-1.031 0.641 0 1.22 0.1266 1.736 0.3789 0.5168 0.2522 0.9412 0.6064 1.271 1.061zm1.368-1.268h0.689v2.88h3.501v-2.88h0.6893v6.871h-0.6893v-3.321h-3.501v3.321h-0.689zm6.451 0h0.689v6.871h-0.689zm2.267 6.871v-6.871h0.1489l4.568 5.255v-5.255h0.689v6.871h-0.1559l-4.542-5.209v5.209zm13.71-5.719-0.5334 0.5031c-0.3845-0.3764-0.8047-0.6615-1.262-0.8558-0.459-0.1944-0.9052-0.2921-1.341-0.2921-0.5401 0-1.056 0.1323-1.542 0.3969-0.4904 0.266-0.8696 0.6241-1.138 1.079-0.2688 0.4523-0.4025 0.9303-0.4025 1.436 0 0.5168 0.1379 1.009 0.4163 1.476 0.2769 0.4646 0.6615 0.8297 1.15 1.097 0.4921 0.266 1.027 0.3993 1.611 0.3993 0.7084 0 1.308-0.1983 1.797-0.5951 0.489-0.3983 0.7796-0.9151 0.8706-1.548h-2.191v-0.6696h2.966c-6e-3 1.061-0.3214 1.904-0.9468 2.527-0.6269 0.623-1.462 0.9356-2.512 0.9356-1.272 0-2.279-0.4311-3.023-1.298-0.5708-0.6657-0.8558-1.436-0.8558-2.312 0-0.6477 0.164-1.254 0.4904-1.816 0.3295-0.5581 0.7786-0.9977 1.349-1.313 0.5733-0.3157 1.218-0.4741 1.939-0.4741 0.5842 0 1.134 0.1062 1.65 0.3143 0.515 0.2106 1.018 0.5458 1.509 1.01" fill-opacity=".6319" fill-rule="evenodd"/>
  <path d="m115.3 114.8-3.328 4.704h2.111l4.504-4.704zm-13.78 1.396v23.08h2.132v-23.08zm63.27 0.2191v6.208h-2.916v1.85h2.916v14.8h2.132v-14.8h3.386v-1.85h-3.386v-6.208zm-138.5 0.5648v11.21h2.164v-9.018h3.234c1.578 0 2.674 0.0838 3.297 0.2506 3.919 1.062 4.225 7.366 1.028 9.212h3.371c2.395-4.028 1.044-10.14-3.924-11.36-0.799-0.2-1.86-0.2977-3.178-0.2977zm25.82 5.235c-2.764 0-4.974 1.05-6.62 3.146-0.9315 1.178-1.526 2.477-1.792 3.891h-21.12l-1.863 1.819h38.31l1.609-1.819c-0.2565-1.48-0.8326-2.721-1.697-3.813-1.702-2.146-3.977-3.225-6.826-3.225zm21.15 0c-1.761 0-3.349 0.3868-4.776 1.16-1.421 0.7729-2.538 1.851-3.35 3.229-0.8142 1.381-1.222 2.875-1.222 4.478 0 2.394 0.8684 4.421 2.609 6.094 1.739 1.667 3.929 2.503 6.573 2.503 1.718 0 3.251-0.3294 4.598-0.988 1.344-0.6629 2.415-1.589 3.214-2.785l-1.698-1.118c-1.557 1.943-3.564 2.916-6.021 2.916-1.342 0-2.555-0.2933-3.631-0.8832-1.082-0.5913-1.934-1.422-2.551-2.488-0.6216-1.066-0.9302-2.205-0.9302-3.417 0-1.861 0.6751-3.438 2.017-4.739 1.348-1.301 3.041-1.955 5.08-1.955 2.549 0 4.561 0.973 6.036 2.916l1.698-1.055c-0.5013-0.8312-1.108-1.515-1.829-2.054-0.7165-0.5387-1.588-0.9768-2.612-1.312-1.029-0.3337-2.096-0.5018-3.204-0.5018zm17.8 0c-2.581 0-4.718 0.9298-6.406 2.796-1.537 1.688-2.305 3.684-2.305 5.984 0 2.32 0.8111 4.348 2.436 6.083 1.619 1.735 3.715 2.602 6.276 2.602 2.545 0 4.636-0.867 6.255-2.602 1.625-1.735 2.436-3.763 2.436-6.083 0-2.309-0.7681-4.312-2.305-5.999-1.688-1.855-3.82-2.781-6.386-2.781zm23.1 0c-2.581 0-4.719 0.9298-6.407 2.796-1.537 1.688-2.304 3.684-2.304 5.984 0 2.32 0.8101 4.348 2.435 6.083 1.619 1.735 3.715 2.602 6.276 2.602 2.545 0 4.636-0.867 6.254-2.602 1.625-1.735 2.436-3.763 2.436-6.083 0-2.309-0.7679-4.312-2.304-5.999-1.688-1.855-3.82-2.781-6.386-2.781zm19.32 0c-1.761 0-3.35 0.3868-4.776 1.16-1.422 0.7729-2.54 1.851-3.35 3.229-0.8146 1.381-1.223 2.875-1.223 4.478 0 2.394 0.8668 4.421 2.607 6.094 1.741 1.667 3.929 2.503 6.574 2.503 1.72 0 3.251-0.3294 4.598-0.988 1.344-0.6629 2.414-1.589 3.214-2.785l-1.698-1.118c-1.557 1.943-3.563 2.916-6.019 2.916-1.344 0-2.557-0.2933-3.633-0.8832-1.082-0.5913-1.933-1.422-2.549-2.488-0.6227-1.066-0.9302-2.205-0.9302-3.417 0-1.861 0.6739-3.438 2.016-4.739 1.349-1.301 3.042-1.955 5.08-1.955 2.551 0 4.562 0.973 6.035 2.916l1.698-1.055c-0.5016-0.8312-1.108-1.515-1.829-2.054-0.7151-0.5387-1.589-0.9768-2.613-1.312-1.029-0.3337-2.095-0.5018-3.202-0.5018zm17.74 0c-2.368 0-4.39 0.8516-6.067 2.549-1.683 1.699-2.524 3.747-2.524 6.137 0 2.444 0.8304 4.514 2.498 6.223 1.667 1.704 3.679 2.555 6.03 2.555 1.322 0 2.545-0.2716 3.657-0.816 1.119-0.5429 2.122-1.363 3.021-2.456v2.865h2.132v-16.65h-2.132v3.062c-0.8364-1.166-1.808-2.033-2.91-2.608-1.108-0.5747-2.341-0.8625-3.704-0.8625zm28.26 0c-2.764 0-4.974 1.05-6.62 3.146-1.302 1.645-1.955 3.528-1.955 5.633 0 2.237 0.7686 4.243 2.305 6.019 1.536 1.778 3.663 2.665 6.39 2.665 1.229 0 2.326-0.1837 3.303-0.5545 0.9716-0.3708 1.845-0.9145 2.624-1.619 0.7786-0.7108 1.463-1.647 2.059-2.801l-1.808-0.9508c-0.6534 1.082-1.265 1.86-1.83 2.347-0.5634 0.4851-1.248 0.8727-2.053 1.165-0.8047 0.2935-1.636 0.4392-2.488 0.4392-1.761 0-3.245-0.6158-4.447-1.851-1.196-1.228-1.817-2.806-1.86-4.734h15.05c-0.0208-2.274-0.6366-4.164-1.844-5.68-1.699-2.148-3.977-3.225-6.825-3.225zm-127.3 2.038c0.9938 0 1.945 0.2095 2.848 0.6268 0.9028 0.4177 1.63 0.9677 2.183 1.651 0.5468 0.6812 0.9629 1.586 1.25 2.721h-12.47c0.4436-1.521 1.09-2.661 1.953-3.426 1.181-1.052 2.592-1.574 4.239-1.574zm127.4 0c0.9938 0 1.945 0.2095 2.848 0.6268 0.9028 0.4177 1.63 0.9677 2.184 1.651 0.5486 0.6847 0.966 1.595 1.254 2.738h-12.48c0.4438-1.53 1.092-2.675 1.959-3.443 1.181-1.052 2.592-1.574 4.238-1.574zm-28.13 0.0315c1.849 0 3.406 0.642 4.672 1.933 1.269 1.29 1.901 2.895 1.901 4.814 0 1.258-0.2808 2.392-0.846 3.396-0.5652 1.009-1.368 1.802-2.419 2.394-1.045 0.5898-2.158 0.8832-3.322 0.8832-1.16 0-2.248-0.2974-3.262-0.894-1.013-0.5912-1.818-1.421-2.419-2.488-0.6008-1.065-0.8997-2.184-0.8997-3.35 0-1.181 0.2989-2.298 0.894-3.354 0.5955-1.056 1.395-1.875 2.403-2.456 1.003-0.5856 2.106-0.878 3.298-0.878zm-60.34 0.0305c1.772 0 3.298 0.6529 4.578 1.966 1.286 1.311 1.928 2.9 1.928 4.76 0 1.196-0.292 2.315-0.8723 3.354-0.5856 1.035-1.374 1.834-2.367 2.399-0.9878 0.5634-2.08 0.8459-3.266 0.8459-1.187 0-2.278-0.2826-3.266-0.8459-0.9924-0.5652-1.782-1.364-2.367-2.399-0.5803-1.039-0.8723-2.158-0.8723-3.354 0-1.86 0.638-3.449 1.918-4.76 1.28-1.313 2.805-1.966 4.587-1.966zm23.1 0c1.772 0 3.297 0.6529 4.578 1.966 1.286 1.311 1.928 2.9 1.928 4.76 0 1.196-0.2923 2.315-0.8723 3.354-0.586 1.035-1.374 1.834-2.367 2.399-0.9867 0.5634-2.08 0.8459-3.266 0.8459-1.187 0-2.278-0.2826-3.266-0.8459-0.9924-0.5652-1.782-1.364-2.367-2.399-0.5789-1.039-0.8723-2.158-0.8723-3.354 0-1.86 0.638-3.449 1.918-4.76 1.28-1.313 2.806-1.966 4.588-1.966zm-81.32 7.316 5.087 7.641h2.601l-4.964-7.283-0.2424-0.3586zm-6.546 0.0165v7.625h2.164v-7.625zm17.27 0.0109c0.1393 1.972 0.8984 3.757 2.282 5.355 1.535 1.778 3.663 2.665 6.39 2.665 1.228 0 2.326-0.1837 3.303-0.5545 0.9716-0.3708 1.844-0.9145 2.623-1.619 0.78-0.7108 1.463-1.647 2.059-2.801l-1.807-0.9508c-0.6548 1.082-1.265 1.86-1.83 2.347-0.5634 0.4851-1.248 0.8727-2.053 1.165-0.8047 0.2935-1.636 0.4392-2.488 0.4392-1.761 0-3.245-0.6172-4.447-1.851-1.06-1.087-1.665-2.384-1.822-4.195z" fill-opacity=".239" fill-rule="evenodd"/>
 </g>
</svg>
