<?xml version="1.0" encoding="UTF-8" standalone="no"?>
<svg
   xmlns:dc="http://purl.org/dc/elements/1.1/"
   xmlns:cc="http://creativecommons.org/ns#"
   xmlns:rdf="http://www.w3.org/1999/02/22-rdf-syntax-ns#"
   xmlns:svg="http://www.w3.org/2000/svg"
   xmlns="http://www.w3.org/2000/svg"
   id="svg8"
   version="1.1"
   viewBox="0 0 333.88504 126.13861"
   height="126.13861mm"
   width="333.88504mm">
  <defs
     id="defs2" />
  <metadata
     id="metadata5">
    <rdf:RDF>
      <cc:Work
         rdf:about="">
        <dc:format>image/svg+xml</dc:format>
        <dc:type
           rdf:resource="http://purl.org/dc/dcmitype/StillImage" />
        <dc:title></dc:title>
      </cc:Work>
    </rdf:RDF>
  </metadata>
  <g
     transform="translate(56.440253,-74.23945)"
     id="layer1">
    <path
       id="rect1108"
       d="M -56.440253,74.23945 V 200.37806 H 277.44478 V 74.23945 Z m 171.741963,39.0482 h 3.28714 l -4.5036,4.84891 h -2.11098 z m -13.77848,1.43906 h 2.13165 v 23.7922 h -2.13165 z m 63.26952,0.2259 h 2.13165 v 6.40039 h 3.38636 v 1.90685 h -3.38636 v 15.25906 h -2.13165 v -15.25906 h -2.91558 V 121.353 h 2.91558 z m -138.509372,0.58235 h 5.992916 c 1.317625,0 2.379059,0.10114 3.178101,0.30741 4.967814,1.26138 6.319316,7.55831 3.924308,11.71123 h -3.371887 c 3.196871,-1.90407 2.891163,-8.40287 -1.027845,-9.49802 -0.623004,-0.17204 -1.719499,-0.2584 -3.297473,-0.2584 H 28.44707 v 9.29714 h -2.163692 z m 25.824262,5.39767 c 2.848682,0 5.124141,1.11248 6.825941,3.3246 0.863954,1.12534 1.43955,2.40565 1.696021,3.93145 l -1.608172,1.87541 H 20.707491 l 1.863452,-1.87541 h 21.125326 c 0.265771,-1.4583 0.860071,-2.79822 1.791621,-4.01243 1.645356,-2.1612 3.855384,-3.24362 6.61975,-3.24362 z m 21.147548,0 c 1.107721,0 2.174531,0.17326 3.203938,0.51734 1.023762,0.34517 1.896268,0.79682 2.61276,1.35222 0.720725,0.55575 1.327015,1.26037 1.828313,2.11729 l -1.697572,1.08797 c -1.47461,-2.00336 -3.486118,-3.006 -6.035289,-3.006 -2.038349,0 -3.732183,0.67504 -5.079793,2.01607 -1.342321,1.34139 -2.017448,2.96743 -2.017448,4.88567 0,1.25009 0.308581,2.42381 0.930174,3.52333 0.617363,1.09842 1.468779,1.95524 2.55075,2.56484 1.075971,0.60813 2.288985,0.91053 3.631303,0.91053 2.456744,0 4.463143,-1.00317 6.020303,-3.00652 l 1.697572,1.15242 c -0.799042,1.23336 -1.869509,2.1883 -3.21324,2.87173 -1.34761,0.67906 -2.880305,1.01869 -4.598686,1.01869 -2.644423,0 -4.834049,-0.86137 -6.573242,-2.58029 -1.740255,-1.72475 -2.608109,-3.81446 -2.608109,-6.28264 0,-1.65345 0.407419,-3.1941 1.221629,-4.61768 0.811744,-1.42068 1.929712,-2.53196 3.350702,-3.32886 1.427337,-0.79727 3.014517,-1.19611 4.775935,-1.19611 z m 17.797362,0 c 2.565754,0 4.697612,0.95487 6.385662,2.86693 1.5367,1.73929 2.30425,3.80372 2.30425,6.18461 0,2.39143 -0.8101,4.4827 -2.435,6.27146 -1.61925,1.78875 -3.709621,2.68258 -6.254912,2.68258 -2.56046,0 -4.656336,-0.89383 -6.275586,-2.68258 -1.624894,-1.78876 -2.436027,-3.88003 -2.436027,-6.27146 0,-2.37107 0.768586,-4.42841 2.305286,-6.16915 1.688041,-1.92371 3.825052,-2.88239 6.406327,-2.88239 z m 23.10401,0 c 2.56575,0 4.69779,0.95487 6.38618,2.86693 1.53635,1.73929 2.30425,3.80372 2.30425,6.18461 0,2.39143 -0.81062,4.4827 -2.43551,6.27146 -1.6189,1.78875 -3.70963,2.68258 -6.25492,2.68258 -2.56046,0 -4.65633,-0.89383 -6.27558,-2.68258 -1.6249,-1.78876 -2.43448,-3.88003 -2.43448,-6.27146 0,-2.37107 0.76704,-4.42841 2.30374,-6.16915 1.68804,-1.92371 3.8254,-2.88239 6.40632,-2.88239 z m 19.31769,0 c 1.10772,0 2.17299,0.17326 3.20238,0.51734 1.02377,0.34517 1.89769,0.79682 2.61277,1.35222 0.72073,0.55575 1.32717,1.26037 1.82882,2.11729 l -1.69808,1.08797 c -1.47285,-2.00336 -3.48471,-3.006 -6.03529,-3.006 -2.038,0 -3.73042,0.67504 -5.0798,2.01607 -1.34196,1.34139 -2.01589,2.96743 -2.01589,4.88567 0,1.25009 0.30752,2.42381 0.93017,3.52333 0.61595,1.09842 1.46758,1.95524 2.5492,2.56484 1.07632,0.60813 2.28912,0.91053 3.63285,0.91053 2.45569,0 4.46159,-1.00317 6.01876,-3.00652 l 1.69808,1.15242 c -0.79938,1.23336 -1.87002,2.1883 -3.21375,2.87173 -1.34761,0.67906 -2.8789,1.01869 -4.59869,1.01869 -2.64442,0 -4.83263,-0.86137 -6.57324,-2.58029 -1.74025,-1.72475 -2.60708,-3.81446 -2.60708,-6.28264 0,-1.65345 0.40811,-3.1941 1.22267,-4.61768 0.81033,-1.42068 1.92762,-2.53196 3.34966,-3.32886 1.42629,-0.79727 3.01539,-1.19611 4.77646,-1.19611 z m 17.73948,0 c 1.36278,0 2.5961,0.29673 3.70417,0.88922 1.10243,0.5925 2.07397,1.48637 2.91042,2.68846 V 121.353 h 2.13165 v 17.16591 h -2.13165 v -2.95378 c -0.89854,1.1268 -1.902,1.97204 -3.02101,2.5318 -1.11195,0.56121 -2.33564,0.84128 -3.65714,0.84128 -2.35092,0 -4.3629,-0.87824 -6.03012,-2.63463 -1.66759,-1.76148 -2.49856,-3.89565 -2.49856,-6.41584 0,-2.46381 0.84216,-4.57484 2.52491,-6.32687 1.67711,-1.7502 3.69983,-2.62824 6.06733,-2.62824 z m 28.26081,0 c 2.84868,0 5.12645,1.10956 6.82542,3.3246 1.20721,1.56289 1.82301,3.51226 1.84382,5.85641 h -15.04973 c 0.043,1.98771 0.66408,3.61424 1.86035,4.88034 1.20156,1.27301 2.68569,1.90791 4.44676,1.90791 0.8516,0 1.68302,-0.15026 2.4877,-0.45287 0.80469,-0.30116 1.48972,-0.70079 2.05311,-1.2009 0.56515,-0.50157 1.17703,-1.30423 1.83038,-2.41939 l 1.80764,0.98033 c -0.59549,1.19044 -1.28021,2.15535 -2.05879,2.88824 -0.77858,0.72634 -1.65258,1.28697 -2.62413,1.66923 -0.97684,0.38227 -2.0732,0.57168 -3.30264,0.57168 -2.72697,0 -4.85344,-0.91536 -6.38979,-2.74813 -1.5367,-1.83131 -2.30581,-3.89995 -2.30581,-6.20591 0,-2.17067 0.65298,-4.11154 1.95544,-5.80792 1.64535,-2.1612 3.8559,-3.24362 6.62027,-3.24362 z m -127.334858,2.10132 c -1.646767,0 -3.058272,0.5381 -4.23902,1.62234 -0.863904,0.78851 -1.509199,1.9641 -1.952852,3.53239 h 12.472625 c -0.286679,-1.17096 -0.702633,-2.10372 -1.249537,-2.8062 -0.552802,-0.70453 -1.280055,-1.27163 -2.182813,-1.70226 -0.903817,-0.43028 -1.854628,-0.64627 -2.848403,-0.64627 z m 127.366378,0 c -1.64677,0 -3.05776,0.5381 -4.2385,1.62234 -0.86678,0.79145 -1.51475,1.97235 -1.95854,3.54943 h 12.484 c -0.28822,-1.17917 -0.70562,-2.11727 -1.25419,-2.82324 -0.55386,-0.70453 -1.2816,-1.27163 -2.18436,-1.70226 -0.90382,-0.43028 -1.85463,-0.64627 -2.84841,-0.64627 z m -28.12541,0.0325 c -1.19204,0 -2.29469,0.30144 -3.29799,0.90521 -1.00859,0.59831 -1.80798,1.44356 -2.40347,2.5318 -0.59514,1.08824 -0.894,2.24061 -0.894,3.45833 0,1.20209 0.2989,2.35512 0.89968,3.45354 0.60078,1.09951 1.40528,1.95526 2.41846,2.56484 1.01423,0.61505 2.10152,0.92172 3.26182,0.92172 1.16416,0 2.27822,-0.3024 3.32279,-0.91053 1.05128,-0.6096 1.85434,-1.42801 2.41949,-2.46788 0.56515,-1.03441 0.84594,-2.20393 0.84594,-3.50095 0,-1.97789 -0.63223,-3.63281 -1.90117,-4.96292 -1.26506,-1.33121 -2.82229,-1.99316 -4.67155,-1.99316 z m -60.338951,0.0314 c -1.781881,0 -3.307088,0.67313 -4.587316,2.02725 -1.280232,1.35121 -1.918748,2.98963 -1.918748,4.90752 0,1.23336 0.292497,2.38718 0.872815,3.45833 0.585611,1.06714 1.374934,1.89053 2.367299,2.4732 0.988131,0.58086 2.079204,0.87217 3.26595,0.87217 1.186389,0 2.278171,-0.29131 3.265951,-0.87217 0.993772,-0.58267 1.781682,-1.40606 2.367292,-2.4732 0.58033,-1.07115 0.8723,-2.22497 0.8723,-3.45833 0,-1.91789 -0.64217,-3.55631 -1.92804,-4.90752 -1.280236,-1.35412 -2.805501,-2.02725 -4.577503,-2.02725 z m 23.104011,0 c -1.78188,0 -3.30708,0.67313 -4.58732,2.02725 -1.28022,1.35121 -1.91823,2.98963 -1.91823,4.90752 0,1.23336 0.29339,2.38718 0.8723,3.45833 0.58561,1.06714 1.37493,1.89053 2.3673,2.4732 0.98813,0.58086 2.07921,0.87217 3.26595,0.87217 1.1864,0 2.27923,-0.29131 3.26595,-0.87217 0.99342,-0.58267 1.78186,-1.40606 2.36782,-2.4732 0.57996,-1.07115 0.87178,-2.22497 0.87178,-3.45833 0,-1.91789 -0.64166,-3.55631 -1.92753,-4.90752 -1.28023,-1.35412 -2.80601,-2.02725 -4.57802,-2.02725 z m -81.316478,7.5427 h 2.481502 l 0.242879,0.36975 4.963521,7.50858 h -2.601391 z m -6.545854,0.017 h 2.163692 v 7.86129 h -2.163692 z m 17.272331,0.0112 h 2.210718 c 0.156986,1.86695 0.76185,3.2042 1.821593,4.32517 1.201563,1.27155 2.68569,1.90791 4.446757,1.90791 0.851606,0 1.682501,-0.15026 2.487186,-0.45287 0.804688,-0.30116 1.490237,-0.70079 2.053622,-1.2009 0.56515,-0.50157 1.175107,-1.30423 1.829864,-2.41939 l 1.806606,0.98033 c -0.595487,1.19044 -1.278797,2.15535 -2.058789,2.88824 -0.778581,0.72634 -1.651029,1.28697 -2.622579,1.66923 -0.976841,0.38227 -2.075137,0.57168 -3.303156,0.57168 -2.726973,0 -4.854855,-0.91536 -6.38979,-2.74813 -1.383597,-1.648 -2.142686,-3.48809 -2.282032,-5.52127 z"
       style="opacity:0.99299999;fill:#ffffff;fill-opacity:0.75294118;stroke:none;stroke-width:0.5188362;stroke-miterlimit:4;stroke-dasharray:none;stroke-dashoffset:0;stroke-opacity:1" />
    <path
       d="m 66.261314,144.65749 h 0.688975 v 4.63726 c 0,0.71367 -0.05503,1.20862 -0.1651,1.48837 -0.111831,0.27693 -0.294922,0.5013 -0.555625,0.66675 -0.257528,0.16687 -0.571853,0.24942 -0.938389,0.24942 -0.278342,0 -0.55245,-0.0536 -0.821267,-0.16122 -0.270227,-0.10619 -0.570441,-0.29351 -0.897113,-0.5648 l 0.363713,-0.54575 c 0.359834,0.25083 0.658637,0.42722 0.895703,0.52917 0.157339,0.0688 0.310092,0.10195 0.460375,0.10195 0.195792,0 0.375003,-0.0593 0.534811,-0.17639 0.162631,-0.11853 0.27552,-0.27552 0.33902,-0.47272 0.06315,-0.19579 0.0949,-0.57467 0.0949,-1.13841 z m 5.629275,-0.17216 c 1.040341,0 1.909939,0.34855 2.610203,1.04176 0.699911,0.6932 1.051277,1.54904 1.051277,2.56187 0,1.00718 -0.348544,1.8602 -1.047397,2.56046 -0.699911,0.69991 -1.551517,1.04987 -2.557639,1.04987 -1.018116,0 -1.876777,-0.34855 -2.576689,-1.04599 -0.700263,-0.69709 -1.05163,-1.54058 -1.05163,-2.52977 0,-0.6604 0.159808,-1.27212 0.478367,-1.83585 0.319616,-0.56198 0.754944,-1.00436 1.306336,-1.32433 0.549627,-0.31821 1.146527,-0.47802 1.787172,-0.47802 z m 0.03034,0.66958 c -0.506942,0 -0.988131,0.1337 -1.444272,0.39828 -0.454731,0.26459 -0.810331,0.62019 -1.066448,1.06821 -0.256469,0.44909 -0.383116,0.94792 -0.383116,1.50072 0,0.81421 0.282575,1.50319 0.847372,2.0641 0.566561,0.56374 1.24848,0.84491 2.046464,0.84491 0.534811,0 1.026583,-0.13089 1.479902,-0.38877 0.454731,-0.25752 0.80892,-0.61171 1.062567,-1.05974 0.253647,-0.44909 0.380295,-0.94509 0.380295,-1.49507 0,-0.54434 -0.126648,-1.03752 -0.380295,-1.47744 -0.253647,-0.44097 -0.613128,-0.79233 -1.073503,-1.05692 -0.461433,-0.26458 -0.950736,-0.39828 -1.468966,-0.39828 z m 5.029905,-0.49742 h 1.353256 c 0.545747,0 0.964494,0.0649 1.256594,0.19297 0.293511,0.12947 0.525286,0.32949 0.693208,0.5969 0.171098,0.26705 0.25647,0.5648 0.25647,0.89006 0,0.30586 -0.07585,0.58279 -0.22472,0.83361 -0.147461,0.25083 -0.366536,0.45332 -0.653344,0.60925 0.357011,0.12135 0.631472,0.26317 0.823031,0.42721 0.192616,0.16263 0.341488,0.35948 0.447675,0.59232 0.107597,0.23177 0.161219,0.48401 0.161219,0.75529 0,0.55139 -0.201083,1.01847 -0.603603,1.40018 -0.403578,0.3817 -0.944033,0.57326 -1.62313,0.57326 h -1.886656 z m 0.669572,0.67134 v 2.19921 h 0.394406 c 0.478014,0 0.830792,-0.0441 1.055511,-0.13229 0.224367,-0.0896 0.402167,-0.23001 0.533047,-0.42016 0.132292,-0.19156 0.198614,-0.40534 0.198614,-0.63817 0,-0.31433 -0.110419,-0.56233 -0.330905,-0.74154 -0.221545,-0.17886 -0.571853,-0.26705 -1.0541,-0.26705 z m 0,2.88819 v 2.64054 h 0.853017 c 0.50165,0 0.871008,-0.0497 1.105253,-0.1464 0.234244,-0.0991 0.421569,-0.2533 0.56515,-0.46285 0.140405,-0.20814 0.21343,-0.43427 0.21343,-0.67663 0,-0.30727 -0.100541,-0.57467 -0.300214,-0.80186 -0.200025,-0.22754 -0.474133,-0.38312 -0.822677,-0.46884 -0.234245,-0.055 -0.642409,-0.084 -1.225198,-0.084 z m 12.655903,0.77434 0.474133,0.50024 c -0.303036,0.25788 -0.588433,0.48401 -0.855839,0.68086 0.180623,0.17216 0.421923,0.4064 0.724959,0.70415 0.234244,0.23848 0.439561,0.45473 0.61595,0.65193 h -0.959203 l -0.912283,-0.93451 c -0.571853,0.45756 -1.036109,0.75671 -1.394531,0.89571 -0.356658,0.14075 -0.735894,0.20955 -1.132769,0.20955 -0.529167,0 -0.953559,-0.15029 -1.273175,-0.45473 -0.321028,-0.30163 -0.480836,-0.67945 -0.480836,-1.13277 0,-0.34185 0.107244,-0.68333 0.322438,-1.02659 0.214842,-0.34325 0.652992,-0.77717 1.315862,-1.3021 -0.37077,-0.45473 -0.607484,-0.79234 -0.715081,-1.00894 -0.104775,-0.21626 -0.156986,-0.4244 -0.156986,-0.62125 0,-0.34325 0.132292,-0.62723 0.395464,-0.8516 0.304447,-0.26353 0.68333,-0.39441 1.13665,-0.39441 0.286808,0 0.547158,0.0565 0.782814,0.17251 0.235655,0.11571 0.416277,0.26988 0.540102,0.46567 0.124178,0.19438 0.186267,0.40111 0.186267,0.62018 0,0.2286 -0.08008,0.47519 -0.2413,0.73448 -0.162631,0.26177 -0.483658,0.59373 -0.960614,0.99907 l 1.043164,1.09255 0.680861,0.69039 c 0.363714,-0.27552 0.651933,-0.50412 0.863953,-0.69039 z m -3.012369,-1.60655 c 0.332316,-0.25788 0.584552,-0.51117 0.751063,-0.762 0.118534,-0.17638 0.1778,-0.33513 0.1778,-0.47272 0,-0.15734 -0.07726,-0.29492 -0.231422,-0.41063 -0.153105,-0.11465 -0.357011,-0.17251 -0.612069,-0.17251 -0.242359,0 -0.440972,0.0593 -0.593725,0.17639 -0.151695,0.11994 -0.227542,0.2607 -0.227542,0.42192 0,0.12383 0.03034,0.24236 0.09243,0.34996 0.153105,0.26458 0.366536,0.55527 0.643467,0.86959 z m -0.09102,0.91617 c -0.579967,0.43991 -0.960261,0.78705 -1.140883,1.0474 -0.180623,0.25788 -0.270228,0.49882 -0.270228,0.71931 0,0.25929 0.110419,0.49071 0.332316,0.6918 0.221898,0.19861 0.493184,0.29915 0.813153,0.29915 0.24377,0 0.480836,-0.0512 0.716492,-0.15169 0.367947,-0.15981 0.786694,-0.42722 1.260828,-0.80469 l -1.084439,-1.10807 c -0.186267,-0.19826 -0.395464,-0.42722 -0.627239,-0.69321 z m 14.19119,-2.37561 -0.54292,0.41628 c -0.29775,-0.38876 -0.65582,-0.68368 -1.076329,-0.88477 -0.417336,-0.20108 -0.8763,-0.30197 -1.379361,-0.30197 -0.547158,0 -1.052689,0.1337 -1.520119,0.39581 -0.468489,0.26459 -0.82797,0.61736 -1.084439,1.06081 -0.257528,0.44379 -0.385939,0.94403 -0.385939,1.49683 0,0.83891 0.286808,1.53917 0.860072,2.09868 0.574675,0.56091 1.299634,0.84172 2.174522,0.84172 0.960614,0 1.765303,-0.37606 2.411593,-1.12853 l 0.54292,0.41204 c -0.34325,0.43427 -0.77047,0.77329 -1.28305,1.01036 -0.511177,0.23812 -1.083029,0.35666 -1.71556,0.35666 -1.201561,0 -2.151239,-0.3997 -2.844094,-1.20015 -0.581731,-0.67381 -0.873831,-1.4912 -0.873831,-2.44616 0,-1.00436 0.352778,-1.85209 1.056922,-2.53683 0.706967,-0.68756 1.590323,-1.03082 2.652889,-1.03082 0.640645,0 1.219553,0.12665 1.736024,0.37889 0.51681,0.25223 0.94015,0.60642 1.2707,1.06115 z m 4.19065,-1.26788 3.20534,6.87105 h -0.73872 l -1.0735,-2.25848 h -2.97639 l -1.0668,2.25848 h -0.76623 l 3.24415,-6.87105 z m -0.0868,1.44145 -1.1811,2.50119 h 2.35938 z m 4.38891,-1.44145 h 1.37124 c 0.76483,0 1.28306,0.0332 1.55293,0.0938 0.41063,0.0938 0.74154,0.2921 0.9966,0.59937 0.25753,0.30727 0.38417,0.68509 0.38417,1.13277 0,0.37359 -0.0868,0.70132 -0.26458,0.98389 -0.17498,0.28399 -0.42721,0.49742 -0.75494,0.64347 -0.32668,0.14499 -0.78,0.21802 -1.35749,0.2219 l 2.47367,3.19581 h -0.84349 l -2.47367,-3.19581 h -0.39547 v 3.19581 h -0.68897 z m 0.68897,0.67134 v 2.33291 l 1.18675,0.01 c 0.46002,0 0.80045,-0.0427 1.02093,-0.12947 0.21908,-0.0882 0.39159,-0.22719 0.51541,-0.41769 0.12277,-0.19262 0.18592,-0.40499 0.18592,-0.64347 0,-0.23001 -0.0631,-0.44097 -0.18874,-0.62829 -0.12382,-0.18874 -0.28787,-0.32244 -0.49318,-0.40393 -0.20109,-0.0811 -0.54011,-0.11959 -1.01142,-0.11959 z m 5.09058,-0.67134 h 3.93171 v 0.67134 h -3.24273 v 2.15229 h 3.21486 v 0.66852 h -3.21486 v 2.70792 h 3.21486 v 0.67098 h -3.90384 z m 5.12904,0 h 3.93312 v 0.67134 h -3.24414 v 2.15229 h 3.21521 v 0.66852 h -3.21521 v 2.70792 h 3.21521 v 0.67098 h -3.90419 z m 5.15938,0 h 1.37124 c 0.76341,0 1.28164,0.0332 1.55293,0.0938 0.41063,0.0938 0.74154,0.2921 0.99624,0.59937 0.25789,0.30727 0.38453,0.68509 0.38453,1.13277 0,0.37359 -0.0868,0.70132 -0.26458,0.98389 -0.17498,0.28399 -0.42721,0.49742 -0.75495,0.64347 -0.32667,0.14499 -0.77999,0.21802 -1.35748,0.2219 l 2.47367,3.19581 h -0.8449 l -2.47227,-3.19581 h -0.39546 v 3.19581 h -0.68897 z m 0.68897,0.67134 v 2.33291 l 1.18674,0.01 c 0.46003,0 0.80046,-0.0427 1.01953,-0.12947 0.22049,-0.0882 0.39264,-0.22719 0.51682,-0.41769 0.12277,-0.19262 0.1845,-0.40499 0.1845,-0.64347 0,-0.23001 -0.0617,-0.44097 -0.18732,-0.62829 -0.12383,-0.18874 -0.28787,-0.32244 -0.49318,-0.40393 -0.20144,-0.0811 -0.54011,-0.11959 -1.01283,-0.11959 z m 14.13051,0.59654 -0.54292,0.41628 c -0.29775,-0.38876 -0.65723,-0.68368 -1.07633,-0.88477 -0.41733,-0.20108 -0.8763,-0.30197 -1.37936,-0.30197 -0.54716,0 -1.0541,0.1337 -1.52153,0.39581 -0.46708,0.26459 -0.82656,0.61736 -1.08444,1.06081 -0.25611,0.44379 -0.38594,0.94403 -0.38594,1.49683 0,0.83891 0.28822,1.53917 0.86149,2.09868 0.57467,0.56091 1.29822,0.84172 2.17311,0.84172 0.96202,0 1.7653,-0.37606 2.413,-1.12853 l 0.54292,0.41204 c -0.34325,0.43427 -0.77046,0.77329 -1.28305,1.01036 -0.51117,0.23812 -1.08444,0.35666 -1.71556,0.35666 -1.20156,0 -2.15124,-0.3997 -2.84444,-1.20015 -0.58279,-0.67381 -0.87489,-1.4912 -0.87489,-2.44616 0,-1.00436 0.35277,-1.85209 1.05833,-2.53683 0.70556,-0.68756 1.58891,-1.03082 2.65148,-1.03082 0.64064,0 1.21955,0.12665 1.73602,0.37889 0.51682,0.25223 0.94121,0.60642 1.27211,1.06115 z m 4.65208,-1.44004 c 1.0407,0 1.9103,0.34855 2.61021,1.04176 0.69991,0.6932 1.05127,1.54904 1.05127,2.56187 0,1.00718 -0.34854,1.8602 -1.04704,2.56046 -0.70026,0.69991 -1.55187,1.04987 -2.55764,1.04987 -1.01847,0 -1.87713,-0.34855 -2.57704,-1.04599 -0.69991,-0.69709 -1.05163,-1.54058 -1.05163,-2.52977 0,-0.6604 0.16016,-1.27212 0.47837,-1.83585 0.31961,-0.56198 0.75529,-1.00436 1.30633,-1.32433 0.54998,-0.31821 1.14653,-0.47802 1.78717,-0.47802 z m 0.0303,0.66958 c -0.50694,0 -0.98777,0.1337 -1.44392,0.39828 -0.45473,0.26459 -0.81033,0.62019 -1.0668,1.06821 -0.25611,0.44909 -0.38311,0.94792 -0.38311,1.50072 0,0.81421 0.28257,1.50319 0.84913,2.0641 0.5648,0.56374 1.24848,0.84491 2.0447,0.84491 0.53481,0 1.02694,-0.13089 1.48026,-0.38877 0.45473,-0.25752 0.80892,-0.61171 1.06221,-1.05974 0.25365,-0.44909 0.38065,-0.94509 0.38065,-1.49507 0,-0.54434 -0.127,-1.03752 -0.38065,-1.47744 -0.25329,-0.44097 -0.61313,-0.79233 -1.0735,-1.05692 -0.46002,-0.26458 -0.95074,-0.39828 -1.46897,-0.39828 z m 7.8232,-0.49742 3.20534,6.87105 h -0.73871 l -1.0721,-2.25848 h -2.97779 l -1.0668,2.25848 h -0.76483 l 3.24274,-6.87105 z m -0.0854,1.44145 -1.18251,2.50119 h 2.35938 z m 10.7502,-0.17357 -0.54187,0.41628 c -0.29739,-0.38876 -0.65722,-0.68368 -1.07597,-0.88477 -0.41769,-0.20108 -0.87806,-0.30197 -1.37936,-0.30197 -0.54716,0 -1.05445,0.1337 -1.52153,0.39581 -0.46708,0.26459 -0.82832,0.61736 -1.08444,1.06081 -0.25647,0.44379 -0.38594,0.94403 -0.38594,1.49683 0,0.83891 0.28681,1.53917 0.86113,2.09868 0.57468,0.56091 1.29822,0.84172 2.17346,0.84172 0.96168,0 1.7653,-0.37606 2.41265,-1.12853 l 0.54187,0.41204 c -0.34184,0.43427 -0.76906,0.77329 -1.28164,1.01036 -0.51118,0.23812 -1.08444,0.35666 -1.71556,0.35666 -1.20333,0 -2.15124,-0.3997 -2.84586,-1.20015 -0.58138,-0.67381 -0.87348,-1.4912 -0.87348,-2.44616 0,-1.00436 0.35278,-1.85209 1.05834,-2.53683 0.70555,-0.68756 1.58855,-1.03082 2.65112,-1.03082 0.641,0 1.21955,0.12665 1.73637,0.37889 0.51682,0.25223 0.94121,0.60642 1.27071,1.06115 z m 1.36842,-1.26788 h 0.68898 v 2.88008 h 3.50132 v -2.88008 h 0.68932 v 6.87105 h -0.68932 v -3.32105 h -3.50132 v 3.32105 h -0.68898 z m 6.45054,0 h 0.68898 v 6.87105 h -0.68898 z m 2.2666,6.87105 v -6.87105 h 0.14887 l 4.56848,5.25462 v -5.25462 h 0.68897 v 6.87105 h -0.15593 l -4.54201,-5.20911 v 5.20911 z m 13.70895,-5.71888 -0.5334,0.50306 c -0.38453,-0.37641 -0.80469,-0.66146 -1.26224,-0.85584 -0.45897,-0.19438 -0.90523,-0.2921 -1.34091,-0.2921 -0.5401,0 -1.05551,0.1323 -1.54199,0.39688 -0.49036,0.26599 -0.8696,0.62406 -1.13806,1.07879 -0.26882,0.45226 -0.40252,0.93028 -0.40252,1.43616 0,0.51682 0.13793,1.00859 0.41627,1.47567 0.27693,0.46461 0.66146,0.82973 1.15041,1.09714 0.49213,0.26599 1.02694,0.39934 1.61114,0.39934 0.70838,0 1.30775,-0.19826 1.79705,-0.59513 0.48895,-0.39829 0.77964,-0.91511 0.87065,-1.54764 h -2.1911 v -0.66957 h 2.9658 c -0.006,1.06116 -0.32138,1.90429 -0.94685,2.5273 -0.62689,0.62301 -1.46227,0.93557 -2.51213,0.93557 -1.27212,0 -2.2793,-0.4311 -3.02331,-1.29787 -0.57079,-0.66569 -0.85584,-1.43616 -0.85584,-2.31246 0,-0.6477 0.16405,-1.25413 0.49036,-1.81645 0.3295,-0.5581 0.77859,-0.99766 1.34938,-1.31304 0.57326,-0.31574 1.21814,-0.47414 1.93887,-0.47414 0.5842,0 1.13418,0.10619 1.64959,0.31433 0.51505,0.21061 1.01811,0.54575 1.50883,1.01"
       style="fill:#000000;fill-opacity:0.63186813;fill-rule:evenodd;stroke:none;stroke-width:0.35277778"
       id="path870" />
    <path
       id="path850"
       d="m 115.26881,114.79104 -3.32796,4.70359 h 2.11098 l 4.50361,-4.70359 z m -13.779,1.3963 v 23.07663 h 2.13165 v -23.07663 z m 63.26952,0.21911 v 6.20789 h -2.91558 v 1.8495 h 2.91558 v 14.80013 h 2.13217 v -14.80013 h 3.38584 v -1.8495 h -3.38584 v -6.20789 z m -138.509371,0.56482 v 11.21172 h 2.163692 v -9.01754 h 3.234428 c 1.577974,0 2.674468,0.0838 3.297473,0.25063 3.919008,1.0622 4.225233,7.36556 1.028361,9.21236 h 3.37137 c 2.395009,-4.02802 1.043508,-10.13607 -3.924308,-11.35951 -0.799042,-0.20004 -1.860476,-0.29766 -3.1781,-0.29766 z m 25.824263,5.23534 c -2.764366,0 -4.974395,1.04986 -6.619751,3.14606 -0.931516,1.17765 -1.525835,2.47687 -1.791622,3.89124 H 22.538041 l -1.863452,1.81901 h 38.313423 l 1.608688,-1.81901 c -0.256471,-1.47991 -0.832585,-2.72119 -1.696538,-3.81269 -1.7018,-2.14559 -3.977258,-3.22461 -6.82594,-3.22461 z m 21.148064,0 c -1.761411,0 -3.349114,0.38685 -4.776454,1.16014 -1.42099,0.77293 -2.538434,1.85079 -3.350183,3.22874 -0.814211,1.38077 -1.222148,2.87456 -1.222148,4.47828 0,2.39395 0.868376,4.42132 2.608628,6.0942 1.739199,1.66722 3.928821,2.50269 6.573242,2.50269 1.718379,0 3.250557,-0.32941 4.598167,-0.98805 1.343731,-0.66287 2.414717,-1.58909 3.213759,-2.78536 l -1.697572,-1.11776 c -1.557171,1.9431 -3.56407,2.9161 -6.020821,2.9161 -1.342319,0 -2.554817,-0.29331 -3.630785,-0.88315 -1.081971,-0.59126 -1.933905,-1.42232 -2.551266,-2.48771 -0.621591,-1.06645 -0.930177,-2.20486 -0.930177,-3.41736 0,-1.86055 0.67513,-3.4382 2.017448,-4.73924 1.347621,-1.3007 3.041444,-1.95544 5.079794,-1.95544 2.54917,0 4.561186,0.973 6.035807,2.9161 l 1.697572,-1.05523 c -0.501301,-0.83115 -1.108099,-1.51458 -1.828829,-2.05362 -0.716492,-0.53869 -1.588484,-0.97676 -2.612245,-1.31155 -1.029398,-0.33373 -2.096209,-0.50178 -3.203937,-0.50178 z m 17.796846,0 c -2.58127,0 -4.718288,0.92985 -6.406327,2.7957 -1.5367,1.68839 -2.305286,3.68385 -2.305286,5.98361 0,2.31951 0.811136,4.34787 2.436027,6.08283 1.61925,1.73496 3.715125,2.60191 6.275586,2.60191 2.545299,0 4.635664,-0.86695 6.254914,-2.60191 1.624901,-1.73496 2.43551,-3.76332 2.43551,-6.08283 0,-2.30928 -0.768069,-4.31162 -2.304769,-5.9986 -1.688039,-1.85456 -3.819896,-2.78071 -6.385655,-2.78071 z m 23.104528,0 c -2.58092,0 -4.7188,0.92985 -6.40684,2.7957 -1.5367,1.68839 -2.30374,3.68385 -2.30374,5.98361 0,2.31951 0.8101,4.34787 2.435,6.08283 1.61925,1.73496 3.71512,2.60191 6.27558,2.60191 2.54529,0 4.6355,-0.86695 6.2544,-2.60191 1.62489,-1.73496 2.43551,-3.76332 2.43551,-6.08283 0,-2.30928 -0.76789,-4.31162 -2.30425,-5.9986 -1.68838,-1.85456 -3.81991,-2.78071 -6.38566,-2.78071 z m 19.31717,0 c -1.76107,0 -3.34965,0.38685 -4.77594,1.16014 -1.42205,0.77293 -2.53985,1.85079 -3.35018,3.22874 -0.81456,1.38077 -1.22266,2.87456 -1.22266,4.47828 0,2.39395 0.86682,4.42132 2.60707,6.0942 1.74061,1.66722 3.92933,2.50269 6.57376,2.50269 1.71979,0 3.25056,-0.32941 4.59817,-0.98805 1.34373,-0.66287 2.41437,-1.58909 3.21376,-2.78536 l -1.69809,-1.11776 c -1.55717,1.9431 -3.56306,2.9161 -6.01875,2.9161 -1.34373,0 -2.55654,-0.29331 -3.63286,-0.88315 -1.08162,-0.59126 -1.93324,-1.42232 -2.54919,-2.48771 -0.62266,-1.06645 -0.93018,-2.20486 -0.93018,-3.41736 0,-1.86055 0.67394,-3.4382 2.0159,-4.73924 1.34938,-1.3007 3.04179,-1.95544 5.07979,-1.95544 2.55058,0 4.56244,0.973 6.03529,2.9161 l 1.69809,-1.05523 c -0.50165,-0.83115 -1.1081,-1.51458 -1.82883,-2.05362 -0.71508,-0.53869 -1.589,-0.97676 -2.61276,-1.31155 -1.0294,-0.33373 -2.09467,-0.50178 -3.20239,-0.50178 z m 17.73949,0 c -2.3675,0 -4.39022,0.85164 -6.06733,2.5492 -1.68275,1.69933 -2.5244,3.74686 -2.5244,6.13658 0,2.44439 0.83045,4.51437 2.49804,6.22287 1.66722,1.70357 3.67921,2.5554 6.03012,2.5554 1.3215,0 2.54519,-0.27164 3.65715,-0.81597 1.11901,-0.54293 2.12247,-1.36275 3.021,-2.45566 v 2.86494 h 2.13165 v -16.64963 h -2.13165 v 3.06234 c -0.83644,-1.16593 -1.80799,-2.03291 -2.91042,-2.60759 -1.10807,-0.57467 -2.34138,-0.86248 -3.70416,-0.86248 z m 28.2608,0 c -2.76437,0 -4.9744,1.04986 -6.61975,3.14606 -1.30246,1.64536 -1.95543,3.52787 -1.95543,5.63325 0,2.23661 0.76858,4.24303 2.30528,6.01927 1.53635,1.77764 3.66282,2.66547 6.38979,2.66547 1.22944,0 2.32632,-0.18372 3.30316,-0.55449 0.97155,-0.37077 1.84503,-0.91452 2.62361,-1.61902 0.77858,-0.71085 1.4633,-1.64674 2.05879,-2.80138 l -1.80764,-0.95085 c -0.65335,1.08162 -1.26523,1.86015 -1.83038,2.34663 -0.56339,0.48507 -1.24841,0.87269 -2.0531,1.16479 -0.80468,0.29351 -1.63611,0.43925 -2.48771,0.43925 -1.76107,0 -3.2452,-0.61581 -4.44676,-1.85053 -1.19626,-1.22803 -1.81735,-2.80564 -1.86035,-4.73357 h 15.04973 c -0.0208,-2.27365 -0.6366,-4.16438 -1.84381,-5.68027 -1.69897,-2.14842 -3.97675,-3.22461 -6.82543,-3.22461 z m -127.334859,2.03812 c 0.993775,0 1.944588,0.20949 2.848405,0.62683 0.902758,0.41768 1.630011,0.96773 2.182813,1.65107 0.546824,0.68124 0.962862,1.58577 1.249536,2.72128 H 45.914391 c 0.443648,-1.52089 1.089552,-2.66091 1.953369,-3.42563 1.180748,-1.05163 2.591734,-1.57355 4.238501,-1.57355 z m 127.366389,0 c 0.99378,0 1.94458,0.20949 2.8484,0.62683 0.90276,0.41768 1.6305,0.96773 2.18436,1.65107 0.54857,0.68474 0.96597,1.59462 1.25419,2.73833 h -12.48399 c 0.44379,-1.52965 1.09176,-2.67503 1.95854,-3.44268 1.18074,-1.05163 2.59173,-1.57355 4.2385,-1.57355 z m -28.12542,0.0315 c 1.84926,0 3.40649,0.64205 4.67155,1.93322 1.26894,1.29011 1.90118,2.89526 1.90118,4.81366 0,1.25801 -0.2808,2.39235 -0.84595,3.39565 -0.56515,1.0086 -1.36821,1.8024 -2.41949,2.39366 -1.04457,0.58984 -2.1581,0.88315 -3.32227,0.88315 -1.16029,0 -2.24759,-0.29745 -3.26182,-0.89401 -1.01318,-0.59124 -1.81819,-1.42125 -2.41898,-2.4877 -0.60077,-1.06538 -0.89968,-2.18425 -0.89968,-3.35018 0,-1.1811 0.29886,-2.29829 0.894,-3.3538 0.59549,-1.05551 1.39488,-1.87535 2.40347,-2.45567 1.0033,-0.58561 2.10595,-0.87798 3.29799,-0.87798 z m -60.338952,0.0305 c 1.77201,0 3.297786,0.6529 4.578017,1.96629 1.28587,1.31057 1.927529,2.89972 1.927529,4.75992 0,1.19626 -0.291978,2.31486 -0.872297,3.3538 -0.58561,1.03505 -1.373528,1.83418 -2.367298,2.39933 -0.98778,0.56339 -2.079551,0.84594 -3.265951,0.84594 -1.186738,0 -2.277819,-0.28255 -3.26595,-0.84594 -0.99237,-0.56515 -1.781686,-1.36428 -2.367296,-2.39933 -0.580321,-1.03894 -0.872299,-2.15754 -0.872299,-3.3538 0,-1.8602 0.638,-3.44935 1.918229,-4.75992 1.280231,-1.31339 2.805438,-1.96629 4.587316,-1.96629 z m 23.104532,0 c 1.77201,0 3.29728,0.6529 4.5775,1.96629 1.28588,1.31057 1.92805,2.89972 1.92805,4.75992 0,1.19626 -0.29233,2.31486 -0.8723,3.3538 -0.58597,1.03505 -1.37388,1.83418 -2.3673,2.39933 -0.98672,0.56339 -2.07955,0.84594 -3.26595,0.84594 -1.18674,0 -2.27833,-0.28255 -3.26647,-0.84594 -0.99237,-0.56515 -1.78168,-1.36428 -2.36729,-2.39933 -0.57891,-1.03894 -0.8723,-2.15754 -0.8723,-3.3538 0,-1.8602 0.638,-3.44935 1.91823,-4.75992 1.28024,-1.31339 2.80595,-1.96629 4.58783,-1.96629 z m -81.316998,7.31583 5.086512,7.6414 h 2.601391 l -4.963521,-7.28276 -0.242363,-0.35864 z m -6.545853,0.0165 v 7.62486 h 2.163692 v -7.62486 z m 17.27233,0.0109 c 0.139347,1.97203 0.898437,3.75679 2.282032,5.35523 1.534934,1.77764 3.663337,2.66547 6.390307,2.66547 1.228021,0 2.3258,-0.18372 3.302641,-0.55449 0.97155,-0.37077 1.844001,-0.91452 2.622579,-1.61902 0.779992,-0.71085 1.463305,-1.64674 2.058789,-2.80138 l -1.806608,-0.95085 c -0.654756,1.08162 -1.264713,1.86015 -1.829863,2.34663 -0.563385,0.48507 -1.248416,0.87269 -2.053104,1.16479 -0.804686,0.29351 -1.636097,0.43925 -2.487704,0.43925 -1.761066,0 -3.245194,-0.61722 -4.446757,-1.85053 -1.059743,-1.08727 -1.664608,-2.38429 -1.821594,-4.1951 z"
       style="fill:#000000;fill-opacity:0.23901098;fill-rule:evenodd;stroke:none;stroke-width:0.35277778" />
  </g>
</svg>
