<?xml version="1.0" encoding="UTF-8" standalone="no"?>
<!-- Created with Inkscape (http://www.inkscape.org/) -->

<svg
   xmlns:dc="http://purl.org/dc/elements/1.1/"
   xmlns:cc="http://creativecommons.org/ns#"
   xmlns:rdf="http://www.w3.org/1999/02/22-rdf-syntax-ns#"
   xmlns:svg="http://www.w3.org/2000/svg"
   xmlns="http://www.w3.org/2000/svg"
   xmlns:sodipodi="http://sodipodi.sourceforge.net/DTD/sodipodi-0.dtd"
   xmlns:inkscape="http://www.inkscape.org/namespaces/inkscape"
   width="167.4361mm"
   height="24.879299mm"
   viewBox="0 0 167.4361 24.879299"
   version="1.1"
   id="svg8"
   inkscape:version="0.92.4 (33fec40, 2019-01-16)"
   sodipodi:docname="recolocatelogodark.svg">
  <defs
     id="defs2" />
  <sodipodi:namedview
     id="base"
     pagecolor="#ffffff"
     bordercolor="#666666"
     borderopacity="1.0"
     inkscape:pageopacity="0.0"
     inkscape:pageshadow="2"
     inkscape:zoom="1.4"
     inkscape:cx="341.92703"
     inkscape:cy="-22.717543"
     inkscape:document-units="mm"
     inkscape:current-layer="layer1"
     showgrid="false"
     inkscape:window-width="1920"
     inkscape:window-height="1011"
     inkscape:window-x="0"
     inkscape:window-y="0"
     inkscape:window-maximized="1"
     fit-margin-top="0"
     fit-margin-left="0"
     fit-margin-right="0"
     fit-margin-bottom="0" />
  <metadata
     id="metadata5">
    <rdf:RDF>
      <cc:Work
         rdf:about="">
        <dc:format>image/svg+xml</dc:format>
        <dc:type
           rdf:resource="http://purl.org/dc/dcmitype/StillImage" />
        <dc:title></dc:title>
      </cc:Work>
    </rdf:RDF>
  </metadata>
  <g
     inkscape:label="Capa 1"
     inkscape:groupmode="layer"
     id="layer1"
     transform="translate(-19.872503,-105.70416)">
    <path
       inkscape:connector-curvature="0"
       id="path850"
       style="fill:#e6e6e6;fill-opacity:1;fill-rule:evenodd;stroke:none;stroke-width:0.35277778"
       d="m 184.95768,120.1737 c -0.28822,-1.14371 -0.70555,-2.05352 -1.25412,-2.73826 -0.55386,-0.68334 -1.28164,-1.23332 -2.1844,-1.651 -0.90382,-0.41734 -1.85455,-0.62689 -2.84833,-0.62689 -1.64677,0 -3.05788,0.52211 -4.23862,1.57374 -0.86678,0.76765 -1.51448,1.91276 -1.95827,3.44241 z m -0.0208,4.48415 1.80799,0.95074 c -0.59549,1.15464 -1.28024,2.09056 -2.05882,2.80141 -0.77858,0.7045 -1.65241,1.24848 -2.62396,1.61925 -0.97684,0.37077 -2.07362,0.55421 -3.30306,0.55421 -2.72697,0 -4.85351,-0.88759 -6.38986,-2.66523 -1.5367,-1.77624 -2.3054,-3.78284 -2.3054,-6.01945 0,-2.10538 0.65299,-3.9878 1.95545,-5.63316 1.64535,-2.0962 3.8555,-3.14607 6.61987,-3.14607 2.84868,0 5.12657,1.07597 6.82554,3.22439 1.20721,1.51589 1.82316,3.40678 1.84397,5.68043 h -15.04985 c 0.043,1.92793 0.66428,3.50555 1.86055,4.73357 1.20156,1.23472 2.6857,1.85067 4.44677,1.85067 0.8516,0 1.68275,-0.14605 2.48743,-0.43956 0.80469,-0.2921 1.48978,-0.67945 2.05317,-1.16452 0.56515,-0.48648 1.17686,-1.26506 1.83021,-2.34668" />
    <path
       inkscape:connector-curvature="0"
       id="path852"
       style="fill:#e6e6e6;fill-opacity:1;fill-rule:evenodd;stroke:none;stroke-width:0.35277778"
       d="m 163.95753,107.31918 h 2.13183 v 6.20818 h 3.38596 v 1.84926 h -3.38596 v 14.80009 h -2.13183 v -14.80009 h -2.91571 v -1.84926 h 2.91571 z" />
    <path
       inkscape:connector-curvature="0"
       id="path854"
       style="fill:#e6e6e6;fill-opacity:1;fill-rule:evenodd;stroke:none;stroke-width:0.35277778"
       d="m 150.54527,115.1893 c -1.19204,0 -2.29447,0.2921 -3.29777,0.87771 -1.00859,0.58032 -1.80798,1.40018 -2.40347,2.45569 -0.59514,1.05551 -0.89429,2.17311 -0.89429,3.35421 0,1.16593 0.29915,2.28459 0.89993,3.34997 0.60078,1.06645 1.40547,1.89619 2.41865,2.48744 1.01423,0.59655 2.10149,0.89429 3.26178,0.89429 1.16417,0 2.27789,-0.29351 3.32246,-0.88335 1.05128,-0.59126 1.85455,-1.38501 2.4197,-2.3936 0.56515,-1.0033 0.84597,-2.13748 0.84597,-3.39549 0,-1.9184 -0.63254,-3.52354 -1.90148,-4.81365 -1.26506,-1.29117 -2.82222,-1.93322 -4.67148,-1.93322 z m 8.57956,-1.66194 v 16.64935 h -2.13184 v -2.86491 c -0.89853,1.09291 -1.90183,1.91276 -3.02084,2.45569 -1.11195,0.54433 -2.33574,0.81597 -3.65724,0.81597 -2.35092,0 -4.36281,-0.8516 -6.03003,-2.55517 -1.66759,-1.7085 -2.49838,-3.7786 -2.49838,-6.223 0,-2.38971 0.84173,-4.43724 2.52448,-6.13657 1.67711,-1.69756 3.69993,-2.54917 6.06743,-2.54917 1.36278,0 2.59609,0.28787 3.70416,0.86254 1.10243,0.57468 2.07398,1.44145 2.91042,2.60738 v -3.06211 z" />
    <path
       inkscape:connector-curvature="0"
       id="path856"
       style="fill:#e6e6e6;fill-opacity:1;fill-rule:evenodd;stroke:none;stroke-width:0.35277778"
       d="m 140.28296,116.98635 -1.69791,1.05551 c -1.47285,-1.9431 -3.4851,-2.91606 -6.03568,-2.91606 -2.038,0 -3.73027,0.65475 -5.07965,1.95545 -1.34196,1.30104 -2.01577,2.87866 -2.01577,4.73921 0,1.2125 0.30727,2.35091 0.92992,3.41736 0.61595,1.06539 1.46791,1.89618 2.54953,2.48744 1.07632,0.58984 2.28882,0.88335 3.63255,0.88335 2.45569,0 4.46193,-0.97296 6.0191,-2.91606 l 1.69791,1.1176 c -0.79939,1.19627 -1.87007,2.12231 -3.2138,2.78518 -1.34761,0.65864 -2.87867,0.98813 -4.59846,0.98813 -2.64442,0 -4.8327,-0.83538 -6.57331,-2.5026 -1.74025,-1.67288 -2.60703,-3.69994 -2.60703,-6.09389 0,-1.60372 0.40782,-3.09774 1.22238,-4.47851 0.81033,-1.37795 1.92793,-2.45569 3.34998,-3.22862 1.42628,-0.77329 3.01519,-1.16029 4.77626,-1.16029 1.10772,0 2.17311,0.16792 3.20251,0.50165 1.02376,0.33479 1.89759,0.77294 2.61267,1.31163 0.72073,0.53904 1.32715,1.22237 1.8288,2.05352" />
    <path
       inkscape:connector-curvature="0"
       id="path858"
       style="fill:#e6e6e6;fill-opacity:1;fill-rule:evenodd;stroke:none;stroke-width:0.35277778"
       d="m 113.31063,115.21964 c -1.78188,0 -3.30729,0.65299 -4.58752,1.96638 -1.28023,1.31057 -1.9184,2.89948 -1.9184,4.75968 0,1.19627 0.29351,2.31528 0.87242,3.35421 0.58561,1.03505 1.37512,1.83409 2.36749,2.39924 0.98813,0.56339 2.07927,0.84596 3.26601,0.84596 1.1864,0 2.2793,-0.28257 3.26602,-0.84596 0.99342,-0.56515 1.78153,-1.36419 2.36749,-2.39924 0.57997,-1.03893 0.87207,-2.15794 0.87207,-3.35421 0,-1.8602 -0.64206,-3.44911 -1.92793,-4.75968 -1.28023,-1.31339 -2.80564,-1.96638 -4.57765,-1.96638 z m 0.0109,-2.10009 c 2.56575,0 4.69759,0.92604 6.38598,2.7806 1.53635,1.68698 2.304,3.68935 2.304,5.99863 0,2.31951 -0.81034,4.34799 -2.43523,6.08295 -1.6189,1.73496 -3.70946,2.60173 -6.25475,2.60173 -2.56046,0 -4.65631,-0.86677 -6.27556,-2.60173 -1.6249,-1.73496 -2.43488,-3.76344 -2.43488,-6.08295 0,-2.29976 0.7673,-4.29507 2.304,-5.98346 1.68804,-1.86585 3.82552,-2.79577 6.40644,-2.79577" />
    <path
       inkscape:connector-curvature="0"
       id="path860"
       style="fill:#e6e6e6;fill-opacity:1;fill-rule:evenodd;stroke:none;stroke-width:0.35277778"
       d="m 100.68789,107.1001 h 2.13184 v 23.07661 h -2.13184 z" />
    <path
       inkscape:connector-curvature="0"
       id="path862"
       style="fill:#e6e6e6;fill-opacity:1;fill-rule:evenodd;stroke:none;stroke-width:0.35277778"
       d="m 90.206513,115.21964 c -1.781881,0 -3.307292,0.65299 -4.587522,1.96638 -1.280231,1.31057 -1.918406,2.89948 -1.918406,4.75968 0,1.19627 0.2921,2.31528 0.87242,3.35421 0.585611,1.03505 1.375127,1.83409 2.367491,2.39924 0.988131,0.56339 2.079272,0.84596 3.266017,0.84596 1.186391,0 2.277886,-0.28257 3.265664,-0.84596 0.993775,-0.56515 1.78188,-1.36419 2.367491,-2.39924 0.58032,-1.03893 0.87242,-2.15794 0.87242,-3.35421 0,-1.8602 -0.642056,-3.44911 -1.927931,-4.75968 -1.28023,-1.31339 -2.805642,-1.96638 -4.577644,-1.96638 z m 0.01094,-2.10009 c 2.565753,0 4.697589,0.92604 6.38563,2.7806 1.5367,1.68698 2.304345,3.68935 2.304345,5.99863 0,2.31951 -0.810331,4.34799 -2.435225,6.08295 -1.61925,1.73496 -3.709459,2.60173 -6.25475,2.60173 -2.560461,0 -4.656314,-0.86677 -6.275564,-2.60173 -1.624894,-1.73496 -2.436283,-3.76344 -2.436283,-6.08295 0,-2.29976 0.768703,-4.29507 2.305403,-5.98346 1.688041,-1.86585 3.825169,-2.79577 6.406444,-2.79577" />
    <path
       inkscape:connector-curvature="0"
       id="path864"
       style="fill:#e6e6e6;fill-opacity:1;fill-rule:evenodd;stroke:none;stroke-width:0.35277778"
       d="m 80.06521,116.98635 -1.697566,1.05551 c -1.474612,-1.9431 -3.486503,-2.91606 -6.035675,-2.91606 -2.03835,0 -3.732036,0.65475 -5.079647,1.95545 -1.34232,1.30104 -2.017536,2.87866 -2.017536,4.73921 0,1.2125 0.30868,2.35091 0.930275,3.41736 0.617361,1.06539 1.468966,1.89618 2.550936,2.48744 1.075972,0.58984 2.288822,0.88335 3.631141,0.88335 2.456745,0 4.463344,-0.97296 6.020506,-2.91606 l 1.697566,1.1176 c -0.799041,1.19627 -1.869722,2.12231 -3.213453,2.78518 -1.347611,0.65864 -2.880077,0.98813 -4.598458,0.98813 -2.644422,0 -4.834114,-0.83538 -6.573308,-2.5026 -1.740253,-1.67288 -2.608439,-3.69994 -2.608439,-6.09389 0,-1.60372 0.407811,-3.09774 1.222022,-4.47851 0.811742,-1.37795 1.929342,-2.45569 3.350331,-3.22862 1.427339,-0.77329 3.014839,-1.16029 4.776258,-1.16029 1.107722,0 2.174522,0.16792 3.203928,0.50165 1.023761,0.33479 1.89618,0.77294 2.612672,1.31163 0.720725,0.53904 1.32715,1.22237 1.828447,2.05352" />
    <path
       inkscape:connector-curvature="0"
       id="path866"
       style="fill:#ff862c;fill-opacity:1;fill-rule:evenodd;stroke:none;stroke-width:0.35277778"
       d="m 57.589738,120.1737 c -0.286808,-1.14371 -0.704497,-2.05352 -1.254124,-2.73826 -0.552803,-0.68334 -1.280231,-1.23332 -2.182989,-1.651 -0.903817,-0.41734 -1.854553,-0.62689 -2.848328,-0.62689 -1.646767,0 -3.057878,0.52211 -4.238625,1.57374 -0.867128,0.76765 -1.514475,1.91276 -1.958269,3.44241 z m -0.0194,4.48415 1.806575,0.95074 c -0.595489,1.15464 -1.27882,2.09056 -2.058811,2.80141 -0.778581,0.7045 -1.651,1.24848 -2.62255,1.61925 -0.976842,0.37077 -2.075039,0.55421 -3.303059,0.55421 -2.726972,0 -4.854927,-0.88759 -6.389863,-2.66523 -1.383595,-1.59844 -2.142773,-3.38314 -2.28212,-5.35517 h 2.210506 c 0.156986,1.81081 0.762,3.10762 1.821744,4.19488 1.201561,1.23331 2.685697,1.85067 4.446764,1.85067 0.851605,0 1.68275,-0.14605 2.487436,-0.43956 0.804686,-0.2921 1.489781,-0.67945 2.053167,-1.16452 0.56515,-0.48648 1.175455,-1.26506 1.830211,-2.34668 z m -14.833247,-3.64772 c 0.159808,-1.75013 0.799394,-3.33339 1.915583,-4.74451 1.645356,-2.0962 3.855508,-3.14607 6.619875,-3.14607 2.84868,0 5.123744,1.0788 6.825544,3.22439 0.863953,1.0915 1.440039,2.33327 1.696509,3.81318 0,0 -2.451806,0.0924 -2.446162,0.73166 l 0.936978,0.97437 -11.371438,-0.0222 v -0.83079 z" />
    <path
       inkscape:connector-curvature="0"
       id="path868"
       style="fill:#ff862c;fill-opacity:1;fill-rule:evenodd;stroke:none;stroke-width:0.35277778"
       d="m 27.611742,110.07825 v 9.01771 h -2.163586 v -11.21163 h 5.992989 c 1.317625,0 2.37878,0.0977 3.177822,0.29774 4.967816,1.22344 6.319661,7.33108 3.924652,11.3591 H 35.17177 c 3.196872,-1.8468 2.891013,-8.14988 -1.027995,-9.21209 -0.623005,-0.16686 -1.719792,-0.25083 -3.297766,-0.25083 z m 0,12.47387 v 7.62459 h -2.163586 v -7.62459 z m 7.106708,0.34185 4.963583,7.28274 h -2.601736 l -5.08635,-7.64117 h 2.481792 z" />
    <path
       inkscape:connector-curvature="0"
       id="path872"
       style="fill:#ff862c;fill-opacity:1;fill-rule:evenodd;stroke:none;stroke-width:0.35277778"
       d="M 21.735875,120.15712 H 59.7946 l -1.608314,1.81892 H 19.872503 Z" />
    <path
       inkscape:connector-curvature="0"
       id="path874"
       style="fill:#e6e6e6;fill-opacity:1;fill-rule:evenodd;stroke:none;stroke-width:0.35277778"
       d="m 114.46669,105.70416 h 3.28683 l -4.50356,4.70324 h -2.11103 z" />
  </g>
</svg>
