<?xml version="1.0" encoding="UTF-8" standalone="no"?>
<!-- Created with Inkscape (http://www.inkscape.org/) -->

<svg
   xmlns:dc="http://purl.org/dc/elements/1.1/"
   xmlns:cc="http://creativecommons.org/ns#"
   xmlns:rdf="http://www.w3.org/1999/02/22-rdf-syntax-ns#"
   xmlns:svg="http://www.w3.org/2000/svg"
   xmlns="http://www.w3.org/2000/svg"
   xmlns:sodipodi="http://sodipodi.sourceforge.net/DTD/sodipodi-0.dtd"
   xmlns:inkscape="http://www.inkscape.org/namespaces/inkscape"
   width="187.36322mm"
   height="60.741188mm"
   viewBox="0 0 187.36322 60.741188"
   version="1.1"
   id="svg8"
   inkscape:version="0.92.4 (33fec40, 2019-01-16)"
   sodipodi:docname="dibujo3.svg">
  <defs
     id="defs2" />
  <sodipodi:namedview
     id="base"
     pagecolor="#ffffff"
     bordercolor="#666666"
     borderopacity="1.0"
     inkscape:pageopacity="0.0"
     inkscape:pageshadow="2"
     inkscape:zoom="0.7"
     inkscape:cx="498.67303"
     inkscape:cy="-43.194835"
     inkscape:document-units="mm"
     inkscape:current-layer="layer1"
     showgrid="false"
     inkscape:window-width="1920"
     inkscape:window-height="1011"
     inkscape:window-x="0"
     inkscape:window-y="0"
     inkscape:window-maximized="1"
     fit-margin-top="0"
     fit-margin-left="0"
     fit-margin-right="0"
     fit-margin-bottom="0" />
  <metadata
     id="metadata5">
    <rdf:RDF>
      <cc:Work
         rdf:about="">
        <dc:format>image/svg+xml</dc:format>
        <dc:type
           rdf:resource="http://purl.org/dc/dcmitype/StillImage" />
        <dc:title></dc:title>
      </cc:Work>
    </rdf:RDF>
  </metadata>
  <g
     inkscape:label="Capa 1"
     inkscape:groupmode="layer"
     id="layer1"
     transform="translate(-10.072858,-94.719024)">
    <rect
       style="opacity:0.99299999;fill:#ffffff;fill-opacity:1;stroke:#808080;stroke-width:0.26499999;stroke-miterlimit:4;stroke-dasharray:none;stroke-dashoffset:0;stroke-opacity:1"
       id="rect1108"
       width="187.09822"
       height="60.476189"
       x="10.205358"
       y="94.851524" />
    <path
       inkscape:connector-curvature="0"
       id="path850"
       style="fill:#8b8b8b;fill-opacity:1;fill-rule:evenodd;stroke:none;stroke-width:0.35277778"
       d="m 184.95768,120.1737 c -0.28822,-1.14371 -0.70555,-2.05352 -1.25412,-2.73826 -0.55386,-0.68334 -1.28164,-1.23332 -2.1844,-1.651 -0.90382,-0.41734 -1.85455,-0.62689 -2.84833,-0.62689 -1.64677,0 -3.05788,0.52211 -4.23862,1.57374 -0.86678,0.76765 -1.51448,1.91276 -1.95827,3.44241 z m -0.0208,4.48415 1.80799,0.95074 c -0.59549,1.15464 -1.28024,2.09056 -2.05882,2.80141 -0.77858,0.7045 -1.65241,1.24848 -2.62396,1.61925 -0.97684,0.37077 -2.07362,0.55421 -3.30306,0.55421 -2.72697,0 -4.85351,-0.88759 -6.38986,-2.66523 -1.5367,-1.77624 -2.3054,-3.78284 -2.3054,-6.01945 0,-2.10538 0.65299,-3.9878 1.95545,-5.63316 1.64535,-2.0962 3.8555,-3.14607 6.61987,-3.14607 2.84868,0 5.12657,1.07597 6.82554,3.22439 1.20721,1.51589 1.82316,3.40678 1.84397,5.68043 h -15.04985 c 0.043,1.92793 0.66428,3.50555 1.86055,4.73357 1.20156,1.23472 2.6857,1.85067 4.44677,1.85067 0.8516,0 1.68275,-0.14605 2.48743,-0.43956 0.80469,-0.2921 1.48978,-0.67945 2.05317,-1.16452 0.56515,-0.48648 1.17686,-1.26506 1.83021,-2.34668" />
    <path
       inkscape:connector-curvature="0"
       id="path852"
       style="fill:#8b8b8b;fill-opacity:1;fill-rule:evenodd;stroke:none;stroke-width:0.35277778"
       d="m 163.95753,107.31918 h 2.13183 v 6.20818 h 3.38596 v 1.84926 h -3.38596 v 14.80009 h -2.13183 v -14.80009 h -2.91571 v -1.84926 h 2.91571 z" />
    <path
       inkscape:connector-curvature="0"
       id="path854"
       style="fill:#8b8b8b;fill-opacity:1;fill-rule:evenodd;stroke:none;stroke-width:0.35277778"
       d="m 150.54527,115.1893 c -1.19204,0 -2.29447,0.2921 -3.29777,0.87771 -1.00859,0.58032 -1.80798,1.40018 -2.40347,2.45569 -0.59514,1.05551 -0.89429,2.17311 -0.89429,3.35421 0,1.16593 0.29915,2.28459 0.89993,3.34997 0.60078,1.06645 1.40547,1.89619 2.41865,2.48744 1.01423,0.59655 2.10149,0.89429 3.26178,0.89429 1.16417,0 2.27789,-0.29351 3.32246,-0.88335 1.05128,-0.59126 1.85455,-1.38501 2.4197,-2.3936 0.56515,-1.0033 0.84597,-2.13748 0.84597,-3.39549 0,-1.9184 -0.63254,-3.52354 -1.90148,-4.81365 -1.26506,-1.29117 -2.82222,-1.93322 -4.67148,-1.93322 z m 8.57956,-1.66194 v 16.64935 h -2.13184 v -2.86491 c -0.89853,1.09291 -1.90183,1.91276 -3.02084,2.45569 -1.11195,0.54433 -2.33574,0.81597 -3.65724,0.81597 -2.35092,0 -4.36281,-0.8516 -6.03003,-2.55517 -1.66759,-1.7085 -2.49838,-3.7786 -2.49838,-6.223 0,-2.38971 0.84173,-4.43724 2.52448,-6.13657 1.67711,-1.69756 3.69993,-2.54917 6.06743,-2.54917 1.36278,0 2.59609,0.28787 3.70416,0.86254 1.10243,0.57468 2.07398,1.44145 2.91042,2.60738 v -3.06211 z" />
    <path
       inkscape:connector-curvature="0"
       id="path856"
       style="fill:#8b8b8b;fill-opacity:1;fill-rule:evenodd;stroke:none;stroke-width:0.35277778"
       d="m 140.28296,116.98635 -1.69791,1.05551 c -1.47285,-1.9431 -3.4851,-2.91606 -6.03568,-2.91606 -2.038,0 -3.73027,0.65475 -5.07965,1.95545 -1.34196,1.30104 -2.01577,2.87866 -2.01577,4.73921 0,1.2125 0.30727,2.35091 0.92992,3.41736 0.61595,1.06539 1.46791,1.89618 2.54953,2.48744 1.07632,0.58984 2.28882,0.88335 3.63255,0.88335 2.45569,0 4.46193,-0.97296 6.0191,-2.91606 l 1.69791,1.1176 c -0.79939,1.19627 -1.87007,2.12231 -3.2138,2.78518 -1.34761,0.65864 -2.87867,0.98813 -4.59846,0.98813 -2.64442,0 -4.8327,-0.83538 -6.57331,-2.5026 -1.74025,-1.67288 -2.60703,-3.69994 -2.60703,-6.09389 0,-1.60372 0.40782,-3.09774 1.22238,-4.47851 0.81033,-1.37795 1.92793,-2.45569 3.34998,-3.22862 1.42628,-0.77329 3.01519,-1.16029 4.77626,-1.16029 1.10772,0 2.17311,0.16792 3.20251,0.50165 1.02376,0.33479 1.89759,0.77294 2.61267,1.31163 0.72073,0.53904 1.32715,1.22237 1.8288,2.05352" />
    <path
       inkscape:connector-curvature="0"
       id="path858"
       style="fill:#8b8b8b;fill-opacity:1;fill-rule:evenodd;stroke:none;stroke-width:0.35277778"
       d="m 113.31063,115.21964 c -1.78188,0 -3.30729,0.65299 -4.58752,1.96638 -1.28023,1.31057 -1.9184,2.89948 -1.9184,4.75968 0,1.19627 0.29351,2.31528 0.87242,3.35421 0.58561,1.03505 1.37512,1.83409 2.36749,2.39924 0.98813,0.56339 2.07927,0.84596 3.26601,0.84596 1.1864,0 2.2793,-0.28257 3.26602,-0.84596 0.99342,-0.56515 1.78153,-1.36419 2.36749,-2.39924 0.57997,-1.03893 0.87207,-2.15794 0.87207,-3.35421 0,-1.8602 -0.64206,-3.44911 -1.92793,-4.75968 -1.28023,-1.31339 -2.80564,-1.96638 -4.57765,-1.96638 z m 0.0109,-2.10009 c 2.56575,0 4.69759,0.92604 6.38598,2.7806 1.53635,1.68698 2.304,3.68935 2.304,5.99863 0,2.31951 -0.81034,4.34799 -2.43523,6.08295 -1.6189,1.73496 -3.70946,2.60173 -6.25475,2.60173 -2.56046,0 -4.65631,-0.86677 -6.27556,-2.60173 -1.6249,-1.73496 -2.43488,-3.76344 -2.43488,-6.08295 0,-2.29976 0.7673,-4.29507 2.304,-5.98346 1.68804,-1.86585 3.82552,-2.79577 6.40644,-2.79577" />
    <path
       inkscape:connector-curvature="0"
       id="path860"
       style="fill:#8b8b8b;fill-opacity:1;fill-rule:evenodd;stroke:none;stroke-width:0.35277778"
       d="m 100.68789,107.1001 h 2.13184 v 23.07661 h -2.13184 z" />
    <path
       inkscape:connector-curvature="0"
       id="path862"
       style="fill:#8b8b8b;fill-opacity:1;fill-rule:evenodd;stroke:none;stroke-width:0.35277778"
       d="m 90.206513,115.21964 c -1.781881,0 -3.307292,0.65299 -4.587522,1.96638 -1.280231,1.31057 -1.918406,2.89948 -1.918406,4.75968 0,1.19627 0.2921,2.31528 0.87242,3.35421 0.585611,1.03505 1.375127,1.83409 2.367491,2.39924 0.988131,0.56339 2.079272,0.84596 3.266017,0.84596 1.186391,0 2.277886,-0.28257 3.265664,-0.84596 0.993775,-0.56515 1.78188,-1.36419 2.367491,-2.39924 0.58032,-1.03893 0.87242,-2.15794 0.87242,-3.35421 0,-1.8602 -0.642056,-3.44911 -1.927931,-4.75968 -1.28023,-1.31339 -2.805642,-1.96638 -4.577644,-1.96638 z m 0.01094,-2.10009 c 2.565753,0 4.697589,0.92604 6.38563,2.7806 1.5367,1.68698 2.304345,3.68935 2.304345,5.99863 0,2.31951 -0.810331,4.34799 -2.435225,6.08295 -1.61925,1.73496 -3.709459,2.60173 -6.25475,2.60173 -2.560461,0 -4.656314,-0.86677 -6.275564,-2.60173 -1.624894,-1.73496 -2.436283,-3.76344 -2.436283,-6.08295 0,-2.29976 0.768703,-4.29507 2.305403,-5.98346 1.688041,-1.86585 3.825169,-2.79577 6.406444,-2.79577" />
    <path
       inkscape:connector-curvature="0"
       id="path864"
       style="fill:#8b8b8b;fill-opacity:1;fill-rule:evenodd;stroke:none;stroke-width:0.35277778"
       d="m 80.06521,116.98635 -1.697566,1.05551 c -1.474612,-1.9431 -3.486503,-2.91606 -6.035675,-2.91606 -2.03835,0 -3.732036,0.65475 -5.079647,1.95545 -1.34232,1.30104 -2.017536,2.87866 -2.017536,4.73921 0,1.2125 0.30868,2.35091 0.930275,3.41736 0.617361,1.06539 1.468966,1.89618 2.550936,2.48744 1.075972,0.58984 2.288822,0.88335 3.631141,0.88335 2.456745,0 4.463344,-0.97296 6.020506,-2.91606 l 1.697566,1.1176 c -0.799041,1.19627 -1.869722,2.12231 -3.213453,2.78518 -1.347611,0.65864 -2.880077,0.98813 -4.598458,0.98813 -2.644422,0 -4.834114,-0.83538 -6.573308,-2.5026 -1.740253,-1.67288 -2.608439,-3.69994 -2.608439,-6.09389 0,-1.60372 0.407811,-3.09774 1.222022,-4.47851 0.811742,-1.37795 1.929342,-2.45569 3.350331,-3.22862 1.427339,-0.77329 3.014839,-1.16029 4.776258,-1.16029 1.107722,0 2.174522,0.16792 3.203928,0.50165 1.023761,0.33479 1.89618,0.77294 2.612672,1.31163 0.720725,0.53904 1.32715,1.22237 1.828447,2.05352" />
    <path
       inkscape:connector-curvature="0"
       id="path866"
       style="fill:#f56d00;fill-opacity:1;fill-rule:evenodd;stroke:none;stroke-width:0.35277778"
       d="m 57.589738,120.1737 c -0.286808,-1.14371 -0.704497,-2.05352 -1.254124,-2.73826 -0.552803,-0.68334 -1.280231,-1.23332 -2.182989,-1.651 -0.903817,-0.41734 -1.854553,-0.62689 -2.848328,-0.62689 -1.646767,0 -3.057878,0.52211 -4.238625,1.57374 -0.867128,0.76765 -1.514475,1.91276 -1.958269,3.44241 z m -0.0194,4.48415 1.806575,0.95074 c -0.595489,1.15464 -1.27882,2.09056 -2.058811,2.80141 -0.778581,0.7045 -1.651,1.24848 -2.62255,1.61925 -0.976842,0.37077 -2.075039,0.55421 -3.303059,0.55421 -2.726972,0 -4.854927,-0.88759 -6.389863,-2.66523 -1.383595,-1.59844 -2.142773,-3.38314 -2.28212,-5.35517 h 2.210506 c 0.156986,1.81081 0.762,3.10762 1.821744,4.19488 1.201561,1.23331 2.685697,1.85067 4.446764,1.85067 0.851605,0 1.68275,-0.14605 2.487436,-0.43956 0.804686,-0.2921 1.489781,-0.67945 2.053167,-1.16452 0.56515,-0.48648 1.175455,-1.26506 1.830211,-2.34668 z m -14.833247,-3.64772 c 0.159808,-1.75013 0.799394,-3.33339 1.915583,-4.74451 1.645356,-2.0962 3.855508,-3.14607 6.619875,-3.14607 2.84868,0 5.123744,1.0788 6.825544,3.22439 0.863953,1.0915 1.440039,2.33327 1.696509,3.81318 0,0 -2.451806,0.0924 -2.446162,0.73166 l 0.936978,0.97437 -11.371438,-0.0222 v -0.83079 z" />
    <path
       inkscape:connector-curvature="0"
       id="path868"
       style="fill:#f56d00;fill-opacity:1;fill-rule:evenodd;stroke:none;stroke-width:0.35277778"
       d="m 27.611742,110.07825 v 9.01771 h -2.163586 v -11.21163 h 5.992989 c 1.317625,0 2.37878,0.0977 3.177822,0.29774 4.967816,1.22344 6.319661,7.33108 3.924652,11.3591 H 35.17177 c 3.196872,-1.8468 2.891013,-8.14988 -1.027995,-9.21209 -0.623005,-0.16686 -1.719792,-0.25083 -3.297766,-0.25083 z m 0,12.47387 v 7.62459 h -2.163586 v -7.62459 z m 7.106708,0.34185 4.963583,7.28274 h -2.601736 l -5.08635,-7.64117 h 2.481792 z" />
    <path
       inkscape:connector-curvature="0"
       id="path870"
       style="fill:#828282;fill-opacity:1;fill-rule:evenodd;stroke:none;stroke-width:0.35277778"
       d="m 65.459505,135.57033 h 0.688975 v 4.63726 c 0,0.71367 -0.05503,1.20862 -0.1651,1.48837 -0.111831,0.27693 -0.294922,0.5013 -0.555625,0.66675 -0.257528,0.16687 -0.571853,0.24942 -0.938389,0.24942 -0.278342,0 -0.55245,-0.0536 -0.821267,-0.16122 -0.270227,-0.10619 -0.570441,-0.29351 -0.897113,-0.5648 l 0.363713,-0.54575 c 0.359834,0.25083 0.658637,0.42722 0.895703,0.52917 0.157339,0.0688 0.310092,0.10195 0.460375,0.10195 0.195792,0 0.375003,-0.0593 0.534811,-0.17639 0.162631,-0.11853 0.27552,-0.27552 0.33902,-0.47272 0.06315,-0.19579 0.0949,-0.57467 0.0949,-1.13841 z m 5.629275,-0.17216 c 1.040341,0 1.909939,0.34855 2.610203,1.04176 0.699911,0.6932 1.051277,1.54904 1.051277,2.56187 0,1.00718 -0.348544,1.8602 -1.047397,2.56046 -0.699911,0.69991 -1.551517,1.04987 -2.557639,1.04987 -1.018116,0 -1.876777,-0.34855 -2.576689,-1.04599 -0.700263,-0.69709 -1.05163,-1.54058 -1.05163,-2.52977 0,-0.6604 0.159808,-1.27212 0.478367,-1.83585 0.319616,-0.56198 0.754944,-1.00436 1.306336,-1.32433 0.549627,-0.31821 1.146527,-0.47802 1.787172,-0.47802 z m 0.03034,0.66958 c -0.506942,0 -0.988131,0.1337 -1.444272,0.39828 -0.454731,0.26459 -0.810331,0.62019 -1.066448,1.06821 -0.256469,0.44909 -0.383116,0.94792 -0.383116,1.50072 0,0.81421 0.282575,1.50319 0.847372,2.0641 0.566561,0.56374 1.24848,0.84491 2.046464,0.84491 0.534811,0 1.026583,-0.13089 1.479902,-0.38877 0.454731,-0.25752 0.80892,-0.61171 1.062567,-1.05974 0.253647,-0.44909 0.380295,-0.94509 0.380295,-1.49507 0,-0.54434 -0.126648,-1.03752 -0.380295,-1.47744 -0.253647,-0.44097 -0.613128,-0.79233 -1.073503,-1.05692 -0.461433,-0.26458 -0.950736,-0.39828 -1.468966,-0.39828 z m 5.029905,-0.49742 h 1.353256 c 0.545747,0 0.964494,0.0649 1.256594,0.19297 0.293511,0.12947 0.525286,0.32949 0.693208,0.5969 0.171098,0.26705 0.25647,0.5648 0.25647,0.89006 0,0.30586 -0.07585,0.58279 -0.22472,0.83361 -0.147461,0.25083 -0.366536,0.45332 -0.653344,0.60925 0.357011,0.12135 0.631472,0.26317 0.823031,0.42721 0.192616,0.16263 0.341488,0.35948 0.447675,0.59232 0.107597,0.23177 0.161219,0.48401 0.161219,0.75529 0,0.55139 -0.201083,1.01847 -0.603603,1.40018 -0.403578,0.3817 -0.944033,0.57326 -1.62313,0.57326 h -1.886656 z m 0.669572,0.67134 v 2.19921 h 0.394406 c 0.478014,0 0.830792,-0.0441 1.055511,-0.13229 0.224367,-0.0896 0.402167,-0.23001 0.533047,-0.42016 0.132292,-0.19156 0.198614,-0.40534 0.198614,-0.63817 0,-0.31433 -0.110419,-0.56233 -0.330905,-0.74154 -0.221545,-0.17886 -0.571853,-0.26705 -1.0541,-0.26705 z m 0,2.88819 v 2.64054 h 0.853017 c 0.50165,0 0.871008,-0.0497 1.105253,-0.1464 0.234244,-0.0991 0.421569,-0.2533 0.56515,-0.46285 0.140405,-0.20814 0.21343,-0.43427 0.21343,-0.67663 0,-0.30727 -0.100541,-0.57467 -0.300214,-0.80186 -0.200025,-0.22754 -0.474133,-0.38312 -0.822677,-0.46884 -0.234245,-0.055 -0.642409,-0.084 -1.225198,-0.084 z m 12.655903,0.77434 0.474133,0.50024 c -0.303036,0.25788 -0.588433,0.48401 -0.855839,0.68086 0.180623,0.17216 0.421923,0.4064 0.724959,0.70415 0.234244,0.23848 0.439561,0.45473 0.61595,0.65193 H 89.4745 l -0.912283,-0.93451 c -0.571853,0.45756 -1.036109,0.75671 -1.394531,0.89571 -0.356658,0.14075 -0.735894,0.20955 -1.132769,0.20955 -0.529167,0 -0.953559,-0.15029 -1.273175,-0.45473 -0.321028,-0.30163 -0.480836,-0.67945 -0.480836,-1.13277 0,-0.34185 0.107244,-0.68333 0.322438,-1.02659 0.214842,-0.34325 0.652992,-0.77717 1.315862,-1.3021 -0.37077,-0.45473 -0.607484,-0.79234 -0.715081,-1.00894 -0.104775,-0.21626 -0.156986,-0.4244 -0.156986,-0.62125 0,-0.34325 0.132292,-0.62723 0.395464,-0.8516 0.304447,-0.26353 0.68333,-0.39441 1.13665,-0.39441 0.286808,0 0.547158,0.0565 0.782814,0.17251 0.235655,0.11571 0.416277,0.26988 0.540102,0.46567 0.124178,0.19438 0.186267,0.40111 0.186267,0.62018 0,0.2286 -0.08008,0.47519 -0.2413,0.73448 -0.162631,0.26177 -0.483658,0.59373 -0.960614,0.99907 l 1.043164,1.09255 0.680861,0.69039 c 0.363714,-0.27552 0.651933,-0.50412 0.863953,-0.69039 z m -3.012369,-1.60655 c 0.332316,-0.25788 0.584552,-0.51117 0.751063,-0.762 0.118534,-0.17638 0.1778,-0.33513 0.1778,-0.47272 0,-0.15734 -0.07726,-0.29492 -0.231422,-0.41063 -0.153105,-0.11465 -0.357011,-0.17251 -0.612069,-0.17251 -0.242359,0 -0.440972,0.0593 -0.593725,0.17639 -0.151695,0.11994 -0.227542,0.2607 -0.227542,0.42192 0,0.12383 0.03034,0.24236 0.09243,0.34996 0.153105,0.26458 0.366536,0.55527 0.643467,0.86959 z m -0.09102,0.91617 c -0.579967,0.43991 -0.960261,0.78705 -1.140883,1.0474 -0.180623,0.25788 -0.270228,0.49882 -0.270228,0.71931 0,0.25929 0.110419,0.49071 0.332316,0.6918 0.221898,0.19861 0.493184,0.29915 0.813153,0.29915 0.24377,0 0.480836,-0.0512 0.716492,-0.15169 0.367947,-0.15981 0.786694,-0.42722 1.260828,-0.80469 l -1.084439,-1.10807 c -0.186267,-0.19826 -0.395464,-0.42722 -0.627239,-0.69321 z m 14.191189,-2.37561 -0.54292,0.41628 c -0.297747,-0.38876 -0.655817,-0.68368 -1.076328,-0.88477 -0.417336,-0.20108 -0.8763,-0.30197 -1.379361,-0.30197 -0.547158,0 -1.052689,0.1337 -1.520119,0.39581 -0.468489,0.26459 -0.82797,0.61736 -1.084439,1.06081 -0.257528,0.44379 -0.385939,0.94403 -0.385939,1.49683 0,0.83891 0.286808,1.53917 0.860072,2.09868 0.574675,0.56091 1.299634,0.84172 2.174522,0.84172 0.960614,0 1.7653,-0.37606 2.411592,-1.12853 l 0.54292,0.41204 c -0.34325,0.43427 -0.770464,0.77329 -1.283051,1.01036 -0.511175,0.23812 -1.083027,0.35666 -1.715558,0.35666 -1.201561,0 -2.151239,-0.3997 -2.844094,-1.20015 -0.581731,-0.67381 -0.873831,-1.4912 -0.873831,-2.44616 0,-1.00436 0.352778,-1.85209 1.056922,-2.53683 0.706967,-0.68756 1.590323,-1.03082 2.652889,-1.03082 0.640645,0 1.219553,0.12665 1.73602,0.37889 0.516819,0.25223 0.940153,0.60642 1.270703,1.06115 z m 4.19065,-1.26788 3.20534,6.87105 h -0.73872 l -1.0735,-2.25848 h -2.97639 l -1.0668,2.25848 h -0.76623 l 3.24415,-6.87105 z m -0.0868,1.44145 -1.1811,2.50119 h 2.35938 z m 4.38891,-1.44145 h 1.37124 c 0.76483,0 1.28306,0.0332 1.55293,0.0938 0.41063,0.0938 0.74154,0.2921 0.9966,0.59937 0.25753,0.30727 0.38417,0.68509 0.38417,1.13277 0,0.37359 -0.0868,0.70132 -0.26458,0.98389 -0.17498,0.28399 -0.42721,0.49742 -0.75494,0.64347 -0.32668,0.14499 -0.78,0.21802 -1.35749,0.2219 l 2.47367,3.19581 h -0.84349 l -2.47367,-3.19581 h -0.39547 v 3.19581 h -0.68897 z m 0.68897,0.67134 v 2.33291 l 1.18675,0.01 c 0.46002,0 0.80045,-0.0427 1.02093,-0.12947 0.21908,-0.0882 0.39159,-0.22719 0.51541,-0.41769 0.12277,-0.19262 0.18592,-0.40499 0.18592,-0.64347 0,-0.23001 -0.0631,-0.44097 -0.18874,-0.62829 -0.12382,-0.18874 -0.28787,-0.32244 -0.49318,-0.40393 -0.20109,-0.0811 -0.54011,-0.11959 -1.01142,-0.11959 z m 5.09058,-0.67134 h 3.93171 v 0.67134 h -3.24273 v 2.15229 h 3.21486 v 0.66852 h -3.21486 v 2.70792 h 3.21486 v 0.67098 h -3.90384 z m 5.12904,0 h 3.93312 v 0.67134 h -3.24414 v 2.15229 h 3.21521 v 0.66852 h -3.21521 v 2.70792 h 3.21521 v 0.67098 h -3.90419 z m 5.15938,0 h 1.37124 c 0.76341,0 1.28164,0.0332 1.55293,0.0938 0.41063,0.0938 0.74154,0.2921 0.99624,0.59937 0.25789,0.30727 0.38453,0.68509 0.38453,1.13277 0,0.37359 -0.0868,0.70132 -0.26458,0.98389 -0.17498,0.28399 -0.42721,0.49742 -0.75495,0.64347 -0.32667,0.14499 -0.77999,0.21802 -1.35748,0.2219 l 2.47367,3.19581 h -0.8449 l -2.47227,-3.19581 H 125.812 v 3.19581 h -0.68897 z m 0.68897,0.67134 v 2.33291 l 1.18674,0.01 c 0.46003,0 0.80046,-0.0427 1.01953,-0.12947 0.22049,-0.0882 0.39264,-0.22719 0.51682,-0.41769 0.12277,-0.19262 0.1845,-0.40499 0.1845,-0.64347 0,-0.23001 -0.0617,-0.44097 -0.18732,-0.62829 -0.12383,-0.18874 -0.28787,-0.32244 -0.49318,-0.40393 -0.20144,-0.0811 -0.54011,-0.11959 -1.01283,-0.11959 z m 14.13051,0.59654 -0.54292,0.41628 c -0.29775,-0.38876 -0.65723,-0.68368 -1.07633,-0.88477 -0.41733,-0.20108 -0.8763,-0.30197 -1.37936,-0.30197 -0.54716,0 -1.0541,0.1337 -1.52153,0.39581 -0.46708,0.26459 -0.82656,0.61736 -1.08444,1.06081 -0.25611,0.44379 -0.38594,0.94403 -0.38594,1.49683 0,0.83891 0.28822,1.53917 0.86149,2.09868 0.57467,0.56091 1.29822,0.84172 2.17311,0.84172 0.96202,0 1.7653,-0.37606 2.413,-1.12853 l 0.54292,0.41204 c -0.34325,0.43427 -0.77046,0.77329 -1.28305,1.01036 -0.51117,0.23812 -1.08444,0.35666 -1.71556,0.35666 -1.20156,0 -2.15124,-0.3997 -2.84444,-1.20015 -0.58279,-0.67381 -0.87489,-1.4912 -0.87489,-2.44616 0,-1.00436 0.35277,-1.85209 1.05833,-2.53683 0.70556,-0.68756 1.58891,-1.03082 2.65148,-1.03082 0.64064,0 1.21955,0.12665 1.73602,0.37889 0.51682,0.25223 0.94121,0.60642 1.27211,1.06115 z m 4.65208,-1.44004 c 1.0407,0 1.9103,0.34855 2.61021,1.04176 0.69991,0.6932 1.05127,1.54904 1.05127,2.56187 0,1.00718 -0.34854,1.8602 -1.04704,2.56046 -0.70026,0.69991 -1.55187,1.04987 -2.55764,1.04987 -1.01847,0 -1.87713,-0.34855 -2.57704,-1.04599 -0.69991,-0.69709 -1.05163,-1.54058 -1.05163,-2.52977 0,-0.6604 0.16016,-1.27212 0.47837,-1.83585 0.31961,-0.56198 0.75529,-1.00436 1.30633,-1.32433 0.54998,-0.31821 1.14653,-0.47802 1.78717,-0.47802 z m 0.0303,0.66958 c -0.50694,0 -0.98777,0.1337 -1.44392,0.39828 -0.45473,0.26459 -0.81033,0.62019 -1.0668,1.06821 -0.25611,0.44909 -0.38311,0.94792 -0.38311,1.50072 0,0.81421 0.28257,1.50319 0.84913,2.0641 0.5648,0.56374 1.24848,0.84491 2.0447,0.84491 0.53481,0 1.02694,-0.13089 1.48026,-0.38877 0.45473,-0.25752 0.80892,-0.61171 1.06221,-1.05974 0.25365,-0.44909 0.38065,-0.94509 0.38065,-1.49507 0,-0.54434 -0.127,-1.03752 -0.38065,-1.47744 -0.25329,-0.44097 -0.61313,-0.79233 -1.0735,-1.05692 -0.46002,-0.26458 -0.95074,-0.39828 -1.46897,-0.39828 z m 7.8232,-0.49742 3.20534,6.87105 h -0.73871 l -1.0721,-2.25848 h -2.97779 l -1.0668,2.25848 h -0.76483 l 3.24274,-6.87105 z m -0.0854,1.44145 -1.18251,2.50119 h 2.35938 z m 10.7502,-0.17357 -0.54187,0.41628 c -0.29739,-0.38876 -0.65722,-0.68368 -1.07597,-0.88477 -0.41769,-0.20108 -0.87806,-0.30197 -1.37936,-0.30197 -0.54716,0 -1.05445,0.1337 -1.52153,0.39581 -0.46708,0.26459 -0.82832,0.61736 -1.08444,1.06081 -0.25647,0.44379 -0.38594,0.94403 -0.38594,1.49683 0,0.83891 0.28681,1.53917 0.86113,2.09868 0.57468,0.56091 1.29822,0.84172 2.17346,0.84172 0.96168,0 1.7653,-0.37606 2.41265,-1.12853 l 0.54187,0.41204 c -0.34184,0.43427 -0.76906,0.77329 -1.28164,1.01036 -0.51118,0.23812 -1.08444,0.35666 -1.71556,0.35666 -1.20333,0 -2.15124,-0.3997 -2.84586,-1.20015 -0.58138,-0.67381 -0.87348,-1.4912 -0.87348,-2.44616 0,-1.00436 0.35278,-1.85209 1.05834,-2.53683 0.70555,-0.68756 1.58855,-1.03082 2.65112,-1.03082 0.641,0 1.21955,0.12665 1.73637,0.37889 0.51682,0.25223 0.94121,0.60642 1.27071,1.06115 z m 1.36842,-1.26788 h 0.68898 v 2.88008 h 3.50132 v -2.88008 h 0.68932 v 6.87105 h -0.68932 v -3.32105 h -3.50132 v 3.32105 h -0.68898 z m 6.45054,0 h 0.68898 v 6.87105 h -0.68898 z m 2.2666,6.87105 v -6.87105 h 0.14887 l 4.56848,5.25462 v -5.25462 h 0.68897 v 6.87105 h -0.15593 l -4.54201,-5.20911 v 5.20911 z m 13.70895,-5.71888 -0.5334,0.50306 c -0.38453,-0.37641 -0.80469,-0.66146 -1.26224,-0.85584 -0.45897,-0.19438 -0.90523,-0.2921 -1.34091,-0.2921 -0.5401,0 -1.05551,0.1323 -1.54199,0.39688 -0.49036,0.26599 -0.8696,0.62406 -1.13806,1.07879 -0.26882,0.45226 -0.40252,0.93028 -0.40252,1.43616 0,0.51682 0.13793,1.00859 0.41627,1.47567 0.27693,0.46461 0.66146,0.82973 1.15041,1.09714 0.49213,0.26599 1.02694,0.39934 1.61114,0.39934 0.70838,0 1.30775,-0.19826 1.79705,-0.59513 0.48895,-0.39829 0.77964,-0.91511 0.87065,-1.54764 h -2.1911 v -0.66957 h 2.9658 c -0.006,1.06116 -0.32138,1.90429 -0.94685,2.5273 -0.62689,0.62301 -1.46227,0.93557 -2.51213,0.93557 -1.27212,0 -2.2793,-0.4311 -3.02331,-1.29787 -0.57079,-0.66569 -0.85584,-1.43616 -0.85584,-2.31246 0,-0.6477 0.16405,-1.25413 0.49036,-1.81645 0.3295,-0.5581 0.77859,-0.99766 1.34938,-1.31304 0.57326,-0.31574 1.21814,-0.47414 1.93887,-0.47414 0.5842,0 1.13418,0.10619 1.64959,0.31433 0.51505,0.21061 1.01811,0.54575 1.50883,1.01" />
    <path
       inkscape:connector-curvature="0"
       id="path872"
       style="fill:#f56d00;fill-opacity:1;fill-rule:evenodd;stroke:none;stroke-width:0.35277778"
       d="M 21.735875,120.15712 H 59.7946 l -1.608314,1.81892 H 19.872503 Z" />
    <path
       inkscape:connector-curvature="0"
       id="path874"
       style="fill:#8b8b8b;fill-opacity:1;fill-rule:evenodd;stroke:none;stroke-width:0.35277778"
       d="m 114.46669,105.70416 h 3.28683 l -4.50356,4.70324 h -2.11103 z" />
  </g>
</svg>
