<?xml version="1.0" encoding="UTF-8"?>
<svg width="79.176mm" height="501.88mm" version="1.1" viewBox="0 0 79.176 501.88" xmlns="http://www.w3.org/2000/svg" xmlns:xlink="http://www.w3.org/1999/xlink"><defs><linearGradient id="c"><stop stop-color="#9b2e2e" offset="0"/><stop stop-color="#cf3625" offset="1"/></linearGradient><linearGradient id="d"><stop stop-color="#c9512a" offset="0"/><stop stop-color="#e0650f" stop-opacity=".9765" offset="1"/></linearGradient><linearGradient id="b" x1="83.41" x2="116.3" y1="180.9" y2="135.5" gradientUnits="userSpaceOnUse" xlink:href="#d"/><linearGradient id="a" x1="83.41" x2="116.3" y1="180.9" y2="135.5" gradientUnits="userSpaceOnUse" xlink:href="#c"/></defs><path d="m0.49328 131.91h78.666v127.56c-25.809 11.766-52.153 10.074-78.666 0z" style="fill:#d5fff6;opacity:.993"/><ellipse cx="39.783" cy="132.64" rx="39.323" ry="10.461" style="fill:#00a382;opacity:.993"/><g transform="translate(-78.673 -124.18)"><g transform="translate(-31.75 -22.225)"><path d="m125.18 270.5a6.682 6.682 0 0 1-6.682 6.682 6.682 6.682 0 0 1-6.682-6.682 6.682 6.682 0 0 1 6.682-6.682 6.682 6.682 0 0 1 6.682 6.682z" style="fill:#1a1a1a;opacity:.993"/><g style="stroke-width:.2646" aria-label="2"><path d="m120.8 272.85v1.2589h-4.7509q0.0772-0.71384 0.46303-1.3505 0.38586-0.64149 1.5241-1.6978 0.91642-0.85372 1.1238-1.1576 0.27975-0.41962 0.27975-0.8296 0-0.45338-0.24599-0.69454-0.24116-0.24599-0.67043-0.24599-0.42444 0-0.67525 0.25563t-0.2894 0.84889l-1.3505-0.13505q0.12058-1.119 0.75724-1.6061 0.63667-0.48715 1.5917-0.48715 1.0466 0 1.6447 0.56432t0.59808 1.4036q0 0.4775-0.17363 0.91159-0.16882 0.42927-0.54021 0.90195-0.24598 0.31351-0.88747 0.90194-0.6415 0.58844-0.81513 0.78137-0.16882 0.19293-0.27493 0.37621z" style="fill:#fff"/></g></g></g><g transform="translate(-26.121 20.319)" display="none" style="display:none"><rect x="-3.323" y="-44.09" width="533.7" height="296.3" ry="2.932" style="fill:#ebebeb;opacity:.993;stroke-width:.7;stroke:#ccc"/></g><path d="m0.21389 15.657h78.9v96.491c-25.886 8.9002-52.308 7.6205-78.9 0z" style="fill:#d5f6ff;opacity:.993"/><ellipse cx="39.503" cy="16.39" rx="39.323" ry="10.461" style="fill:#08a;opacity:.993"/><text x="101.94379" y="172.69435" style="fill:#000000;font-family:Arial;font-size:4.233px;letter-spacing:0px;line-height:0.5;stroke-width:.2646;text-anchor:middle;word-spacing:0px" xml:space="preserve"><tspan x="101.94379" y="177.98602" text-align="center" style="line-height:0.5;text-align:center"/><tspan x="101.94379" y="177.98602" text-align="center" style="line-height:0.5;text-align:center"/></text><text x="133.353" y="219.64169" style="fill:#000000;font-family:Arial;font-size:4.233px;letter-spacing:0px;line-height:0.5;stroke-width:.2646;text-anchor:middle;word-spacing:0px" xml:space="preserve"><tspan x="133.353" y="224.93336" text-align="center" style="line-height:0.5;text-align:center"/><tspan x="133.353" y="224.93336" text-align="center" style="line-height:0.5;text-align:center"/></text><text x="22.19614" y="220.25529" style="fill:#000000;font-family:Arial;font-size:3.799px;letter-spacing:0px;line-height:0.5;stroke-width:.23747;text-anchor:middle;word-spacing:0px" xml:space="preserve"><tspan x="22.19614" y="220.25529" text-align="center" style="line-height:0.5;stroke-width:.23747;text-align:center">Comunicación</tspan><tspan x="22.19614" y="225.00436" text-align="center" style="line-height:0.5;stroke-width:.23747;text-align:center">Efectiva</tspan></text><text x="57.030689" y="60.24831" style="fill:#000000;font-family:Arial;font-size:3.7326px;letter-spacing:0px;line-height:0.5;stroke-width:.23332;text-anchor:middle;word-spacing:0px" xml:space="preserve"><tspan x="57.030689" y="60.24831" text-align="center" style="line-height:0.5;stroke-width:.23332;text-align:center">Pruebas</tspan><tspan x="57.030689" y="64.914482" text-align="center" style="line-height:0.5;stroke-width:.23332;text-align:center">Psicolaborales</tspan></text><text x="21.773144" y="59.477093" style="fill:#000000;font-family:Arial;font-size:3.7326px;letter-spacing:0px;line-height:0.5;stroke-width:.23332;text-anchor:middle;word-spacing:0px" xml:space="preserve"><tspan x="21.773144" y="59.477093" text-align="center" style="line-height:0.5;stroke-width:.23332;text-align:center">Dinámicas Grupales</tspan><tspan x="21.773144" y="64.143257" text-align="center" style="line-height:0.5;stroke-width:.23332;text-align:center">Assesment Center</tspan></text><ellipse cx="56.911" cy="42.689" rx="12.998" ry="12.645" style="fill:#006680;opacity:.993;stroke-width:.8818"/><path d="m49.434 50.36c-0.06587-0.05335-0.0662-0.05952-0.05695-1.0802 0.0089-0.98144 0.01233-1.0343 0.07796-1.1948 0.13871-0.34037 0.43499-0.63648 0.77386-0.77325 0.14488-0.05846 0.23861-0.06949 0.66673-0.07848l0.49821-0.0104 0.17592 0.10573c0.09673 0.0582 0.25925 0.13791 0.36118 0.17724 0.13712 0.053 0.19735 0.09541 0.23191 0.16313 0.07406 0.14514 0.28173 0.2395 0.49495 0.22495 0.19567-0.0134 0.30642-0.07654 0.40563-0.23156 0.0453-0.07072 0.11005-0.11234 0.24796-0.15916 0.10264-0.03483 0.26128-0.11093 0.35236-0.16895l0.16569-0.10555 0.44875-5.73e-4c0.53984-8.11e-4 0.75147 0.0515 1.0273 0.25449 0.21436 0.15793 0.31815 0.28861 0.44892 0.56461l0.09788 0.20669 0.0095 1.0167c0.0093 0.9929 8e-3 1.0185-0.05362 1.0802-0.06294 0.06296-0.07328 0.06314-3.185 0.06314-2.9284 0-3.126-0.0035-3.1886-0.05361zm8.4538-0.0095c-0.06164-0.06164-0.06292-0.08756-0.05363-1.0802l0.0095-1.0167 0.09788-0.20669c0.13077-0.276 0.23465-0.40668 0.44892-0.56461 0.27397-0.20193 0.48746-0.25528 1.022-0.25528h0.44363l0.1783 0.10449c0.09806 0.05741 0.25898 0.1343 0.35757 0.1708 0.12522 0.04638 0.19779 0.09488 0.24055 0.1611 0.09982 0.15431 0.21048 0.21719 0.40563 0.2305 0.21445 0.01455 0.42088-0.0798 0.49592-0.22689 0.03672-0.07195 0.09118-0.10908 0.23641-0.16119 0.10379-0.03721 0.26762-0.11525 0.36409-0.17327l0.17539-0.10564h0.45042c0.58692 0 0.78718 0.05617 1.0996 0.30828 0.16772 0.13544 0.33782 0.38887 0.40342 0.60138 0.05653 0.18297 0.06177 0.28394 0.06177 1.1913 0 0.98937-2.43e-4 0.99114-0.06811 1.0388-0.06055 0.04233-0.41374 0.04771-3.1868 0.04771-3.1083 0-3.1189-2.38e-4 -3.1824-0.06314zm-5.7132-3.2124c-0.8639-0.31277-1.5043-1.2001-1.7327-2.3994-0.07839-0.41198-0.06639-0.65253 0.04996-1.0017 0.36903-1.1075 1.5246-1.7662 2.6374-1.5035 0.2305 0.0545 0.68295 0.28473 0.86213 0.4386 0.38288 0.32882 0.65597 0.78136 0.75923 1.2574 0.09232 0.42635 0.0296 1.007-0.16516 1.5273-0.31304 0.83656-0.95939 1.5308-1.5793 1.6957-0.22662 0.06032-0.64398 0.05273-0.83144-0.01508zm0.71178-0.42767c0.56911-0.17715 1.1393-0.87386 1.3721-1.6772 0.04225-0.14576 0.07681-0.3118 0.07681-0.36886 0-0.08906-0.0104-0.10388-0.07338-0.10388-0.23641 0-0.78127-0.24532-1.0793-0.48596l-0.18033-0.14558-0.22168 0.23518c-0.45448 0.48225-1.0246 0.73339-1.6657 0.73339-0.11648 0-0.21181 0.0044-0.21181 0.01005 0 0.02637 0.15396 0.45139 0.21004 0.57996 0.18888 0.4327 0.65368 0.9735 0.97703 1.1375 0.29478 0.14929 0.51514 0.17292 0.79617 0.08545zm7.7457 0.42935c-0.23138-0.08615-0.38023-0.1686-0.59266-0.3282-0.77439-0.58216-1.3324-2.0325-1.1225-2.9196 0.09814-0.41647 0.42-0.925 0.76134-1.2037 0.2626-0.21419 0.68066-0.41312 0.99907-0.47538 0.65676-0.12848 1.3809 0.07822 1.8756 0.53498 0.44866 0.41488 0.66699 0.88885 0.69309 1.5035 0.02257 0.53128-0.08522 1.0158-0.33799 1.5193-0.32441 0.64653-0.68868 1.0405-1.1878 1.283-0.25122 0.12222-0.27239 0.12707-0.5975 0.135-0.26824 0.0062-0.36842-0.0035-0.49028-0.04885zm0.75605-0.43605c0.58454-0.1969 1.1455-0.89767 1.3712-1.7133 0.08484-0.30642 0.08454-0.42961-0.0011-0.42961-0.26057 0-0.77757-0.22733-1.0749-0.47273l-0.19735-0.16278-0.20784 0.2268c-0.4424 0.4827-1.0317 0.74591-1.671 0.74591-0.11869 0-0.21578 0.0053-0.21578 0.01287 0 0.0071 0.04257 0.13465 0.09462 0.28341 0.31912 0.91266 0.97174 1.5528 1.5996 1.5696 0.06374 0.0018 0.20008-0.02531 0.30307-0.06005zm-11.296-5.4954c-0.38067-0.12151-0.61391-0.3864-0.68903-0.78251-0.04157-0.21921-0.04195-4.1965-4.12e-4 -4.4152 0.06105-0.32186 0.23306-0.55394 0.52714-0.7109l0.13165-0.07028h5.0871l0.1641 0.09091c0.20925 0.11587 0.38429 0.3148 0.45474 0.51673 0.05134 0.14717 0.05528 0.31903 0.05528 2.4108v2.2521l-0.08028 0.17116c-0.10202 0.21763-0.26639 0.38191-0.48393 0.48393l-0.17116 0.08024-2.4364 0.0053c-1.9056 0.0044-2.4629-0.0026-2.559-0.03316zm1.9444-1.4647c0.05863-0.06287 0.06247-0.10546 0.06247-0.68948v-0.62237h1.0687l0.0094 0.62502c0.0085 0.56391 0.01511 0.63136 0.06779 0.68948 0.07735 0.08536 0.235 0.08536 0.31224-8.9e-5 0.05551-0.06137 0.05837-0.12954 0.05837-1.3862 0-1.194-0.0052-1.3315-0.05288-1.4188-0.11393-0.20819-0.44257-0.31983-0.94793-0.32186-0.36453-0.0018-0.61126 0.05308-0.80217 0.17759-0.20422 0.13306-0.2044 0.13483-0.2044 1.574v1.2892l0.07522 0.07522c0.09832 0.09832 0.26498 0.1022 0.35263 0.0079zm0.03184-2.1824v-0.41127l0.1149-0.0395c0.06533-0.02249 0.25369-0.0395 0.43667-0.0395 0.18297 0 0.37132 0.01702 0.43666 0.0395l0.1149 0.0395v0.82263h-1.1031zm8.4882 3.6612-2.4055-0.01667-0.17124-0.08033c-0.21974-0.10308-0.41012-0.30184-0.48772-0.50941-0.05899-0.15767-0.06112-0.24055-0.06112-2.3941 0-2.5166-0.01069-2.3967 0.23703-2.6718 0.07669-0.08527 0.20987-0.19223 0.29593-0.23764l0.15652-0.08262h5.0871l0.1641 0.09091c0.20925 0.11596 0.38429 0.3148 0.45474 0.51673 0.05134 0.14717 0.05528 0.31903 0.05528 2.4108v2.2521l-0.08028 0.17116c-0.13906 0.29655-0.44063 0.52555-0.7318 0.55588-0.05899 0.0062-1.1895 0.0035-2.5131-0.0053zm1.41-1.2883c0.03891-0.03889 0.06128-0.10211 0.06128-0.17318 0-0.09462-0.02492-0.13632-0.16084-0.26939-0.08844-0.08659-0.19532-0.17945-0.23747-0.20616-0.07175-0.04559-0.07344-0.05238-0.02655-0.10599 0.26322-0.30113 0.37794-1.0537 0.24179-1.5864-0.15872-0.62052-0.56259-1.052-1.0811-1.156-0.3364-0.06728-0.73154 0.08968-1.0123 0.40201-0.74424 0.82774-0.52484 2.3703 0.4021 2.827 0.17856 0.08792 0.2335 0.10017 0.4498 0.10017 0.21683 0 0.27106-0.01208 0.45174-0.10105l0.20537-0.10105 0.16939 0.10837c0.09321 0.05961 0.16939 0.12821 0.16939 0.15246 0 0.06278 0.14814 0.17116 0.23394 0.17116 0.03987 0 0.10008-0.0276 0.13377-0.06128zm-1.4708-0.58322c-0.31145-0.05441-0.56188-0.33693-0.69036-0.77898-0.07282-0.25052-0.05024-0.7572 0.04478-1.0044 0.19717-0.51338 0.58939-0.76681 0.96469-0.62343 0.15105 0.05767 0.37741 0.28129 0.47123 0.4655 0.22891 0.44936 0.2134 1.0687-0.03748 1.4973-0.0448 0.07645-0.08844 0.13897-0.097 0.13897-0.04024 0-0.19876-0.09876-0.31674-0.19734-0.14744-0.12319-0.24955-0.13756-0.33932-0.04788-0.11058 0.11058-0.08131 0.23853 0.09171 0.40095 0.14012 0.13156 0.14717 0.14462 0.08427 0.15599-0.03778 0.0062-0.11693 0.0044-0.17592-0.0062z" style="fill:#fff;stroke-width:.030642"/><g transform="matrix(.8818 0 0 .8818 4.45 -74.96)"><ellipse cx="20.11" cy="133.42" rx="14.74" ry="14.34" style="fill:#006680;opacity:.993"/><path d="m17.45 143.32c-0.7787-0.1097-1.857-0.3341-2.491-0.5185-0.5069-0.1474-0.5069-0.1474-0.5069-1.771 0-1.413 0.02502-1.69 0.1933-2.14 0.2704-0.7228 0.9556-1.446 1.693-1.786 0.5818-0.2687 0.6032-0.2712 2.314-0.2695 1.584 2e-3 1.771 0.0196 2.265 0.2171 0.6885 0.2758 1.399 0.9613 1.729 1.67 0.2377 0.5092 0.2532 0.6284 0.2847 2.188 0.03326 1.65 0.03326 1.65-0.267 1.805-0.1652 0.0855-0.7047 0.2586-1.199 0.385-1.013 0.259-2.974 0.3663-4.015 0.2198zm-5.176-2.711c-0.5558-0.0989-1.27-0.2562-1.587-0.3495-0.5763-0.1696-0.5763-0.1696-0.6034-1.705-0.0158-0.8947 0.01554-1.71 0.07513-1.955 0.1415-0.5813 0.6619-1.337 1.189-1.726 0.6725-0.4969 1.228-0.6235 2.79-0.6363 1.457-0.012 1.521 8e-3 1.526 0.4959 0.0029 0.2898 0.3838 1.122 0.5924 1.295 0.2546 0.2106 0.1789 0.373-0.2728 0.5854-0.6144 0.2888-1.362 1.011-1.697 1.639-0.272 0.5104-0.4565 1.278-0.5116 2.128-0.03011 0.4651-0.1081 0.477-1.501 0.229zm11.29 0.087c-0.02308-0.0712-0.05859-0.4686-0.07891-0.8833-0.02931-0.5983-0.097-0.8823-0.328-1.376-0.3326-0.7107-1.007-1.438-1.619-1.747-0.659-0.3322-0.658-0.3296-0.3236-0.8265 0.1658-0.2464 0.3549-0.6541 0.4202-0.9062 0.0653-0.252 0.1323-0.5054 0.1489-0.5632 0.04806-0.1674 0.9425-0.2289 2.02-0.1388 0.8576 0.0718 1.075 0.126 1.578 0.394 0.6841 0.3646 1.198 0.9608 1.482 1.72 0.1676 0.4479 0.1935 0.7273 0.1935 2.089 0 1.572 0 1.572-0.4434 1.76-0.9408 0.3987-2.971 0.7169-3.048 0.4778zm4.113-2.552c-0.03371-0.0879-0.06128-0.4045-0.06128-0.7038 0-1.404-0.817-2.694-2.124-3.352-0.3817-0.1923-0.5015-0.4003-0.3016-0.5239 0.1635-0.1011 0.5683-0.9806 0.6373-1.385 0.06484-0.3797 0.07358-0.3872 0.5297-0.4524 0.2551-0.0365 0.9317-0.0315 1.503 0.0112 0.9157 0.0683 1.109 0.1143 1.618 0.3857 0.6349 0.3384 1.104 0.8248 1.427 1.481 0.1915 0.3886 0.2132 0.585 0.2411 2.179 0.03063 1.752 0.03063 1.752-0.3148 1.896-0.5352 0.2236-1.709 0.4944-2.436 0.5619-0.5697 0.053-0.6663 0.0397-0.7194-0.0985zm-9.613-1.588c-0.5698-0.1618-1.101-0.5283-1.404-0.9679-0.3439-0.4999-0.433-0.799-0.4307-1.445 0.0035-0.9581 0.5045-1.788 1.351-2.239 0.5122-0.2727 1.615-0.2836 2.144-0.0212 0.7999 0.3966 1.331 1.162 1.422 2.05 0.1701 1.648-1.504 3.072-3.083 2.624zm-4.357-2.565c-1.179-0.3598-1.863-1.254-1.863-2.433 0-1.399 1.032-2.447 2.423-2.46 0.6946-6e-3 1.165 0.1708 1.657 0.6243 0.4884 0.4502 0.7518 0.9296 0.832 1.514 0.0545 0.3976 0.03603 0.4489-0.2769 0.7704-0.1844 0.1894-0.445 0.5964-0.5791 0.9045-0.3615 0.8302-0.3592 0.8274-0.8024 0.9984-0.4328 0.167-1.001 0.2001-1.39 0.0812zm8.403-0.0442c-0.2606-0.0941-0.346-0.1906-0.4322-0.488-0.1793-0.6192-0.4924-1.147-0.9285-1.565-0.5064-0.4852-0.5209-0.6759-0.1114-1.463 0.8969-1.724 3.292-1.802 4.314-0.1405 0.2571 0.4177 0.2828 0.5321 0.2828 1.26 0 0.707-0.03029 0.8523-0.2588 1.241-0.5818 0.9898-1.878 1.512-2.866 1.155zm4.117-2.511c-0.2711-0.103-0.3386-0.1952-0.482-0.6587-0.1981-0.6402-0.5488-1.173-0.9968-1.515-0.3019-0.2302-0.3216-0.2761-0.2669-0.6183 0.1243-0.7775 0.7823-1.598 1.535-1.913 0.7778-0.3261 1.889-0.1229 2.596 0.4747 1.001 0.8458 1.035 2.725 0.06574 3.621-0.6473 0.5986-1.754 0.8737-2.451 0.6092zm-9.015-0.4986c-0.03634-0.1974-0.1473-0.5439-0.2465-0.77-0.09924-0.2261-0.1555-0.4362-0.1251-0.4667 0.1029-0.1034 2.974-0.1178 3.241-0.0162 0.2501 0.0952 0.254 0.107 0.1204 0.3654-0.07597 0.1469-0.1853 0.4545-0.243 0.6836-0.1049 0.4165-0.1049 0.4165-1.102 0.4178-0.5482 6.4e-4 -1.128 0.0336-1.288 0.0732-0.2816 0.0695-0.2935 0.0597-0.3574-0.287zm0.4805-1.66c-1.822-0.6498-2.424-2.87-1.166-4.298 0.5547-0.6302 1.178-0.9204 1.988-0.9258 1.094-7e-3 1.939 0.5037 2.456 1.485 0.3242 0.615 0.3482 1.647 0.05313 2.287-0.5637 1.222-2.099 1.892-3.331 1.452z" style="fill:#fff;stroke-width:.09334"/></g><text x="39.695503" y="131.30405" font-size="5.292px" font-weight="bold" letter-spacing="0px" word-spacing="0px" style="fill:#ffffff;font-family:Arial;font-size:4.8175px;font-weight:bold;letter-spacing:0px;line-height:0.5;stroke-width:.24088;text-anchor:middle;word-spacing:0px" xml:space="preserve"><tspan x="39.695503" y="131.30405" text-align="center" style="line-height:1;stroke-width:.24088;text-align:center">MARCA PERSONAL</tspan><tspan x="39.695503" y="137.29562" text-align="center" style="line-height:1;stroke-width:.24088;text-align:center">Y PROFESIONAL</tspan></text><g transform="translate(-110.57 -263.82)"><path d="m125.18 270.5a6.682 6.682 0 0 1-6.682 6.682 6.682 6.682 0 0 1-6.682-6.682 6.682 6.682 0 0 1 6.682-6.682 6.682 6.682 0 0 1 6.682 6.682z" style="fill:#1a1a1a;opacity:.993"/><g style="stroke-width:.2646" aria-label="1"><path d="m119.69 274.1h-1.3553v-5.1078q-0.74278 0.69455-1.7508 1.0274v-1.2299q0.53055-0.17364 1.1528-0.65596 0.6222-0.48715 0.85372-1.1335h1.0997z" style="fill:#fff"/></g></g><text x="57.327972" y="220.44881" style="fill:#000000;font-family:Arial;font-size:3.799px;letter-spacing:0px;line-height:0.5;stroke-width:.23747;text-anchor:middle;word-spacing:0px" xml:space="preserve"><tspan x="57.327972" y="220.44881" text-align="center" style="line-height:0.5;stroke-width:.23747;text-align:center">Entrevista</tspan><tspan x="57.327972" y="225.19791" text-align="center" style="line-height:0.5;stroke-width:.23747;text-align:center">Laboral</tspan></text><text x="22.315479" y="177.33676" style="fill:#000000;font-family:Arial;font-size:3.799px;letter-spacing:0px;line-height:0.5;stroke-width:.23747;text-anchor:middle;word-spacing:0px" xml:space="preserve"><tspan x="22.315479" y="177.33676" text-align="center" style="line-height:0.5;stroke-width:.23747;text-align:center">Imagen y estilo</tspan><tspan x="22.315479" y="182.0858" text-align="center" style="line-height:0.5;stroke-width:.23747;text-align:center">personal y</tspan><tspan x="22.315479" y="186.8349" text-align="center" style="line-height:0.5;stroke-width:.23747;text-align:center">profesional</tspan></text><text x="56.986954" y="99.764435" style="fill:#000000;font-family:Arial;font-size:3.7326px;letter-spacing:0px;line-height:0.5;stroke-width:.23332;text-anchor:middle;word-spacing:0px" xml:space="preserve"><tspan x="56.986954" y="99.764435" text-align="center" style="line-height:0.5;stroke-width:.23332;text-align:center">Diagnóstico de</tspan><tspan x="56.986954" y="104.43061" text-align="center" style="line-height:0.5;stroke-width:.23332;text-align:center">Carrera Profesional.</tspan><tspan x="56.986954" y="109.09677" text-align="center" style="line-height:0.5;stroke-width:.23332;text-align:center">Remuneración</tspan></text><g transform="matrix(.8818 0 0 .8818 -28.626 -70.202)"><text x="57.52285" y="192.53209" style="fill:#000000;font-family:Arial;font-size:4.233px;letter-spacing:0px;line-height:0.5;stroke-width:.2646;text-anchor:middle;word-spacing:0px" xml:space="preserve"><tspan x="57.52285" y="192.53209" text-align="center" style="line-height:0.5;text-align:center">Entrevistas</tspan><tspan x="57.52285" y="197.82376" text-align="center" style="line-height:0.5;text-align:center">de Empleo</tspan></text><ellipse cx="57.62" cy="172.42" rx="14.74" ry="14.34" style="fill:#006680;opacity:.993"/><g transform="matrix(.336 0 0 .336 71.704 98.92)" style="fill:#fff"><g style="stroke-width:.3528"><path d="m-50.92 240.5c-0.09107-0.2461-0.2063-3.702-0.256-7.679-0.09043-7.232-0.09043-7.232-2.648-7.336-2.558-0.1036-2.558-0.1036-2.558-2.734s0-2.63 13.72-2.63c12.19 0 13.74 0.0624 13.93 0.558 0.3022 0.7875 0.2565 3.768-0.06561 4.275-0.155 0.2438-1.311 0.468-2.729 0.5292-2.46 0.1061-2.46 0.1061-2.636 7.691l-0.1764 7.585-8.211 0.0947c-6.379 0.0736-8.248-5e-3 -8.376-0.3528z"/><path d="m-27.74 239.6c-2.002-0.2663-2.524-0.7264-2.532-2.234-0.0099-1.738 1.055-2.096 5.463-1.835 6.309 0.3731 9.399-0.7284 10.9-3.884 0.3198-0.674 1.03-4.171 1.577-7.772 1.048-6.891 1.458-7.961 3.048-7.961 1.063 0 1.94 1.074 1.94 2.378 0 1.537-1.706 12.37-2.182 13.85-0.9469 2.953-3.014 5.146-6.256 6.636-1.628 0.7483-2.517 0.8927-5.997 0.9747-2.247 0.0529-4.929-0.0158-5.958-0.1528z"/><path d="m-66.79 238.9c-3.036-0.7704-5.887-3.075-7.164-5.792-0.7003-1.49-2.537-11.98-2.537-14.49 0-1.326 0.6912-1.983 2.085-1.983 1.222 0 1.707 1.369 2.652 7.479 1.026 6.632 1.267 7.455 2.605 8.869 1.861 1.966 2.61 2.164 8.213 2.169 5.504 5e-3 6.316 0.229 6.316 1.744 0 0.4242-0.225 1.079-0.5 1.456-0.4505 0.617-1.001 0.6912-5.556 0.7494-2.781 0.0355-5.533-0.0562-6.115-0.2039z"/><path d="m-31.42 233.9c-0.5038-0.3116-0.6174-0.8955-0.6174-3.174 0-3.373 0.1699-3.523 3.991-3.523 1.679 0 2.752-0.1589 2.975-0.441 0.1918-0.2425 0.4566-2.57 0.5883-5.172 0.3245-6.409 0.6692-7.858 2.187-9.19 1.473-1.293 3.265-1.421 5.01-0.3571 2.019 1.231 2.31 2.529 1.864 8.313-0.2123 2.756-0.3895 6.019-0.3937 7.252-0.0099 2.867-0.9209 4.967-2.522 5.814-0.9453 0.5-2.275 0.6444-6.819 0.7405-3.641 0.0771-5.864-0.0161-6.262-0.2624z"/><path d="m-66.34 232.3c-1.724-0.9434-2.121-2.297-2.429-8.272-0.1547-3.007-0.3581-6.182-0.452-7.056-0.2348-2.183 0.4234-3.864 1.906-4.87 1.968-1.334 4.424-0.9978 7.994 1.095 2.783 1.632 2.876 1.658 5.899 1.658 2.812 0 3.147 0.0752 3.96 0.8878 0.963 0.963 0.9088 2.079-0.141 2.905-0.8173 0.6425-7.735 0.5739-8.893-0.0882-1.968-1.125-2.097-0.9017-1.879 3.263 0.149 2.853 0.3356 3.902 0.7532 4.233 0.3278 0.2604 1.594 0.441 3.09 0.441 1.749 0 2.663 0.154 2.947 0.4965 0.2555 0.3079 0.3725 1.481 0.3078 3.087-0.1043 2.59-0.1043 2.59-6.102 2.669-4.774 0.0625-6.194-0.0292-6.963-0.4499z"/></g><circle cx="-65.4" cy="205.8" r="4.209" style="opacity:.993"/><circle cx="-19.83" cy="205.5" r="4.41" style="opacity:.993"/></g></g><g transform="translate(.54249)"><g transform="matrix(.8818 0 0 .8818 -31.899 -62.072)"><ellipse cx="100.1" cy="163.2" rx="14.74" ry="14.34" style="fill:#006680;opacity:.993"/></g><path d="m55.301 91.676c-1.2865-0.06428-1.8615-0.33217-2.1586-1.0061-0.46153-1.0449 0.19585-3.2186 1.3262-4.3861 0.26692-0.27556 0.26692-0.27556 1.8985-0.27556s1.6313 0 1.8985 0.27556c0.90825 0.93735 1.5537 2.589 1.4664 3.7476-0.07072 0.9347-0.59292 1.4409-1.6375 1.5872-0.49883 0.07001-1.94 0.09902-2.7926 0.05643zm1.3165-1.2134c0.01302-0.11375 0.06031-0.16507 0.20793-0.22574 0.53005-0.21789 0.76725-0.73198 0.54945-1.1913-0.09876-0.2081-0.2917-0.33632-0.77933-0.51779-0.40554-0.15096-0.51171-0.2477-0.43296-0.39478 0.0718-0.13421 0.40774-0.13006 0.58216 0.0071 0.18474 0.14532 0.26304 0.13121 0.44928-0.08086 0.20361-0.23191 0.17045-0.30492-0.23694-0.52167-0.20731-0.11031-0.31127-0.19999-0.33164-0.28588-0.02577-0.10917-0.05929-0.12522-0.26119-0.12522-0.20334 0-0.23368 0.0149-0.24884 0.12186-0.01012 0.07151-0.08268 0.1574-0.17548 0.20793-0.42502 0.2313-0.6035 0.51911-0.53816 0.86778 0.05446 0.29029 0.27036 0.4894 0.79458 0.73268 0.40642 0.18862 0.48208 0.24285 0.48208 0.34505 0 0.2962-0.36568 0.33632-0.74926 0.08227-0.24726-0.16375-0.24726-0.16375-0.46136 0.05035-0.2141 0.2141-0.2141 0.2141-0.09506 0.3409 0.06549 0.06975 0.2574 0.20052 0.42652 0.29064 0.23712 0.12636 0.30739 0.19091 0.30739 0.28209 0 0.16648 0.0451 0.19461 0.28403 0.17698 0.18729-0.01384 0.21163-0.03122 0.22671-0.16269zm-4.5642-2.8711c-1.4744-0.34099-2.357-0.79723-2.6075-1.3483-0.11031-0.24214-0.12054-0.60341-0.04232-1.4946 0.11966-1.3641 0.44425-2.0387 1.1199-2.3279 0.12283-0.05264 0.5684-0.16939 0.99026-0.25942 0.9638-0.20564 1.5096-0.40245 2.0863-0.75182 0.45377-0.27486 0.45377-0.27486 0.60976-0.10634 0.35192 0.38023 1.1384 0.59839 2.1578 0.59839 1.0194 0 1.805-0.21816 2.1578-0.59839 0.15599-0.16851 0.15599-0.16851 0.60976 0.10634 0.57872 0.35051 1.1234 0.54636 2.0969 0.75367 1.1269 0.2402 1.4514 0.42529 1.7415 0.9929 0.23165 0.45412 0.41303 1.5749 0.41136 2.5413-0.0011 0.59839-0.27424 0.96821-0.97174 1.3174-0.67422 0.33685-2.2495 0.76663-2.3879 0.65156-0.03674-0.03051-0.12707-0.18712-0.20078-0.34813-0.18456-0.40307-0.75111-1.2398-1.0079-1.4876-0.11684-0.11305-0.21242-0.24787-0.21242-0.29972s0.07018-0.2186 0.15599-0.37053c0.33058-0.58578 0.09823-1.2451-0.51488-1.462-0.18491-0.06525-0.52493-0.07963-1.8703-0.07945-0.98673 1.68e-4 -1.7221 0.02213-1.8403 0.05485-0.24435 0.06781-0.55033 0.33103-0.64318 0.55324-0.11992 0.28694-0.08897 0.62369 0.08572 0.93294 0.08578 0.15202 0.15599 0.31868 0.15599 0.37053 0 0.05185-0.09559 0.18668-0.21242 0.29972-0.24911 0.24099-0.81813 1.0758-0.99731 1.4638-0.12945 0.27979-0.2342 0.43367-0.2909 0.42741-0.01794-0.0018-0.27759-0.06032-0.57696-0.12954zm2.924-2.1145c-0.02838-0.03615-0.13685-0.2201-0.24099-0.40871-0.21287-0.38534-0.23976-0.58824-0.08888-0.66902 0.06314-0.03377 0.70279-0.0537 1.7186-0.0537 1.0158 0 1.656 0.02002 1.7186 0.0537 0.1574 0.08421 0.12134 0.29778-0.12248 0.72598-0.22204 0.38993-0.22204 0.38993-1.5775 0.40378-1.0458 0.01067-1.3677-8.29e-4 -1.4073-0.05203zm0.73859-4.6039c-0.41956-0.14506-0.75411-0.36683-1.1463-0.76002-0.44451-0.44513-0.74018-0.87351-1.0405-1.5079-0.12416-0.26207-0.2872-0.53402-0.36242-0.60421-0.27724-0.25907-0.43711-0.74406-0.43808-1.3289-5.21e-4 -0.30025 0.02178-0.40272 0.1186-0.54583 0.09656-0.14267 0.13095-0.29981 0.18086-0.82607 0.13738-1.4497 0.41541-1.9646 1.3606-2.5184 0.81398-0.47714 1.47-0.62369 2.4179-0.54054 0.69935 0.06137 1.052 0.20766 1.9735 0.81839 0.53684 0.35589 0.8407 1.1119 0.94264 2.3447 0.02495 0.30254 0.07755 0.52996 0.16684 0.72131 0.11657 0.24972 0.12768 0.32697 0.10476 0.72783-0.02839 0.49575-0.16957 0.90208-0.3827 1.1031-0.06949 0.06534-0.23994 0.35413-0.37873 0.64195-0.31216 0.64706-0.5811 1.0423-0.99996 1.4682-0.38658 0.39381-0.78427 0.66699-1.1666 0.80138-0.36145 0.12707-0.99026 0.12945-1.35 0.0053z" style="fill:#fff;stroke-width:.051982"/></g><g transform="matrix(.95893 0 0 .95893 -.23737 -85.818)"><text x="41.809944" y="355.44412" style="fill:#000000;font-family:Arial;font-size:3.9617px;letter-spacing:0px;line-height:0.5;stroke-width:.24764;text-anchor:middle;word-spacing:0px" xml:space="preserve"><tspan x="41.809944" y="355.44412" text-align="center" style="line-height:0.5;stroke-width:.24764;text-align:center">Currículum</tspan><tspan x="41.809944" y="360.39673" text-align="center" style="line-height:0.5;stroke-width:.24764;text-align:center">Vitae</tspan></text><g transform="matrix(.9359 0 0 .9359 -97.126 272.85)"><g transform="translate(-23.501 -37.258)"><g transform="translate(71.82,-56.98)"><ellipse cx="100.1" cy="163.2" rx="14.74" ry="14.34" style="fill:#00a382;opacity:.993"/></g></g><path d="m155.25 77.22c-0.9007-0.1167-1.884-0.5252-2.506-1.041-0.1994-0.1653-0.1994-0.1653-1.157-0.1447-0.6107 0.0131-1.112 3e-3 -1.383-0.0276-2.358-0.2674-4.171-1.296-4.978-2.824-0.0807-0.1529-0.1469-0.3022-0.1469-0.3319 0-0.0435 0.1391-0.0495 0.7222-0.0316 0.4433 0.0137 0.9107 3e-3 1.21-0.0273 0.494-0.0502 1.305-0.2038 1.566-0.2966 0.1055-0.0375 0.8319-0.056 2.807-0.0716 2.665-0.0209 2.665-0.0209 2.677-0.3606 8e-3 -0.2154-6e-3 -0.3605-0.0356-0.3967-0.0392-0.0472-0.3246-0.0571-1.652-0.0571-0.974 0-1.595-0.0148-1.581-0.0377 0.0128-0.0207 0.165-0.1371 0.3381-0.2585 0.1731-0.1215 0.4836-0.37 0.69-0.5523 0.3752-0.3314 0.3752-0.3314 1.266-0.3314 0.7153 0 0.9007-0.0113 0.9387-0.0571 0.0301-0.0362 0.043-0.1813 0.0356-0.3967-0.0119-0.3396-0.0119-0.3396-0.5713-0.351-0.4568-9e-3 -0.5595-0.0222-0.5595-0.0704 0-0.0325 0.0669-0.1636 0.1486-0.2914 0.3429-0.5361 0.6827-1.37 0.8261-2.027 0.0691-0.3167 0.0745-0.326 0.1845-0.3178 0.1781 0.0132 1.061 0.4745 1.475 0.7705 2.209 1.58 2.752 4.065 1.344 6.152-0.2402 0.356-0.6801 0.8279-1.035 1.11-0.2925 0.2328-0.2925 0.2357-2e-3 0.5502 0.2304 0.25 0.6468 0.5158 1.181 0.7536 0.4529 0.2018 0.6399 0.3256 0.6399 0.4236 0 0.0928-0.2005 0.2908-0.38 0.3752-0.3976 0.1869-1.325 0.2617-2.061 0.1662zm-15.69-4.032c-0.2836-0.0519-0.439-0.1936-0.404-0.3686 0.0357-0.1785 0.1248-0.2628 0.4517-0.4274 0.4148-0.2089 0.7334-0.4344 1.074-0.7601 0.2932-0.2805 0.6751-0.8004 0.7203-0.9805 0.0183-0.0733-0.0664-0.1786-0.4603-0.5732-0.8958-0.8971-1.443-1.906-1.708-3.149-0.1043-0.4897-0.103-1.67 2e-3 -2.156 0.2588-1.194 0.7698-2.154 1.61-3.024 1.087-1.126 2.437-1.832 4.071-2.131 0.492-0.08995 2.018-0.1013 2.482-0.01846 1.177 0.2103 2.125 0.5816 3.015 1.181 1.439 0.9695 2.389 2.332 2.726 3.911 0.1219 0.5705 0.1338 1.668 0.0238 2.211-0.5495 2.716-2.953 4.719-6.089 5.075-0.4756 0.054-1.887 0.0276-2.211-0.0412-0.193-0.041-0.2024-0.038-0.7527 0.2373-1.038 0.5194-2.072 0.8748-2.907 0.9987-0.4642 0.069-1.308 0.0768-1.645 0.0154zm8.022-5.607c0-0.3865 0-0.3865-2.319-0.3978-1.276-7e-3 -2.36-1e-3 -2.411 0.0113-0.0863 0.0209-0.0915 0.0426-0.0915 0.3808 0 0.1972 0.0124 0.371 0.0275 0.3861s1.1 0.0228 2.411 0.017c2.383-0.0102 2.383-0.0102 2.383-0.397zm2.034-2.014c0-0.3662 0-0.3662-3.418-0.3662s-3.418 0-3.43 0.3219c-7e-3 0.177-2e-3 0.3465 9e-3 0.3766 0.0174 0.0453 0.6058 0.0529 3.43 0.0443 3.409-0.0102 3.409-0.0102 3.409-0.3766zm1e-3 -1.699c0.0127-0.0506 0.0177-0.2291 0.0113-0.3967-0.0121-0.3047-0.0121-0.3047-3.43-0.3047-3.418 0-3.418 0-3.43 0.3424-7e-3 0.1883-2e-3 0.3669 9e-3 0.3967 0.0171 0.0446 0.6243 0.0542 3.419 0.0542 3.398 0 3.398 0 3.421-0.0921z" style="fill:#fff;stroke-width:.04069"/></g></g><g transform="matrix(.89746 0 0 .89746 -87.726 70.634)"><ellipse cx="161.8" cy="147.5" rx="14.74" ry="14.34" style="fill:#00a382;opacity:.993"/><g transform="matrix(.336 0 0 .336 176.1 73.78)" style="fill:#fff"><g style="stroke-width:.3528"><path d="m-50.92 240.5c-0.09107-0.2461-0.2063-3.702-0.256-7.679-0.09043-7.232-0.09043-7.232-2.648-7.336-2.558-0.1036-2.558-0.1036-2.558-2.734s0-2.63 13.72-2.63c12.19 0 13.74 0.0624 13.93 0.558 0.3022 0.7875 0.2565 3.768-0.06561 4.275-0.155 0.2438-1.311 0.468-2.729 0.5292-2.46 0.1061-2.46 0.1061-2.636 7.691l-0.1764 7.585-8.211 0.0947c-6.379 0.0736-8.248-5e-3 -8.376-0.3528z"/><path d="m-27.74 239.6c-2.002-0.2663-2.524-0.7264-2.532-2.234-0.0099-1.738 1.055-2.096 5.463-1.835 6.309 0.3731 9.399-0.7284 10.9-3.884 0.3198-0.674 1.03-4.171 1.577-7.772 1.048-6.891 1.458-7.961 3.048-7.961 1.063 0 1.94 1.074 1.94 2.378 0 1.537-1.706 12.37-2.182 13.85-0.9469 2.953-3.014 5.146-6.256 6.636-1.628 0.7483-2.517 0.8927-5.997 0.9747-2.247 0.0529-4.929-0.0158-5.958-0.1528z"/><path d="m-66.79 238.9c-3.036-0.7704-5.887-3.075-7.164-5.792-0.7003-1.49-2.537-11.98-2.537-14.49 0-1.326 0.6912-1.983 2.085-1.983 1.222 0 1.707 1.369 2.652 7.479 1.026 6.632 1.267 7.455 2.605 8.869 1.861 1.966 2.61 2.164 8.213 2.169 5.504 5e-3 6.316 0.229 6.316 1.744 0 0.4242-0.225 1.079-0.5 1.456-0.4505 0.617-1.001 0.6912-5.556 0.7494-2.781 0.0355-5.533-0.0562-6.115-0.2039z"/><path d="m-31.42 233.9c-0.5038-0.3116-0.6174-0.8955-0.6174-3.174 0-3.373 0.1699-3.523 3.991-3.523 1.679 0 2.752-0.1589 2.975-0.441 0.1918-0.2425 0.4566-2.57 0.5883-5.172 0.3245-6.409 0.6692-7.858 2.187-9.19 1.473-1.293 3.265-1.421 5.01-0.3571 2.019 1.231 2.31 2.529 1.864 8.313-0.2123 2.756-0.3895 6.019-0.3937 7.252-0.0099 2.867-0.9209 4.967-2.522 5.814-0.9453 0.5-2.275 0.6444-6.819 0.7405-3.641 0.0771-5.864-0.0161-6.262-0.2624z"/><path d="m-66.34 232.3c-1.724-0.9434-2.121-2.297-2.429-8.272-0.1547-3.007-0.3581-6.182-0.452-7.056-0.2348-2.183 0.4234-3.864 1.906-4.87 1.968-1.334 4.424-0.9978 7.994 1.095 2.783 1.632 2.876 1.658 5.899 1.658 2.812 0 3.147 0.0752 3.96 0.8878 0.963 0.963 0.9088 2.079-0.141 2.905-0.8173 0.6425-7.735 0.5739-8.893-0.0882-1.968-1.125-2.097-0.9017-1.879 3.263 0.149 2.853 0.3356 3.902 0.7532 4.233 0.3278 0.2604 1.594 0.441 3.09 0.441 1.749 0 2.663 0.154 2.947 0.4965 0.2555 0.3079 0.3725 1.481 0.3078 3.087-0.1043 2.59-0.1043 2.59-6.102 2.669-4.774 0.0625-6.194-0.0292-6.963-0.4499z"/></g><circle cx="-65.4" cy="205.8" r="4.209" style="opacity:.993"/><circle cx="-19.83" cy="205.5" r="4.41" style="opacity:.993"/></g></g><g transform="translate(-.06208)"><g transform="matrix(.89746 0 0 .89746 -67.605 56.544)"><ellipse cx="100.1" cy="163.2" rx="14.74" ry="14.34" style="fill:#00a382;opacity:.993"/></g><path d="m28.359 210.41c-0.80835-0.10473-1.6908-0.47134-2.249-0.93425-0.17894-0.14836-0.17894-0.14836-1.0384-0.12987-0.54807 0.0118-0.99797 3e-3 -1.2412-0.0247-2.1162-0.23998-3.7433-1.1631-4.4676-2.5344-0.07243-0.13722-0.13184-0.27121-0.13184-0.29787 0-0.039 0.12484-0.0444 0.64815-0.0284 0.39784 0.0123 0.81732 3e-3 1.0859-0.0245 0.44335-0.0451 1.1712-0.18291 1.4054-0.26619 0.09465-0.0337 0.7466-0.0502 2.5192-0.0642 2.3917-0.0188 2.3917-0.0188 2.4025-0.32362 0.0067-0.19332-0.0058-0.32355-0.03193-0.35602-0.03519-0.0424-0.29131-0.0512-1.4826-0.0512-0.87413 0-1.4315-0.0132-1.4189-0.0339 0.01151-0.0186 0.14809-0.12304 0.30343-0.23199 0.15536-0.10904 0.43402-0.33206 0.61926-0.49567 0.33673-0.29743 0.33673-0.29743 1.1362-0.29743 0.64195 0 0.80835-0.0102 0.84245-0.0512 0.02704-0.0325 0.03855-0.16271 0.03193-0.35602-0.01064-0.30479-0.01064-0.30479-0.51272-0.31501-0.40996-8e-3 -0.50213-0.0199-0.50213-0.0632 0-0.0292 0.06003-0.14683 0.13337-0.26152 0.30774-0.48113 0.6127-1.2295 0.74139-1.8192 0.06204-0.28423 0.06684-0.29258 0.16558-0.28522 0.15984 0.0119 0.95221 0.42584 1.3238 0.6915 1.9825 1.418 2.4698 3.6482 1.2062 5.5212-0.21558 0.3195-0.61037 0.74301-0.92887 0.99619-0.26251 0.20893-0.26251 0.21153-0.0019 0.49378 0.20677 0.22437 0.58048 0.46291 1.0599 0.67633 0.40646 0.18111 0.57429 0.29222 0.57429 0.38017 0 0.0833-0.17994 0.26098-0.34104 0.33673-0.35683 0.16773-1.1891 0.23487-1.8497 0.14916zm-14.081-3.6186c-0.25452-0.0466-0.39399-0.17375-0.36258-0.33081 0.03204-0.1602 0.112-0.23585 0.40538-0.38357 0.37227-0.18748 0.6582-0.38986 0.96388-0.68216 0.26314-0.25174 0.60588-0.71833 0.64644-0.87997 0.01643-0.0658-0.05959-0.16028-0.4131-0.51443-0.80395-0.80511-1.295-1.7106-1.5329-2.8261-0.0936-0.43948-0.09244-1.4988 0.0018-1.9349 0.23226-1.0716 0.69087-1.9331 1.4449-2.7139 0.97554-1.0105 2.1871-1.6442 3.6536-1.9125 0.44155-0.0807 1.8111-0.0909 2.2275-0.0166 1.0563 0.18864 1.9071 0.52197 2.7058 1.0599 1.2915 0.87009 2.144 2.0929 2.4465 3.51 0.1094 0.51201 0.12008 1.497 0.02138 1.9843-0.49316 2.4375-2.6502 4.2351-5.4647 4.5546-0.42683 0.0484-1.6935 0.0247-1.9843-0.037-0.17321-0.0368-0.18165-0.0341-0.67552 0.21297-0.93157 0.46614-1.8595 0.7851-2.6089 0.8963-0.4166 0.0619-1.1739 0.069-1.4763 0.0138zm7.1995-5.0321c0-0.34687 0-0.34687-2.0812-0.35701-1.1452-7e-3 -2.118-9e-4 -2.1638 0.0102-0.07745 0.0188-0.08211 0.0383-0.08211 0.34177 0 0.17698 0.01112 0.33295 0.02468 0.3465 0.01355 0.0135 0.98721 0.0204 2.1638 0.0153 2.1387-0.01 2.1387-0.01 2.1387-0.35629zm1.8254-1.8075c0-0.32866 0-0.32866-3.0675-0.32866-3.0675 0-3.0675 0-3.0783 0.2889-0.0063 0.15885-0.0018 0.31097 0.0081 0.33798 0.01561 0.0407 0.54368 0.0475 3.0783 0.0398 3.0595-0.01 3.0595-0.01 3.0595-0.33798zm8.92e-4 -1.5248c0.01141-0.0455 0.01592-0.20561 0.01016-0.35602-0.01084-0.27347-0.01084-0.27347-3.0783-0.27347-3.0675 0-3.0675 0-3.0783 0.3073-0.0063 0.16899-0.0018 0.32927 0.0081 0.35602 0.01534 0.04 0.56029 0.0486 3.0684 0.0486 3.0496 0 3.0496 0 3.0702-0.0827z" style="fill:#fff;stroke-width:.036518"/></g><g transform="translate(-.062079)"><g transform="matrix(.89746 0 0 .89746 -67.605 13.371)"><ellipse cx="100.1" cy="163.2" rx="14.74" ry="14.34" style="fill:#00a382;opacity:.993"/><path d="m90.924 170.4c-0.4731-0.1506-0.8565-0.4849-1.063-0.9266-0.1229-0.2635-0.1229-0.2635-0.1229-5.84 0-5.576 0-5.576 0.1365-5.862 0.2179-0.4554 0.5664-0.7593 1.028-0.8964 0.2001-0.0594 0.5535-0.0695 2.423-0.0695 2.188 0 2.188 0 2.227-0.0988 0.02132-0.0543 0.07078-0.1897 0.1099-0.3008 0.09542-0.2707 0.3163-0.5194 0.6021-0.6776 0.2353-0.1303 0.2353-0.1303 1.305-0.1523 1.07-0.022 1.07-0.022 1.253-0.2634 0.3464-0.4558 0.8413-0.6875 1.385-0.6486 0.4938 0.0353 0.8804 0.254 1.19 0.6733 0.1764 0.2388 0.1764 0.2388 1.157 0.2388 1.052 0 1.195 0.0225 1.526 0.2415 0.2236 0.1476 0.3855 0.3744 0.4956 0.694 0.0936 0.272 0.0936 0.272 2.375 0.2939 2.281 0.022 2.281 0.022 2.545 0.1448 0.3458 0.1613 0.6854 0.4995 0.8421 0.8385 0.1239 0.268 0.1239 0.268 0.1239 5.844s0 5.576-0.1384 5.868c-0.1756 0.3706-0.4284 0.6234-0.799 0.799-0.292 0.1384-0.292 0.1384-9.359 0.1466-7.239 6e-3 -9.103-3e-3 -9.243-0.0477zm18.22-0.651c0.2376-0.0705 0.5614-0.3944 0.632-0.632 0.041-0.1381 0.0535-1.437 0.0527-5.511-9.1e-4 -5.27-2e-3 -5.332-0.0905-5.527-0.1204-0.2656-0.2396-0.387-0.5013-0.5103-0.2195-0.1035-0.2195-0.1035-9.106-0.104-6.875-3.4e-4 -8.927 0.0117-9.067 0.0533-0.2376 0.0705-0.5614 0.3944-0.632 0.632-0.07773 0.2617-0.07773 10.71 0 10.97 0.06597 0.2222 0.3919 0.5604 0.605 0.628 0.2326 0.0737 17.86 0.0776 18.11 4e-3zm-14.46-1.1c-0.1301-0.0658-2.092-2.455-2.18-2.654-0.03415-0.0777-0.0621-0.2198-0.0621-0.3158 0-0.1745 0-0.1745-0.6171-0.5983-0.6141-0.4217-0.6171-0.4246-0.6037-0.5808 0.01338-0.1569 0.01338-0.1569 0.972-0.6337 0.5272-0.2622 1.001-0.4812 1.053-0.4866 0.08355-9e-3 0.09806 0.0184 0.1242 0.2317 0.02196 0.1795 0.2592 0.7546 0.9236 2.239 0.5283 1.181 0.9178 1.998 0.9522 1.998 0.08923 0 1.893-4.086 1.894-4.289 2.15e-4 -0.0891 0.01924-0.1737 0.04224-0.1879 0.02299-0.0142 0.4977 0.1954 1.055 0.4658 1.049 0.509 1.108 0.5531 1.036 0.7701-0.01454 0.044-0.1876 0.1887-0.3846 0.3215s-0.4734 0.3254-0.6142 0.428c-0.256 0.1865-0.256 0.1865-0.256 0.4181 0 0.1882-0.02309 0.2602-0.1232 0.3843-1.373 1.702-2.043 2.495-2.126 2.518-0.1824 0.0488-0.9737 0.0287-1.085-0.0277zm13-1.117c-0.4199-0.221-0.4656-0.801-0.085-1.08 0.1661-0.1217 0.4641-0.1422 0.6495-0.0446 0.4199 0.221 0.4656 0.801 0.085 1.08-0.1661 0.1217-0.4641 0.1422-0.6496 0.0446zm-7.328-0.2785c-0.1308-0.1218-0.1281-0.3481 5e-3 -0.4736 0.1016-0.0955 0.1016-0.0955 2.671-0.0955 2.569 0 2.569 0 2.665 0.1016 0.1256 0.1337 0.1253 0.3502-6.2e-4 0.4675-0.0944 0.088-0.1404 0.0895-2.67 0.0895s-2.576-2e-3 -2.67-0.0895zm-5.167-0.7557c-0.01031-0.0302-0.1286-0.5081-0.263-1.062-0.2442-1.007-0.2442-1.007-0.06435-1.317 0.1435-0.2474 0.1703-0.3255 0.1326-0.3863-0.1313-0.2118 0.0071-0.4287 0.2735-0.4287 0.1238 0 0.1771 0.0258 0.2345 0.1135 0.06336 0.0967 0.06637 0.1356 0.0204 0.2627-0.0501 0.1386-0.04279 0.1692 0.1023 0.4286 0.08594 0.1537 0.1563 0.3159 0.1563 0.3606 0 0.0677-0.3935 1.762-0.4661 2.007-0.02643 0.0891-0.09892 0.1018-0.1262 0.022zm5.166-1.057c-0.1256-0.1337-0.1253-0.3502 6.3e-4 -0.4675 0.0953-0.0888 0.1305-0.0895 4.229-0.0895s4.134 6.6e-4 4.229 0.0895c0.1308 0.1218 0.1281 0.3481-5e-3 0.4736-0.1016 0.0955-0.1016 0.0955-4.23 0.0955-4.128 0-4.128 0-4.223-0.1016zm0-1.756c-0.1256-0.1337-0.1253-0.3502 6.3e-4 -0.4675 0.0953-0.0888 0.1305-0.0895 4.229-0.0895s4.134 6.7e-4 4.229 0.0895c0.1308 0.1218 0.1281 0.3481-5e-3 0.4736-0.1016 0.0955-0.1016 0.0955-4.23 0.0955-4.128 0-4.128 0-4.223-0.1016zm-5.652-0.8338c-0.287-0.1371-0.5643-0.453-0.759-0.8648-0.08563-0.1811-0.229-0.3985-0.3186-0.483-0.2196-0.2072-0.2988-0.4848-0.1858-0.6513 0.06228-0.0917 0.08015-0.2075 0.08246-0.5342 0.0041-0.5804 0.1119-0.8474 0.498-1.233 0.2172-0.2172 0.3552-0.3144 0.5529-0.3894 0.9053-0.3435 1.875 0.0414 2.271 0.9018 0.08283 0.1796 0.1005 0.2966 0.1045 0.6939 4e-3 0.3938 0.01753 0.4849 0.07684 0.5181 0.1619 0.0906 0.02497 0.6002-0.201 0.7482-0.05633 0.0369-0.1883 0.2404-0.2933 0.4523-0.1984 0.4004-0.4554 0.7022-0.7133 0.8377-0.09661 0.0507-0.2761 0.083-0.5207 0.0936-0.3239 0.0141-0.4024 2e-3 -0.5944-0.0895zm5.652-0.9225c-0.1256-0.1337-0.1253-0.3502 6.3e-4 -0.4675 0.0953-0.0888 0.1305-0.0895 4.229-0.0895s4.134 8.2e-4 4.229 0.0895c0.1308 0.1218 0.1281 0.3481-5e-3 0.4736-0.1016 0.0955-0.1016 0.0955-4.23 0.0955-4.128 0-4.128 0-4.223-0.1016zm6.3e-4 -1.7c-0.1308-0.1218-0.1281-0.3481 5e-3 -0.4736 0.1016-0.0955 0.1016-0.0955 4.229-0.0955 4.093 0 4.128 8.4e-4 4.223 0.0895 0.1308 0.1218 0.1281 0.3481-5e-3 0.4736-0.1016 0.0955-0.1016 0.0955-4.229 0.0955-4.093 0-4.128-8.3e-4 -4.223-0.0895zm0.1014-3.947c0.4364-0.2454 0.4405-0.8424 8e-3 -1.163-0.1719-0.1274-0.5461-0.1274-0.718 0-0.1996 0.1479-0.3216 0.3612-0.3215 0.5623 2.15e-4 0.5506 0.5506 0.871 1.032 0.6006z" style="fill:#fff;stroke-width:.04391"/></g><g transform="matrix(.89746 0 0 .89746 -55.615 -5.424)"><g transform="translate(-45.83,77.53)"><g transform="translate(71.82,-56.98)"><ellipse cx="100.1" cy="163.2" rx="14.74" ry="14.34" style="fill:#00a382;opacity:.993"/></g></g><path d="m116.47 191.54c-0.0182-0.0294 0.3726-0.5873 0.9094-1.298 0.5177-0.6856 1.9-2.518 3.072-4.072l2.131-2.826h3.514c3.514 0 3.514 0 4.11 0.7894 2.34 3.102 3.054 4.048 4.162 5.515 0.6892 0.9127 1.264 1.688 1.277 1.722 0.0318 0.0828-1.888 0.1116-9.477 0.1422-3.171 0.0128-6.644 0.036-7.716 0.0514-1.424 0.0206-1.959 0.0143-1.982-0.0235zm-0.6666-2.134c0-2.221 8.8e-4 -2.229 0.2656-2.508 0.2586-0.2724 0.4292-0.324 1.133-0.3421 0.6906-0.0178 0.9174 0.0185 1.167 0.1867 0.2032 0.1369 0.4047 0.4294 0.4383 0.6361 0.0304 0.1878 0.2306-0.0997-1.803 2.589-0.6139 0.8117-1.135 1.476-1.158 1.476-0.0251 0-0.0422-0.8258-0.0422-2.038zm19.04 0.0954c-1.467-1.944-1.467-1.944-1.467-2.206 0-0.4393 0.2368-0.7972 0.6391-0.9658 0.211-0.0884 1.542-0.0839 1.756 7e-3 0.2262 0.0948 0.4229 0.2841 0.5284 0.5084 0.0941 0.2004 0.0967 0.2624 0.0967 2.377 0 1.3-0.0172 2.182-0.0429 2.198-0.0236 0.0146-0.7031-0.8484-1.51-1.918zm-15.77-2.586c-0.0166-0.0523-0.1419-0.2159-0.2785-0.3634-0.1365-0.1475-0.2482-0.2936-0.2482-0.3248s0.1236-0.1888 0.2747-0.3504c0.7531-0.8051 0.8469-1.85 0.2472-2.754-0.1996-0.3006-0.1815-0.3599 0.1455-0.4763 0.1842-0.0655 0.3542-0.0781 0.938-0.0686 0.705 0.0113 0.7156 0.013 0.9369 0.1499 0.4114 0.2546 0.6442 0.8542 0.4625 1.192-0.1392 0.2584-2.305 3.063-2.376 3.077-0.0405 9e-3 -0.085-0.0275-0.1021-0.0812zm12.7-1.508c-1.147-1.507-1.147-1.507-1.146-1.911 5.2e-4 -0.4769 0.1213-0.7979 0.3724-0.9894 0.2653-0.2024 0.3841-0.225 1.168-0.2226 0.6564 2e-3 0.7616 0.013 0.9267 0.0973 0.1025 0.0522 0.1862 0.1254 0.1862 0.1626 0 0.0373-0.0705 0.1656-0.1564 0.2853-0.2262 0.3149-0.3524 0.6694-0.3804 1.069-0.0448 0.6385 0.1643 1.176 0.6543 1.68 0.1619 0.1668 0.2944 0.3328 0.2944 0.369s-0.1204 0.1911-0.2675 0.3443-0.2954 0.3558-0.3295 0.4501-0.0876 0.1715-0.119 0.1715c-0.0313 0-0.5729-0.6781-1.203-1.507zm-14.97 0.6c-0.1384-0.046-0.3019-0.1107-0.3632-0.1438-0.2223-0.1198-0.5646-0.4869-0.7051-0.7562-0.1342-0.2574-0.1436-0.3066-0.144-0.7558-3.4e-4 -0.426 0.0135-0.5102 0.1223-0.7422 0.2482-0.5295 0.7277-0.8977 1.31-1.006 0.7476-0.139 1.538 0.285 1.876 1.006 0.1074 0.2292 0.1227 0.3186 0.1227 0.7193 0 0.4084-0.0143 0.4885-0.1328 0.7451-0.3535 0.7656-1.308 1.193-2.087 0.9336zm17.62-0.2648c-0.4996-0.1342-0.9095-0.4841-1.138-0.9711-0.1064-0.227-0.1217-0.3174-0.1217-0.7173 0-0.4074 0.0144-0.4888 0.1315-0.7424 0.1401-0.3032 0.484-0.6703 0.7635-0.8149 0.8978-0.4645 1.98-0.0881 2.415 0.84 0.1064 0.2269 0.1217 0.3174 0.1217 0.7173s-0.0153 0.4904-0.1217 0.7173c-0.2309 0.4926-0.6461 0.8402-1.165 0.9753-0.3255 0.0849-0.5587 0.0837-0.8858-4e-3zm-10.14-2.904c-0.0164-0.0265-0.0288-0.3716-0.0275-0.7668 9.6e-4 -0.3952-0.0145-0.7458-0.035-0.7791-0.0266-0.0432-0.1342 0.0623-0.3739 0.3664-0.3931 0.4989-0.4612 0.5642-0.7061 0.6769-0.4904 0.2257-0.9358 0.1438-1.304-0.2395-0.1262-0.1315-0.2294-0.2568-0.2294-0.2783-4e-5 -0.0215 0.0545-0.104 0.1214-0.183 0.1738-0.2059 0.3769-0.6566 0.4108-0.9114 0.0159-0.1201 0.047-0.2296 0.0693-0.2433 0.0222-0.0138 0.1478 0.0692 0.2792 0.1841s0.2537 0.209 0.2718 0.209 0.2336-0.2626 0.4789-0.5835c0.963-1.26 1.129-1.458 1.349-1.611 0.1864-0.13 0.2697-0.1586 0.4648-0.1602 0.2377-2e-3 0.2377-2e-3 0.4948 0.751 0.1414 0.4141 0.279 0.7601 0.3057 0.769 0.0572 0.019 0.0716-0.0257 0.1725-0.5355 0.0709-0.3583 0.0698-0.5092-7e-3 -0.8377-0.029-0.1254-0.0284-0.1258 0.2203-0.1258 0.1372 0 0.2609 0.0115 0.275 0.0256s-9.7e-4 0.1267-0.0336 0.2501c-0.053 0.2008-0.0478 0.2783 0.0489 0.7354 0.1052 0.4969 0.1486 0.616 0.1898 0.5218 0.011-0.0252 0.1369-0.3855 0.2797-0.8008 0.2889-0.84 0.2928-0.8442 0.6654-0.7326 0.3678 0.1102 0.5094 0.252 1.336 1.337 0.4467 0.5864 0.8831 1.146 0.9699 1.243 0.2853 0.3195 0.3544 0.6266 0.2096 0.9316-0.0441 0.093-0.2482 0.3041-0.4822 0.4988-0.4058 0.3377-0.4058 0.3377-2.895 0.3377-1.697 0-2.499-0.0153-2.519-0.0484zm4.302-1.009c0.0889-0.0781 0.1618-0.1635 0.1618-0.1898 0-0.0796-0.3243-0.4491-0.3696-0.4211-0.048 0.0297-0.0585 0.6756-0.0118 0.7224 0.0436 0.0437 0.0419 0.0445 0.2196-0.1115zm-8.911 0.2325c-1.091-0.2755-1.656-1.441-1.186-2.446 0.1901-0.4063 0.4156-0.6356 0.8229-0.8369 0.3236-0.1599 0.3744-0.1714 0.761-0.1711 0.3699 1.7e-4 0.447 0.0157 0.7209 0.1453 1.362 0.6442 1.37 2.544 0.0134 3.179-0.3242 0.1517-0.82 0.2084-1.133 0.1294zm11.92-0.3373c-0.2996-0.0977-0.5817-0.2813-0.7822-0.5091-0.616-0.6998-0.6072-1.677 0.0212-2.356 0.4062-0.4388 0.926-0.6209 1.539-0.5395 0.5619 0.0745 1.094 0.481 1.349 1.031 0.1043 0.2243 0.1222 0.3241 0.1217 0.6751-5.2e-4 0.5223-0.1165 0.8359-0.4388 1.189-0.3391 0.3711-0.7124 0.5417-1.223 0.559-0.2464 9e-3 -0.4672-0.0106-0.5876-0.0495zm-5.756-3.707c-0.4922-0.1561-0.8513-0.4674-1.06-0.9197-0.1795-0.3879-0.1783-0.8842 3e-3 -1.286 0.158-0.3504 0.4687-0.6603 0.8286-0.8265 0.228-0.1053 0.3366-0.1268 0.6406-0.1264 0.4958 5.1e-4 0.8413 0.1548 1.19 0.5311 0.52 0.5616 0.5712 1.34 0.131 1.991-0.3649 0.5391-1.141 0.8245-1.733 0.637z" style="fill:#fff;stroke-width:.04576"/></g></g><text x="57.69495" y="177.2636" style="fill:#000000;font-family:sans-serif;font-size:11.032px;letter-spacing:0px;line-height:0.44999999;stroke-width:.2758;word-spacing:0px" xml:space="preserve"><tspan x="57.69495" y="177.2636" style="font-family:Arial;font-size:4.0451px;line-height:0%;stroke-width:.2758;text-align:center;text-anchor:middle">Dominio del</tspan><tspan x="57.69495" y="182.22803" style="font-family:Arial;font-size:4.0451px;line-height:0%;stroke-width:.2758;text-align:center;text-anchor:middle">proceso de</tspan><tspan x="57.69495" y="187.19246" style="font-family:Arial;font-size:4.0451px;line-height:0%;stroke-width:.2758;text-align:center;text-anchor:middle">evaluación</tspan></text><text x="39.49876" y="15.140019" font-size="5.292px" font-weight="bold" letter-spacing="0px" word-spacing="0px" style="fill:#ffffff;font-family:Arial;font-size:4.5019px;font-weight:bold;letter-spacing:0px;line-height:0.5;stroke-width:.22509;text-anchor:middle;word-spacing:0px" xml:space="preserve"><tspan x="39.49876" y="15.140019" text-align="center" style="line-height:1;stroke-width:.22509;text-align:center">CONOCIMIENTO DE</tspan><tspan x="39.49876" y="20.738998" text-align="center" style="line-height:1;stroke-width:.22509;text-align:center">UNO MISMO</tspan></text><path d="m0.1833 279.98h78.964v96.491c-25.907 8.9002-52.35 7.6205-78.964 0z" style="fill:#ffe6d5;opacity:.993"/><ellipse cx="39.473" cy="280.71" rx="39.323" ry="10.461" style="fill-opacity:.97647;fill:#e0650f;opacity:.993"/><g transform="translate(-110.6 .50345)"><path d="m125.18 270.5a6.682 6.682 0 0 1-6.682 6.682 6.682 6.682 0 0 1-6.682-6.682 6.682 6.682 0 0 1 6.682-6.682 6.682 6.682 0 0 1 6.682 6.682z" style="fill:#1a1a1a;opacity:.993"/><g style="stroke-width:.2646" aria-label="1"><path d="m119.69 274.1h-1.3553v-5.1078q-0.74278 0.69455-1.7508 1.0274v-1.2299q0.53055-0.17364 1.1528-0.65596 0.6222-0.48715 0.85372-1.1335h1.0997z" style="fill:#fff"/></g></g><text x="39.467766" y="279.34857" font-size="5.292px" font-weight="bold" letter-spacing="0px" word-spacing="0px" style="fill:#ffffff;font-family:Arial;font-size:4.9086px;font-weight:bold;letter-spacing:0px;line-height:0.5;stroke-width:.24543;text-anchor:middle;word-spacing:0px" xml:space="preserve"><tspan x="39.467766" y="279.34857" text-align="center" style="line-height:1;stroke-width:.24543;text-align:center">CONOCIMIENTO DE</tspan><tspan x="39.467766" y="285.45334" text-align="center" style="line-height:1;stroke-width:.24543;text-align:center">UNO MISMO</tspan></text><text x="22.318336" y="322.99893" style="fill:#000000;font-family:Arial;font-size:3.5246px;letter-spacing:0px;line-height:0.5;stroke-width:.22032;text-anchor:middle;word-spacing:0px" xml:space="preserve"><tspan x="22.318336" y="322.99893" text-align="center" style="line-height:0.5;stroke-width:.22032;text-align:center">Creación de contenido</tspan><tspan x="22.318336" y="327.40512" text-align="center" style="line-height:0.5;stroke-width:.22032;text-align:center">en LinkedIn y</tspan><tspan x="22.318336" y="331.81125" text-align="center" style="line-height:0.5;stroke-width:.22032;text-align:center">valoración estelar.</tspan></text><text x="56.932068" y="365.29465" style="fill:#000000;font-family:Arial;font-size:3.5246px;letter-spacing:0px;line-height:0.5;stroke-width:.22032;text-anchor:middle;word-spacing:0px" xml:space="preserve"><tspan x="56.932068" y="365.29465" text-align="center" style="line-height:0.5;stroke-width:.22032;text-align:center">Recomendaciones</tspan><tspan x="56.932068" y="369.70074" text-align="center" style="line-height:0.5;stroke-width:.22032;text-align:center">y apareciones</tspan><tspan x="56.932068" y="374.10687" text-align="center" style="line-height:0.5;stroke-width:.22032;text-align:center">en búsquedas</tspan></text><text x="22.289562" y="365.0134" style="fill:#000000;font-family:Arial;font-size:3.5246px;letter-spacing:0px;line-height:0.5;stroke-width:.22032;text-anchor:middle;word-spacing:0px" xml:space="preserve"><tspan x="22.289562" y="365.0134" text-align="center" style="line-height:0.5;stroke-width:.22032;text-align:center">Índice de Ventas</tspan><tspan x="22.289562" y="369.41956" text-align="center" style="line-height:0.5;stroke-width:.22032;text-align:center">en Redes Sociales</tspan><tspan x="22.289562" y="373.82565" text-align="center" style="line-height:0.5;stroke-width:.22032;text-align:center">IVRS</tspan></text><text x="56.935131" y="323.21927" style="fill:#000000;font-family:Arial;font-size:3.5246px;letter-spacing:0px;line-height:0.5;stroke-width:.22032;text-anchor:middle;word-spacing:0px" xml:space="preserve"><tspan x="56.935131" y="323.21927" text-align="center" style="line-height:0.5;stroke-width:.22032;text-align:center">Ingreso a Portal</tspan><tspan x="56.935131" y="327.6254" text-align="center" style="line-height:0.5;stroke-width:.22032;text-align:center">de Empleo</tspan><tspan x="56.935131" y="332.03156" text-align="center" style="line-height:0.5;stroke-width:.22032;text-align:center">Exclusivo</tspan></text><g transform="translate(.32852 -.023386)"><g transform="matrix(.83266 0 0 .83266 -61.335 170.69)" style="fill:url(#b)"><ellipse cx="100.1" cy="163.2" rx="14.74" ry="14.34" style="fill:url(#b);opacity:.993"/></g><path d="m16.858 314.46c-0.97504-0.12855-1.7802-0.70151-2.2115-1.5746-0.31949-0.64589-0.29518-0.14314-0.29518-6.1042 0-5.2882 0-5.2882 0.12248-5.6404 0.16603-0.4777 0.3757-0.81792 0.71026-1.1524 0.33464-0.33465 0.67487-0.5443 1.1524-0.71025 0.35255-0.12249 0.35255-0.12249 5.6404-0.12249 5.9602 0 5.4581-0.0243 6.1042 0.29469 0.75789 0.37377 1.2898 1.0333 1.5121 1.876 0.08334 0.31542 0.08334 0.31542 0.08334 5.4739 0 5.5555 0.0074 5.3323-0.19468 5.8428-0.19741 0.4991-0.5612 0.9792-0.96921 1.2781-0.2518 0.18485-0.66946 0.38485-0.99752 0.47786-0.28752 0.0816-0.28752 0.0816-5.3531 0.0872-2.7861 3e-3 -5.1733-9e-3 -5.304-0.0258zm2.2157-5.7861c0.0049-1.9084 8.07e-4 -3.5072-0.01011-3.5538-0.02032-0.0841-0.02032-0.0841-1.1974-0.0743-1.1774 0.01-1.1774 0.01-1.189 0.99336-0.0058 0.5409-3.16e-4 2.1399 0.01374 3.5538l0.02565 2.5704 2.3473-0.0195zm3.5405 1.2706c0.01141-2.2174 0.01141-2.2174 0.1279-2.463 0.22007-0.46445 0.56154-0.72365 1.0067-0.76405 0.43948-0.04 0.81101 0.15155 0.99336 0.51192 0.17328 0.34189 0.17669 0.38852 0.19942 2.7061l0.02174 2.2082 1.1666 0.01c0.90842 8e-3 1.1732-4.3e-4 1.1965-0.0371 0.04271-0.0671 0.03739-4.0484-0.0049-4.538-0.04829-0.54573-0.1493-0.92758-0.3577-1.3531-0.29385-0.59992-0.78661-1.0183-1.4422-1.2248-0.35288-0.11108-1.0442-0.14082-1.4188-0.061-0.46878 0.0998-0.72716 0.24914-1.1141 0.64406-0.21516 0.21983-0.35005 0.3324-0.36129 0.3015-0.0098-0.027-0.02239-0.22464-0.02781-0.43889-0.0098-0.38968-0.0098-0.38968-1.1974-0.38968h-1.1874l-0.0096 3.5072c-0.0049 1.9284-0.0016 3.528 0.0084 3.553 0.01366 0.0357 0.28918 0.0462 1.204 0.0462h1.1865zm-4.2399-5.9568c0.23531-0.0871 0.52982-0.34547 0.64264-0.56395 0.10858-0.21033 0.13231-0.68645 0.04705-0.9434-0.08517-0.25654-0.36737-0.56204-0.62216-0.67338-0.26229-0.11465-0.75139-0.1423-1.0392-0.0586-0.44031 0.12798-0.7558 0.46628-0.84848 0.90927-0.0493 0.23705-0.0098 0.53681 0.10175 0.77253 0.09134 0.19277 0.35371 0.44731 0.55147 0.53473 0.3314 0.14656 0.80643 0.1558 1.1666 0.0228z" style="fill:#fff;stroke-width:.037111"/><g transform="matrix(.83266 0 0 .83266 -121.99 258.99)"><g transform="translate(114.46 -106.05)" style="fill:url(#b)"><ellipse cx="100.1" cy="163.2" rx="14.74" ry="14.34" style="fill:url(#b);opacity:.993"/></g><path d="m221.62 66.912c-0.1947-0.2274-0.7998-0.9381-1.345-1.579s-1.029-1.209-1.077-1.262c-0.0862-0.09615-0.0862-0.09615 0.0965-0.2822 0.1233-0.1257 0.1714-0.2046 0.1482-0.243-0.0813-0.1344-0.7125-0.8413-0.7512-0.8413-0.0234 0-0.1961 0.09849-0.3838 0.2189s-0.5939 0.3404-0.9026 0.4889c-3.419 1.644-7.508 0.9908-10.25-1.638-1.536-1.475-2.466-3.348-2.747-5.533-0.0676-0.5258-0.0276-2.045 0.0676-2.568 0.2622-1.44 0.8514-2.814 1.677-3.911 2.388-3.174 6.447-4.443 10.2-3.191 3.17 1.056 5.489 3.748 6.081 7.059 0.1113 0.622 0.1523 1.921 0.0804 2.547-0.2147 1.869-0.9212 3.508-2.133 4.945-0.1808 0.2145-0.3288 0.416-0.3288 0.4478 0 0.07671 0.664 0.8542 0.7448 0.872 0.0348 0.0074 0.1301-0.04481 0.2118-0.1166 0.0818-0.07178 0.1659-0.1305 0.1869-0.1305 0.0564 0 2.98 3.438 2.986 3.511 6e-3 0.06871-2.06 1.62-2.157 1.62-0.033 0-0.2193-0.186-0.4141-0.4134zm-6.553-3.926c1.287-0.2785 2.373-0.7912 3.377-1.595 1.433-1.147 2.461-2.838 2.805-4.615 0.3414-1.764 0.128-3.451-0.6361-5.032-1.189-2.459-3.493-4.094-6.247-4.433-0.5207-0.06414-1.779-0.03025-2.27 0.06116-2.171 0.4043-4.03 1.617-5.241 3.418-0.3249 0.4833-0.751 1.36-0.9327 1.918-0.8379 2.577-0.3407 5.35 1.336 7.452 1.074 1.347 2.58 2.317 4.251 2.74 0.7467 0.1889 1.119 0.2255 2.128 0.2087 0.8012-0.0133 1.003-0.03068 1.429-0.1229zm-2.489-0.5849c-1.435-0.1838-2.963-0.8783-3.924-1.783-0.4788-0.4511-0.5231-0.7017-0.4042-2.288 0.0894-1.191 0.1941-1.507 0.6217-1.873 0.2018-0.1727 0.4631-0.2809 1.771-0.7334 0.6676-0.2309 0.9206-0.3015 0.9609-0.2681 0.03 0.02492 0.3052 0.7172 0.6115 1.538 0.5553 1.489 0.6149 1.635 0.6534 1.596 0.0112-0.01116 0.0726-0.482 0.1365-1.046 0.1162-1.026 0.1162-1.026-0.0642-1.222-0.2051-0.2225-0.2101-0.3485-0.0205-0.518 0.094-0.08396 0.1526-0.09539 0.4879-0.09539 0.3481 0 0.3902 0.0093 0.4852 0.1041 0.1513 0.1513 0.1394 0.343-0.0324 0.5202-0.1172 0.1209-0.1352 0.1679-0.128 0.334 0.0136 0.3112 0.1818 1.899 0.2035 1.921 0.0439 0.04388 0.1118-0.1171 0.6507-1.543 0.3084-0.8162 0.5834-1.507 0.6112-1.536 0.0396-0.04072 0.1775-0.01571 0.6436 0.1169 1.591 0.4524 2.153 0.7435 2.427 1.257 0.1857 0.3485 0.2143 0.5024 0.2859 1.54 0.1149 1.667 0.0934 1.803-0.3534 2.248-0.6617 0.6589-1.838 1.277-2.987 1.571-0.7457 0.1904-1.868 0.2585-2.637 0.16zm0.2505-7.488c-0.4891-0.1743-0.8225-0.4751-1.068-0.9638-0.0704-0.1399-0.2348-0.4143-0.3654-0.6098-0.3273-0.4902-0.3644-0.6403-0.3644-1.473 0-0.3918-0.0198-0.7406-0.0458-0.8085-0.0708-0.1842-0.0499-0.9601 0.0391-1.461 0.0442-0.2479 0.0935-0.4723 0.1097-0.4985 0.0162-0.02623 0.0903-0.07844 0.1646-0.116 0.0743-0.03758 0.2166-0.1602 0.3162-0.2726 0.37-0.4173 1.08-0.7524 1.211-0.5721 0.0434 0.05942 0.0807 0.06247 0.2692 0.02203 0.1561-0.03348 0.2653-0.03403 0.3809-2e-3 0.0892 0.02476 0.2389 0.04512 0.3328 0.04524 0.0939 1.32e-4 0.2154 0.03149 0.2699 0.0697 0.0546 0.03821 0.2308 0.09454 0.3916 0.1252 0.2394 0.04561 0.3311 0.08835 0.5057 0.2355 0.215 0.1813 0.5179 0.5168 0.6473 0.7171 0.1663 0.2573 0.2137 0.9289 0.1644 2.329-0.0336 0.9534-0.04 1.007-0.1488 1.245-0.0626 0.1366-0.1778 0.3369-0.2562 0.4452-0.0784 0.1082-0.2162 0.3385-0.3062 0.5117-0.2248 0.4322-0.5387 0.7608-0.8964 0.9383-0.2593 0.1287-0.3296 0.1441-0.7117 0.1559-0.3274 0.01013-0.4731-0.0046-0.6397-0.06378zm1.161-0.5127c0.2721-0.1408 0.4963-0.3896 0.6826-0.7575 0.0918-0.1812 0.2453-0.4338 0.3412-0.5612 0.2613-0.3472 0.2994-0.528 0.2994-1.419 0-0.4215-0.0187-0.8316-0.0416-0.9113-0.055-0.1916-0.2362-0.3752-0.4205-0.4261-0.1278-0.03529-0.187-0.02308-0.4186 0.08633-0.7019 0.3316-1.167 0.3266-2.137-0.02332-0.2944-0.1062-0.3025-0.1068-0.4535-0.03295-0.1031 0.05044-0.1851 0.1374-0.2491 0.2644-0.0895 0.1775-0.0954 0.2419-0.0954 1.043 0 0.529 0.0185 0.9087 0.0485 0.998 0.0267 0.07926 0.1291 0.2586 0.2275 0.3985s0.2488 0.3932 0.3341 0.5628c0.2034 0.4045 0.4136 0.631 0.7254 0.7819 0.2321 0.1123 0.2859 0.1217 0.6148 0.107 0.266-0.0119 0.408-0.04082 0.5424-0.1103z" style="fill:#fff;stroke-width:.0424"/></g></g><g transform="translate(.00851)"><g transform="matrix(.83266 0 0 .83266 -61.048 211.84)" style="fill:url(#b)"><ellipse cx="100.1" cy="163.2" rx="14.74" ry="14.34" style="fill:url(#b);opacity:.993"/></g><path d="m19.933 356.55c-0.02007-0.0319-0.2672-0.54531-0.54922-1.1407-0.28202-0.59544-0.52849-1.0991-0.54772-1.1191-0.02573-0.0262-1.8185 0.55388-2.418 0.78245-0.02981 0.0113-0.05445-6e-3 -0.05488-0.0381-8.31e-4 -0.0771 1.5587-3.7253 1.622-3.7952 0.03855-0.0424 0.11582-0.0126 0.35879 0.13872 0.89344 0.55597 1.9384 0.93591 2.9451 1.0708 0.22748 0.0306 0.42182 0.0771 0.43198 0.1034 0.01806 0.0471-1.6487 3.9485-1.7169 4.0192-0.01932 0.02-0.05155 0.01-0.0716-0.0216zm4.5804-0.12564c-0.13048-0.29835-1.0841-2.5013-1.393-3.2166-0.30026-0.69619-0.30076-0.72101-0.01499-0.72242 0.23905-8.3e-4 0.89178-0.12864 1.3597-0.26553 0.51184-0.14979 1.3423-0.5344 1.7977-0.83249 0.23182-0.15171 0.31442-0.18618 0.35063-0.1463 0.0981 0.10812 1.6328 3.762 1.5945 3.7961-0.02148 0.0198-0.56555-0.14655-1.209-0.36945-0.64339-0.22298-1.189-0.3985-1.2132-0.39001-0.0239 9e-3 -0.2757 0.51016-0.55963 1.1149-0.28394 0.60475-0.54164 1.1274-0.57278 1.1616-0.04804 0.0529-0.06935 0.0332-0.14064-0.12997zm-2.7561-4.6596c-2.1091-0.2184-3.8552-1.2565-5.0084-2.9776-1.2939-1.9318-1.4571-4.5247-0.41383-6.6013 0.33972-0.67645 0.69777-1.1649 1.2823-1.7494 1.03-1.0308 2.1724-1.627 3.5771-1.8668 0.67612-0.11558 1.8543-0.0944 2.478 0.0447 0.84848 0.18909 1.6037 0.50991 2.3289 0.99003 0.5538 0.36628 1.413 1.2173 1.7852 1.7669 1.3489 1.995 1.5346 4.4864 0.49718 6.6596-0.90177 1.8885-2.7503 3.2815-4.8469 3.6504-0.38444 0.0677-1.3614 0.11616-1.6795 0.0833zm0.90426-2.1341c0.22856-0.32556 0.33048-0.50958 0.3299-0.59568-4.91e-4 -0.0685-0.0592-0.45612-0.13048-0.86096-0.30151-1.7128-0.28943-1.5812-0.15596-1.6961 0.06495-0.0558 0.1677-0.11399 0.22832-0.12921 0.13439-0.0337 2.4855 0.40341 2.5563 0.47519 0.02707 0.0276 0.1199 0.45946 0.20642 0.96005 0.19492 1.1274 0.18968 1.1049 0.25429 1.1049 0.07819-1e-5 0.48669-0.4866 0.76288-0.90842 1.4921-2.2815 0.95589-5.374-1.219-7.0343-0.91509-0.69801-1.8335-1.0167-3.0425-1.055-0.59693-0.019-0.75564-9e-3 -1.1424 0.0707-1.1216 0.23156-1.9159 0.65629-2.7153 1.453-0.91759 0.91426-1.413 1.9676-1.5354 3.269-0.09244 0.98003 0.14222 2.1016 0.61666 2.9484 0.29026 0.51825 0.86014 1.2548 0.97254 1.2556 0.06777 6.6e-4 0.06853-2e-3 0.25354-1.1041 0.08801-0.52424 0.18218-0.97504 0.20925-1.0017 0.02707-0.0269 0.60567-0.15171 1.2856-0.27735 1.2365-0.22857 1.2365-0.22857 1.4188-0.10791 0.1269 0.084 0.18235 0.15113 0.18235 0.2209 0 0.0551-0.08776 0.59186-0.19492 1.1924-0.10724 0.60093-0.19501 1.1499-0.19501 1.219 0 0.0872 0.10209 0.27402 0.32757 0.59943 0.18019 0.25995 0.3433 0.47268 0.36246 0.47268 0.01915 0 0.18368-0.21198 0.36562-0.47102zm-0.85514-3.9734c-0.83074-0.20107-1.5021-0.92839-1.6312-1.7677-0.09776-0.63506 0.1209-1.3331 0.56038-1.7894 0.409-0.42423 0.83349-0.62016 1.4138-0.65263 0.70801-0.0396 1.1549 0.12772 1.6478 0.61624 0.35205 0.34938 0.50759 0.63324 0.60634 1.1066 0.31075 1.4904-1.1066 2.8477-2.5971 2.4863z" style="fill:#fff;stroke-width:.043323"/><g transform="matrix(.83266 0 0 .83266 -26.336 212.43)" style="fill:url(#b)"><ellipse cx="100.1" cy="163.2" rx="14.74" ry="14.34" style="fill:url(#b);opacity:.993"/></g><path d="m49.05 355.21c-0.02655-0.0266-0.03898-0.18402-0.03898-0.49652 0-0.45745 0-0.45745 0.3453-1.0591 0.18993-0.33073 0.36362-0.62074 0.38594-0.64456 0.03356-0.0357 0.0796-0.0238 0.26453 0.0689 0.44306 0.22207 0.93758 0.31334 1.8344 0.33847 0.34888 0.01 0.65255 0.0324 0.67495 0.0505 0.02732 0.0218 0.04063 0.13213 0.04063 0.33539 0 0.33748 0.02865 0.44314 0.15654 0.57836 0.1856 0.19617-0.09509 0.18411 4.2799 0.18411 2.7586 0 4.045-0.011 4.1083-0.0347 0.12457-0.0471 0.26911-0.18742 0.32324-0.314 0.02739-0.0641 0.0448-0.22323 0.0448-0.41074 0-0.20592 0.01332-0.31666 0.04064-0.33848 0.02232-0.0178 0.33339-0.0406 0.69119-0.0508 0.91342-0.0258 1.4663-0.13038 1.8668-0.35312 0.14472-0.0807 0.1821-0.09 0.21573-0.0541 0.02232 0.0238 0.19609 0.31391 0.38602 0.64463 0.3453 0.60127 0.3453 0.60127 0.3453 1.0592 0 0.3124-0.0124 0.46977-0.03898 0.4965-0.05687 0.057-15.87 0.057-15.929 0zm3.9093-1.0508c-0.06812-0.0682-0.08001-0.10702-0.0717-0.23581 0.01011-0.1542 0.01011-0.1542 4.1241-0.1542 4.115 0 4.115 0 4.1241 0.1542 0.0074 0.12881-0.0042 0.16762-0.0717 0.23581-0.08159 0.0817-0.08159 0.0817-4.0525 0.0817-3.9709 0-3.9709 0-4.0525-0.0817zm-0.12598-0.87012c-0.01011-0.0581-0.16296-1.1716-0.33972-2.4747-0.25996-1.9159-0.31524-2.3914-0.28918-2.488 0.04838-0.17952 0.20142-0.3214 0.39052-0.36195 0.21649-0.0464 8.568-0.0476 8.8095-8.4e-4 0.21083 0.0401 0.36662 0.17553 0.41333 0.35963 0.0259 0.10218-0.02814 0.5692-0.28885 2.493-0.17644 1.3023-0.32915 2.4147-0.33931 2.473-0.01848 0.10569-0.01848 0.10569-4.1791 0.10569-4.1608 0-4.1608 0-4.1791-0.10569zm-1.3348-0.20842c-0.65446-0.0778-1.1116-0.18301-1.3747-0.31624-0.191-0.0968-0.412-0.33007-0.50666-0.5349-0.06078-0.13148-0.06993-0.20709-0.06761-0.55871 0.0033-0.45547 0.05753-0.67221 0.31974-1.2681 0.33314-0.7578 1.1241-1.9284 2.0117-2.9759 0.25604-0.30233 0.33556-0.37412 0.51325-0.46305 0.35929-0.17977 1.1349-0.36637 1.7269-0.4154 0.23956-0.0198 0.23956-0.0198 0.56479 0.23779 0.32523 0.25764 0.32523 0.25764 0.41475 0.53242 0.04921 0.15103 0.08943 0.28476 0.08943 0.29716s-0.57012 0.0224-1.2673 0.0224c-0.77853 0-1.3298 0.0134-1.4297 0.0349-0.30658 0.0657-0.5941 0.36378-0.6389 0.6622-0.01265 0.0849 0.02332 0.4533 0.09626 0.98337 0.06411 0.46629 0.11657 0.87678 0.11657 0.91259 0 0.0355-0.10225 0.18018-0.22723 0.32157-0.12498 0.14139-0.2274 0.27486-0.22765 0.29676-4.4e-4 0.0351 0.15787 0.0931 0.42915 0.1572 0.04846 0.0115 0.10216 0.0377 0.11924 0.0582 0.02964 0.0357 0.29676 1.8019 0.29676 1.9617 0 0.0762 0 0.0762-0.43098 0.0712-0.23706-3e-3 -0.47486-0.01-0.52857-0.0164zm10.067-0.0547c0-0.16021 0.26711-1.9259 0.29676-1.9617 0.01715-0.0208 0.13671-0.0627 0.26561-0.0935 0.35713-0.0852 0.35763-0.0885 0.06728-0.41975-0.25063-0.28593-0.25063-0.28593-0.1283-1.209 0.07727-0.5832 0.1144-0.97005 0.10074-1.0508-0.04971-0.29376-0.33639-0.58635-0.63798-0.65104-0.09967-0.0214-0.6463-0.0349-1.413-0.0349-0.9076 0-1.2506-0.01-1.2506-0.0368 0-0.0201 0.03172-0.15263 0.07052-0.29426 0.07053-0.25755 0.07053-0.25755 0.38218-0.48777 0.31158-0.23024 0.31158-0.23024 0.60435-0.21083 0.61025 0.0405 1.2981 0.19967 1.6745 0.38768 0.17784 0.0889 0.26078 0.16345 0.53289 0.47928 1.1541 1.3398 2.0209 2.7394 2.2698 3.6645 0.09192 0.34172 0.09992 0.83849 0.01732 1.075-0.07461 0.21373-0.3065 0.47519-0.51558 0.5811-0.37553 0.19025-1.2215 0.33872-1.9318 0.33872-0.40276 0-0.40492-4.3e-4 -0.40492-0.0762zm-5.9835-5.9576c-0.39418-0.29509-0.71658-0.54755-0.71634-0.56104 8.33e-4 -0.0521 0.58994-0.72383 0.63482-0.72383 0.02614 0 0.37686 0.16453 0.77953 0.36561 0.73199 0.36554 0.73199 0.36554 1.4638 0 0.4026-0.20108 0.75265-0.36561 0.77779-0.36561 0.04163 0 0.41923 0.44805 0.55247 0.65563 0.05546 0.0864 0.05546 0.0864-0.68104 0.62616-0.96421 0.7065-0.88927 0.70359-1.1474 0.0437-0.10648-0.27278-0.2114-0.49603-0.23297-0.49603-0.02165 0-0.1269 0.22325-0.2339 0.49603-0.19451 0.49601-0.19451 0.49601-0.33747 0.49601-0.13414 0-0.18693-0.033-0.8593-0.53656zm1.1249-1.2215c-0.53773-0.13514-1.0899-0.67753-1.4805-1.4555-0.12382-0.2463-0.14289-0.26837-0.22391-0.25996-0.07943 8e-3 -0.10017-0.0134-0.20233-0.21117-0.06262-0.12123-0.15555-0.27785-0.2065-0.34796-0.24205-0.33298-0.24164-0.79777 8.34e-4 -0.90843 0.09276-0.0422 0.09301-3e-3 -0.0041-0.54007-0.23306-1.2848-0.08718-1.9501 0.52957-2.4147 0.50974-0.38386 1.4097-0.5349 2.4971-0.419 1.0083 0.10747 1.5421 0.34431 1.7502 0.77687 0.11674 0.24272 0.15887 0.68303 0.11624 1.2165-0.02931 0.36754-0.12656 1.0475-0.18019 1.2615-0.01548 0.0617-8.33e-4 0.081 0.07919 0.1091 0.14938 0.0521 0.20875 0.19743 0.19459 0.47679-0.01044 0.20865-0.02598 0.25496-0.14771 0.44247-0.07477 0.11515-0.16703 0.28226-0.205 0.37137-0.07843 0.18392-0.11582 0.21689-0.21724 0.19142-0.06269-0.0157-0.08851 0.0157-0.20792 0.25313-0.33047 0.6573-0.72906 1.1066-1.1799 1.3298-0.23447 0.11615-0.30607 0.13605-0.52856 0.14671-0.14155 7e-3 -0.31399-2e-3 -0.38327-0.0192zm0.71142-0.42091c0.26279-0.12958 0.47653-0.32057 0.70817-0.63299 0.35163-0.47421 0.6389-1.1541 0.75705-1.7902 0.07878-0.42416 0.05513-1.0741-0.04729-1.3073-0.11507-0.26163-0.16029-0.28951-0.40259-0.24846-0.15954 0.0269-0.22065 0.0248-0.2896-0.01-0.10991-0.0556-0.1279-0.0855-0.17336-0.28753-0.02497-0.11115-0.05513-0.16728-0.09359-0.17477-0.03123-6e-3 -0.15812 0.0424-0.28202 0.10746-0.49743 0.26137-0.92175 0.34979-1.7044 0.35511-0.55164 5e-3 -0.55164 5e-3 -0.62707 0.11566-0.04147 0.0617-0.10791 0.21525-0.14763 0.34156-0.10142 0.32241-0.10051 0.92092 0.0016 1.3298 0.21932 0.8743 0.73099 1.7478 1.2215 2.085 0.38793 0.26718 0.70376 0.30132 1.0791 0.11648z" style="fill:#fff;stroke-width:.032524"/></g><path d="m0.034208 399.18h79.111v96.491c-25.955 8.9002-52.447 7.6205-79.111 0z" style="fill:#f4d7d7;opacity:.993"/><ellipse cx="39.588" cy="399.61" rx="39.588" ry="10.461" style="fill:#c43323;opacity:.993"/><g transform="translate(-110.75 119.71)"><path d="m125.18 270.5a6.682 6.682 0 0 1-6.682 6.682 6.682 6.682 0 0 1-6.682-6.682 6.682 6.682 0 0 1 6.682-6.682 6.682 6.682 0 0 1 6.682 6.682z" style="fill:#1a1a1a;opacity:.993"/><g style="stroke-width:.2646" aria-label="1"><path d="m119.69 274.1h-1.3553v-5.1078q-0.74278 0.69455-1.7508 1.0274v-1.2299q0.53055-0.17364 1.1528-0.65596 0.6222-0.48715 0.85372-1.1335h1.0997z" style="fill:#fff"/></g></g><text x="56.214054" y="443.93155" style="fill:#000000;font-family:Arial;font-size:3.7184px;letter-spacing:0px;line-height:0.5;stroke-width:.23243;text-anchor:middle;word-spacing:0px" xml:space="preserve"><tspan x="56.214054" y="443.93155" text-align="center" style="line-height:0.5;stroke-width:.23243;text-align:center">Reuniones de</tspan><tspan x="56.214054" y="448.57993" text-align="center" style="line-height:0.5;stroke-width:.23243;text-align:center">Interés y</tspan><tspan x="56.214054" y="453.22833" text-align="center" style="line-height:0.5;stroke-width:.23243;text-align:center">Entrevistas</tspan></text><text x="22.766232" y="444.13879" style="fill:#000000;font-family:Arial;font-size:3.7184px;letter-spacing:0px;line-height:0.5;stroke-width:.23243;text-anchor:middle;word-spacing:0px" xml:space="preserve"><tspan x="22.766232" y="444.13879" text-align="center" style="line-height:0.5;stroke-width:.23243;text-align:center">Contacto con</tspan><tspan x="22.766232" y="448.7872" text-align="center" style="line-height:0.5;stroke-width:.23243;text-align:center">Reclutadores</tspan></text><g transform="translate(-2.0168 5.8161)"><g transform="matrix(.87844 0 0 .87844 -29.631 277.52)" style="fill:url(#a)"><ellipse cx="100.1" cy="163.2" rx="14.74" ry="14.34" style="fill:url(#a);opacity:.993"/></g><path d="m49.78 425.97c0.0044-2.5185 0.0061-2.6907 0.03092-2.7943 0.09522-0.39882 0.2623-0.69819 0.53576-0.95926 0.28312-0.27065 0.60762-0.43377 0.98473-0.49491 0.20266-0.0328 1.4819-0.0319 1.6796 8.8e-4 0.25659 0.0431 0.51494 0.14758 0.72243 0.29199 0.05279 0.0367 0.14248 0.0981 0.19932 0.13642 0.25229 0.1698 0.49649 0.40953 0.81001 0.79472 0.58715 0.72164 0.81282 0.96189 1.1534 1.2263 0.51652 0.40154 1.1446 0.68431 1.8553 0.83478 0.15706 0.0333 0.15706 0.0333 0.06237 0.15303-0.1207 0.15258-0.21662 0.34584-0.26371 0.53136-0.04866 0.19185-0.05165 0.44853-7e-3 0.62326 0.02864 0.11305 0.12632 0.33152 0.19282 0.43131 0.03241 0.0487 0.03241 0.0487-0.0026 0.0411-0.01933-4e-3 -0.09496-0.0184-0.16805-0.0314-0.30341-0.0542-0.79042-0.1857-1.0928-0.29507-0.63845-0.23076-1.2052-0.54665-1.7147-0.95574-0.09891-0.0793-0.18359-0.14415-0.18825-0.14415-0.0044 0-0.0088 0.74088-0.0088 1.6462v1.6462h-4.7849zm12.931 1.0366c0-1.6471 0-1.6471-0.12184-1.5452-0.79384 0.6619-1.6971 1.077-2.8461 1.3089-0.27952 0.0563-0.68694 0.112-0.82011 0.11209-0.48419 2.3e-4 -0.87633-0.39275-0.87765-0.88019-8.78e-4 -0.34584 0.24315-0.69529 0.57186-0.81827 0.04498-0.0168 0.21864-0.0501 0.38607-0.074 0.88019-0.12544 1.5109-0.34321 2.0837-0.71918 0.44836-0.29463 0.75045-0.59207 1.3396-1.3185 0.40136-0.49509 0.6316-0.72814 0.89776-0.90919 0.065-0.0441 0.16128-0.11051 0.21408-0.14749 0.20081-0.14064 0.4683-0.24895 0.72278-0.29269 0.19563-0.0337 1.4749-0.035 1.6787-2e-3 0.37931 0.0615 0.70732 0.22672 0.98736 0.49746 0.27047 0.26107 0.43852 0.56317 0.53251 0.95662 0.02477 0.10392 0.0267 0.27583 0.03092 2.7943l0.0044 2.6836h-4.7848zm-10.893-5.8188c-0.8563-0.15276-1.5135-0.8231-1.6559-1.6892-0.02802-0.17032-0.01915-0.55666 0.01651-0.71627 0.08565-0.38406 0.26353-0.71795 0.52847-0.99176 0.28918-0.29893 0.61157-0.48156 1.0181-0.57696 0.36376-0.071 0.76178-0.048 1.0814 0.0572 0.31026 0.10313 0.54692 0.25229 0.79024 0.49816 0.38177 0.3902 0.56606 0.86649 0.58583 1.3458 0.01906 0.53637-0.14169 0.99878-0.48894 1.4055-0.29015 0.34004-0.74623 0.59611-1.1903 0.66796-0.17454 0.0283-0.52566 0.0279-0.68659-8.8e-4zm12.931-7e-5c-0.06826-0.0114-0.1922-0.0436-0.27539-0.0714-0.73894-0.24728-1.2527-0.85419-1.3748-1.6242-0.0282-0.17762-0.01976-0.54929 0.01599-0.70837 0.05798-0.258 0.1648-0.51037 0.30631-0.72427 0.04295-0.065 0.15469-0.19545 0.24833-0.28997 0.24342-0.24588 0.47998-0.39495 0.79024-0.49817 0.24157-0.0803 0.35735-0.0976 0.64969-0.0968 0.23384 6.3e-4 0.28576 5e-3 0.43184 0.0396 0.39547 0.0927 0.70899 0.26678 0.99703 0.55359 0.29928 0.29779 0.49043 0.66823 0.56475 1.0945 0.02811 0.16128 0.0275 0.48894-8.79e-4 0.66638-0.03953 0.24395-0.15557 0.54446-0.29296 0.75862-0.30236 0.47137-0.81097 0.80553-1.373 0.90216-0.16304 0.028-0.51608 0.0273-0.68694-2e-3zm-3.4505-3.3794-0.45424-0.53831-1.1525-4e-3c-1.1525-4e-3 -1.1525-4e-3 -1.2597-0.0435-0.05903-0.0215-0.14046-0.0605-0.18113-0.0866-0.10243-0.0657-0.23762-0.21785-0.29164-0.32809-0.09461-0.19317-0.09188-0.14767-0.09188-1.532 0-1.098 0.0026-1.2693 0.02328-1.3493 0.07335-0.28567 0.28971-0.51951 0.5593-0.60436 0.10401-0.0327 0.10401-0.0327 2.4886-0.0327 2.2743 0 2.3885 8.8e-4 2.4728 0.0272 0.29094 0.0898 0.49342 0.30008 0.57889 0.60138 0.02512 0.0885 0.02697 0.18017 0.02697 1.3572 0 1.1771-0.0018 1.2685-0.02697 1.3572-0.08336 0.29393-0.28505 0.50598-0.57107 0.60041-0.07317 0.0242-0.15452 0.0273-0.82318 0.0321l-0.74193 5e-3v0.50853c0 0.48885-8.78e-4 0.50967-0.02952 0.53804-0.01625 0.0163-0.03891 0.0295-0.05033 0.0295s-0.22523-0.24227-0.47506-0.5383zm-6.5031-0.30324c-0.02873-0.0287-0.02951-0.0492-0.02951-0.73824v-0.70872h-0.48051c-0.5615 0-0.63634-0.01-0.84102-0.11051-0.2898-0.14257-0.48674-0.36674-0.59075-0.67253 0.03259-1.1455-0.42956-1.9018-0.01722-3.2406 0.12263-0.39292 0.38528-0.66295 0.77039-0.79217 0.10339-0.0347 0.10339-0.0347 2.8497-0.0388 3.0007-4e-3 2.8549-8e-3 3.0684 0.0788 0.3237 0.1315 0.58144 0.43535 0.67578 0.79648 0.02504 0.096 0.03233 0.17955 0.03883 0.44598l0.0079 0.32792-1.0761 4e-3c-0.99351 4e-3 -1.0822 7e-3 -1.1578 0.0316-0.14872 0.0492-0.28198 0.12983-0.383 0.23164-0.11226 0.11323-0.17894 0.21856-0.23454 0.3707-0.03962 0.10831-0.03962 0.10831-0.03962 1.3379v1.2289h-1.1999l-0.6236 0.73824c-0.55754 0.66005-0.62808 0.73824-0.66621 0.73824-0.02345 0-0.05596-0.0133-0.07221-0.0295z" style="fill:#fff;stroke-width:.014767"/></g><g transform="translate(.35073)"><g transform="matrix(.87844 0 0 .87844 -65.489 283.33)" style="fill:url(#a)"><ellipse cx="100.1" cy="163.2" rx="14.74" ry="14.34" style="fill:url(#a);opacity:.993"/></g><path d="m18.519 436.39c-0.06404-0.0324-0.12824-0.0896-0.1575-0.1401-0.04805-0.0831-0.04946-0.1295-0.05604-1.814-0.0035-0.99649 0.0026-1.7369 0.01511-1.7492 0.01291-0.0129 0.11063 0.0496 0.23817 0.15228 0.56811 0.45721 1.301 0.80073 2.1534 1.0091 0.18094 0.0443 0.42219 0.0936 0.53603 0.10959 0.33967 0.0478 0.31669 0.0357 0.3173 0.16674 6.06e-4 0.15326 0.07431 0.30928 0.17462 0.37052 0.07528 0.0459 0.12175 0.0492 0.70186 0.0492 0.58015 0 0.62658-4e-3 0.70185-0.0492 0.10042-0.0612 0.174-0.21718 0.17462-0.37052 6.06e-4 -0.13108-0.0224-0.119 0.3173-0.16674 0.1139-0.016 0.35509-0.0654 0.53603-0.10959 0.85225-0.20839 1.5857-0.55191 2.1534-1.0091 0.12755-0.10265 0.22536-0.16521 0.23816-0.15228 0.01256 0.0126 0.01898 0.75338 0.01511 1.7492-0.0061 1.6844-0.0079 1.7307-0.05605 1.814-0.02916 0.0505-0.09339 0.10764-0.1575 0.1401-0.10816 0.0548-0.10816 0.0548-3.9227 0.0548-3.8147 0-3.8147 0-3.9227-0.0548zm2.9-3.153c-0.81199-0.13231-1.5734-0.41263-2.138-0.78731-0.30388-0.20145-0.65558-0.54189-0.82865-0.80212-0.13907-0.20917-0.13907-0.20917-0.13905-0.46523 0-0.29647 0.03013-0.37623 0.176-0.46693 0.0913-0.0567 0.09808-0.0572 0.95082-0.0644 0.47233-4e-3 0.86043-9e-3 0.86243-0.0122 0.0018-3e-3 0.01019-0.26809 0.01827-0.58971 0.01467-0.58477 0.01467-0.58477 0.08653-0.71434 0.08741-0.15781 0.19914-0.25931 0.37776-0.34307 0.13511-0.0634 0.13511-0.0634 1.6582-0.0634 1.5228 0 1.5228 0 1.6582 0.0634 0.17863 0.0838 0.29046 0.18526 0.37792 0.34307 0.07177 0.12958 0.07177 0.12958 0.07827 0.6656 0.0035 0.29477 0.01186 0.56009 0.01845 0.58971 0.01195 0.0537 0.01195 0.0537 0.87061 0.0609 0.85256 7e-3 0.85934 8e-3 0.95066 0.0644 0.14593 0.0907 0.176 0.17045 0.176 0.46692 0 0.25606 0 0.25606-0.13905 0.46523-0.27642 0.41556-0.75862 0.8072-1.3499 1.0963-0.46292 0.22629-1.2473 0.46029-1.6397 0.48914-0.10773 8e-3 -0.1082 8e-3 -0.12808-0.086-0.0289-0.13633-0.08814-0.22336-0.19127-0.28136-0.08521-0.0479-0.12708-0.051-0.68104-0.051-0.55223 0-0.59604 4e-3 -0.68025 0.0506-0.10621 0.0597-0.14629 0.1176-0.18418 0.26609-0.02846 0.11144-0.04726 0.12395-0.15888 0.10577zm2.138-2.9509c-7e-3 -0.3594-7e-3 -0.3594-1.1153-0.3594-1.1086 0-1.1086 0-1.1153 0.3594-7e-3 0.35941-7e-3 0.35941 1.1153 0.35941 1.122 0 1.122 0 1.1153-0.35941zm-6.5943 1.5888c-0.42312-0.0933-0.68088-0.22474-0.92938-0.47355-0.30126-0.30172-0.43978-0.64648-0.49238-1.2254-0.07528-0.82896 0.14722-1.8109 0.58045-2.5622 0.43238-0.74922 1.1304-1.4248 1.8418-1.7832 0.09244-0.0466 0.16166-0.0949 0.15393-0.10753-0.0088-0.0136-0.17415-0.0177-0.40908-0.0102-0.39489 0.0127-0.39489 0.0127-0.2974-0.067 0.20608-0.16875 0.45181-0.43453 0.57259-0.61933 0.31807-0.48667 0.55038-1.1637 0.68041-1.9837 0.07924-0.49947 0.099-0.82448 0.09911-1.632 1.58e-4 -1.2218 0.09058-1.9266 0.34553-2.6917 0.22475-0.67516 0.52662-1.1805 0.96856-1.6212 0.49932-0.49777 1.0266-0.77806 1.7246-0.91703 0.32486-0.0647 1.0088-0.0582 1.3405 0.0127 0.66977 0.14307 1.1765 0.41849 1.6644 0.9047 0.69274 0.69028 1.0787 1.5904 1.2553 2.9293 0.02776 0.2101 0.04541 0.6272 0.05938 1.396 0.02082 1.1486 0.03742 1.3537 0.1578 1.9498 0.21965 1.0864 0.59665 1.8063 1.1817 2.2583 0.0853 0.0659 0.0853 0.0659 0.01871 0.067-0.03663 7.1e-4 -0.23262-0.0261-0.43546-0.0594-0.20285-0.0333-0.44148-0.0665-0.53032-0.0738-0.16151-0.0133-0.16151-0.0133 0.15518 0.14147 0.91596 0.44733 1.5688 1.0354 2.0577 1.8526 0.56241 0.93956 0.78192 2.2583 0.52401 3.1468-0.09065 0.31237-0.18928 0.48405-0.40075 0.6977-0.1445 0.14593-0.22768 0.20655-0.39073 0.28505-0.25375 0.12211-0.53881 0.20223-0.73887 0.20778-0.15042 4e-3 -0.15042 4e-3 -0.16413-0.5928-0.01054-0.46059-0.02249-0.61963-0.05218-0.69614-0.16521-0.42559-0.46786-0.72961-0.86906-0.87308-0.1113-0.0398-0.22136-0.0515-0.58524-0.0622-0.36496-0.0107-0.4515-0.0199-0.466-0.0497-0.0098-0.0201-0.03619-0.13521-0.05868-0.25574-0.02776-0.14953-0.07598-0.29232-0.15164-0.44874-0.09394-0.19436-0.14497-0.26361-0.33381-0.45335-0.18557-0.18649-0.26038-0.24248-0.44672-0.33503-0.40692-0.20208-0.38964-0.20038-2.1518-0.20038-1.7631 0-1.7462-2e-3 -2.1518 0.20114-0.18418 0.0921-0.26315 0.15117-0.4461 0.33381-0.18928 0.18896-0.23879 0.25606-0.33381 0.45258-0.07625 0.15765-0.12442 0.30018-0.15228 0.44997-0.0224 0.12058-0.04884 0.23568-0.05868 0.25574-0.01458 0.0297-0.10174 0.0392-0.466 0.0507-0.49778 0.0156-0.59742 0.0373-0.83806 0.18141-0.2684 0.16088-0.48251 0.41524-0.60112 0.7145-0.04963 0.1251-0.05578 0.19159-0.06782 0.73455-0.01326 0.59697-0.01326 0.59697-0.11071 0.60159-0.05358 3e-3 -0.16752-0.0107-0.25312-0.0296zm5.7043-6.7116c0.75755-0.0868 1.4259-0.54451 1.9559-1.3397 0.37345-0.55979 0.65172-1.288 0.77744-2.0346 0.02714-0.16151 0.11139-0.90007 0.11139-0.9772 0-0.0319-0.15502-0.0619-0.62133-0.12058-0.29478-0.0371-0.54576-0.0759-0.55763-0.0864-0.01195-0.0104 0.0181-0.0564 0.06659-0.10211 0.19528-0.18418 0.24234-0.49732 0.12851-0.85596-0.05965-0.18788-0.17138-0.40398-0.20886-0.40398-0.01168 0-0.18942 0.11261-0.39488 0.25019-0.49685 0.33273-0.89575 0.56843-1.3971 0.82542-0.92305 0.47325-1.5564 0.69321-2.6532 0.92073-0.4407 0.0915-0.4407 0.0915-0.43361 0.21087 0.01985 0.3392 0.16227 0.96454 0.31159 1.3679 0.49253 1.3308 1.4211 2.2243 2.4341 2.3431 0.24434 0.0285 0.24696 0.0285 0.48173 2e-3z" style="fill:#fff;stroke-width:.024372"/></g><g transform="translate(-2.1444 6.7309)"><g transform="matrix(.87844 0 0 .87844 -205.35 372.13)"><text x="262.61154" y="122.26565" style="fill:#000000;font-family:Arial;font-size:4.233px;letter-spacing:0px;line-height:0.5;stroke-width:.2646;text-anchor:middle;word-spacing:0px" xml:space="preserve"><tspan x="263.19858" y="122.26565" text-align="center" style="line-height:0.5;text-align:center">Club de </tspan><tspan x="262.61154" y="127.55732" text-align="center" style="line-height:0.5;text-align:center">Networking</tspan></text><g transform="translate(162.05 -60.38)" style="fill:url(#a)"><ellipse cx="100.1" cy="163.2" rx="14.74" ry="14.34" style="fill:url(#a);opacity:.993"/></g><g transform="matrix(.1756 0 0 .1756 240.25 125.32)" style="fill:#fff;stroke-width:.3387"><path d="m113.1-180.6c-0.7515-0.0315-1.563 0.2017-2.398 0.7106-2.026 1.235-2.096 1.733-2.096 14.89s0.0697 13.66 2.096 14.89c1.358 0.8277 3.059 0.8798 4.325 0.1323v-5.2e-4c2.071-1.223 2.204-1.85 2.327-10.96 0.079-5.853 0.2285-8.368 0.508-8.546 0.4724-0.3005 15.51-0.3526 16.29-0.0563 0.4678 0.1795 0.5354 1.232 0.5354 8.308 0 9.048 0.1694 9.945 2.097 11.12 1.338 0.8156 2.661 0.8709 4.133 0.1726 2.236-1.061 2.238-1.073 2.238-15.21 0-12.74 1.6e-4 -12.74-1.101-13.94-0.821-0.8959-1.465-1.25-2.533-1.393-1.811-0.2429-2.875 0.4079-3.849 2.355-0.9829 1.965-2.855 3.858-4.879 4.932-1.473 0.782-2.09 0.8987-4.741 0.8956-2.504-3e-3 -3.334-0.1449-4.652-0.7943-2.043-1.007-4.15-3.111-5.211-5.205-0.7463-1.473-1.832-2.261-3.085-2.313z"/><path d="m82.46-159.6c-2.313 0-4.039 1.8-4.039 4.213 0 0.9587 0.3293 1.562 1.647 3.017 2.107 2.327 2.925 4.426 2.925 7.509 0 5.325-3.939 9.83-9.229 10.56-2.531 0.3468-3.805 2.112-3.334 4.62 0.4282 2.283 1.302 2.716 13.46 6.663 6.213 2.017 11.68 3.68 12.15 3.695 0.4686 0.0155 1.375-0.2528 2.015-0.5958 2.436-1.306 2.978-4.31 1.167-6.462-0.7269-0.8638-2-1.382-8.792-3.577-4.368-1.412-7.942-2.744-7.942-2.961 0-0.8652 5.122-16.18 5.412-16.18 0.1707 0 3.592 1.067 7.603 2.37 8.663 2.816 9.85 2.941 11.57 1.219 1-1 1.151-1.372 1.151-2.833 0-1.751-0.7289-3.107-2.051-3.815-1.372-0.7345-22.74-7.44-23.71-7.44z"/><path d="m169.2-159.6c-1.396 0-22.94 6.922-24.05 7.727-0.4657 0.3379-1.133 1.191-1.483 1.895-0.5416 1.09-0.5787 1.474-0.248 2.578 0.5517 1.841 2.092 3.04 3.906 3.04 0.8664 0 4.407-0.9568 8.835-2.387 6.004-1.94 7.466-2.305 7.797-1.947 0.3727 0.4025 5.238 15.12 5.238 15.84 0 0.1727-3.548 1.459-7.885 2.859-8.897 2.872-9.681 3.346-9.952 6.013-0.2461 2.417 1.718 4.639 4.121 4.662 0.3725 4e-3 5.837-1.656 12.14-3.687 7.5-2.416 11.74-3.948 12.25-4.429 2.694-2.531 1.482-6.412-2.154-6.895-3.486-0.4624-6.775-2.944-8.303-6.263-0.5576-1.211-0.7191-2.217-0.7152-4.444 6e-3 -3.4 0.7461-5.251 3.094-7.736 1.134-1.2 1.466-1.811 1.466-2.698 0-2.223-1.873-4.128-4.058-4.128z"/><path d="m151-117.1c-0.4113 0.0141-0.8272 0.1274-1.313 0.2873-2.358 0.7772-3.619 3.824-2.448 5.916 0.2262 0.4041 2.697 3.346 5.491 6.538s5.08 6.019 5.08 6.282c0 0.4793-12.13 11.34-12.66 11.34-0.1566 0-2.758-2.818-5.781-6.262-4.567-5.203-5.718-6.328-6.807-6.654-3.235-0.9693-6.391 2.481-5.173 5.655 0.1233 0.3214 3.788 4.639 8.143 9.595 5.513 6.273 8.3 9.189 9.174 9.598 1.349 0.6318 2.749 0.5328 4.042-0.2858 0.4152-0.2629 0.9954-0.9431 1.289-1.512 0.4502-0.8707 0.4684-1.23 0.1142-2.283-1.454-4.321 0.5983-9.997 4.509-12.47 3.001-1.895 6.632-2.172 10.17-0.7762 1.48 0.5833 1.754 0.5993 2.807 0.1597 2.221-0.928 3.233-4.049 1.941-5.984-0.3247-0.4861-4.019-4.791-8.21-9.566-6.889-7.849-8.585-9.643-10.37-9.581z"/><path d="m99.82-117.1c-0.4952-9e-3 -1.001 0.0801-1.497 0.2873-1.395 0.583-16.64 17.64-17.43 19.51-0.6576 1.546-0.1318 3.363 1.33 4.593 1.196 1.006 2.005 1.007 5.351 0.0052 6.033-1.807 12.69 2.666 13.45 9.029 0.1092 0.9219-2e-3 2.738-0.247 4.036-0.4173 2.212-0.4027 2.417 0.2284 3.278 0.6715 0.9161 2.606 2.103 3.43 2.104 0.2388 2.91e-4 0.9428-0.2119 1.565-0.4718v-5.19e-4c1.505-0.6287 17.01-18.19 17.45-19.76 0.4213-1.503-0.0828-3.123-1.35-4.337-0.8489-0.8133-1.332-0.9963-2.627-0.9963-1.056 0-1.869 0.2203-2.433 0.6594-0.4657 0.3627-3.141 3.258-5.946 6.434s-5.275 5.775-5.491 5.775c-0.6182 0-12.61-10.66-12.61-11.21 0-0.2716 2.307-3.117 5.126-6.323s5.349-6.356 5.621-6.999c1.121-2.648-1.246-5.56-3.92-5.609z"/></g><g transform="matrix(.1756 0 0 .1756 240.25 125.32)" style="fill:#fff;stroke-width:1.51;stroke:#fff"><circle cx="182.9" cy="-146.2" r="9.958" style="opacity:.993"/><circle cx="125.9" cy="-186.6" r="9.958" style="opacity:.993"/><circle cx="163.4" cy="-79.35" r="9.958" style="opacity:.993"/><circle cx="87.16" cy="-79.04" r="9.958" style="opacity:.993"/><circle cx="67.77" cy="-146.1" r="9.958" style="opacity:.993"/></g></g><g transform="translate(0 -2.7236)"><text x="58.416553" y="482.47086" style="fill:#000000;font-family:Arial;font-size:3.7184px;letter-spacing:0px;line-height:0.5;stroke-width:.23243;text-anchor:middle;word-spacing:0px" xml:space="preserve"><tspan x="58.416553" y="482.47086" text-align="center" style="line-height:0.5;stroke-width:.23243;text-align:center">Convenios</tspan><tspan x="58.416553" y="487.11926" text-align="center" style="line-height:0.5;stroke-width:.23243;text-align:center">con Empresas</tspan></text><g transform="translate(.24658 -.18709)"><g transform="matrix(.87844 0 0 .87844 -29.75 322)" style="fill:url(#a)"><ellipse cx="100.1" cy="163.2" rx="14.74" ry="14.34" style="fill:url(#a);opacity:.993"/></g><g transform="matrix(.15425 0 0 .15425 12.39 518.78)" style="fill:#fff"><path d="m312.2-292.3c-11.57-1.018-23.9-5.354-25.79-9.074-2.055-4.027 3.013-13.28 9.693-17.69 3.306-2.185 7.553-4.291 8.65-4.291 0.2523 0 2.272 3.207 5.692 9.041 2.916 4.972 5.387 9.041 5.493 9.041 0.2341 0 0.3696-1.191 0.8519-7.491l0.3744-4.89-1.144-2.728c-1.543-3.677-1.756-3.469 3.544-3.464 5.59 5e-3 5.317-0.237 3.783 3.344l-1.257 2.936 0.3895 5.094c0.6391 8.358 0.5354 8.093 2.116 5.403 7.296-12.41 9.701-16.29 10.12-16.29 0.7041 0 5.873 2.616 8.13 4.115 8.899 5.91 13.29 16.14 8.443 19.68-7.205 5.265-24.73 8.521-39.08 7.258zm28.11-10.37v-1.238l-4.55-0.0676c-5.06-0.0751-5.234-0.0278-5.234 1.419 0 1.299-0.1387 1.267 5.062 1.193l4.722-0.0672zm-90.23 6.459-0.9252-0.8479-0.0637-49.19c-0.071-54.73-0.2082-50.39 1.612-50.9 0.5662-0.1573 4.518-0.2584 10.13-0.2592 8.16 0 9.217-0.0457 9.35-0.3932 0.0827-0.2155 0.1503-1.715 0.1503-3.332 0-5.377-1.47-4.945 16.83-4.945h14.87l0.8089 0.7219c0.8089 0.7219 0.8089 0.7219 0.9327 4.273l0.1239 3.551 9.963 0.1239c9.96 0.1238 9.963 0.124 10.53 0.6879 0.5772 0.5772 1.066 29 0.5079 29.56-0.1054 0.1054-0.6932 0.0728-1.306-0.0724-19.7-4.666-33.94 22.91-19.2 37.19 1.259 1.22 1.273 1.206-3.274 3.299l-4.149 1.91-19.32 0.125-0.1424 4.582h6.063c5.054 0.0192 7.208-0.5752 4.041 2.477h-4.026c-5.095 0-4.326-1.019-4.326 11.54v10.75h-28.24zm13.26-19.42c0.2426-0.154 0.2991-1.55 0.2477-6.127l-0.0666-5.927-2.083-0.2027c-3.537-0.3442-3.242-0.9-3.242 6.111 0 3.312 0.0744 6.097 0.1651 6.188 0.2348 0.2348 4.601 0.1981 4.979-0.0421zm6.849 0.0567c0.3424-0.1314 0.3918-0.9109 0.3918-6.188 0-7.028 0.2952-6.47-3.242-6.126l-2.083 0.2027-0.0666 5.927c-0.0513 4.577 5e-3 5.973 0.2477 6.127 0.3663 0.2325 4.176 0.2779 4.752 0.0567zm-7.023-27.85c0.67-0.3586 0.7529-11.97 0.0873-12.23-0.5089-0.1952-4.157-0.1952-4.666 0-0.522 0.2003-0.6014 12.11-0.0822 12.32 0.5836 0.2355 4.181 0.1642 4.661-0.0923zm6.981 0.0973c0.6305-0.1774 0.6708-12.08 0.0416-12.32-0.7254-0.2784-4.45-0.1634-4.76 0.1469-0.416 0.416-0.4224 11.62-6e-3 12.03 0.2875 0.2875 3.832 0.3962 4.726 0.145zm16.29-0.0911c0.4677-0.2503 0.4907-0.5344 0.4907-6.044 0-6.841 0.2184-6.385-3.009-6.286l-2.316 0.0715-0.0665 6.051c-0.0444 4.028 0.0206 6.105 0.1936 6.212 0.4458 0.2755 4.191 0.2719 4.708-4e-3zm7.117 0.0553c0.5195-0.1775 0.4399-12.09-0.0822-12.29-0.7254-0.2784-4.45-0.1634-4.76 0.1469-0.5369 0.5369-0.4105 11.75 0.1362 12.08 0.4061 0.2466 4.026 0.2942 4.706 0.0617zm-30.3-25.72c0.593-0.2276 0.593-12.1 0-12.33-0.5089-0.1953-4.157-0.1953-4.666 0-0.522 0.2003-0.6014 12.11-0.0822 12.32 0.4473 0.1805 4.284 0.1916 4.748 0.0134zm6.935 0c0.593-0.2276 0.593-12.1 0-12.33-0.6475-0.2485-4.064-0.1693-4.578 0.1061-0.5991 0.3207-0.7609 11.97-0.1695 12.21 0.4473 0.1805 4.284 0.1916 4.748 0.0134zm16.44-0.1469c0.5745-0.5745 0.406-11.76-0.1819-12.08-0.5146-0.2754-3.931-0.3546-4.578-0.1061-0.4081 0.1566-0.6246 11.92-0.2267 12.32 0.3 0.3 4.671 0.1842 4.987-0.1321zm6.841 0.1469c0.593-0.2276 0.593-12.1 0-12.33-0.7254-0.2783-4.45-0.1634-4.76 0.1469-0.4219 0.4219-0.4219 11.62 0 12.04 0.3103 0.3103 4.035 0.4252 4.76 0.1469zm16.62-6.29v-6.068h-5.202l-0.0667 5.816c-0.0821 7.163-0.374 6.478 2.725 6.392l2.543-0.0707zm7.143 5.759c0.1565-0.5784 0.161-10.97 5e-3 -11.52-0.1846-0.6543-5.199-0.6543-5.371 0-0.0993 0.3777-0.0619 10.82 0.0416 11.64 0.0685 0.5457 5.175 0.4269 5.324-0.1238zm-0.3316 41.55c-11.08-1.934-17.25-14.7-12.28-25.38 6.522-14.01 26.2-12.59 31.01 2.229 4.062 12.49-6.323 25.32-18.74 23.15z" style="fill:#fff;stroke-width:.2477"/></g></g></g></g><text x="39.521057" y="401.26724" font-size="10.58px" letter-spacing="0px" word-spacing="0px" style="fill:#000000;font-family:sans-serif;font-size:9.6253px;letter-spacing:0px;line-height:0.5;stroke-width:.24072;word-spacing:0px" xml:space="preserve"><tspan x="39.521057" y="401.26724" font-size="5.292px" font-weight="bold" text-align="center" style="fill:#ffffff;font-family:Arial;font-size:4.8144px;font-weight:bold;line-height:1;stroke-width:.24072;text-align:center;text-anchor:middle">RED DE CONTACTOS</tspan></text></svg>
