<?xml version="1.0" encoding="UTF-8" standalone="no"?>
<!-- Created with Inkscape (http://www.inkscape.org/) -->

<svg
   xmlns:dc="http://purl.org/dc/elements/1.1/"
   xmlns:cc="http://creativecommons.org/ns#"
   xmlns:rdf="http://www.w3.org/1999/02/22-rdf-syntax-ns#"
   xmlns:svg="http://www.w3.org/2000/svg"
   xmlns="http://www.w3.org/2000/svg"
   xmlns:sodipodi="http://sodipodi.sourceforge.net/DTD/sodipodi-0.dtd"
   xmlns:inkscape="http://www.inkscape.org/namespaces/inkscape"
   width="187.41324mm"
   height="197.66798mm"
   viewBox="0 0 187.41324 197.66799"
   version="1.1"
   id="svg8"
   inkscape:version="0.92.4 (5da689c313, 2019-01-14)"
   sodipodi:docname="round1.svg">
  <defs
     id="defs2" />
  <sodipodi:namedview
     id="base"
     pagecolor="#ffffff"
     bordercolor="#666666"
     borderopacity="1.0"
     inkscape:pageopacity="0.0"
     inkscape:pageshadow="2"
     inkscape:zoom="0.49497474"
     inkscape:cx="83.388149"
     inkscape:cy="415.72714"
     inkscape:document-units="mm"
     inkscape:current-layer="layer1"
     showgrid="false"
     fit-margin-top="0"
     fit-margin-left="0"
     fit-margin-right="0"
     fit-margin-bottom="0"
     inkscape:window-width="1920"
     inkscape:window-height="1005"
     inkscape:window-x="0"
     inkscape:window-y="0"
     inkscape:window-maximized="1" />
  <metadata
     id="metadata5">
    <rdf:RDF>
      <cc:Work
         rdf:about="">
        <dc:format>image/svg+xml</dc:format>
        <dc:type
           rdf:resource="http://purl.org/dc/dcmitype/StillImage" />
        <dc:title></dc:title>
      </cc:Work>
    </rdf:RDF>
  </metadata>
  <g
     inkscape:label="Capa 1"
     inkscape:groupmode="layer"
     id="layer1"
     transform="translate(-13.875762,-64.608726)">
    <path
       id="rect847"
       style="fill:#444f66;fill-opacity:1;stroke:none;stroke-width:0.18089893"
       d="M 14.053495,155.46616 H 201.07171 c 0.0985,0 0.17773,0.0792 0.17773,0.17773 v 15.30027 c 0,0.0985 -0.0792,0.17773 -0.17773,0.17773 H 14.053495 c -0.09846,0 -0.177733,-0.0792 -0.177733,-0.17773 v -15.30027 c 0,-0.0985 0.07927,-0.17773 0.177733,-0.17773 z M 201.289,168.57009 c 0,51.75273 -41.95388,93.70661 -93.70661,93.70662 -51.752739,0 -93.706626,-41.95388 -93.706627,-93.70662 3e-6,-51.75274 41.953889,-64.07329 93.706627,-64.07328 51.75273,0 93.70661,12.32055 93.70661,64.07328 z m 0,-10.25475 c 0,51.75274 -41.95388,64.07328 -93.70661,64.07329 -51.752739,0 -93.706626,-12.32055 -93.706627,-64.07329 3e-6,-51.75273 41.953889,-93.706616 93.706627,-93.706614 51.75273,7e-6 93.70661,41.953884 93.70661,93.706614 z"
       inkscape:connector-curvature="0"
       sodipodi:nodetypes="sssssssssssssssssss" />
  </g>
</svg>
