<?xml version="1.0" encoding="UTF-8" standalone="no"?>
<svg
   xmlns:dc="http://purl.org/dc/elements/1.1/"
   xmlns:cc="http://creativecommons.org/ns#"
   xmlns:rdf="http://www.w3.org/1999/02/22-rdf-syntax-ns#"
   xmlns:svg="http://www.w3.org/2000/svg"
   xmlns="http://www.w3.org/2000/svg"
   xmlns:xlink="http://www.w3.org/1999/xlink"
   viewBox="0 0 1600 1334"
   height="1334"
   width="1600"
   id="svg2"
   version="1.1">
  <metadata
     id="metadata8">
    <rdf:RDF>
      <cc:Work
         rdf:about="">
        <dc:format>image/svg+xml</dc:format>
        <dc:type
           rdf:resource="http://purl.org/dc/dcmitype/StillImage" />
        <dc:title></dc:title>
      </cc:Work>
    </rdf:RDF>
  </metadata>
  <defs
     id="defs6">
    <linearGradient
       id="linearGradient829">
      <stop
         id="stop825"
         offset="0"
         style="stop-color:#e6e6e6;stop-opacity:1" />
      <stop
         id="stop827"
         offset="1"
         style="stop-color:#f0f0f0;stop-opacity:1" />
    </linearGradient>
    <linearGradient
       gradientUnits="userSpaceOnUse"
       y2="210.85675"
       x2="1271.0304"
       y1="878.3476"
       x1="735.43896"
       id="linearGradient831"
       xlink:href="#linearGradient829" />
  </defs>
  <path
     style="fill:url(#linearGradient831);stroke-width:0.92208898;fill-opacity:1"
     d="m 1217.5359,1279.7561 c -9.9311,-2.6012 -18.8937,-7.2592 -30.6977,-15.9539 -5.7563,-4.2401 -26.0261,-19.1048 -45.0442,-33.0328 -142.80501,-104.5839 -182.16182,-133.4197 -195.48287,-143.2256 -33.95667,-24.996 -90.98077,-66.6533 -93.27241,-68.1374 l -2.44659,-1.5845 -31.6707,29.7183 c -17.41888,16.3451 -37.8948,35.582 -45.50203,42.7487 -26.29742,24.7748 -105.17461,98.6978 -111.79385,104.7723 -12.94677,11.8811 -24.25195,16.0765 -41.22178,15.2976 -16.51478,-0.7579 -26.54113,-4.6546 -36.06796,-14.0173 -8.74223,-8.5917 -10.89672,-13.5257 -26.17177,-59.9358 -7.67823,-23.3288 -22.61893,-68.5573 -33.20166,-100.5077 -10.58263,-31.9505 -34.88419,-105.39487 -54.00343,-163.20985 -19.11924,-57.81497 -35.05026,-105.43019 -35.40222,-105.8116 -0.54053,-0.58566 -40.05877,-13.13272 -79.38255,-25.20397 -5.83221,-1.79032 -11.64137,-3.62084 -12.90925,-4.06782 -1.26787,-0.44698 -7.69944,-2.47507 -14.29237,-4.50686 -23.65122,-7.28877 -122.83526,-38.10908 -132.31977,-41.11687 -5.32507,-1.68872 -30.63641,-9.58687 -56.24743,-17.55146 -26.17433,-8.13975 -48.972147,-15.74999 -52.06133,-17.37878 -24.138996,-12.72744 -32.005521,-47.51747 -15.740425,-69.61206 8.457032,-11.4881 13.339677,-14.24049 48.753235,-27.48261 14.2803,-5.3398 49.82324,-18.63044 78.9843,-29.53475 61.43732,-22.97353 128.33128,-47.9733 182.11258,-68.05962 20.7931,-7.76585 56.68542,-21.17425 79.76069,-29.79644 23.07528,-8.6222 62.70205,-23.42839 88.0595,-32.90265 50.76167,-18.96601 320.24797,-119.50446 374.36813,-139.66717 189.82806,-70.72141 245.14076,-91.27796 348.54966,-129.53605 123.0339,-45.518731 148.6033,-54.908131 192.7166,-70.767901 27.4969,-9.88578 29.0958,-10.025928 42.1182,-3.691758 18.8404,9.164018 29.791,23.752708 30.9346,41.211538 0.4614,7.044631 2.1733,-1.66168 -25.1126,127.709321 -1.23,5.83222 -4.0939,19.52524 -6.364,30.42894 -4.81,23.10287 -22.6204,108.08106 -25.8965,123.55992 -1.2345,5.83222 -5.8061,27.61657 -10.1592,48.40967 -4.3531,20.79311 -10.5705,50.46132 -13.8164,65.92937 -22.1666,105.62918 -25.6131,122.07207 -34.1124,162.7487 -3.8452,18.40252 -11.7582,56.05776 -17.5363,83.44906 -1.2302,5.83221 -7.4495,35.50042 -13.8206,65.92936 -6.3711,30.42894 -12.594,60.09715 -13.8287,65.92936 -1.2346,5.83221 -4.3626,20.77006 -6.951,33.1952 -4.5603,21.8903 -16.1443,77.05922 -20.7169,98.66358 -1.2343,5.8322 -4.1016,19.5252 -6.3718,30.429 -2.2701,10.9037 -8.4863,40.5719 -13.8137,65.9294 -13.326,63.4295 -21.3657,101.7618 -24.6416,117.49 -8.1684,39.2154 -23.1147,56.874 -53.5591,63.2782 -9.2288,1.9414 -26.2737,1.679 -34.7244,-0.5343 z m -596.34,-216.4259 c 0.30539,-2.409 0.96567,-8.9443 1.46729,-14.5229 0.50161,-5.5787 1.31352,-14.2924 1.80425,-19.364 0.49074,-5.0715 1.54828,-16.0674 2.35012,-24.4354 1.35105,-14.09976 2.90144,-30.24316 5.09193,-53.02004 0.48774,-5.07149 1.52472,-15.86002 2.30441,-23.97437 0.7797,-8.11438 1.81705,-18.90282 2.30523,-23.97431 0.48818,-5.07149 1.51082,-15.85993 2.27254,-23.97431 0.76171,-8.11439 1.64181,-16.53079 1.95577,-18.70312 0.5499,-3.80487 1.57233,-4.85296 27.88509,-28.58476 70.3494,-63.44901 206.75327,-186.57885 221.89217,-200.29894 7.60724,-6.89427 44.32948,-40.09691 81.60492,-73.78363 136.08328,-122.98179 231.30098,-209.43749 274.94618,-249.64573 23.5755,-21.71889 26.5058,-24.7312 27.0203,-27.77576 1.4475,-8.56771 -4.8406,-14.74106 -15.4327,-15.15098 -3.4599,-0.13391 -5.5347,0.83588 -17.2928,8.08317 -34.1978,21.07821 -144.6996,91.10783 -283.07231,179.39507 -24.08958,15.37008 -52.72049,33.62815 -63.62419,40.57348 -10.9037,6.94533 -30.40588,19.39611 -43.33818,27.6684 -12.9323,8.2723 -30.15231,19.26562 -38.26669,24.42964 -8.11439,5.164 -35.7079,22.79363 -61.31892,39.17695 -25.61102,16.38332 -63.57804,40.65994 -84.37114,53.94803 -120.53552,77.02975 -146.76453,93.89737 -148.16647,95.28444 -1.45644,1.44096 -0.82684,3.91971 9.99351,39.3435 11.15174,36.50877 15.34125,50.23739 33.48584,109.72859 4.64032,15.21447 10.66913,34.92412 13.39731,43.79923 2.72821,8.87507 8.95366,29.20709 13.83433,45.18239 4.88067,15.9752 11.1585,36.51466 13.95071,45.64336 2.79222,9.1287 6.52823,21.3695 8.30224,27.2017 7.44599,24.4794 8.02235,25.6137 9.01926,17.7503 z"
     id="path819" />
</svg>
